<svg width="536" height="222" viewBox="0 0 536 222" fill="none" xmlns="http://www.w3.org/2000/svg">
<path d="M273 32C317.264 32.4635 353 68.1042 353 112C353 155.896 317.264 191.537 273 192L330.217 112L273 32Z" fill="#8F69FF"/>
<path d="M272.153 32.0066C308.042 32.5603 337 68.1625 337 112C337 155.838 308.042 191.44 272.153 191.993C271.869 191.997 271.585 192 271.302 192C228.058 192 193 156.182 193 112C193 67.8181 228.058 32 271.302 32C271.585 32 271.869 32.0031 272.153 32.0066ZM310.532 112C310.532 89.8641 292.968 71.9194 271.302 71.9194C249.636 71.9194 232.072 89.8641 232.072 112C232.072 134.136 249.636 152.081 271.302 152.081C292.968 152.081 310.532 134.136 310.532 112Z" fill="#3957FF"/>
<path d="M201.922 34.9688V130.828H223.25V157.312H201.922V192H171.922V157.312H105.828V138.094C118.641 124.031 131.531 108.641 144.5 91.9219C157.469 75.0469 169.812 56.0625 181.531 34.9688H201.922ZM171.922 94.0312C167.234 101.062 162.781 107.547 158.562 113.484C154.5 119.422 150.047 125.203 145.203 130.828H171.922V94.0312ZM405.312 34.9688V130.828H426.641V157.312H405.312V192H375.312V157.312H309.219V138.094C322.031 124.031 334.922 108.641 347.891 91.9219C360.859 75.0469 373.203 56.0625 384.922 34.9688H405.312ZM375.312 94.0312C370.625 101.062 366.172 107.547 361.953 113.484C357.891 119.422 353.438 125.203 348.594 130.828H375.312V94.0312Z" fill="white"/>
</svg>
