<?xml version="1.0" encoding="UTF-8" standalone="no"?><!DOCTYPE svg PUBLIC "-//W3C//DTD SVG 1.1//EN" "http://www.w3.org/Graphics/SVG/1.1/DTD/svg11.dtd"><svg width="100%" height="100%" viewBox="0 0 2074 2649" version="1.1" xmlns="http://www.w3.org/2000/svg" xmlns:xlink="http://www.w3.org/1999/xlink" xml:space="preserve" xmlns:serif="http://www.serif.com/" style="fill-rule:evenodd;clip-rule:evenodd;stroke-linejoin:round;stroke-miterlimit:2;"><path d="M1517.14,890.409c59.054,96.303 96.583,86.733 96.583,86.733c-2.638,-7.589 -5.701,-15.177 -9.158,-22.766c0,0 -11.519,16.469 -67.457,-69.181c-1.49,-2.291 -2.964,-4.643 -4.417,-6.967c-5.541,-8.864 -10.86,-19.826 -15.777,-29.401c-15.621,-30.125 -28.201,-64.013 -36.875,-99.187c-1.954,-7.658 -6.557,-15.839 -8.042,-23.595c-6.179,-30.938 -12.278,-63.711 -12.297,-97.068l-0.13,-221.726c-0.004,-7.156 2.715,-14.21 2.481,-21.165c-0.876,-21.06 -1.55,-41.72 -4.761,-61.874c-1.568,-9.377 -2.571,-18.547 -4.607,-27.717c-4.223,-19.346 -9.257,-38.092 -15.503,-56.127c-2.817,-7.76 -5.523,-15.805 -8.645,-23.355c-52.964,-128.87 -157.761,-217.083 -278.362,-217.013l-1014.57,0.593l-11.892,22.778l1026.47,-0.599c110.302,-0.065 206.848,78.423 258.161,194.094c3.36,7.557 6.483,15.436 9.456,23.294c6.715,17.937 12.425,36.786 16.961,56.236c2.185,9.065 4.066,18.401 5.634,27.771c3.442,20.057 2.836,40.842 3.712,61.902c0.316,7.052 -2.403,14.14 -2.399,21.192l0.132,225.86c0.019,31.845 6.191,62.783 11.744,92.507c1.411,7.859 4.488,15.517 6.293,23.175c8.124,34.967 20.487,67.917 35.097,98.346c4.529,9.472 9.73,22.097 14.885,31.064c2.368,4.167 4.789,8.14 7.277,12.196Z" style="fill:#ccc9c9;fill-rule:nonzero;"/><path d="M1011.39,1226.74l485.559,-0.462c-4.962,-7.536 -10.182,-14.235 -15.653,-20.096l-469.918,0.454c-65.156,0.038 -121.512,-47.135 -147.143,-115.634c-2.5,-6.491 -4.645,-13.015 -6.499,-19.867c-4.648,-17.036 -4.543,-35.097 -5.2,-53.802c-0.145,-3.074 2.737,-6.025 2.735,-9.099l-0.093,-160.361c-0.006,-10.186 -3.542,-20.287 -4.683,-30.121c-1.149,-11.065 -4.49,-26.376 -6.992,-36.829c-22.014,-94.295 -94.191,-168.063 -177.742,-168.014l-429.57,0.251l0.016,27.644l429.57,-0.251c72.643,-0.042 134.421,61.35 155.788,142.133c2.781,10.361 6.739,22.581 8.099,33.646c1.216,9.834 3.746,21.275 3.752,31.554l0.093,160.361c0.002,3.074 -1.805,6.149 -1.728,9.224c0.65,18.613 2.218,36.706 6.363,53.91c1.642,6.852 3.027,13.611 5.241,20.11c22.782,69.892 73.271,119.799 134.804,133.903c10.841,2.54 21.796,1.353 33.201,1.346Z" style="fill:#ccc9c9;fill-rule:nonzero;"/><path d="M0.015,1357.1l1895.17,1.107l-0.015,26.169l-1895.17,-1.106l0.015,-26.17Z" style="fill:#ccc9c9;fill-rule:nonzero;"/><path d="M1976.64,1473.04l96.684,0.056c-2.935,8.484 -6.342,16.967 -10.187,25.45l-86.511,-0.05c-103.703,-0.061 -196.658,64.45 -258.882,160.198c-1.657,2.56 -3.298,5.189 -4.913,7.788c-6.164,9.909 -12.081,22.163 -17.55,32.867c-17.377,33.676 -31.37,71.559 -41.019,110.879c-2.174,8.561 -7.295,17.707 -8.947,26.376c-6.873,34.586 -13.657,71.223 -13.679,108.512l-0.144,247.864c-0.005,7.999 3.02,15.885 2.759,23.66c-0.974,23.542 -1.724,46.637 -5.297,69.168c-1.744,10.482 -2.859,20.733 -5.125,30.984c-4.697,21.627 -10.296,42.582 -17.244,62.743c-3.134,8.676 -6.144,17.668 -9.617,26.109c-58.917,144.062 -175.49,242.675 -309.643,242.596l-1128.58,-0.659l-13.228,-25.464l1141.82,0.667c122.698,0.072 230.093,-87.669 287.173,-216.975c3.738,-8.449 7.211,-17.256 10.518,-26.04c7.47,-20.052 13.822,-41.123 18.867,-62.866c2.431,-10.134 4.523,-20.57 6.267,-31.044c3.829,-22.423 3.156,-45.657 4.13,-69.2c0.352,-7.883 -2.673,-15.807 -2.668,-23.691l0.147,-252.484c0.021,-35.6 6.886,-70.185 13.064,-103.413c1.569,-8.786 4.993,-17.346 7.001,-25.907c9.036,-39.089 22.789,-75.923 39.04,-109.94c5.039,-10.588 10.824,-24.701 16.558,-34.726c2.635,-4.658 5.327,-9.099 8.095,-13.633c65.691,-107.656 167.54,-179.892 281.108,-179.825Z" style="fill:#ccc9c9;fill-rule:nonzero;"/><path d="M966.38,1537.13l670.811,0.392c-4.534,6.115 -9.304,11.551 -14.303,16.307l-656.517,-0.384c-59.544,-0.034 -111.043,38.243 -134.461,93.83c-2.284,5.267 -4.245,10.561 -5.938,16.121c-4.247,13.825 -4.15,28.481 -4.749,43.661c-0.132,2.495 2.502,4.889 2.5,7.384l-0.076,130.135c-0.005,8.266 -3.235,16.462 -4.277,24.443c-1.05,8.979 -4.102,21.404 -6.388,29.887c-20.112,76.52 -86.066,136.379 -162.421,136.334l-392.565,-0.229l0.013,-22.433l392.566,0.229c66.385,0.039 122.838,-49.778 142.359,-115.334c2.541,-8.407 6.157,-18.324 7.399,-27.303c1.111,-7.98 3.422,-17.265 3.427,-25.606l0.076,-130.135c0.002,-2.494 -1.65,-4.99 -1.58,-7.485c0.593,-15.105 2.024,-29.788 5.811,-43.749c1.501,-5.56 2.766,-11.045 4.789,-16.319c20.815,-56.717 66.952,-97.213 123.183,-108.656c9.908,-2.06 19.919,-1.096 30.341,-1.09Z" style="fill:#ccc9c9;fill-rule:nonzero;"/></svg>