<svg width="903" height="508" viewBox="0 0 903 508" fill="none" xmlns="http://www.w3.org/2000/svg">
<path d="M442 254.635C461.784 260.457 484.248 255.077 500.364 243.453C516.48 231.826 526.765 214.688 532.387 196.809C538.006 178.931 539.317 160.187 540.116 141.594C540.742 126.989 541.897 110.677 553.923 100.885C563.744 92.8886 578.107 91.6198 591.409 91.0154C614.575 89.9583 637.796 89.7278 661 90.3182" stroke="#CCC9C9" stroke-width="2" stroke-miterlimit="2" stroke-linecap="round" stroke-dasharray="4 4"/>
<path d="M442 301.365C468.48 295.543 498.548 300.923 520.119 312.548C541.69 324.174 555.456 341.313 562.98 359.191C570.501 377.069 572.256 395.813 573.326 414.406C574.164 429.011 575.71 445.323 591.807 455.115C604.952 463.112 624.176 464.38 641.98 464.985C672.987 466.042 704.069 466.272 735.126 465.682" stroke="#CCC9C9" stroke-width="2" stroke-miterlimit="2" stroke-linecap="round" stroke-dasharray="4 4"/>
<path d="M115.506 238.944L206 238.853C205.267 237.368 204.496 236.048 203.688 234.894L198.074 234.901L115.504 234.983C105.88 234.99 97.5555 225.696 93.7697 212.199C93.4004 210.921 93.0834 209.635 92.8096 208.285C92.123 204.928 92.1385 201.37 92.0416 197.684C92.0202 197.079 92.4459 196.497 92.4456 195.892L92.4317 164.296C92.4309 162.288 91.9087 160.298 91.74 158.361C91.5703 156.181 91.0768 153.164 90.7072 151.104C87.4555 132.525 76.7942 117.991 64.4526 118L1 118.049L1.00251 123.496L64.4549 123.447C75.1853 123.438 84.3107 135.535 87.4668 151.452C87.8775 153.493 88.4623 155.901 88.6632 158.081C88.8428 160.019 89.2164 162.273 89.2172 164.298L89.2311 195.894C89.2314 196.5 88.9645 197.106 88.9757 197.711C89.0717 201.379 89.3034 204.944 89.9156 208.334C90.1583 209.683 90.3629 211.015 90.6898 212.296C94.0549 226.067 101.513 235.9 110.602 238.679C112.203 239.179 113.822 238.946 115.506 238.944Z" fill="#CCC9C9"/>
<path d="M1.00162 254L206 254.041L205.998 255L1 254.959L1.00162 254Z" fill="#CCC9C9"/>
<path d="M207.066 282L218 282.013C217.668 283.644 217.283 285.276 216.848 286.907L207.065 286.896C195.337 286.882 184.826 299.287 177.79 317.7C177.603 318.192 177.417 318.698 177.235 319.198C176.538 321.103 175.869 323.46 175.25 325.518C173.285 331.995 171.703 339.28 170.612 346.842C170.367 348.488 169.788 350.247 169.601 351.914C168.824 358.565 168.057 365.611 168.055 372.783L168.041 420.451C168.04 421.99 168.383 423.506 168.353 425.002C168.243 429.529 168.159 433.971 167.755 438.304C167.558 440.32 167.432 442.291 167.175 444.262C166.644 448.422 166.011 452.452 165.226 456.329C164.872 457.997 164.531 459.727 164.139 461.35C157.477 489.054 144.295 508.017 129.124 508L1.49625 507.853L0 502.956L129.125 503.104C143.001 503.12 155.145 486.248 161.599 461.381C162.021 459.756 162.414 458.063 162.788 456.373C163.633 452.517 164.351 448.465 164.921 444.284C165.196 442.334 165.432 440.328 165.63 438.313C166.062 434.001 165.986 429.533 166.096 425.005C166.136 423.489 165.794 421.965 165.794 420.449L165.808 371.891C165.811 365.045 166.587 358.394 167.285 352.004C167.462 350.314 167.849 348.668 168.076 347.021C169.098 339.504 170.653 332.42 172.49 325.879C173.06 323.842 173.714 321.128 174.362 319.201C174.66 318.305 174.965 317.451 175.278 316.579C182.706 295.876 194.223 281.985 207.066 282H207.066Z" fill="#CCC9C9"/>
<path d="M207.066 226L218 225.988C217.668 224.363 217.283 222.739 216.848 221.115L207.065 221.126C195.337 221.139 184.826 208.789 177.79 190.458C177.603 189.968 177.417 189.464 177.235 188.967C176.538 187.07 175.869 184.724 175.25 182.674C173.285 176.227 171.703 168.974 170.612 161.445C170.367 159.806 169.788 158.055 169.601 156.395C168.824 149.773 168.057 142.759 168.055 135.619L168.041 88.1612C168.04 86.6298 168.383 85.12 168.353 83.6312C168.243 79.1236 168.159 74.7016 167.755 70.388C167.558 68.3809 167.432 66.4181 167.175 64.4555C166.644 60.3148 166.011 56.3027 165.226 52.4426C164.872 50.7816 164.531 49.0599 164.139 47.4438C157.477 19.8617 144.295 0.98275 129.124 1.00001L1.49625 1.14584L0 6.02154L129.125 5.87414C143.001 5.85821 155.145 22.6559 161.599 47.4126C162.021 49.0302 162.414 50.7164 162.788 52.3983C163.633 56.2374 164.351 60.2717 164.921 64.4345C165.196 66.375 165.432 68.373 165.63 70.3785C166.062 74.6715 165.986 79.1203 166.096 83.6279C166.136 85.1373 165.794 86.6546 165.794 88.1639L165.808 136.506C165.811 143.323 166.587 149.944 167.285 156.306C167.462 157.988 167.849 159.627 168.076 161.267C169.098 168.751 170.653 175.803 172.49 182.315C173.06 184.343 173.714 187.045 174.362 188.964C174.66 189.856 174.965 190.706 175.278 191.574C182.706 212.186 194.223 226.015 207.066 226H207.066Z" fill="#CCC9C9"/>
<path d="M106.292 271.051L206 271.137C205.326 272.487 204.617 273.687 203.874 274.737L106.291 274.652C97.4406 274.644 89.7859 283.094 86.3051 295.363C85.9656 296.526 85.6741 297.695 85.4223 298.922C84.7912 301.973 84.8056 305.209 84.7166 308.559C84.697 309.11 85.0883 309.639 85.0882 310.189L85.0769 338.914C85.0762 340.739 84.5961 342.548 84.441 344.309C84.2851 346.292 83.8315 349.034 83.4917 350.906C80.5023 367.797 70.6989 381.01 59.3499 381L1 380.949L1.00192 375.998L59.3518 376.048C69.2192 376.057 77.6101 365.06 80.5118 350.59C80.8893 348.734 81.427 346.546 81.6116 344.564C81.7767 342.802 82.1202 340.753 82.121 338.911L82.1322 310.187C82.1324 309.636 81.887 309.085 81.8972 308.534C81.9854 305.2 82.1982 301.959 82.7611 298.878C82.9842 297.65 83.1723 296.44 83.4728 295.275C86.5669 282.756 93.4246 273.817 101.783 271.292C103.255 270.837 104.743 271.05 106.292 271.051Z" fill="#CCC9C9"/>
<path d="M270.46 157.958C273.121 163.858 268.962 173.309 261.171 179.068C253.379 184.827 244.906 184.712 242.245 178.812C239.584 172.911 243.743 163.46 251.534 157.7C259.326 151.942 267.799 152.058 270.46 157.958Z" fill="#CCC9C9"/>
<path d="M339.848 145.291C339.399 149.155 334.9 151.5 329.798 150.529C324.696 149.557 320.925 145.638 321.373 141.774C321.822 137.911 326.321 135.566 331.423 136.537C336.524 137.508 340.297 141.427 339.848 145.291Z" fill="#CCC9C9"/>
<path d="M246.826 202.186C242.039 202.186 238.159 197.219 238.159 191.09C238.159 184.963 242.039 179.995 246.826 179.995C251.613 179.995 255.493 184.963 255.493 191.09C255.493 197.219 251.613 202.186 246.826 202.186ZM267.817 184.354H263.507C263.201 183.104 262.81 181.901 262.342 180.757L265.391 176.854C266.147 175.881 266.147 174.311 265.391 173.343L260.689 167.327C259.933 166.356 258.706 166.356 257.95 167.327L254.901 171.23C254.007 170.631 253.065 170.128 252.088 169.734V164.219C252.088 162.846 251.221 161.737 250.149 161.737H243.503C242.431 161.737 241.565 162.846 241.565 164.219V169.734C240.587 170.128 239.645 170.631 238.751 171.23L235.702 167.327C234.946 166.356 233.719 166.356 232.963 167.327L228.261 173.343C227.505 174.311 227.505 175.881 228.261 176.854L231.31 180.757C230.842 181.901 230.452 183.104 230.144 184.354H225.835C224.763 184.354 223.896 185.468 223.896 186.836V195.344C223.896 196.717 224.763 197.826 225.835 197.826H230.144C230.452 199.077 230.845 200.283 231.31 201.428L228.261 205.331C227.505 206.299 227.505 207.87 228.261 208.841L232.963 214.857C233.719 215.824 234.946 215.824 235.702 214.857L238.751 210.953C239.645 211.549 240.587 212.052 241.565 212.446V217.962C241.565 219.335 242.431 220.444 243.503 220.444H250.149C251.221 220.444 252.088 219.335 252.088 217.962V212.446C253.065 212.052 254.007 211.549 254.901 210.953L257.95 214.857C258.706 215.824 259.933 215.824 260.689 214.857L265.391 208.841C266.147 207.87 266.147 206.299 265.391 205.331L262.342 201.428C262.807 200.283 263.201 199.077 263.507 197.826H267.817C268.888 197.826 269.755 196.717 269.755 195.344V186.836C269.755 185.468 268.888 184.354 267.817 184.354Z" fill="#101420"/>
<path d="M246.828 173.591C239.289 173.591 233.156 181.442 233.156 191.093C233.156 200.744 239.289 208.595 246.828 208.595C254.367 208.595 260.499 200.744 260.499 191.093C260.499 181.442 254.367 173.591 246.828 173.591ZM246.828 210.501C238.468 210.501 231.667 201.795 231.667 191.093C231.667 180.392 238.468 171.685 246.828 171.685C255.187 171.685 261.988 180.392 261.988 191.093C261.988 201.795 255.187 210.501 246.828 210.501Z" fill="white"/>
<path d="M296.034 196.137C290.795 196.137 286.534 190.682 286.534 183.975V178.38H289.656V183.975C289.656 188.478 292.518 192.139 296.034 192.139C299.55 192.139 302.411 188.478 302.411 183.975V166.295C302.411 159.589 306.673 154.134 311.911 154.134H315.4C320.638 154.134 324.9 159.589 324.9 166.295V211.345H321.777V166.295C321.777 161.794 318.917 158.132 315.4 158.132H311.911C308.394 158.132 305.534 161.794 305.534 166.295V183.975C305.534 190.682 301.272 196.137 296.034 196.137Z" fill="white"/>
<path d="M303.321 138.489C303.321 127.265 295.912 118.257 287.013 119.044C279.559 119.703 273.497 127.387 272.915 136.924C272.637 141.49 273.589 145.757 275.391 149.238C278.458 155.162 280.094 162.111 280.094 169.219V169.219H296.094C296.094 162.163 297.651 155.215 300.731 149.364C302.366 146.258 303.321 142.517 303.321 138.489Z" fill="#FF7B47"/>
<path d="M293.743 143.721H291.156V140.507H293.743V143.721ZM285.038 143.721H282.45V140.507H285.038V143.721ZM289.743 138.699V143.721H286.45V138.699H281.038V145.528H285.038V171.733H286.45V145.528H289.743V171.733H291.156V145.528H295.156V138.699H289.743Z" fill="white"/>
<path d="M291.859 178.958H284.33V183.576H291.859V178.958Z" fill="#101420"/>
<path d="M292.771 181.068H283.418C281.583 181.068 280.094 179.163 280.094 176.813V169.221H296.094V176.813C296.094 179.163 294.606 181.068 292.771 181.068Z" fill="#434241"/>
<path d="M442.19 239.139L420.752 244.172L425.454 251.247L411.197 266.777L394.614 243.076L366.387 273.578L371.086 280.705L393.907 256.045L410.509 279.773L430.176 258.35L434.878 265.424L442.19 239.139Z" fill="#1E1C1B"/>
<path d="M430.976 213.977L413.9 217.985L417.645 223.62L406.288 235.992L393.079 217.112L370.594 241.409L374.337 247.086L392.516 227.444L405.74 246.344L421.406 229.279L425.151 234.914L430.976 213.977Z" fill="#434241"/>
<path d="M422.173 323.183H420.611C419.749 323.183 419.049 324.078 419.049 325.182C419.049 326.287 419.749 327.181 420.611 327.181H422.173C423.035 327.181 423.734 326.287 423.734 325.182C423.734 324.078 423.035 323.183 422.173 323.183Z" fill="white"/>
<path fill-rule="evenodd" clip-rule="evenodd" d="M198.767 293.666L267.278 267.206L282.02 329.759L213.509 356.22L198.767 293.666Z" fill="#0B1320"/>
<path fill-rule="evenodd" clip-rule="evenodd" d="M205.665 302.846L265.5 279.737L276.613 326.896L216.778 350.005L205.665 302.846Z" fill="white"/>
<path d="M251.994 280.251C252.256 281.361 251.765 282.533 250.897 282.868C250.03 283.203 249.115 282.575 248.853 281.464C248.591 280.353 249.082 279.181 249.95 278.846C250.817 278.512 251.733 279.14 251.994 280.251Z" fill="white"/>
<path d="M258.234 277.842C258.495 278.952 258.004 280.124 257.137 280.459C256.269 280.794 255.355 280.165 255.092 279.055C254.831 277.944 255.322 276.773 256.189 276.437C257.057 276.103 257.972 276.731 258.234 277.842Z" fill="white"/>
<path d="M264.487 275.423C264.749 276.534 264.258 277.706 263.39 278.041C262.523 278.376 261.608 277.747 261.346 276.637C261.084 275.526 261.575 274.354 262.442 274.019C263.311 273.684 264.226 274.313 264.487 275.423Z" fill="white"/>
<path fill-rule="evenodd" clip-rule="evenodd" d="M220.204 325.201L227.183 322.505L231.048 338.899L224.069 341.595L220.204 325.201Z" fill="#170C76"/>
<path fill-rule="evenodd" clip-rule="evenodd" d="M230.465 313.385L237.444 310.688L243.006 334.284L236.027 336.98L230.465 313.385Z" fill="#248232"/>
<path fill-rule="evenodd" clip-rule="evenodd" d="M244.132 316.087L251.112 313.391L254.948 329.665L247.967 332.361L244.132 316.087Z" fill="#AA2A32"/>
<path fill-rule="evenodd" clip-rule="evenodd" d="M251.23 290.842L258.211 288.146L266.908 325.05L259.926 327.746L251.23 290.842Z" fill="#0066F5"/>
<path d="M213.254 305.797C213.47 306.709 213.066 307.672 212.353 307.947C211.641 308.223 210.889 307.706 210.674 306.793C210.459 305.882 210.862 304.92 211.575 304.644C212.288 304.368 213.039 304.886 213.254 305.797Z" fill="#EBEBEB"/>
<path fill-rule="evenodd" clip-rule="evenodd" d="M214.781 304.502L229.216 298.927L229.521 300.22L215.085 305.795L214.781 304.502Z" fill="#EBEBEB"/>
<path d="M214.37 310.505C214.586 311.417 214.182 312.381 213.469 312.655C212.757 312.931 212.005 312.415 211.79 311.502C211.575 310.59 211.978 309.628 212.691 309.352C213.404 309.076 214.156 309.594 214.37 310.505Z" fill="#EBEBEB"/>
<path fill-rule="evenodd" clip-rule="evenodd" d="M215.897 309.201L230.332 303.626L230.637 304.919L216.202 310.494L215.897 309.201Z" fill="#EBEBEB"/>
<path d="M288.833 234.544L293.32 238.84H288.833V234.544ZM264.758 247.291V244.701L273.313 239.01L275.476 241.415C275.626 241.581 275.812 241.665 275.999 241.665C276.185 241.665 276.371 241.581 276.521 241.415L278.684 239.009L287.239 244.691V247.291H264.758ZM272.437 220.747L278.72 226.24H272.437V220.747ZM287.239 229.497V242.393L279.979 237.57L287.239 229.497ZM285.811 226.24H281.545L274.22 219.835H293.136L285.811 226.24ZM273.936 237C273.935 237 273.935 236.999 273.935 236.999L266.093 228.28H271.625C271.63 228.28 271.635 228.283 271.64 228.283C271.646 228.283 271.65 228.28 271.656 228.28H281.282C281.289 228.28 281.296 228.283 281.303 228.283C281.312 228.283 281.32 228.28 281.329 228.28H285.905L278.064 236.998L278.061 237.001L275.999 239.294L273.936 237ZM264.758 229.497L272.02 237.571L264.758 242.402V229.497ZM288.833 231.997V227.26C288.833 227.209 288.816 227.166 288.81 227.117C288.803 227.046 288.797 226.974 288.777 226.906C288.757 226.835 288.724 226.776 288.692 226.714C288.672 226.675 288.663 226.628 288.638 226.591C288.631 226.583 288.623 226.579 288.617 226.571C288.576 226.515 288.527 226.476 288.477 226.433C288.467 226.425 288.458 226.413 288.449 226.404L294.919 220.747V237.824L288.833 231.997ZM296.494 239.975C296.497 239.936 296.512 239.9 296.512 239.86V218.816C296.512 218.782 296.499 218.753 296.497 218.719C296.492 218.652 296.481 218.587 296.465 218.52C296.449 218.452 296.429 218.39 296.402 218.328C296.389 218.301 296.387 218.269 296.373 218.241C296.359 218.215 296.338 218.203 296.323 218.178C296.287 218.122 296.248 218.075 296.204 218.03C296.165 217.991 296.128 217.956 296.085 217.927C296.038 217.895 295.991 217.874 295.94 217.853C295.89 217.836 295.843 217.822 295.792 217.816C295.765 217.812 295.742 217.796 295.716 217.796H271.64C271.614 217.796 271.593 217.811 271.568 217.815C271.514 217.821 271.464 217.835 271.413 217.854C271.363 217.874 271.317 217.895 271.273 217.926C271.229 217.955 271.19 217.991 271.151 218.031C271.107 218.076 271.068 218.122 271.033 218.177C271.018 218.202 270.996 218.215 270.983 218.241C270.968 218.269 270.966 218.301 270.953 218.328C270.927 218.39 270.907 218.452 270.891 218.52C270.875 218.587 270.864 218.652 270.859 218.719C270.856 218.753 270.844 218.782 270.844 218.816V226.24H263.961C263.952 226.24 263.944 226.247 263.935 226.247C263.875 226.249 263.818 226.272 263.76 226.293C263.717 226.307 263.672 226.313 263.633 226.336C263.591 226.36 263.556 226.401 263.518 226.435C263.469 226.478 263.421 226.516 263.381 226.571C263.375 226.579 263.366 226.583 263.36 226.591C263.335 226.628 263.326 226.675 263.305 226.714C263.274 226.776 263.241 226.835 263.22 226.906C263.2 226.974 263.195 227.046 263.187 227.117C263.181 227.166 263.165 227.209 263.165 227.26V248.31C263.165 248.873 263.522 249.33 263.961 249.33H288.036C288.476 249.33 288.833 248.873 288.833 248.31V244.22C288.84 244.152 288.836 244.087 288.833 244.019V240.88H295.716C295.835 240.88 295.945 240.841 296.046 240.781C296.074 240.766 296.096 240.737 296.122 240.716C296.196 240.659 296.261 240.593 296.316 240.51C296.327 240.493 296.343 240.488 296.353 240.471C296.372 240.439 296.376 240.4 296.391 240.367C296.42 240.305 296.444 240.245 296.462 240.177C296.479 240.11 296.488 240.045 296.494 239.975Z" fill="white"/>
<path d="M287.167 391.189L287.171 391.178C287.17 391.182 287.169 391.184 287.167 391.189ZM282.791 406.834L285.984 395.012C285.821 395.41 295.051 400.062 295.051 400.062L287.655 389.996C287.655 389.996 287.643 390.027 287.619 390.084L287.655 389.996L261.533 380.845L282.791 406.834Z" fill="#2BA84A"/>
<path d="M295.051 400.062L289.518 385.705L261.533 380.845L287.655 389.996L295.051 400.062Z" fill="#248232"/>
<path d="M289.518 385.701L295.263 376.568L261.533 380.842L289.518 385.701Z" fill="#2BA84A"/>
<path d="M300.859 401.177C300.631 401.286 300.369 401.282 300.13 401.139C299.214 400.587 298.706 400.233 298.685 400.219C298.23 399.902 298.064 399.173 298.311 398.591C298.558 398.01 299.127 397.795 299.582 398.112C299.587 398.115 300.068 398.45 300.929 398.968C301.396 399.251 301.597 399.966 301.377 400.564C301.269 400.86 301.079 401.071 300.859 401.177Z" fill="#0066F5"/>
<path d="M355.31 366.903C355.125 366.993 354.917 367.008 354.713 366.929C354.217 366.739 353.935 366.07 354.084 365.436C354.391 364.125 354.68 362.83 354.953 361.558C355.089 360.918 355.605 360.543 356.104 360.718C356.603 360.893 356.897 361.554 356.76 362.192C356.483 363.481 356.19 364.795 355.879 366.125C355.791 366.498 355.575 366.776 355.31 366.903ZM352.219 378.43C352.01 378.529 351.771 378.535 351.547 378.421C351.065 378.179 350.829 377.483 351.018 376.866C351.39 375.66 351.762 374.392 352.125 373.097C352.3 372.473 352.835 372.149 353.323 372.374C353.81 372.597 354.064 373.284 353.889 373.908C353.52 375.225 353.141 376.516 352.762 377.746C352.66 378.075 352.459 378.314 352.219 378.43ZM309.76 405.405C309.579 405.493 309.376 405.509 309.176 405.437C308.154 405.067 307.12 404.655 306.102 404.21C305.611 403.997 305.35 403.316 305.517 402.689C305.683 402.061 306.216 401.726 306.706 401.94C307.693 402.37 308.695 402.77 309.685 403.128C310.184 403.307 310.473 403.971 310.332 404.608C310.248 404.99 310.029 405.276 309.76 405.405ZM348.196 389.459C347.946 389.579 347.66 389.563 347.409 389.384C346.958 389.06 346.796 388.33 347.048 387.751C347.536 386.633 348.024 385.441 348.497 384.209C348.725 383.615 349.287 383.371 349.751 383.663C350.216 383.956 350.407 384.674 350.179 385.269C349.691 386.536 349.188 387.767 348.684 388.922C348.571 389.179 348.395 389.363 348.196 389.459ZM319.088 407.703C318.959 407.766 318.816 407.792 318.668 407.774C317.619 407.643 316.542 407.462 315.465 407.237C314.955 407.131 314.608 406.514 314.692 405.861C314.775 405.206 315.257 404.763 315.767 404.87C316.804 405.087 317.842 405.261 318.85 405.386C319.366 405.452 319.742 406.037 319.692 406.697C319.656 407.168 319.412 407.547 319.088 407.703ZM342.672 399.336C342.346 399.493 341.963 399.409 341.694 399.078C341.321 398.619 341.308 397.861 341.667 397.383C342.34 396.483 343.013 395.48 343.663 394.401C343.978 393.875 344.568 393.778 344.977 394.184C345.387 394.588 345.462 395.342 345.146 395.865C344.455 397.014 343.739 398.082 343.019 399.043C342.918 399.177 342.8 399.274 342.672 399.336ZM328.579 407.564C328.512 407.595 328.443 407.618 328.37 407.63C327.315 407.808 326.227 407.932 325.137 407.999C324.62 408.03 324.18 407.52 324.156 406.858C324.131 406.197 324.531 405.637 325.047 405.603C326.086 405.539 327.123 405.421 328.126 405.252C328.639 405.165 329.109 405.629 329.176 406.285C329.234 406.848 328.977 407.372 328.579 407.564ZM336.092 405.185C335.633 405.405 335.174 405.612 334.714 405.804C334.222 406.01 333.692 405.666 333.533 405.036C333.372 404.406 333.639 403.751 334.132 403.524C335.066 403.133 336.006 402.699 336.921 402.085C337.383 401.79 337.946 402.008 338.186 402.595C338.425 403.183 338.246 403.906 337.788 404.214C337.23 404.585 336.66 404.912 336.092 405.185Z" fill="#0066F5"/>
<path d="M354.326 291.058C354.326 291.058 360.624 331.437 384.983 343.231C384.983 343.231 389.043 339.033 391.853 339.833C394.664 340.632 399.817 348.428 399.817 348.428H383.89C383.89 348.428 357.814 345.231 344.385 312.648L343.604 300.454L354.326 291.058Z" fill="#FFA785"/>
<path d="M340.591 256.672C340.591 256.672 356.414 282.458 358.287 289.254C358.287 289.254 348.294 299.849 345.172 303.448C345.172 303.448 333.321 273.725 335.334 265.467C337.208 257.783 340.591 256.672 340.591 256.672Z" fill="#0B1320"/>
<path d="M316.64 250.01C316.64 250.01 292.698 254.274 288.534 274.529C284.37 294.786 316.797 355.82 316.797 355.82H354.324C354.324 355.82 345.163 260.405 340.583 256.673C336.003 252.941 329.965 246.545 316.64 250.01Z" fill="#424242"/>
<path d="M329.554 238.281L328.656 257.014C325.277 259.685 313.108 254.536 313.108 254.536L314.77 233.964L329.554 238.281Z" fill="#FFA785"/>
<path d="M342.983 211.898C342.983 211.898 342.541 250.982 325.807 245.881C306.133 239.884 315.189 203.9 315.189 203.9L342.983 211.898Z" fill="#FFA785"/>
<path d="M315.197 222.822C315.197 222.822 313.845 218.958 311.658 220.556C309.472 222.155 308.951 233.109 314.781 233.963L315.197 222.822Z" fill="#FFA785"/>
<path d="M311.65 220.555C311.65 220.555 314.877 219.888 315.97 223.687L317.687 209.494C317.687 209.494 328.653 213.492 334.647 209.494C334.647 209.494 339.197 217.174 342.651 217.932C346.106 218.69 351.22 200.499 342.651 196.9C342.651 196.9 323.552 166.917 312.656 196.9C312.656 196.9 305.508 197.5 304.571 208.494C303.635 219.489 310.164 227.064 310.164 227.064C310.164 227.064 309.984 221.621 311.65 220.555Z" fill="#161616"/>
<path d="M315.04 324.242C315.04 324.242 336.277 352.028 357.2 352.028H398.735C398.735 352.028 389.054 335.835 384.369 338.135C379.685 340.434 376.562 343.831 376.562 343.831C376.562 343.831 346.687 336.583 328.054 308.224C328.054 308.224 319.018 308.253 315.04 324.242Z" fill="#FFA785"/>
<path d="M288.537 274.534C288.537 274.534 288.954 312.381 314.353 329.438C314.353 329.438 324.452 310.198 328.043 308.224C328.043 308.224 315.561 271.921 307.275 264.939C303.06 261.388 294.366 262.54 288.537 274.534Z" fill="#0B1320"/>
<path d="M355.997 352.028C355.997 352.028 354.956 353.427 355.06 355.825H422.411C422.411 355.825 421.682 352.228 420.746 352.028H355.997Z" fill="#0B1320"/>
<path d="M398.729 355.823L416.269 286.259H442.918L425.222 355.823H398.729Z" fill="#0B1320"/>
<path d="M429.19 318.5C428.669 321.234 427.16 323.112 425.82 322.694C424.479 322.275 423.815 319.719 424.336 316.985C424.857 314.248 426.366 312.371 427.707 312.79C429.047 313.208 429.711 315.765 429.19 318.5Z" fill="white"/>
<path d="M453.765 364.616H256.038C256.038 359.759 259.115 355.82 262.909 355.82H446.894C450.688 355.82 453.764 359.759 453.764 364.616" fill="#0B1320"/>
<path d="M314.667 355.825H282.937C279.659 355.825 277.003 352.424 277.003 348.229C277.003 344.034 279.659 340.633 282.937 340.633H314.667V355.825Z" fill="#0B1320"/>
<path d="M314.664 351.569H282.451C281.007 351.569 279.836 350.07 279.836 348.221C279.836 346.372 281.007 344.874 282.451 344.874H314.664V351.569Z" fill="white"/>
<path d="M314.667 340.629H282.937C279.659 340.629 277.003 337.227 277.003 333.032C277.003 328.837 279.659 325.436 282.937 325.436H314.667V340.629Z" fill="#0B1320"/>
<path d="M314.664 336.381H282.451C281.007 336.381 279.836 334.882 279.836 333.033C279.836 331.185 281.007 329.686 282.451 329.686H314.664V336.381Z" fill="white"/>
<path d="M280.057 269.589L280.4 270.99L280.742 269.589C281.183 267.784 282.1 266.275 283.309 265.361C282.1 264.447 281.183 262.938 280.742 261.134L280.4 259.731L280.057 261.134C279.616 262.938 278.699 264.447 277.49 265.361C278.699 266.275 279.616 267.784 280.057 269.589Z" fill="#434241"/>
<path d="M351.049 251.147L351.696 253.798L352.344 251.147C353.179 247.735 354.912 244.88 357.199 243.152C354.912 241.424 353.179 238.57 352.344 235.158L351.696 232.507L351.049 235.158C350.215 238.57 348.482 241.424 346.194 243.152C348.482 244.88 350.215 247.735 351.049 251.147Z" fill="#434241"/>
<path d="M396.728 307.748L397.376 310.398L398.024 307.748C398.858 304.335 400.591 301.481 402.878 299.752C400.591 298.024 398.858 295.171 398.024 291.758L397.376 289.107L396.728 291.758C395.894 295.171 394.161 298.024 391.874 299.752C394.161 301.481 395.894 304.335 396.728 307.748Z" fill="#434241"/>
<path d="M385.996 324.981L386.42 326.717L386.844 324.981C387.391 322.744 388.526 320.874 390.025 319.743C388.526 318.61 387.391 316.74 386.844 314.505L386.42 312.768L385.996 314.505C385.449 316.74 384.314 318.61 382.815 319.743C384.314 320.874 385.449 322.744 385.996 324.981Z" fill="#434241"/>
<path d="M359.292 217.889L359.717 219.626L360.141 217.889C360.688 215.654 361.823 213.784 363.321 212.652C361.823 211.52 360.688 209.649 360.141 207.414L359.717 205.678L359.292 207.414C358.745 209.649 357.61 211.52 356.112 212.652C357.61 213.784 358.745 215.654 359.292 217.889Z" fill="#434241"/>
<path d="M251.301 260.343L251.899 262.79L252.497 260.343C253.267 257.195 254.866 254.56 256.977 252.966C254.866 251.371 253.267 248.738 252.497 245.588L251.899 243.142L251.301 245.588C250.531 248.738 248.932 251.371 246.822 252.966C248.932 254.56 250.531 257.195 251.301 260.343Z" fill="#434241"/>
<path d="M774.772 357.022C768.427 357.022 763.284 351.457 763.284 344.592C763.284 337.726 768.427 332.161 774.772 332.161C781.117 332.161 786.261 337.726 786.261 344.592C786.261 351.457 781.117 357.022 774.772 357.022ZM797.127 351.045V339.015H792.718C792.392 337.785 791.961 336.603 791.436 335.482L794.955 331.675L787.093 323.168L783.693 326.847C782.76 326.296 781.78 325.829 780.76 325.456V319.64H769.64V325.168C768.674 325.467 767.739 325.848 766.843 326.304L762.856 321.99L754.994 330.496L758.634 334.436C758.135 335.363 757.702 336.336 757.343 337.349H751.733V349.379H756.634C756.889 350.514 757.232 351.611 757.656 352.661L753.905 356.719L761.768 365.226L764.958 361.773C765.948 362.437 766.999 363.002 768.101 363.458V368.754H779.22V364.21C780.443 363.887 781.617 363.433 782.732 362.864L786.004 366.404L793.867 357.897L790.927 354.717C791.547 353.561 792.065 352.332 792.466 351.045H797.127Z" fill="#FA3900"/>
<path d="M775.969 358.503C769.624 358.503 764.48 352.937 764.48 346.072C764.48 339.207 769.624 333.641 775.969 333.641C782.315 333.641 787.458 339.207 787.458 346.072C787.458 352.937 782.315 358.503 775.969 358.503ZM798.325 352.525V340.495L797.127 339.015L793.915 340.495C793.589 339.265 793.158 338.084 792.634 336.963L796.152 333.155L788.29 324.649L784.89 328.327C783.958 327.777 782.977 327.31 781.957 326.937V321.12L780.76 319.64L770.837 326.649C769.871 326.947 768.936 327.329 768.04 327.785L764.054 323.471L756.191 331.977L759.832 335.917C759.332 336.843 758.9 337.817 758.54 338.829L751.733 349.379L752.93 350.86H757.832C758.086 351.994 758.43 353.091 758.854 354.142L755.103 358.2L762.965 366.706L766.156 363.254C767.145 363.918 768.026 364.483 769.127 364.939L768.101 368.754L769.127 370.235H780.417V365.69C781.64 365.367 782.815 364.914 783.93 364.345L787.201 367.884L795.063 359.377L792.124 356.197C792.744 355.041 793.262 353.812 793.663 352.525H798.325Z" fill="#1E1C1B"/>
<path d="M774.772 357.022C768.427 357.022 763.284 351.457 763.284 344.592C763.284 337.726 768.427 332.161 774.772 332.161C781.117 332.161 786.261 337.726 786.261 344.592C786.261 351.457 781.117 357.022 774.772 357.022ZM797.127 351.045V339.015H792.718C792.392 337.785 791.961 336.603 791.436 335.482L794.955 331.675L787.093 323.168L783.693 326.847C782.76 326.296 781.78 325.829 780.76 325.456V319.64H769.64V325.168C768.674 325.467 767.739 325.848 766.843 326.304L762.856 321.99L754.994 330.496L758.634 334.436C758.135 335.363 757.702 336.336 757.343 337.349H751.733V349.379H756.634C756.889 350.514 757.232 351.611 757.656 352.661L753.905 356.719L761.768 365.226L764.958 361.773C765.948 362.437 766.999 363.002 768.101 363.458V368.754H779.22V364.21C780.443 363.887 781.617 363.433 782.732 362.864L786.004 366.404L793.867 357.897L790.927 354.717C791.547 353.561 792.065 352.332 792.466 351.045H797.127Z" fill="#434241"/>
<path d="M698.893 402.548C686.382 402.548 676.241 391.575 676.241 378.04C676.241 364.505 686.382 353.532 698.893 353.532C711.403 353.532 721.545 364.505 721.545 378.04C721.545 391.575 711.403 402.548 698.893 402.548ZM742.968 390.763V367.044H734.275C733.632 364.62 732.782 362.291 731.747 360.079L738.685 352.573L723.183 335.802L716.48 343.054C714.642 341.969 712.709 341.049 710.697 340.313V328.845H688.775V339.745C686.868 340.333 685.026 341.086 683.26 341.984L675.399 333.479L659.898 350.251L667.075 358.017C666.091 359.844 665.238 361.764 664.529 363.761H653.468V387.48H663.132C663.635 389.716 664.311 391.879 665.147 393.95L657.751 401.95L673.253 418.723L679.544 411.916C681.495 413.224 683.567 414.339 685.739 415.238V425.679H707.662V416.719C710.072 416.082 712.389 415.188 714.586 414.066L721.037 421.045L736.538 404.273L730.743 398.003C731.966 395.723 732.987 393.301 733.777 390.763H742.968Z" fill="#FA3900"/>
<path d="M701.254 405.467C688.743 405.467 678.602 394.494 678.602 380.959C678.602 367.424 688.743 356.452 701.254 356.452C713.764 356.452 723.905 367.424 723.905 380.959C723.905 394.494 713.764 405.467 701.254 405.467ZM745.329 393.683V369.964L742.968 367.045L736.635 369.964C735.992 367.539 735.143 365.21 734.108 362.999L741.046 355.493L725.544 338.721L718.841 345.973C717.003 344.889 715.069 343.969 713.058 343.232V331.765L710.697 328.845L691.135 342.664C689.229 343.252 687.387 344.005 685.621 344.903L677.76 336.399L662.259 353.17L669.436 360.937C668.452 362.764 667.599 364.683 666.89 366.68L653.468 387.48L655.829 390.399H665.493C665.996 392.635 666.673 394.798 667.508 396.869L660.112 404.87L675.614 421.642L681.905 414.836C683.856 416.143 685.591 417.258 687.763 418.157L685.739 425.679L687.763 428.598H710.022V419.639C712.432 419.002 714.749 418.108 716.947 416.985L723.398 423.965L738.899 407.192L733.103 400.922C734.327 398.642 735.348 396.22 736.138 393.683H745.329Z" fill="#1E1C1B"/>
<path d="M698.893 402.548C686.382 402.548 676.241 391.575 676.241 378.04C676.241 364.505 686.382 353.532 698.893 353.532C711.403 353.532 721.545 364.505 721.545 378.04C721.545 391.575 711.403 402.548 698.893 402.548ZM742.968 390.763V367.044H734.275C733.632 364.62 732.782 362.291 731.747 360.079L738.685 352.573L723.183 335.802L716.48 343.054C714.642 341.969 712.709 341.049 710.697 340.313V328.845H688.775V339.745C686.868 340.333 685.026 341.086 683.26 341.984L675.399 333.479L659.898 350.251L667.075 358.017C666.091 359.844 665.238 361.764 664.529 363.761H653.468V387.48H663.132C663.635 389.716 664.311 391.879 665.147 393.95L657.751 401.95L673.253 418.723L679.544 411.916C681.495 413.224 683.567 414.339 685.739 415.238V425.679H707.662V416.719C710.072 416.082 712.389 415.188 714.586 414.066L721.037 421.045L736.538 404.273L730.743 398.003C731.966 395.723 732.987 393.301 733.777 390.763H742.968Z" fill="#434241"/>
<path d="M849.191 362.453H814.452C813.809 362.453 813.287 361.889 813.287 361.193V320.393C813.287 319.698 813.809 319.134 814.452 319.134H849.191C849.833 319.134 850.355 319.698 850.355 320.393V361.193C850.355 361.889 849.833 362.453 849.191 362.453Z" fill="#FFFFFB"/>
<path d="M845.754 326.66H818.506C817.837 326.66 817.296 326.074 817.296 325.351C817.296 324.628 817.837 324.042 818.506 324.042H845.754C846.422 324.042 846.964 324.628 846.964 325.351C846.964 326.074 846.422 326.66 845.754 326.66Z" fill="#248232"/>
<path d="M830.92 332.946H818.505C817.837 332.946 817.296 332.36 817.296 331.637C817.296 330.914 817.837 330.329 818.505 330.329H830.92C831.588 330.329 832.13 330.914 832.13 331.637C832.13 332.36 831.588 332.946 830.92 332.946Z" fill="#248232"/>
<path d="M843.784 339.232H818.505C817.837 339.232 817.296 338.646 817.296 337.923C817.296 337.201 817.837 336.615 818.505 336.615H843.784C844.452 336.615 844.993 337.201 844.993 337.923C844.993 338.646 844.452 339.232 843.784 339.232Z" fill="#248232"/>
<path d="M837.385 345.518H818.505C817.837 345.518 817.296 344.932 817.296 344.21C817.296 343.487 817.837 342.901 818.505 342.901H837.385C838.053 342.901 838.594 343.487 838.594 344.21C838.594 344.932 838.053 345.518 837.385 345.518Z" fill="#248232"/>
<path d="M845.754 351.804H818.506C817.837 351.804 817.296 351.218 817.296 350.496C817.296 349.773 817.837 349.187 818.506 349.187H845.754C846.422 349.187 846.964 349.773 846.964 350.496C846.964 351.218 846.422 351.804 845.754 351.804Z" fill="#248232"/>
<path d="M843.784 358.091H818.505C817.837 358.091 817.296 357.505 817.296 356.782C817.296 356.059 817.837 355.473 818.505 355.473H843.784C844.452 355.473 844.993 356.059 844.993 356.782C844.993 357.505 844.452 358.091 843.784 358.091Z" fill="#248232"/>
<path d="M884.738 442.938C880.316 442.938 876.731 439.059 876.731 434.275C876.731 429.491 880.316 425.612 884.738 425.612C889.16 425.612 892.745 429.491 892.745 434.275C892.745 439.059 889.16 442.938 884.738 442.938ZM900.318 438.772V430.388H897.245C897.018 429.532 896.717 428.708 896.351 427.926L898.803 425.273L893.324 419.345L890.955 421.908C890.305 421.525 889.622 421.199 888.91 420.939V416.886H881.162V420.738C880.488 420.946 879.836 421.212 879.212 421.53L876.434 418.524L870.955 424.452L873.491 427.197C873.144 427.843 872.842 428.521 872.591 429.228H868.682V437.611H872.098C872.276 438.402 872.515 439.166 872.81 439.898L870.196 442.727L875.675 448.655L877.898 446.25C878.588 446.711 879.321 447.105 880.089 447.423V451.114H887.838V447.947C888.69 447.722 889.509 447.406 890.285 447.009L892.565 449.476L898.045 443.548L895.996 441.331C896.428 440.525 896.79 439.669 897.069 438.772H900.318Z" fill="#FA3900"/>
<path d="M885.572 443.97C881.15 443.97 877.566 440.091 877.566 435.307C877.566 430.523 881.15 426.644 885.572 426.644C889.994 426.644 893.579 430.523 893.579 435.307C893.579 440.091 889.994 443.97 885.572 443.97ZM901.152 439.804V431.42L900.317 430.389L898.079 431.42C897.852 430.564 897.551 429.74 897.186 428.958L899.638 426.305L894.159 420.377L891.789 422.94C891.139 422.557 890.456 422.231 889.745 421.971V417.918L888.91 416.886L881.996 421.77C881.322 421.978 880.671 422.244 880.047 422.562L877.268 419.556L871.789 425.484L874.326 428.229C873.978 428.875 873.676 429.554 873.426 430.26L868.682 437.612L869.516 438.643H872.932C873.11 439.434 873.349 440.198 873.644 440.93L871.03 443.759L876.509 449.687L878.733 447.282C879.423 447.743 880.036 448.138 880.804 448.456L880.089 451.114L880.804 452.146H888.672V448.979C889.524 448.754 890.343 448.438 891.12 448.041L893.4 450.508L898.879 444.58L896.831 442.363C897.263 441.557 897.624 440.701 897.903 439.804H901.152Z" fill="#1E1C1B"/>
<path d="M884.738 442.938C880.316 442.938 876.731 439.059 876.731 434.275C876.731 429.491 880.316 425.612 884.738 425.612C889.16 425.612 892.745 429.491 892.745 434.275C892.745 439.059 889.16 442.938 884.738 442.938ZM900.318 438.772V430.388H897.245C897.018 429.532 896.717 428.708 896.351 427.926L898.803 425.273L893.324 419.345L890.955 421.908C890.305 421.525 889.622 421.199 888.91 420.939V416.886H881.162V420.738C880.488 420.946 879.836 421.212 879.212 421.53L876.434 418.524L870.955 424.452L873.491 427.197C873.144 427.843 872.842 428.521 872.591 429.228H868.682V437.611H872.098C872.276 438.402 872.515 439.166 872.81 439.898L870.196 442.727L875.675 448.655L877.898 446.25C878.588 446.711 879.321 447.105 880.089 447.423V451.114H887.838V447.947C888.69 447.722 889.509 447.406 890.285 447.009L892.565 449.476L898.045 443.548L895.996 441.331C896.428 440.525 896.79 439.669 897.069 438.772H900.318Z" fill="#434241"/>
<path d="M836.395 470.613H714.646C711.227 470.613 708.455 467.614 708.455 463.915V378.346C708.455 374.647 711.227 371.647 714.646 371.647H836.395C839.815 371.647 842.587 374.647 842.587 378.346V463.915C842.587 467.614 839.815 470.613 836.395 470.613Z" fill="#1E1C1B"/>
<path d="M788.367 461.477H762.241V484.273H788.367V461.477Z" fill="#FFFFFB"/>
<g opacity="0.8">
<path opacity="0.8" d="M788.367 466.209H762.241V475.243H788.367V466.209Z" fill="#CCCBCA"/>
</g>
<path d="M837.74 376.438H713.301V450.566H837.74V376.438Z" fill="#434241"/>
<path d="M708.455 455.791V463.924C708.455 467.624 711.227 470.623 714.646 470.623H836.395C839.815 470.623 842.587 467.624 842.587 463.924V455.791H708.455Z" fill="#FFFFFB"/>
<path d="M797.213 484.268H752.548V484.108C752.548 481.251 754.689 478.934 757.33 478.934H792.431C795.072 478.934 797.213 481.251 797.213 484.108V484.268Z" fill="#FFFFFB"/>
<path d="M873.927 474.438C873.927 474.438 876.64 479.108 876.494 480.847C876.304 483.138 874.751 483.674 869.127 485.439C863.503 487.205 860.073 484.553 863.002 482.791C865.932 481.029 870.998 476.199 870.998 476.199L873.927 474.438Z" fill="#191817"/>
<path d="M863.209 473.932C863.209 473.932 865.932 478.12 865.812 479.604C865.692 481.086 860.381 484.002 860.381 484.002C860.381 484.002 850.767 485.972 851.117 484.54C851.468 483.107 855.364 481.226 856.689 480C857.798 478.973 860.261 474.999 860.261 474.999L863.209 473.932Z" fill="#191817"/>
<path d="M871.874 412.566L876.554 405.114L856.257 406.83C856.257 406.83 849.418 435.899 850.038 447.631L857.162 478.955L865.092 476.548C865.092 476.548 864.481 450.668 860.827 446.227L871.874 412.566Z" fill="#101520"/>
<path d="M876.557 405.114C876.557 405.114 880.059 406.473 879.759 418.037C879.46 429.6 875.884 441.835 875.884 441.835C875.884 441.835 878.231 446.055 878.167 451.462C878.09 458.074 875.818 477.63 875.818 477.63L868.15 478.009L865.248 442.903L865.058 412.406L876.557 405.114Z" fill="#101520"/>
<path d="M869.803 361.924C869.803 361.924 868.144 369.595 871.263 374.125C871.263 374.125 866.561 376.456 861.842 373.476L863.521 365.314L869.803 361.924Z" fill="#FFA785"/>
<path d="M869.803 361.924C869.803 361.924 868.144 369.595 871.263 374.125C871.263 374.125 866.561 376.456 861.842 373.476L863.521 365.314L869.803 361.924" stroke="#434241" stroke-width="0.0001625" stroke-miterlimit="2" stroke-linejoin="round"/>
<path d="M868.731 352.578C871.531 354.693 872.374 362.29 869.115 365.644C866.065 368.784 864.598 369.434 861.174 368.353C858.608 367.543 857.774 364.18 858.254 360.408C857.638 359.979 857.606 359.54 857.54 359.141C857.5 358.899 858.571 358.779 859.599 357.166C859.601 357.089 859.608 357.007 859.631 356.912C860.895 351.766 865.693 350.283 868.731 352.578Z" fill="#FFA785" stroke="#434241" stroke-width="0.0001625" stroke-miterlimit="2" stroke-linejoin="round"/>
<path d="M871.44 370.694H869.421C869.421 370.694 864.961 373.39 860.476 370.694C860.476 370.694 855.492 372.311 854.911 376.265C854.329 380.219 855.824 392.801 855.824 397.834C855.824 402.866 854.777 410.415 854.777 410.415C854.777 410.415 872.935 416.166 879.746 410.415L878.749 399.271C878.749 399.271 878.323 374.225 871.44 370.694Z" fill="#0049AF"/>
<path d="M851.531 408.349L862.527 406.22C862.849 406.146 863.541 405.778 863.236 404.959L859.189 390.818C859.092 390.559 858.839 390.413 858.586 390.471L847.262 393.085C846.94 393.159 846.546 393.749 846.669 394.08L850.928 408.002C851.025 408.261 851.278 408.407 851.531 408.349Z" fill="#141011"/>
<path d="M851.311 408.81L862.537 406.219C862.856 406.145 863.037 405.778 862.915 405.45L858.886 391.356C858.79 391.1 858.538 390.955 858.289 391.012L847.063 393.603C846.743 393.677 846.563 394.045 846.684 394.372L850.714 408.466C850.81 408.723 851.062 408.868 851.311 408.81Z" fill="#231F20"/>
<path d="M861.924 400.659C861.924 400.659 861.956 400.974 860.199 402.701C859.22 403.664 860.547 404.31 860.697 404.55C861.165 405.295 857.437 405.861 858.64 406.083C859.843 406.305 863.633 404.718 864.084 404.411C864.535 404.104 868.257 404.702 868.257 404.702L867.986 400.513C867.986 400.513 865.65 401.068 864.961 400.254C863.399 398.403 861.476 398.762 861.476 398.762L861.924 400.659Z" fill="#FFA785"/>
<path d="M845.575 352.37C843.039 348.869 841.551 345.986 841.822 345.254C842.25 344.092 841.72 341.049 841.38 339.705C841.28 339.307 841.072 338.418 841.269 337.566C841.438 336.834 841.179 336.249 840.742 336.887C840.304 337.524 840.245 338.001 840.289 339.27C840.311 339.886 840.18 339.975 840.045 340.009C839.808 340.069 839.419 338.756 839.168 337.148C838.909 335.488 838.721 334.533 838.301 334.136C837.975 333.829 837.706 333.592 837.812 334.692C837.918 335.791 838.67 337.919 838.305 338.223C837.938 338.526 837.598 336.852 837.469 335.852C837.338 334.853 837.523 333.605 836.985 333.556C836.617 333.522 836.399 333.961 836.457 335.294C836.516 336.627 837.449 338.73 837.106 338.866C836.764 339.003 836.187 336.604 836.138 335.981C836.088 335.336 835.636 335.118 835.497 336.22C835.358 337.321 835.76 338.044 836.087 339.175C836.414 340.306 836.775 340.777 836.542 340.972C836.314 341.163 835.925 340.607 835.746 339.543C835.566 338.479 835.432 337.53 835.091 337.933C834.75 338.336 834.716 339.72 835.318 341.516C835.921 343.312 836.644 345.688 838.025 346.577C838.025 346.577 838.197 347.947 839.177 353.952C841.526 368.327 846.347 353.434 845.575 352.37Z" fill="#FFA785"/>
<path d="M845.575 352.37C843.039 348.869 841.551 345.986 841.822 345.254C842.25 344.092 841.72 341.049 841.38 339.705C841.28 339.307 841.072 338.418 841.269 337.566C841.438 336.834 841.179 336.249 840.742 336.887C840.304 337.524 840.245 338.001 840.289 339.27C840.311 339.886 840.18 339.975 840.045 340.009C839.808 340.069 839.419 338.756 839.168 337.148C838.909 335.488 838.721 334.533 838.301 334.136C837.975 333.829 837.706 333.592 837.812 334.692C837.918 335.791 838.67 337.919 838.305 338.223C837.938 338.526 837.598 336.852 837.469 335.852C837.338 334.853 837.523 333.605 836.985 333.556C836.617 333.522 836.399 333.961 836.457 335.294C836.516 336.627 837.449 338.73 837.106 338.866C836.764 339.003 836.187 336.604 836.138 335.981C836.088 335.336 835.636 335.118 835.497 336.22C835.358 337.321 835.76 338.044 836.087 339.175C836.414 340.306 836.775 340.777 836.542 340.972C836.314 341.163 835.925 340.607 835.746 339.543C835.566 338.479 835.432 337.53 835.091 337.933C834.75 338.336 834.716 339.72 835.318 341.516C835.921 343.312 836.644 345.688 838.025 346.577C838.025 346.577 838.197 347.947 839.177 353.952C841.526 368.327 846.347 353.434 845.575 352.37" stroke="#434241" stroke-width="0.0001625" stroke-miterlimit="2" stroke-linejoin="round"/>
<path d="M861.313 386.152H854.784C854.784 386.152 843.705 375.228 841.379 367.839C839.053 360.449 836.229 348.32 836.229 348.32L843.788 345.891C843.788 345.891 847.193 356.495 850.681 362.427C854.17 368.357 860.483 370.694 860.483 370.694L861.313 386.152Z" fill="#0049AF"/>
<path d="M863.281 401.317L862.285 400.076C862.285 400.076 860.052 401.416 858.769 401.31C857.309 401.19 856.661 400.999 856.679 401.515C856.695 401.954 857.973 402.317 858.865 402.279C859.719 402.242 861.659 402.189 861.659 402.189L863.281 401.317Z" fill="#FFA785"/>
<path d="M862.75 402.475L862.21 401.5C862.21 401.5 859.053 402.884 857.717 402.911C856.381 402.938 855.785 402.742 855.93 403.255C856.074 403.768 857.641 403.872 858.568 403.855C859.513 403.837 861.202 403.461 861.202 403.461L862.75 402.475Z" fill="#FFA785"/>
<path d="M863.028 403.7L863.012 402.006C863.012 402.006 859.422 404.291 858.136 404.294C856.849 404.297 856.468 404.169 856.452 404.694C856.441 405.089 857.747 405.306 858.937 405.148C859.841 405.029 860.939 404.673 861.568 404.48C861.96 404.36 863.028 403.7 863.028 403.7Z" fill="#FFA785"/>
<path d="M872.169 372.763L871.454 370.694C871.454 370.694 877.102 371.143 880.808 379.699C883.079 384.941 885.057 393.673 884.916 397.198C884.775 400.722 871.424 406.151 866.055 405.771L865.307 400.26C865.307 400.26 866.572 399.944 868.796 398.553C871.019 397.162 873.818 394.601 877.278 393.853C877.278 393.853 870.291 378.153 872.169 372.763Z" fill="#0049AF"/>
<path d="M865.655 355.171C865.655 355.171 862.414 355.193 860.346 353.3C857.794 350.963 861.289 347.103 862.908 348.686C864.528 350.268 865.494 349.163 866.887 349.247C868.279 349.331 870.247 349.719 870.247 351.526C870.247 353.332 872.23 352.341 873.169 354.461C873.927 356.171 873.944 358.512 872.871 360.6C871.797 362.689 873.759 363.902 873.549 365.98C873.289 368.538 872.533 370.196 870.147 370.196C867.578 370.196 867.244 367.099 867.888 365.324C868.472 363.712 865.945 360.811 866.887 359.226C868.279 356.881 866.887 355.3 865.655 355.171Z" fill="#1E1C1B"/>
<path d="M727.616 467.982C719.077 467.982 712.155 460.493 712.155 451.253C712.155 442.015 719.077 434.525 727.616 434.525C736.156 434.525 743.078 442.015 743.078 451.253C743.078 460.493 736.156 467.982 727.616 467.982ZM757.701 459.938V443.748H751.767C751.329 442.093 750.749 440.503 750.042 438.994L754.778 433.871L744.197 422.423L739.622 427.373C738.367 426.632 737.047 426.004 735.674 425.502V417.674H720.71V425.114C719.409 425.515 718.151 426.029 716.946 426.642L711.581 420.837L700.999 432.285L705.899 437.587C705.227 438.833 704.645 440.143 704.16 441.507H696.611V457.697H703.207C703.55 459.224 704.012 460.699 704.582 462.113L699.534 467.574L710.115 479.023L714.41 474.377C715.741 475.269 717.156 476.03 718.638 476.644V483.771H733.602V477.655C735.247 477.22 736.829 476.61 738.329 475.844L742.732 480.608L753.313 469.16L749.357 464.879C750.192 463.324 750.889 461.67 751.428 459.938H757.701Z" fill="#FA3900"/>
<path d="M729.228 469.975C720.689 469.975 713.766 462.486 713.766 453.246C713.766 444.008 720.689 436.518 729.228 436.518C737.767 436.518 744.689 444.008 744.689 453.246C744.689 462.486 737.767 469.975 729.228 469.975ZM759.312 461.931V445.741L757.701 443.749L753.379 445.741C752.94 444.086 752.36 442.496 751.653 440.987L756.389 435.863L745.808 424.416L741.233 429.365C739.978 428.625 738.658 427.997 737.285 427.495V419.667L735.674 417.674L722.321 427.107C721.02 427.508 719.763 428.022 718.557 428.635L713.192 422.83L702.611 434.279L707.51 439.579C706.838 440.826 706.256 442.137 705.772 443.499L696.611 457.697L698.222 459.69H704.818C705.161 461.216 705.623 462.692 706.194 464.106L701.145 469.567L711.727 481.016L716.021 476.37C717.352 477.262 718.537 478.023 720.019 478.638L718.638 483.771L720.019 485.764H735.213V479.649C736.858 479.214 738.44 478.603 739.94 477.837L744.343 482.601L754.924 471.153L750.968 466.873C751.803 465.317 752.5 463.663 753.039 461.931H759.312Z" fill="#1E1C1B"/>
<path d="M727.616 467.982C719.077 467.982 712.155 460.493 712.155 451.253C712.155 442.015 719.077 434.525 727.616 434.525C736.156 434.525 743.078 442.015 743.078 451.253C743.078 460.493 736.156 467.982 727.616 467.982ZM757.701 459.938V443.748H751.767C751.329 442.093 750.749 440.503 750.042 438.994L754.778 433.871L744.197 422.423L739.622 427.373C738.367 426.632 737.047 426.004 735.674 425.502V417.674H720.71V425.114C719.409 425.515 718.151 426.029 716.946 426.642L711.581 420.837L700.999 432.285L705.899 437.587C705.227 438.833 704.645 440.143 704.16 441.507H696.611V457.697H703.207C703.55 459.224 704.012 460.699 704.582 462.113L699.534 467.574L710.115 479.023L714.41 474.377C715.741 475.269 717.156 476.03 718.638 476.644V483.771H733.602V477.655C735.247 477.22 736.829 476.61 738.329 475.844L742.732 480.608L753.313 469.16L749.357 464.879C750.192 463.324 750.889 461.67 751.428 459.938H757.701Z" fill="#434241"/>
<path d="M787.301 360.647C787.301 360.647 785.753 361.82 785.959 364.5C786.166 367.18 781.831 364.5 781.831 364.5C781.831 364.5 783.481 359.697 787.301 360.647Z" fill="#1E1C1B"/>
<path fill-rule="evenodd" clip-rule="evenodd" d="M737.228 343.289L843.615 384.804L819.144 458.212L712.758 416.698L737.228 343.289Z" fill="#FFFFFB"/>
<path fill-rule="evenodd" clip-rule="evenodd" d="M841.293 391.787L734.906 350.272L737.234 343.289L843.621 384.804L841.293 391.787Z" fill="#1E1C1B"/>
<path d="M742.274 349.212C742.105 349.719 741.588 349.981 741.119 349.799C740.651 349.616 740.407 349.056 740.577 348.549C740.746 348.042 741.263 347.779 741.731 347.962C742.2 348.145 742.443 348.705 742.274 349.212Z" fill="#FFFFFB"/>
<path d="M745.263 350.377C745.094 350.884 744.577 351.146 744.108 350.964C743.64 350.781 743.397 350.222 743.566 349.714C743.735 349.207 744.252 348.944 744.72 349.127C745.19 349.31 745.432 349.869 745.263 350.377Z" fill="#FFFFFB"/>
<path d="M748.253 351.542C748.084 352.049 747.567 352.312 747.098 352.13C746.629 351.946 746.386 351.387 746.555 350.88C746.725 350.372 747.241 350.11 747.71 350.293C748.179 350.475 748.422 351.035 748.253 351.542Z" fill="#FFFFFB"/>
<path fill-rule="evenodd" clip-rule="evenodd" d="M791.383 381.17L834.125 397.85L824.46 426.844L781.717 410.165L791.383 381.17Z" fill="#170C76"/>
<g opacity="0.58">
<path opacity="0.58" d="M774.719 407.444C774.719 407.444 794.129 396.339 795.487 399.164C796.845 401.99 796.629 409.983 801.458 406.314C806.288 402.646 823.414 392.669 821.508 402.527C819.602 412.385 829.274 412.349 829.274 412.349L824.442 426.846L774.719 407.444Z" fill="#FFFFFB"/>
</g>
<path fill-rule="evenodd" clip-rule="evenodd" d="M737.415 360.111L784.393 378.443L782.608 383.796L735.631 365.464L737.415 360.111Z" fill="#248232"/>
<path fill-rule="evenodd" clip-rule="evenodd" d="M734.788 367.998L781.766 386.33L779.981 391.683L733.004 373.351L734.788 367.998Z" fill="#248232"/>
<path fill-rule="evenodd" clip-rule="evenodd" d="M732.161 375.873L779.14 394.205L777.355 399.558L730.377 381.226L732.161 375.873Z" fill="#248232"/>
<path fill-rule="evenodd" clip-rule="evenodd" d="M729.534 383.76L776.512 402.092L774.728 407.445L727.75 389.114L729.534 383.76Z" fill="#248232"/>
<path fill-rule="evenodd" clip-rule="evenodd" d="M725.911 395.556L822.61 433.29L820.826 438.643L724.127 400.909L725.911 395.556Z" fill="#248232"/>
<path fill-rule="evenodd" clip-rule="evenodd" d="M722.763 404.985L819.463 442.719L817.678 448.072L720.979 410.338L722.763 404.985Z" fill="#248232"/>
<path d="M833.624 485.869C832.231 486.698 830.481 486.15 829.714 484.644L812.245 450.345L817.287 447.339L834.756 481.639C835.523 483.145 835.016 485.038 833.624 485.869Z" fill="#1E1C1B"/>
<path d="M818.81 436.484C815.988 433.506 810.315 432.895 810.315 432.895L816.156 438.078L816.325 443.929L810.314 447.512L806.25 443.864L804.854 436.152C804.854 436.152 801.9 442.22 803.12 445.839C804.965 451.312 810.699 453.462 815.457 451.122L815.47 451.148C815.523 451.116 815.577 451.089 815.631 451.058C815.728 451.001 815.821 450.94 815.915 450.881C816.012 450.826 816.109 450.773 816.205 450.715C816.259 450.683 816.308 450.648 816.361 450.617L816.348 450.591C820.718 447.489 822.665 440.553 818.81 436.484Z" fill="#1E1C1B"/>
<path d="M832.604 485.869C831.212 486.698 829.462 486.15 828.695 484.644L811.227 450.345L816.268 447.339L833.736 481.639C834.503 483.145 833.997 485.038 832.604 485.869Z" fill="#AA2A32"/>
<path d="M817.791 436.484C814.97 433.506 809.297 432.895 809.297 432.895L815.136 438.078L815.306 443.929L809.295 447.512L805.231 443.864L803.835 436.152C803.835 436.152 800.881 442.22 802.1 445.839C803.946 451.312 809.679 453.462 814.438 451.122L814.451 451.148C814.504 451.116 814.558 451.089 814.611 451.058C814.709 451.001 814.801 450.94 814.896 450.881C814.993 450.826 815.09 450.773 815.186 450.715C815.239 450.683 815.289 450.648 815.342 450.617L815.329 450.591C819.7 447.489 821.646 440.553 817.791 436.484Z" fill="#AA2A32"/>
<path d="M747.738 188.866C747.738 188.866 748.095 193.558 747.223 194.046L736.071 194.02C736.071 194.02 736.071 192.556 737.862 192.23C739.653 191.904 742.8 190.71 743.333 188.052C743.866 185.394 747.738 188.866 747.738 188.866Z" fill="#1E1C1B"/>
<path d="M779.742 187.059C779.742 187.059 780.078 193.567 779.206 194.055L768.054 194.029C768.054 194.029 768.054 192.565 769.845 192.239C771.636 191.913 774.783 190.719 775.316 188.061C775.849 185.403 779.742 187.059 779.742 187.059Z" fill="#1E1C1B"/>
<path d="M780.126 187.85C780.126 187.85 777.912 189.149 776.965 189.385C775.911 189.649 773.934 189.481 773.934 189.481C770.141 177.909 758.376 130.867 758.376 130.867C757.866 143.875 755.802 156.848 753.658 167.276C753.601 167.556 753.544 167.832 753.487 168.108V168.112C753.435 168.362 753.382 168.612 753.329 168.857C753.327 168.87 753.325 168.88 753.324 168.891C750.721 181.197 748.113 189.578 748.113 189.578C748.113 189.578 747.439 190.547 745.563 190.104C743.413 189.596 742.697 188.522 742.697 188.522C744.087 138.397 744.864 110.133 744.864 110.133C744.864 110.133 763.484 98.6859 768.542 108.471C773.601 118.255 780.126 187.85 780.126 187.85Z" fill="#101520"/>
<path d="M772.624 115.23C770.21 105.409 769.814 96.0837 769.833 88.3634C769.858 77.3754 770.725 69.6365 767.819 68.3314C767.819 68.3314 758.841 65.3614 752.661 64.0526C751.677 63.436 750.584 62.7898 749.755 62.4071C747.804 61.5059 740.197 48.9218 738.907 45.9089C737.618 42.8961 735.482 29.7691 735.482 29.7691L732.517 30.8444C732.517 30.8444 731.627 45.5789 732.054 49.4198C732.481 53.2604 741.901 69.774 742.682 71.2192V71.2194C746.035 85.1675 742.682 107.866 744.215 112.927C745.003 115.53 759.623 120.3 767.625 119.7C768.023 119.671 768.406 119.627 768.769 119.569C768.77 119.569 768.772 119.568 768.773 119.568C770.666 119.268 772.043 118.58 772.547 117.373C772.794 116.787 772.834 116.076 772.624 115.23Z" fill="#248232"/>
<path d="M735.482 29.7719C735.482 29.7719 737.158 24.2334 735.932 24.0725C734.707 23.9116 731.633 23.9286 731.254 24.8639C730.874 25.7992 732.518 30.8471 732.518 30.8471L735.482 29.7719Z" fill="#FFA785"/>
<path d="M731.241 24.8673C731.241 24.8673 731.083 26.774 731.62 27.1337C732.157 27.4934 732.348 24.8673 732.348 24.8673C732.348 24.8673 732.378 27.0215 732.79 27.1674C733.201 27.3135 733.454 24.6873 733.454 24.6873C733.454 24.6873 733.497 26.774 733.775 26.702C734.054 26.6302 734.244 24.6873 734.244 24.6873C734.244 24.6873 734.371 26.2021 734.75 25.9304C735.129 25.6588 735.489 24.033 735.489 24.033L731.241 24.8673Z" fill="#FFA785"/>
<path d="M735.487 29.7788C735.487 29.7788 736.633 28.7561 736.885 27.8208C737.138 26.8855 737.881 25.3128 737.486 25.1226C737.091 24.9324 735.937 26.9573 735.937 26.9573L735.487 29.7788Z" fill="#FFA785"/>
<path d="M755.329 62.5458L755.186 63.398C755.186 63.398 754.519 66.0145 757.332 67.0516C760.145 68.0897 762.516 68.5701 762.796 66.4982C762.812 64.8492 762.777 62.2754 762.986 60.9549C763.064 60.4643 763.183 59.9517 763.366 59.3839L757.806 58.0007L756.108 57.9364L755.329 62.5458Z" fill="#FFA785" stroke="#434241" stroke-width="0.00015625" stroke-miterlimit="2" stroke-linejoin="round"/>
<path d="M756.106 57.9364L755.588 61.0429C760.87 62.6351 763.181 59.9517 763.364 59.3839L757.803 58.0007L756.106 57.9364Z" fill="#FFA785"/>
<path d="M764.18 58.1019C762.542 61.8909 758.041 60.3123 756.144 59.4355C755.61 59.1897 755.283 58.9989 755.283 58.9989C754.709 58.6116 754.636 57.3868 754.835 55.8759C755.227 52.8858 756.677 48.7754 757.373 47.8278C758.421 46.4022 760.071 45.0256 764.322 47.7566C768.573 50.4886 766.28 53.2475 764.18 58.1019Z" fill="#FFA785" stroke="#434241" stroke-width="0.00015625" stroke-miterlimit="2" stroke-linejoin="round"/>
<path d="M756.911 43.571C756.911 43.571 758.963 44.0368 761.623 43.6211C763.78 43.2835 765.949 45.1065 766.62 45.8302C766.635 45.679 766.633 45.4656 766.561 45.2296C766.561 45.2296 766.845 45.6279 766.799 46.0434C766.827 46.0857 766.838 46.112 766.827 46.1159C766.827 46.1159 767.249 46.1606 767.474 46.3748C767.474 46.3748 767.301 46.2878 767.204 46.399C767.194 46.411 767.181 46.4194 767.167 46.4261C769.76 49.034 768.707 54.5186 767.433 55.4588C765.901 56.5901 763.27 59.7036 763.27 59.7036C763.27 59.7036 763.362 58.5667 763.899 57.3124C764.436 56.058 763.434 55.7375 762.314 54.732C761.196 53.7265 762.666 52.3812 761.81 51.0056C760.952 49.6301 756.739 48.9326 756.984 48.1685C755.629 47.0608 756.869 43.7468 756.911 43.571Z" fill="#191817"/>
<path d="M757.587 56.7083C757.587 56.7083 757.313 57.177 756.216 56.6238C756.216 56.6238 755.296 56.1592 755.508 55.607C755.508 55.607 756.553 55.5912 757.587 56.7083Z" fill="#FEFFFE" stroke="#434241" stroke-width="0.00015625" stroke-miterlimit="2" stroke-linejoin="round"/>
<path d="M756.358 69.509C756.358 69.509 753.822 88.6588 734.854 101.957L733.084 107.809H739.93C739.93 107.809 756.919 91.5963 758.058 70.0596L756.358 69.509Z" fill="#101520"/>
<path d="M756.352 69.5187V66.6158L759.478 67.6229L758.052 70.0693L756.352 69.5187Z" fill="#101520"/>
<path d="M755.342 62.5454L753.512 64.3249C753.512 64.3249 753.007 66.8105 754.24 69.507L757.928 67.1076C757.928 67.1076 755.749 65.9103 755.342 62.5454Z" fill="#2BA84A"/>
<path d="M757.924 67.1168C757.924 67.1168 758.29 69.3707 759.251 70.4857C759.251 70.4857 763.405 69.6584 764.559 67.392L762.819 64.2988C762.819 64.2988 762.403 66.4099 757.924 67.1168Z" fill="#2BA84A"/>
<path d="M782.815 116.749C782.815 116.749 782.823 121.037 782.476 121.889C782.129 122.742 780.574 125.519 779.857 126.113C779.14 126.708 780.012 122.679 779.787 121.943C779.562 121.206 779.286 123.396 778.954 123.486C778.623 123.576 778.533 121.646 778.456 120.949C778.38 120.252 779.869 118.33 780.313 116.773C780.756 115.216 782.815 116.749 782.815 116.749Z" fill="#FFA785"/>
<path d="M767.756 68.3317C767.756 68.3317 771.409 69.4644 773.885 75.6637C776.481 82.164 783.43 96.6043 783.687 98.5972C783.945 100.589 783.227 119.201 783.227 119.201C783.227 119.201 780.187 119.335 779.248 117.694C779.248 117.694 778.189 101.356 777.721 100.468C777.252 99.5794 765.287 83.3406 766.295 79.2202C767.303 75.0998 767.756 68.3317 767.756 68.3317Z" fill="#248232"/>
<path d="M772.536 117.381C771.631 118.265 770.408 119.034 768.762 119.575C768.761 119.575 768.76 119.576 768.758 119.576C768.353 119.709 767.974 119.749 767.614 119.708C760.927 118.924 761.955 89.361 765.195 87.1765C768.609 84.8743 769.822 88.3709 769.822 88.3709C769.803 96.0912 770.199 105.416 772.613 115.237C772.823 116.084 772.783 116.794 772.536 117.381Z" fill="#248232"/>
<path d="M753.32 168.859C753.365 168.628 753.416 168.38 753.476 168.113C753.425 168.364 753.372 168.613 753.32 168.859Z" fill="#233862"/>
<path d="M753.657 167.286C755.703 156.266 753.497 126.737 754.483 126.175C755.494 125.601 758.375 130.877 758.375 130.877C757.864 143.885 755.8 156.857 753.657 167.286Z" fill="#101520"/>
<path d="M703.622 189.793L703.032 184.959L705.51 182.604L706.29 189.003L703.622 189.793Z" fill="#EDEBEB"/>
<path d="M711.862 194.11H701.762C701.762 194.11 701.52 192.358 702.048 191.029C702.553 189.754 703.34 188.967 703.412 187.99C704.054 188.743 704.843 189.226 706.303 189.002C706.482 189.333 707.458 191.099 708.055 191.587C708.716 192.127 711.658 191.934 711.862 194.11Z" fill="#1E1C1B"/>
<path d="M709.825 124.525C709.165 130.572 708.624 136.271 708.184 141.584C705.834 169.891 706.295 187.191 706.295 187.191C706.295 187.191 706.125 187.704 704.668 187.711C703.844 187.716 703.038 187.511 703.038 187.511C703.038 187.511 697.775 169.027 698.181 158.509C698.229 157.244 698.36 156.093 698.592 155.104C699.854 149.722 693.92 129.141 700.371 121.477C706.82 113.813 710.129 121.75 709.825 124.525Z" fill="#101520"/>
<path d="M709.825 124.525C709.165 130.572 708.624 136.271 708.184 141.584L698.181 158.509C698.229 157.244 698.36 156.093 698.592 155.104C699.854 149.722 693.92 129.141 700.371 121.477C706.82 113.813 710.129 121.75 709.825 124.525Z" fill="#101520"/>
<path d="M717.778 66.8544C717.778 66.8544 717.535 65.4728 717.261 64.4187C717.14 63.9523 717.985 60.8885 718.57 60.5115C719.156 60.1344 720.679 62.1976 720.249 63.782C720.026 64.5956 719.663 67.2439 719.663 67.2439L717.778 66.8544Z" fill="#FFA785"/>
<path d="M717.785 66.851C717.785 66.851 717.466 66.0499 717.179 65.92C716.893 65.7903 716.585 64.4805 716.373 63.9612C716.373 63.9612 716.577 63.6216 716.934 64.0587C717.152 64.3252 717.636 65.1068 717.636 65.1068L717.785 66.851Z" fill="#FFA785"/>
<path d="M676.079 71.5007C676.017 71.6462 675.931 71.9062 675.854 72.1501C675.853 72.0837 675.852 72.0178 675.851 71.9529C675.847 71.4666 674.251 68.8185 673.594 68.6527C672.938 68.4871 672.011 70.9676 672.831 72.3389C673.252 73.0434 674.281 75.4542 674.281 75.4542L675.983 74.4543C675.983 74.4543 676.081 73.5826 676.322 73.3627C676.563 73.1429 676.521 71.788 676.589 71.2212C676.589 71.2212 676.307 70.9643 676.079 71.5007Z" fill="#FFA785"/>
<path d="M686.68 188.339C686.537 186.789 686.502 182.714 686.502 182.714C686.502 182.714 690.151 181.386 690.017 182.297C689.357 186.779 689.536 188.998 689.536 188.998L688.06 190.001L686.68 188.339Z" fill="#EDEBEB"/>
<path d="M706.785 124.23C706.785 124.23 692.685 168.213 689.91 187.291C689.91 187.291 689.266 187.793 688.067 187.627C686.707 187.438 686.334 186.363 686.334 186.363C686.334 186.363 683.787 163.496 688.849 155.558C692.328 150.104 687.349 126.151 695.45 124.23C703.552 122.31 706.785 124.23 706.785 124.23Z" fill="#101520"/>
<path d="M704.266 81.9267L704.266 81.9253C704.263 81.9058 704.259 81.8869 704.254 81.8683C704.172 81.481 704.082 81.1 703.985 80.722L703.985 80.7204C703.69 79.5639 703.338 78.4626 702.96 77.4905C702.741 76.933 702.516 76.4163 702.284 75.956C702.249 75.8853 702.215 75.819 702.181 75.751L702.18 75.7496C701.635 74.7072 701.075 73.987 700.569 73.7647C699.647 73.3591 698.622 73.4721 697.916 73.6391C698.071 73.3935 698.422 73.2538 698.422 73.2538C697.971 73.2534 697.05 73.9182 697.05 73.9182C690.556 72.2655 690.936 82.7196 691.378 85.0891C691.819 87.4585 689.728 88.6097 686.779 91.0341C681.152 95.6599 681.246 100.564 681.246 100.564C681.297 100.588 681.352 100.615 681.41 100.649C681.636 100.014 682.116 98.8143 682.62 98.56C682.605 98.6164 682.196 100.172 682.08 101.043C682.937 101.58 684.123 102.413 685.411 103.353L685.413 103.354C687.137 104.609 689.039 106.053 690.563 107.226C690.49 106.749 690.419 106.068 690.525 105.684L691.011 107.396L691.075 107.619C692.047 108.37 692.815 108.97 693.205 109.277C693.245 109.308 693.28 109.337 693.312 109.36C693.426 109.45 693.487 109.498 693.487 109.498C693.357 108.893 693.925 107.315 694.878 105.327C694.943 105.188 695.012 105.048 695.083 104.905C695.391 104.276 695.734 103.613 696.104 102.931C696.237 102.684 696.372 102.437 696.512 102.185C696.511 102.184 696.513 102.184 696.513 102.184C696.624 101.981 696.738 101.781 696.855 101.575L696.856 101.574C697.132 101.088 697.418 100.599 697.709 100.109C698.464 98.8405 699.263 97.5816 700.053 96.4253C701.2 94.7443 702.325 93.281 703.267 92.3244C703.298 92.252 703.327 92.1783 703.354 92.1034C703.501 91.7135 703.614 91.2801 703.702 90.8396C703.729 90.7072 703.753 90.5738 703.775 90.4409C704.01 89.0342 704.014 87.6387 704.011 87.3069C704.087 88.6659 704.057 89.6909 703.977 90.4657C703.959 90.6356 703.939 90.793 703.916 90.9393L703.916 90.941C703.866 91.2717 703.808 91.545 703.746 91.7718C703.9 91.5541 704.036 91.3152 704.156 91.0542C704.234 90.8837 704.306 90.7045 704.369 90.5172C705.129 88.3093 704.925 85.0158 704.266 81.9267Z" fill="#191817"/>
<path d="M703.057 92.5141C703.079 92.521 701.239 94.0366 699.678 93.8238C698.21 93.6248 697.017 91.6994 697.036 91.6914C697.615 91.4552 697.666 90.4918 697.128 86.4795L697.406 86.4943L702.081 86.749C702.081 86.749 702.19 88.3928 702.387 89.9252C702.552 91.2123 702.78 92.4205 703.057 92.5141Z" fill="#FFA785" stroke="#1E1C1B" stroke-width="0.00052125" stroke-miterlimit="2" stroke-linejoin="round"/>
<path d="M702.07 86.7467C702.07 86.7467 702.179 88.3906 702.376 89.923C699.824 90.2716 698.136 87.8612 697.395 86.4921L702.07 86.7467Z" fill="#FFA785"/>
<path d="M696.86 86.0155C696.86 86.0155 695.216 83.8465 694.628 81.8532C694.209 80.4302 694.155 74.9012 699.042 74.8717C699.042 74.8717 700.452 74.7921 701.889 75.5749C703.033 76.1975 704.757 77.6676 703.699 82.6794L703.472 84.3503L696.86 86.0155Z" fill="#191817"/>
<path d="M710.42 123.388C710.42 123.388 704.337 127.501 696.699 125.387C696.609 125.362 690.41 124.236 690.41 124.236C690.516 123.904 691.317 118.454 691.422 118.15C692.777 114.17 695.254 92.5741 697.323 91.5087C697.851 92.1635 699.361 92.6117 700.653 92.481C702.142 92.3314 702.64 91.5999 702.516 90.8129C704.163 91.699 705.428 92.5226 705.428 92.5226C706.933 95.0895 710.42 123.388 710.42 123.388Z" fill="white"/>
<path d="M703.105 88.0522C703.105 88.0522 697.107 89.1827 696.546 84.9215C695.985 80.6605 694.833 77.9367 698.638 77.0347C702.444 76.1326 703.404 77.6316 703.895 79.0019C704.386 80.3724 704.651 87.6482 703.105 88.0522Z" fill="#FFA785" stroke="#1E1C1B" stroke-width="0.00015875" stroke-miterlimit="2" stroke-linejoin="round"/>
<path d="M701.366 76.4672C701.366 76.4672 700.374 81.7456 697.944 82.9126C695.514 84.0795 694.318 83.4947 694.318 83.4947C694.318 83.4947 696.026 81.4148 696.029 78.289C696.029 78.289 699.813 74.2976 701.366 76.4672Z" fill="#191817"/>
<path d="M701.011 76.9415C701.011 76.9415 702.386 77.8497 702.828 78.8843C703.269 79.9188 703.696 82.13 704.258 81.9572C704.258 81.9572 705.054 78.3488 703.409 76.6625C701.665 74.874 701.011 76.9415 701.011 76.9415Z" fill="#191817"/>
<path d="M719.704 66.9503C719.46 66.8527 719.101 66.6214 718.632 66.5732C718.215 66.5305 717.689 66.6854 717.689 66.6854C717.689 66.6854 715.998 78.6551 715.872 79.2892C715.747 79.9235 708.613 89.0663 706.691 89.0296C704.955 88.9966 702.897 90.522 702.516 90.8152C702.516 90.8152 706.559 100.546 706.761 102.374C706.981 104.363 709.073 134.99 709.073 134.99C709.073 134.99 708.949 136.415 711.288 135.648C713.629 134.883 714.213 134.249 714.213 134.249C714.213 134.249 712.064 110.136 711.613 102.638C711.553 101.632 711.408 100.7 711.202 99.8407C711.004 99.0113 711.161 98.1257 711.605 97.4317C714.563 92.811 719.234 85.3253 719.494 83.7344C719.877 81.3968 719.704 66.9503 719.704 66.9503Z" fill="#170C76"/>
<path d="M695.107 194.11H685.007C685.007 194.11 684.765 192.358 685.293 191.029C685.798 189.754 686.585 188.967 686.657 187.99C687.298 188.743 688.088 189.226 689.548 189.002C689.727 189.333 690.703 191.099 691.3 191.587C691.961 192.127 694.904 191.934 695.107 194.11Z" fill="#1E1C1B"/>
<path d="M702.041 103.313C701.701 100.931 697.355 91.3597 697.355 91.3597C697.355 91.3597 694.608 90.4245 692.8 91.17C690.992 91.9155 681.637 85.9046 681.337 85.3514C681.037 84.798 676.026 74.1727 676.026 74.1727C676.026 74.1727 675.611 73.899 674.945 74.2938C674.286 74.6843 674.283 75.4473 674.283 75.4473C674.283 75.4473 678.151 88.8248 679.179 90.8945C679.8 92.1425 685.016 96.4876 689.06 99.7408C689.832 100.362 690.238 101.419 690.111 102.485C689.567 107.06 689.429 109.637 688.803 117.486C688.284 123.999 688.086 136.606 688.086 136.606C688.086 136.606 692.611 138.387 695.735 138.624C698.858 138.861 699.539 135.114 699.539 135.114C699.539 135.114 702.391 105.765 702.041 103.313Z" fill="#170C76"/>
<path d="M701.146 85.9478C701.146 85.9478 701.874 86.4346 702.735 86.2879C703.324 86.1873 703.458 85.3917 703.458 85.3917C703.458 85.3917 703.048 85.245 702.394 85.3942C701.741 85.5436 701.146 85.9478 701.146 85.9478Z" fill="white" stroke="#1E1C1B" stroke-width="0.00015625" stroke-miterlimit="2" stroke-linejoin="round"/>
<path d="M817.97 85.0566C817.97 85.0566 819.833 88.5503 816.331 90.7505C816.331 90.7505 819.023 91.8553 819.96 91.4385C819.96 91.4385 819.728 91.7135 819.552 91.8142C819.552 91.8142 822.081 92.7286 823.343 92.2293C824.604 91.7303 827.321 77.7878 819.852 77.0522C819.852 77.0522 813.96 74.6517 812.714 82.1333C811.469 89.6151 809.201 88.8889 809.201 88.8889C809.201 88.8889 809.75 89.4175 810.055 89.515C810.055 89.515 810.545 89.479 810.695 89.2488C810.695 89.2488 810.507 89.6268 810.362 89.7195C810.362 89.7195 812.751 90.7472 814.214 90.1679C815.677 89.5886 817.947 86.675 817.97 85.0566Z" fill="#191817"/>
<path d="M810.481 195.128H820.009C820.009 195.128 820.237 193.476 819.74 192.222C819.263 191.018 818.521 190.276 818.453 189.355C817.847 190.064 817.102 190.52 815.725 190.309C815.557 190.621 814.635 192.287 814.072 192.748C813.449 193.257 810.672 193.076 810.481 195.128Z" fill="#1E1C1B"/>
<path d="M818.355 190.979C818.355 190.979 817.542 191.279 816.693 191.364C815.192 191.517 814.973 191.008 814.973 191.008C814.973 191.008 813.482 175.898 808.654 147.018C807.958 142.846 807.683 140.537 807.431 136.831C807.356 135.72 807.282 134.486 807.202 133.038C806.983 129.144 807.502 122.594 810.069 120.872C811.236 120.087 812.826 120.303 814.964 122.219C815.132 122.37 815.305 122.532 815.48 122.704C821.736 128.864 819.171 146.549 819.424 154.864C819.466 156.242 819.586 157.363 819.836 158.131C820.158 159.125 820.852 160.503 821.009 161.799C822.322 172.583 818.355 190.979 818.355 190.979Z" fill="#101520"/>
<path d="M819.424 154.864L807.431 136.831C807.356 135.719 807.282 134.486 807.202 133.038C806.983 129.144 807.502 122.594 810.069 120.871L814.963 122.219C815.132 122.37 815.305 122.531 815.48 122.704C821.736 128.864 819.171 146.549 819.424 154.864Z" fill="#101520"/>
<path d="M853.31 172.3L849.344 162.44C849.344 162.44 847.928 162.891 847.134 163.928C846.371 164.923 845.818 164.745 844.081 163.373C844.735 164.523 844.823 165.201 845.228 166.713C845.547 166.758 847.363 168.758 849.225 169.31C849.967 169.53 851.59 172.955 853.31 172.3Z" fill="#1E1C1B"/>
<path d="M811.735 125.209C811.735 125.209 820.274 158.987 823.402 161.161C826.531 163.335 842.98 166.326 846.323 167.957C846.323 167.957 846.731 167.293 846.492 165.872C846.439 165.558 845.967 164.423 845.967 164.423C845.967 164.423 835.752 155.685 829.029 154.803C827.361 154.584 832.426 125.59 821.151 124.431C810.852 123.374 811.735 125.209 811.735 125.209Z" fill="#101520"/>
<path d="M799.564 69.7873C799.564 69.7873 799.794 68.4839 800.053 67.4893C800.167 67.0494 799.369 64.1587 798.816 63.8029C798.265 63.4471 796.827 65.3938 797.233 66.8885C797.442 67.6563 797.786 70.1548 797.786 70.1548L799.564 69.7873Z" fill="#FFA785"/>
<path d="M799.565 69.7864C799.565 69.7864 799.866 69.0307 800.136 68.9082C800.407 68.7857 800.698 67.55 800.897 67.0602C800.897 67.0602 800.705 66.7397 800.369 67.1521C800.163 67.4035 799.706 68.1409 799.706 68.1409L799.565 69.7864Z" fill="#FFA785"/>
<path d="M838.903 74.1697C838.961 74.307 839.042 74.5519 839.114 74.7826C839.116 74.7196 839.117 74.6574 839.117 74.5965C839.121 74.1375 840.627 71.6392 841.247 71.4828C841.865 71.3262 842.739 73.6667 841.966 74.9605C841.569 75.6249 840.598 77.8998 840.598 77.8998L838.993 76.9563C838.993 76.9563 838.901 76.1338 838.673 75.9264C838.445 75.7191 838.486 74.4407 838.421 73.906C838.421 73.906 838.687 73.6635 838.903 74.1697Z" fill="#FFA785"/>
<path d="M813.446 94.0015C813.426 94.0081 815.162 95.4379 816.633 95.2374C818.018 95.0495 819.144 93.2329 819.127 93.2255C818.58 93.0026 818.533 92.0938 819.04 88.3081L818.778 88.322L814.367 88.5623C814.367 88.5623 814.263 90.1132 814.077 91.559C813.922 92.7732 813.707 93.9133 813.446 94.0015Z" fill="#FFA785" stroke="#191817" stroke-width="0.00015625" stroke-miterlimit="2" stroke-linejoin="round"/>
<path d="M814.364 88.5609C814.364 88.5609 814.26 90.1118 814.074 91.5577C816.483 91.8866 818.075 89.6124 818.775 88.3206L814.364 88.5609Z" fill="#FFA785"/>
<path d="M819.288 87.8656C819.288 87.8656 820.839 85.8189 821.394 83.9383C821.789 82.5956 821.84 77.3793 817.23 77.3514C817.23 77.3514 815.9 77.2765 814.544 78.015C813.465 78.6025 811.838 79.9892 812.836 84.7178L813.05 86.2942L819.288 87.8656Z" fill="#191817"/>
<path d="M807.92 123.899C807.92 123.899 812.247 127.006 819.452 125.011C819.537 124.987 823.55 124.259 823.55 124.259C823.449 123.946 819.232 116.019 819.134 115.731C817.855 111.976 820.816 94.0527 818.863 93.0475C818.365 93.6651 816.94 94.088 815.722 93.9649C814.317 93.8235 813.847 93.1332 813.964 92.391C812.411 93.2268 811.216 94.0039 811.216 94.0039C809.796 96.4256 807.92 123.899 807.92 123.899Z" fill="#FFA785"/>
<path d="M813.383 89.7935C813.383 89.7935 819.042 90.8603 819.572 86.8401C820.101 82.8198 821.188 80.2499 817.597 79.3989C814.007 78.5478 813.101 79.9618 812.638 81.2547C812.174 82.5479 811.925 89.4125 813.383 89.7935Z" fill="#FFA785" stroke="#1E1C1B" stroke-width="0.00015625" stroke-miterlimit="2" stroke-linejoin="round"/>
<path d="M815.04 78.8603C815.04 78.8603 815.977 83.8405 818.269 84.9416C820.562 86.0425 821.69 85.4908 821.69 85.4908C821.69 85.4908 820.079 83.5286 820.076 80.5793C820.076 80.5793 816.505 76.8135 815.04 78.8603Z" fill="#191817"/>
<path d="M815.365 79.3143C815.365 79.3143 814.069 80.1712 813.651 81.1471C813.235 82.1232 812.832 84.2095 812.302 84.0464C812.302 84.0464 811.551 80.6421 813.103 79.051C814.749 77.3636 815.365 79.3143 815.365 79.3143Z" fill="#191817"/>
<path d="M840.226 77.905C840.226 77.905 836.577 90.5268 835.606 92.4789C835.02 93.6567 828.447 98.3139 824.632 101.383C824.59 101.416 824.542 101.483 824.485 101.583C824.484 101.585 824.483 101.586 824.481 101.588C823.529 103.265 820.569 113.637 821.277 115.498C824.252 123.322 826.291 126.349 827.033 128.544C827.404 129.638 826.91 130.865 825.938 131.258C824.715 131.754 822.915 132.377 820.789 132.791C820.384 132.872 819.967 132.943 819.54 133.004C813.676 133.851 809.705 132.285 807.69 131.128C806.736 130.58 806.161 129.442 806.22 128.229C806.341 125.754 807.429 123.304 807.92 117.351C808.291 112.834 804.866 105.959 805.01 103.555C805.069 102.604 805.726 101.467 806.081 100.73C806.081 100.73 806.081 100.729 806.082 100.728C806.711 99.4224 807.058 98.244 806.638 97.5886C803.848 93.2303 797.822 87.2203 797.575 85.7198C797.215 83.5139 797.378 69.8836 797.378 69.8836C797.608 69.7918 797.947 69.5731 798.39 69.5284C798.784 69.4886 799.278 69.6336 799.278 69.6336C799.278 69.6336 800.875 80.9276 800.993 81.5255C801.112 82.1235 807.842 90.7503 809.656 90.7152C811.294 90.6836 813.603 92.1237 813.963 92.4003C813.963 92.4003 812.492 95.3663 812.126 99.3713C811.869 102.172 813.514 100.927 814.547 99.0079C815.946 96.4111 818.759 92.7132 818.759 92.7132C818.759 92.7132 821.049 92.0357 822.755 92.7399C824.461 93.4429 833.288 87.7712 833.571 87.2492C833.855 86.7274 838.582 76.7032 838.582 76.7032C838.582 76.7032 838.973 76.4446 839.602 76.8166C840.223 77.185 840.226 77.905 840.226 77.905Z" fill="#AA2A32"/>
<path d="M815.033 87.6088C815.033 87.6088 814.791 88.1645 814.465 88.1745C814.14 88.1846 813.312 88.0955 813.256 87.9995C813.2 87.9034 813.064 87.3229 813.064 87.3229C813.064 87.3229 814.431 87.2608 815.033 87.6088Z" fill="white" stroke="#434241" stroke-width="0.00015875" stroke-miterlimit="2" stroke-linejoin="round"/>
<path d="M825.93 131.254C824.707 131.75 822.907 132.372 820.782 132.787C818.758 129.613 815.334 125.619 816.215 118.272C817.126 110.678 823.687 102.686 824.474 101.584C823.522 103.26 820.561 113.632 821.269 115.494C824.245 123.318 826.283 126.344 827.026 128.539C827.396 129.634 826.902 130.86 825.93 131.254Z" fill="#AA2A32"/>
<path d="M806.073 100.724C806.702 99.4181 807.049 98.2397 806.629 97.5843C803.839 93.226 797.813 87.216 797.566 85.7155C798.164 87.3465 805.461 92.2185 807.513 94.3136C809.542 96.3818 806.156 100.622 806.073 100.724Z" fill="#AA2A32"/>
<path d="M683.597 40.6153C683.597 40.6153 684.964 42.7471 684.818 45.1788C684.709 46.9837 683.295 48.8095 683.2 48.8818L685.431 50.2359C685.431 50.2359 687.086 46.8928 686.529 44.0996C686.358 43.2437 685.566 41.8744 684.985 41.2644C684.345 40.5919 683.597 40.6153 683.597 40.6153Z" fill="#434241"/>
<path d="M679.021 40.8384L677.607 37.2838C677.607 37.2838 684.202 37.5376 686.387 43.6523C686.387 43.6523 681.773 39.9074 679.021 40.8384Z" fill="#FAF5F7"/>
<path d="M654.115 131.274C654.115 131.274 652.542 129.924 652.137 127.906C651.836 126.408 652.591 124.529 652.653 124.444L650.546 123.965C650.546 123.965 649.923 127.147 650.979 129.261C651.303 129.909 652.241 130.801 652.846 131.135C653.511 131.502 654.115 131.274 654.115 131.274Z" fill="#434241"/>
<path d="M657.768 129.818L659.684 132.312C659.684 132.312 654.268 133.949 651.172 129.588C651.172 129.588 655.732 131.343 657.768 129.818Z" fill="#EDEBEB"/>
<path d="M895.156 142.901C895.156 142.901 895.018 140.557 898.885 139.422C900.618 138.914 904.477 139.818 902.03 144.139C899.486 148.632 897.217 147.01 897.217 147.01C897.217 147.01 902.524 142.283 900.401 140.121C898.057 137.736 897.157 142.462 897.157 142.462C897.157 142.462 896.212 142.406 895.156 142.901Z" fill="#EDEBEB"/>
<path d="M896.544 147.273C896.544 147.273 895.098 146.383 895.671 144.405L897.75 144.816C897.75 144.816 896.95 146.957 898.906 147.216C898.906 147.216 897.024 147.724 896.544 147.273Z" fill="#434241"/>
<path d="M760.926 21.5532C760.926 21.5532 763.087 18.0123 766.401 20.5198L768.418 18.3238C768.418 18.3238 766.532 16.6949 762.184 19.6161C759.339 21.5274 760.926 21.5532 760.926 21.5532Z" fill="#434241"/>
<path d="M758.785 25.0227C758.785 25.0227 758.356 20.9579 764.336 18.422C764.336 18.422 762.175 19.614 761.508 23.6655L758.785 25.0227Z" fill="#EDEBEB"/>
<path d="M782.81 3.46669C782.81 3.46669 784.577 2.19691 784.763 0.66243C784.763 0.66243 786.484 0.76831 786.856 1.4032C786.856 1.4032 786.065 3.94295 785.135 4.41922C785.135 4.41922 783.043 4.57805 782.81 3.46669Z" fill="#434241"/>
<path d="M725.944 148.361C725.944 148.361 724.06 147.006 723.862 145.369C723.862 145.369 722.025 145.482 721.629 146.16C721.629 146.16 722.472 148.869 723.464 149.376C723.464 149.376 725.697 149.546 725.944 148.361Z" fill="#434241"/>
<path d="M803.316 43.4698C803.316 43.4698 805.209 42.109 805.409 40.4649C805.409 40.4649 807.251 40.5782 807.65 41.2586C807.65 41.2586 806.803 43.98 805.807 44.4901C805.807 44.4901 803.565 44.6602 803.316 43.4698Z" fill="#434241"/>
<path d="M840.176 105.861C840.176 105.861 839.082 104.351 838.493 104.138C837.906 103.926 836.766 102.923 836.618 103.336C836.469 103.749 837.383 104.387 837.334 104.859C837.287 105.333 834.428 106.091 834.446 106.59C834.463 107.091 835.118 108.299 836.208 108.161C837.299 108.022 840.063 107.276 840.631 107.598C841.199 107.921 840.176 105.861 840.176 105.861Z" fill="#FFA785"/>
<path d="M869.647 98.5067C868.033 100.973 866.143 102.922 864.203 104.458C858.031 109.344 851.337 110.07 851.337 110.07C849.733 109.486 844.806 108.876 841.895 108.343H841.894C840.623 108.11 839.738 107.892 839.679 107.697L839.751 104.811C839.751 104.811 850.439 104.169 852.209 103.234C855 100.498 857.466 96.9458 859.072 94.1699C860.429 91.8259 861.948 90.0946 864.451 89.0789C868.073 87.6098 874.657 90.8471 869.647 98.5067Z" fill="#0049AF"/>
<path d="M864.754 102.646L864.21 104.463C858.039 109.348 851.345 110.075 851.345 110.075C850.057 110.075 844.814 108.881 841.902 108.347C842.017 108.357 849.83 109.052 851.557 108.849C853.297 108.644 861.396 100.657 861.396 100.657L864.754 102.646Z" fill="#0049AF"/>
<path d="M857.759 194.105H869.571C870.416 193.452 869.342 187.067 869.342 187.067C869.342 187.067 866.118 185.675 865.561 188.506C865.003 191.334 861.455 192.234 859.579 192.578C858.294 192.816 857.888 193.619 857.759 194.105Z" fill="#1E1C1B"/>
<path d="M875.278 194.105H887.088C887.935 193.452 886.861 187.067 886.861 187.067C886.861 187.067 883.637 185.675 883.08 188.506C882.522 191.334 878.974 192.234 877.096 192.578C875.812 192.816 875.407 193.619 875.278 194.105Z" fill="#1E1C1B"/>
<path d="M860.948 128.967C860.948 128.967 861.479 136.505 862.103 145.564C862.95 157.872 865.238 188.387 865.238 188.387C865.238 188.387 866.739 189.843 870.06 189.046C870.06 189.046 872.887 178.52 873.732 166.504C873.745 166.307 873.758 166.109 873.771 165.91C874.559 153.679 875.782 127.923 875.782 127.923L860.948 128.967Z" fill="#101520"/>
<path d="M860.769 126.37C860.769 126.37 861.481 136.512 862.105 145.572L873.734 166.512C873.747 166.315 873.76 166.117 873.774 165.918C874.561 153.687 875.784 127.93 875.784 127.93L860.769 126.37Z" fill="#101520"/>
<path d="M864.16 126.364C864.16 126.364 872.594 150.257 875.291 159.312C877.212 165.764 882.628 188.395 882.628 188.395C882.628 188.395 884.984 189.21 886.963 187.633C886.963 187.633 888.979 164.512 884.908 157.993C882.748 154.535 884.372 122.039 875.615 121.76C866.859 121.481 864.16 126.364 864.16 126.364Z" fill="#101520"/>
<path d="M867.93 91.1448C869.217 91.9163 870.474 91.9645 871.564 91.7013C872.56 91.4628 873.415 90.9621 874.025 90.5189C874.65 90.064 875.018 89.6677 875.018 89.6677C875.018 89.6677 874.975 89.5961 874.901 89.4552C874.522 88.7148 873.368 86.0528 873.881 81.7758C873.887 81.7198 873.515 81.7992 872.953 81.9504C871.28 82.4016 867.914 83.4876 867.766 83.5356H867.761C867.761 83.5356 867.719 84.4352 867.58 86.0476C867.569 86.1898 867.557 86.3384 867.542 86.4921C867.525 86.6813 867.508 86.882 867.487 87.088C867.332 88.7645 867.93 91.1448 867.93 91.1448Z" fill="#FFA785" stroke="black" stroke-width="0.00015625" stroke-miterlimit="2" stroke-linejoin="round"/>
<path d="M867.574 86.043C870.073 86.6949 873.801 82.4973 873.801 82.4973C873.529 82.2664 873.242 82.084 872.947 81.9457C871.274 82.3969 867.909 83.4829 867.76 83.5309H867.754C867.754 83.5309 867.713 84.4305 867.574 86.043Z" fill="#FFA785"/>
<path d="M866.717 83.3117C866.717 83.3117 867.745 83.7314 869.053 83.9316C870.969 84.2261 873.488 84.0523 874.279 81.4153C875.612 76.9764 877.314 74.315 873.393 72.5024C871.294 71.532 869.95 71.4805 869.038 71.8509C868.246 72.1704 867.778 72.809 867.424 73.4406C866.663 74.7992 865.13 82.5346 866.717 83.3117Z" fill="#FFA785" stroke="black" stroke-width="0.00015625" stroke-miterlimit="2" stroke-linejoin="round"/>
<path d="M864.34 73.7906C866.609 75.6478 869.751 73.8218 870.728 74.3161C871.703 74.8094 871.878 76.6712 871.896 77.2619C871.913 77.8539 871.981 78.353 873.307 77.999C873.524 77.9411 873.68 77.9582 873.788 78.0316C874.337 78.4026 873.635 80.2008 873.423 80.5901C873.423 80.5901 873.119 81.8779 873.795 82.505C873.876 82.5799 875.205 83.2408 878.407 77.6649C878.91 76.7896 879.391 74.8178 878.614 72.9193C877.837 71.0208 874.591 69.1859 871.841 68.2132C870.809 67.8486 870.044 67.8619 869.446 68.1117C868.449 68.5266 867.917 69.5994 867.389 70.6773C866.504 72.4878 864.34 73.7906 864.34 73.7906Z" fill="#191817"/>
<path d="M878.945 128.035C878.945 128.035 877.846 128.306 876.457 128.573C875.097 128.832 873.458 129.088 872.3 129.078C866.378 129.025 861.422 127.041 861.422 127.041C860.309 127.041 859.799 125.079 859.618 122.342C859.493 120.488 859.521 118.277 859.609 116.079C859.637 115.366 859.674 114.654 859.712 113.957C859.79 112.571 859.882 111.243 859.964 110.067C860.042 108.965 860.113 107.998 860.155 107.248C860.155 107.247 859.996 102.002 860.059 97.3874C860.103 94.0755 861.737 91.0609 862.145 90.5695C863.331 89.1427 866.765 88.2402 867.453 88.1159C867.506 88.1079 867.533 88.1023 867.533 88.1023C870.358 89.9073 874.161 87.4689 874.161 87.4689C874.247 87.4853 874.332 87.5085 874.416 87.5288C874.695 87.4605 877.55 87.9425 878.215 88.355C879.857 89.3734 880.81 100.676 880.81 100.676C881.084 108.352 880.74 120.647 881.274 125.34C881.45 126.885 880.136 127.722 878.945 128.035Z" fill="#0049AF"/>
<path d="M874.397 87.5316C874.397 87.5316 870.189 92.4709 867.18 91.4591C867.18 91.4591 866.78 90.7919 868.135 90.5781C869.49 90.3643 870.953 90.4517 874.397 87.5316Z" fill="#434241"/>
<path d="M866.699 80.4431C866.699 80.4431 866.618 81.0178 867.791 81.4762C867.791 81.4762 868.778 81.8614 868.957 81.2721C868.957 81.2721 868.175 80.4236 866.699 80.4431Z" fill="white" stroke="#434241" stroke-width="0.00015625" stroke-miterlimit="2" stroke-linejoin="round"/>
<path d="M876.703 106.218C876.703 106.218 870.591 117.85 867.124 119.898C864.78 121.283 861.498 122.012 859.618 122.34C859.493 120.486 859.521 118.275 859.609 116.077C862.092 115.734 865.876 115.188 865.876 115.188L876.703 106.218Z" fill="#434241"/>
<path d="M868.654 100.382L865.396 113.763C865.396 113.763 861.562 114.039 859.713 113.963C859.791 112.578 859.793 112.531 859.876 111.356C859.876 111.356 864.277 108.746 868.654 100.382Z" fill="#434241"/>
<path d="M849.048 114.741C849.048 114.741 847.953 113.23 847.365 113.018C846.776 112.806 845.637 111.802 845.488 112.216C845.34 112.629 846.253 113.267 846.206 113.739C846.157 114.213 843.3 114.97 843.317 115.47C843.335 115.971 843.989 117.179 845.08 117.041C846.17 116.902 848.935 116.155 849.502 116.477C850.07 116.801 849.048 114.741 849.048 114.741Z" fill="#FFA785"/>
<path d="M881.17 96.188C881.17 96.188 881.362 103.276 867.166 117.495L864.315 111.685C863.791 111.337 873.486 87.6063 876.273 87.7957C881.672 88.1626 881.17 96.188 881.17 96.188Z" fill="#0049AF"/>
<path d="M865.999 110.99C865.999 110.99 849.855 113.089 849.258 113.455C848.66 113.82 847.378 115.241 847.805 117.024C847.805 117.024 856.161 118.219 860.759 118.198C864.725 118.178 867.291 117.455 867.291 117.455L865.999 110.99Z" fill="#0049AF"/>
<path d="M889.383 132.143H884.419V195.518H889.383V132.143Z" fill="#CCC9C9"/>
<path d="M890.641 132.143H885.677V195.518H890.641V132.143Z" fill="white"/>
<path d="M873.145 132.143H868.36V193.23H873.145V132.143Z" fill="#FAF5F7"/>
<path d="M694.148 132.143H689.848V193.23H694.148V132.143Z" fill="#FAF5F7"/>
<path d="M899.933 130.29H661.167V132.926H899.933V130.29Z" fill="white"/>
<path d="M885.843 132.394H675.249V135.03H885.843V132.394Z" fill="#FAF5F7"/>
<path d="M678.385 132.143H673.924V195.518H678.385V132.143Z" fill="#CCC9C9"/>
<path d="M677.554 132.143H673.093V195.518H677.554V132.143Z" fill="white"/>
<path d="M730.606 130.249H707.008L710.182 114.835H733.781L730.606 130.249Z" fill="#FAF5F7"/>
<path d="M730.586 129.638H702.538V130.349H730.586V129.638Z" fill="#CCC9C9"/>
<path d="M770.961 130.322H749.504L746.784 117.139H768.241L770.961 130.322Z" fill="#FAF5F7"/>
<path d="M774.98 129.463H750.939V130.47H774.98V129.463Z" fill="#FAF5F7"/>
</svg>
