<svg width="904" height="565" viewBox="0 0 904 565" fill="none" xmlns="http://www.w3.org/2000/svg">
<path d="M379 316.154C404.441 323.161 433.329 316.686 454.053 302.694C474.777 288.7 488.003 268.073 495.232 246.555C502.458 225.037 504.143 202.476 505.171 180.098C505.976 162.52 507.462 142.886 522.927 131.102C535.556 121.477 554.026 119.95 571.131 119.222C600.921 117.95 630.783 117.672 660.621 118.383" stroke="#CCC9C9" stroke-width="2" stroke-miterlimit="2" stroke-linecap="round" stroke-dasharray="4 4"/>
<path d="M352 271.846C382.846 264.839 417.872 271.314 443 285.306C468.127 299.3 484.163 319.927 492.928 341.445C501.689 362.963 503.733 385.524 504.979 407.902C505.955 425.48 507.757 445.114 526.508 456.898C541.82 466.523 564.214 468.051 584.953 468.778C621.073 470.05 657.28 470.328 693.458 469.617" stroke="#CCC9C9" stroke-width="2" stroke-miterlimit="2" stroke-linecap="round" stroke-dasharray="4 4"/>
<path d="M115.506 266.944L206 266.853C205.267 265.368 204.496 264.048 203.688 262.894L198.074 262.901L115.504 262.983C105.88 262.99 97.5555 253.696 93.7697 240.199C93.4004 238.921 93.0834 237.635 92.8096 236.285C92.123 232.928 92.1385 229.37 92.0416 225.684C92.0202 225.079 92.4459 224.497 92.4456 223.892L92.4317 192.296C92.4309 190.288 91.9087 188.298 91.74 186.361C91.5703 184.181 91.0768 181.164 90.7072 179.104C87.4555 160.525 76.7942 145.991 64.4526 146L1 146.049L1.00251 151.496L64.4549 151.447C75.1853 151.438 84.3107 163.535 87.4668 179.452C87.8775 181.493 88.4623 183.901 88.6632 186.081C88.8428 188.019 89.2164 190.273 89.2172 192.298L89.2311 223.894C89.2314 224.5 88.9645 225.106 88.9757 225.711C89.0717 229.379 89.3034 232.944 89.9156 236.334C90.1583 237.683 90.3629 239.015 90.6898 240.296C94.0549 254.067 101.513 263.9 110.602 266.679C112.203 267.179 113.822 266.946 115.506 266.944V266.944Z" fill="#CCC9C9"/>
<path d="M1.00162 282L206 282.041L205.998 283L1 282.959L1.00162 282Z" fill="#CCC9C9"/>
<path d="M207.066 310L218 310.013C217.668 311.644 217.283 313.276 216.848 314.907L207.065 314.896C195.337 314.882 184.826 327.287 177.79 345.7C177.603 346.192 177.417 346.698 177.235 347.198C176.538 349.103 175.869 351.46 175.25 353.518C173.285 359.995 171.703 367.28 170.612 374.842C170.367 376.488 169.788 378.247 169.601 379.914C168.824 386.565 168.057 393.611 168.055 400.783L168.041 448.451C168.04 449.99 168.383 451.506 168.353 453.002C168.243 457.529 168.159 461.971 167.755 466.304C167.558 468.32 167.432 470.291 167.175 472.262C166.644 476.422 166.011 480.452 165.226 484.329C164.872 485.997 164.531 487.727 164.139 489.35C157.477 517.054 144.295 536.017 129.124 536L1.49625 535.853L0 530.956L129.125 531.104C143.001 531.12 155.145 514.248 161.599 489.381C162.021 487.756 162.414 486.063 162.788 484.373C163.633 480.517 164.351 476.465 164.921 472.284C165.196 470.334 165.432 468.328 165.63 466.313C166.062 462.001 165.986 457.532 166.096 453.005C166.136 451.489 165.794 449.965 165.794 448.449L165.808 399.891C165.811 393.045 166.587 386.394 167.285 380.004C167.462 378.314 167.849 376.668 168.076 375.021C169.098 367.504 170.653 360.42 172.49 353.879C173.06 351.842 173.714 349.128 174.362 347.201C174.66 346.305 174.965 345.451 175.278 344.579C182.706 323.876 194.223 309.985 207.066 310H207.066Z" fill="#CCC9C9"/>
<path d="M207.066 254L218 253.988C217.668 252.363 217.283 250.739 216.848 249.115L207.065 249.126C195.337 249.139 184.826 236.789 177.79 218.458C177.603 217.968 177.417 217.464 177.235 216.967C176.538 215.07 175.869 212.724 175.25 210.674C173.285 204.227 171.703 196.974 170.612 189.445C170.367 187.806 169.788 186.055 169.601 184.395C168.824 177.773 168.057 170.759 168.055 163.619L168.041 116.161C168.04 114.63 168.383 113.12 168.353 111.631C168.243 107.124 168.159 102.702 167.755 98.388C167.558 96.3809 167.432 94.4181 167.175 92.4555C166.644 88.3148 166.011 84.3027 165.226 80.4426C164.872 78.7816 164.531 77.0599 164.139 75.4438C157.477 47.8617 144.295 28.9827 129.124 29L1.49625 29.1458L0 34.0215L129.125 33.8741C143.001 33.8582 155.145 50.6559 161.599 75.4126C162.021 77.0302 162.414 78.7164 162.788 80.3983C163.633 84.2374 164.351 88.2717 164.921 92.4345C165.196 94.375 165.432 96.373 165.63 98.3785C166.062 102.671 165.986 107.12 166.096 111.628C166.136 113.137 165.794 114.655 165.794 116.164L165.808 164.506C165.811 171.323 166.587 177.944 167.285 184.306C167.462 185.988 167.849 187.627 168.076 189.267C169.098 196.751 170.653 203.803 172.49 210.315C173.06 212.343 173.714 215.045 174.362 216.964C174.66 217.856 174.965 218.706 175.278 219.574C182.706 240.186 194.223 254.015 207.066 254H207.066Z" fill="#CCC9C9"/>
<path d="M106.292 299.051L206 299.137C205.326 300.487 204.617 301.687 203.874 302.737L106.291 302.652C97.4406 302.644 89.7859 311.094 86.3051 323.363C85.9656 324.526 85.6741 325.695 85.4223 326.922C84.7912 329.973 84.8056 333.209 84.7166 336.559C84.697 337.11 85.0883 337.639 85.0882 338.189L85.0769 366.914C85.0762 368.739 84.5961 370.548 84.441 372.309C84.2851 374.292 83.8315 377.034 83.4917 378.906C80.5023 395.797 70.6989 409.01 59.3499 409L1 408.949L1.00192 403.998L59.3518 404.048C69.2192 404.057 77.6101 393.06 80.5118 378.59C80.8893 376.734 81.427 374.546 81.6116 372.564C81.7767 370.802 82.1202 368.753 82.121 366.911L82.1322 338.187C82.1324 337.636 81.887 337.085 81.8972 336.534C81.9854 333.2 82.1982 329.959 82.7611 326.878C82.9842 325.65 83.1723 324.44 83.4728 323.275C86.5669 310.756 93.4246 301.817 101.783 299.292C103.255 298.837 104.743 299.05 106.292 299.051V299.051Z" fill="#CCC9C9"/>
<path d="M199 181.488C199 136.483 226.415 100 260.233 100H412.039C445.857 100 473.271 136.483 473.271 181.488V465H260.233C226.415 465 199 428.517 199 383.512V181.488V181.488Z" fill="#EDEBEB"/>
<path d="M276.46 176.958C279.121 182.858 274.962 192.309 267.171 198.068C259.379 203.827 250.906 203.712 248.245 197.812C245.584 191.911 249.743 182.46 257.534 176.7C265.326 170.942 273.799 171.058 276.46 176.958" fill="#CCC9C9"/>
<path d="M345.848 164.291C345.399 168.155 340.9 170.5 335.798 169.529C330.696 168.557 326.925 164.638 327.373 160.774C327.822 156.911 332.321 154.566 337.423 155.537C342.524 156.508 346.297 160.427 345.848 164.291Z" fill="#CCC9C9"/>
<path d="M252.826 221.186C248.039 221.186 244.159 216.219 244.159 210.09C244.159 203.963 248.039 198.995 252.826 198.995C257.613 198.995 261.493 203.963 261.493 210.09C261.493 216.219 257.613 221.186 252.826 221.186ZM273.817 203.354H269.507C269.201 202.104 268.81 200.901 268.342 199.757L271.391 195.854C272.147 194.881 272.147 193.311 271.391 192.343L266.689 186.327C265.933 185.356 264.706 185.356 263.95 186.327L260.901 190.23C260.007 189.631 259.065 189.128 258.088 188.734V183.219C258.088 181.846 257.221 180.737 256.149 180.737H249.503C248.431 180.737 247.565 181.846 247.565 183.219V188.734C246.587 189.128 245.645 189.631 244.751 190.23L241.702 186.327C240.946 185.356 239.719 185.356 238.963 186.327L234.261 192.343C233.505 193.311 233.505 194.881 234.261 195.854L237.31 199.757C236.842 200.901 236.452 202.104 236.144 203.354H231.835C230.763 203.354 229.896 204.468 229.896 205.836V214.344C229.896 215.717 230.763 216.826 231.835 216.826H236.144C236.452 218.077 236.845 219.283 237.31 220.428L234.261 224.331C233.505 225.299 233.505 226.87 234.261 227.841L238.963 233.857C239.719 234.824 240.946 234.824 241.702 233.857L244.751 229.953C245.645 230.549 246.587 231.052 247.565 231.446V236.962C247.565 238.335 248.431 239.444 249.503 239.444H256.149C257.221 239.444 258.088 238.335 258.088 236.962V231.446C259.065 231.052 260.007 230.549 260.901 229.953L263.95 233.857C264.706 234.824 265.933 234.824 266.689 233.857L271.391 227.841C272.147 226.87 272.147 225.299 271.391 224.331L268.342 220.428C268.807 219.283 269.201 218.077 269.507 216.826H273.817C274.888 216.826 275.755 215.717 275.755 214.344V205.836C275.755 204.468 274.888 203.354 273.817 203.354Z" fill="#101420"/>
<path d="M252.828 192.591C245.289 192.591 239.156 200.442 239.156 210.093C239.156 219.744 245.289 227.595 252.828 227.595C260.367 227.595 266.499 219.744 266.499 210.093C266.499 200.442 260.367 192.591 252.828 192.591V192.591ZM252.828 229.501C244.468 229.501 237.667 220.795 237.667 210.093C237.667 199.392 244.468 190.685 252.828 190.685C261.187 190.685 267.988 199.392 267.988 210.093C267.988 220.795 261.187 229.501 252.828 229.501Z" fill="white"/>
<path d="M302.034 215.137C296.795 215.137 292.534 209.682 292.534 202.975V197.38H295.656V202.975C295.656 207.478 298.518 211.139 302.034 211.139C305.55 211.139 308.411 207.478 308.411 202.975V185.295C308.411 178.589 312.673 173.134 317.911 173.134H321.4C326.638 173.134 330.9 178.589 330.9 185.295V230.345H327.777V185.295C327.777 180.794 324.917 177.132 321.4 177.132H317.911C314.394 177.132 311.534 180.794 311.534 185.295V202.975C311.534 209.682 307.272 215.137 302.034 215.137" fill="white"/>
<path d="M309.321 157.489C309.321 146.265 301.912 137.257 293.013 138.044C285.559 138.703 279.497 146.387 278.915 155.924C278.637 160.49 279.589 164.757 281.391 168.238C284.458 174.162 286.094 181.111 286.094 188.219V188.219H302.094C302.094 181.163 303.651 174.215 306.731 168.364C308.366 165.258 309.321 161.517 309.321 157.489" fill="#FF7B47"/>
<path d="M299.743 162.721H297.156V159.507H299.743V162.721ZM291.038 162.721H288.45V159.507H291.038V162.721ZM295.743 157.699V162.721H292.45V157.699H287.038V164.528H291.038V190.733H292.45V164.528H295.743V190.733H297.156V164.528H301.156V157.699H295.743Z" fill="white"/>
<path d="M297.859 197.958H290.33V202.576H297.859V197.958Z" fill="#101420"/>
<path d="M298.771 200.068H289.418C287.583 200.068 286.094 198.163 286.094 195.813V188.221H302.094V195.813C302.094 198.163 300.606 200.068 298.771 200.068Z" fill="#434241"/>
<path d="M448.19 258.139L426.752 263.172L431.454 270.247L417.197 285.777L400.614 262.076L372.387 292.578L377.086 299.705L399.907 275.045L416.509 298.773L436.176 277.35L440.878 284.424L448.19 258.139V258.139Z" fill="#1E1C1B"/>
<path d="M436.976 232.977L419.9 236.985L423.645 242.62L412.288 254.992L399.079 236.112L376.594 260.409L380.337 266.086L398.516 246.444L411.74 265.344L427.406 248.279L431.151 253.914L436.976 232.977V232.977Z" fill="#434241"/>
<path d="M428.173 342.183H426.611C425.749 342.183 425.049 343.078 425.049 344.182C425.049 345.287 425.749 346.181 426.611 346.181H428.173C429.035 346.181 429.734 345.287 429.734 344.182C429.734 343.078 429.035 342.183 428.173 342.183Z" fill="white"/>
<path fill-rule="evenodd" clip-rule="evenodd" d="M204.767 312.666L273.278 286.206L288.02 348.759L219.509 375.22L204.767 312.666Z" fill="#0B1320"/>
<path fill-rule="evenodd" clip-rule="evenodd" d="M211.665 321.846L271.5 298.737L282.613 345.896L222.778 369.005L211.665 321.846Z" fill="white"/>
<path d="M257.994 299.251C258.256 300.361 257.765 301.533 256.897 301.868C256.03 302.203 255.115 301.575 254.853 300.464C254.591 299.353 255.082 298.181 255.95 297.846C256.817 297.512 257.733 298.14 257.994 299.251Z" fill="white"/>
<path d="M264.234 296.842C264.495 297.952 264.004 299.124 263.137 299.459C262.269 299.794 261.355 299.165 261.092 298.055C260.831 296.944 261.322 295.773 262.189 295.437C263.057 295.103 263.972 295.731 264.234 296.842Z" fill="white"/>
<path d="M270.487 294.423C270.749 295.534 270.258 296.706 269.39 297.041C268.523 297.376 267.608 296.747 267.346 295.637C267.084 294.526 267.575 293.354 268.442 293.019C269.311 292.684 270.226 293.313 270.487 294.423Z" fill="white"/>
<path fill-rule="evenodd" clip-rule="evenodd" d="M226.204 344.201L233.183 341.505L237.048 357.899L230.069 360.595L226.204 344.201Z" fill="#170C76"/>
<path fill-rule="evenodd" clip-rule="evenodd" d="M236.465 332.385L243.444 329.688L249.006 353.284L242.027 355.98L236.465 332.385Z" fill="#248232"/>
<path fill-rule="evenodd" clip-rule="evenodd" d="M250.132 335.087L257.112 332.391L260.948 348.665L253.967 351.361L250.132 335.087Z" fill="#AA2A32"/>
<path fill-rule="evenodd" clip-rule="evenodd" d="M257.23 309.842L264.211 307.146L272.908 344.05L265.926 346.746L257.23 309.842V309.842Z" fill="#0066F5"/>
<path d="M219.254 324.797C219.47 325.709 219.066 326.672 218.353 326.947C217.641 327.223 216.889 326.706 216.674 325.793C216.459 324.882 216.862 323.92 217.575 323.644C218.288 323.368 219.039 323.886 219.254 324.797Z" fill="#EBEBEB"/>
<path fill-rule="evenodd" clip-rule="evenodd" d="M220.781 323.502L235.216 317.927L235.521 319.22L221.085 324.795L220.781 323.502V323.502Z" fill="#EBEBEB"/>
<path d="M220.37 329.505C220.586 330.417 220.182 331.381 219.469 331.655C218.757 331.931 218.005 331.415 217.79 330.502C217.575 329.59 217.978 328.628 218.691 328.352C219.404 328.076 220.156 328.594 220.37 329.505Z" fill="#EBEBEB"/>
<path fill-rule="evenodd" clip-rule="evenodd" d="M221.897 328.201L236.332 322.626L236.637 323.919L222.202 329.494L221.897 328.201V328.201Z" fill="#EBEBEB"/>
<path d="M294.833 253.544L299.32 257.84H294.833V253.544ZM270.758 266.291V263.701L279.313 258.01L281.476 260.415C281.626 260.581 281.812 260.665 281.999 260.665C282.185 260.665 282.371 260.581 282.521 260.415L284.684 258.009L293.239 263.691V266.291H270.758V266.291ZM278.437 239.747L284.72 245.24H278.437V239.747V239.747ZM293.239 248.497V261.393L285.979 256.57L293.239 248.497ZM291.811 245.24H287.545L280.22 238.835H299.136L291.811 245.24V245.24ZM279.936 256C279.935 256 279.935 255.999 279.935 255.999L272.093 247.28H277.625C277.63 247.28 277.635 247.283 277.64 247.283C277.646 247.283 277.65 247.28 277.656 247.28H287.282C287.289 247.28 287.296 247.283 287.303 247.283C287.312 247.283 287.32 247.28 287.329 247.28H291.905L284.064 255.998L284.061 256.001L281.999 258.294L279.936 256V256ZM270.758 248.497L278.02 256.571L270.758 261.402V248.497ZM294.833 250.997V246.26C294.833 246.209 294.816 246.166 294.81 246.117C294.803 246.046 294.797 245.974 294.777 245.906C294.757 245.835 294.724 245.776 294.692 245.714C294.672 245.675 294.663 245.628 294.638 245.591C294.631 245.583 294.623 245.579 294.617 245.571C294.576 245.515 294.527 245.476 294.477 245.433C294.467 245.425 294.458 245.413 294.449 245.404L300.919 239.747V256.824L294.833 250.997V250.997ZM302.494 258.975C302.497 258.936 302.512 258.9 302.512 258.86V237.816C302.512 237.782 302.499 237.753 302.497 237.719C302.492 237.652 302.481 237.587 302.465 237.52C302.449 237.452 302.429 237.39 302.402 237.328C302.389 237.301 302.387 237.269 302.373 237.241C302.359 237.215 302.338 237.203 302.323 237.178C302.287 237.122 302.248 237.075 302.204 237.03C302.165 236.991 302.128 236.956 302.085 236.927C302.038 236.895 301.991 236.874 301.94 236.853C301.89 236.836 301.843 236.822 301.792 236.816C301.765 236.812 301.742 236.796 301.716 236.796H277.64C277.614 236.796 277.593 236.811 277.568 236.815C277.514 236.821 277.464 236.835 277.413 236.854C277.363 236.874 277.317 236.895 277.273 236.926C277.229 236.955 277.19 236.991 277.151 237.031C277.107 237.076 277.068 237.122 277.033 237.177C277.018 237.202 276.996 237.215 276.983 237.241C276.968 237.269 276.966 237.301 276.953 237.328C276.927 237.39 276.907 237.452 276.891 237.52C276.875 237.587 276.864 237.652 276.859 237.719C276.856 237.753 276.844 237.782 276.844 237.816V245.24H269.961C269.952 245.24 269.944 245.247 269.935 245.247C269.875 245.249 269.818 245.272 269.76 245.293C269.717 245.307 269.672 245.313 269.633 245.336C269.591 245.36 269.556 245.401 269.518 245.435C269.469 245.478 269.421 245.516 269.381 245.571C269.375 245.579 269.366 245.583 269.36 245.591C269.335 245.628 269.326 245.675 269.305 245.714C269.274 245.776 269.241 245.835 269.22 245.906C269.2 245.974 269.195 246.046 269.187 246.117C269.181 246.166 269.165 246.209 269.165 246.26V267.31C269.165 267.873 269.522 268.33 269.961 268.33H294.036C294.476 268.33 294.833 267.873 294.833 267.31V263.22C294.84 263.152 294.836 263.087 294.833 263.019V259.88H301.716C301.835 259.88 301.945 259.841 302.046 259.781C302.074 259.766 302.096 259.737 302.122 259.716C302.196 259.659 302.261 259.593 302.316 259.51C302.327 259.493 302.343 259.488 302.353 259.471C302.372 259.439 302.376 259.4 302.391 259.367C302.42 259.305 302.444 259.245 302.462 259.177C302.479 259.11 302.488 259.045 302.494 258.975" fill="white"/>
<path d="M293.167 410.189L293.171 410.178C293.17 410.182 293.169 410.184 293.167 410.189ZM288.791 425.834L291.984 414.012C291.821 414.41 301.051 419.062 301.051 419.062L293.655 408.996C293.655 408.996 293.643 409.027 293.619 409.084L293.655 408.996L267.533 399.845L288.791 425.834Z" fill="#2BA84A"/>
<path d="M301.051 419.062L295.518 404.705L267.533 399.845L293.655 408.996L301.051 419.062Z" fill="#248232"/>
<path d="M295.518 404.701L301.263 395.568L267.533 399.842L295.518 404.701V404.701Z" fill="#2BA84A"/>
<path d="M306.859 420.177C306.631 420.286 306.369 420.282 306.13 420.139C305.214 419.587 304.706 419.233 304.685 419.219C304.23 418.902 304.064 418.173 304.311 417.591C304.558 417.01 305.127 416.795 305.582 417.112C305.587 417.115 306.068 417.45 306.929 417.968C307.396 418.251 307.597 418.966 307.377 419.564C307.269 419.86 307.079 420.071 306.859 420.177" fill="#0066F5"/>
<path d="M361.31 385.903C361.125 385.993 360.917 386.008 360.713 385.929C360.217 385.739 359.935 385.07 360.084 384.436C360.391 383.125 360.68 381.83 360.953 380.558C361.089 379.918 361.605 379.543 362.104 379.718C362.603 379.893 362.897 380.554 362.76 381.192C362.483 382.481 362.19 383.795 361.879 385.125C361.791 385.498 361.575 385.776 361.31 385.903V385.903ZM358.219 397.43C358.01 397.529 357.771 397.535 357.547 397.421C357.065 397.179 356.829 396.483 357.018 395.866C357.39 394.66 357.762 393.392 358.125 392.097C358.3 391.473 358.835 391.149 359.323 391.374C359.81 391.597 360.064 392.284 359.889 392.908C359.52 394.225 359.141 395.516 358.762 396.746C358.66 397.075 358.459 397.314 358.219 397.43V397.43ZM315.76 424.405C315.579 424.493 315.376 424.509 315.176 424.437C314.154 424.067 313.12 423.655 312.102 423.21C311.611 422.997 311.35 422.316 311.517 421.689C311.683 421.061 312.216 420.726 312.706 420.94C313.693 421.37 314.695 421.77 315.685 422.128C316.184 422.307 316.473 422.971 316.332 423.608C316.248 423.99 316.029 424.276 315.76 424.405V424.405ZM354.196 408.459C353.946 408.579 353.66 408.563 353.409 408.384C352.958 408.06 352.796 407.33 353.048 406.751C353.536 405.633 354.024 404.441 354.497 403.209C354.725 402.615 355.287 402.371 355.751 402.663C356.216 402.956 356.407 403.674 356.179 404.269C355.691 405.536 355.188 406.767 354.684 407.922C354.571 408.179 354.395 408.363 354.196 408.459V408.459ZM325.088 426.703C324.959 426.766 324.816 426.792 324.668 426.774C323.619 426.643 322.542 426.462 321.465 426.237C320.955 426.131 320.608 425.514 320.692 424.861C320.775 424.206 321.257 423.763 321.767 423.87C322.804 424.087 323.842 424.261 324.85 424.386C325.366 424.452 325.742 425.037 325.692 425.697C325.656 426.168 325.412 426.547 325.088 426.703ZM348.672 418.336C348.346 418.493 347.963 418.409 347.694 418.078C347.321 417.619 347.308 416.861 347.667 416.383C348.34 415.483 349.013 414.48 349.663 413.401C349.978 412.875 350.568 412.778 350.977 413.184C351.387 413.588 351.462 414.342 351.146 414.865C350.455 416.014 349.739 417.082 349.019 418.043C348.918 418.177 348.8 418.274 348.672 418.336V418.336ZM334.579 426.564C334.512 426.595 334.443 426.618 334.37 426.63C333.315 426.808 332.227 426.932 331.137 426.999C330.62 427.03 330.18 426.52 330.156 425.858C330.131 425.197 330.531 424.637 331.047 424.603C332.086 424.539 333.123 424.421 334.126 424.252C334.639 424.165 335.109 424.629 335.176 425.285C335.234 425.848 334.977 426.372 334.579 426.564ZM342.092 424.185C341.633 424.405 341.174 424.612 340.714 424.804C340.222 425.01 339.692 424.666 339.533 424.036C339.372 423.406 339.639 422.751 340.132 422.524C341.066 422.133 342.006 421.699 342.921 421.085C343.383 420.79 343.946 421.008 344.186 421.595C344.425 422.183 344.246 422.906 343.788 423.214C343.23 423.585 342.66 423.912 342.092 424.185" fill="#0066F5"/>
<path d="M360.326 310.058C360.326 310.058 366.624 350.437 390.983 362.231C390.983 362.231 395.043 358.033 397.853 358.833C400.664 359.632 405.817 367.428 405.817 367.428H389.89C389.89 367.428 363.814 364.231 350.385 331.648L349.604 319.454L360.326 310.058Z" fill="#FFA785"/>
<path d="M346.591 275.672C346.591 275.672 362.414 301.458 364.287 308.254C364.287 308.254 354.294 318.849 351.172 322.448C351.172 322.448 339.321 292.725 341.334 284.467C343.208 276.783 346.591 275.672 346.591 275.672" fill="#0B1320"/>
<path d="M322.64 269.01C322.64 269.01 298.698 273.274 294.534 293.529C290.37 313.786 322.797 374.82 322.797 374.82H360.324C360.324 374.82 351.163 279.405 346.583 275.673C342.003 271.941 335.965 265.545 322.64 269.01Z" fill="#424242"/>
<path d="M335.554 257.281L334.656 276.014C331.277 278.685 319.108 273.536 319.108 273.536L320.77 252.964L335.554 257.281V257.281Z" fill="#FFA785"/>
<path d="M348.983 230.898C348.983 230.898 348.541 269.982 331.807 264.881C312.133 258.884 321.189 222.9 321.189 222.9L348.983 230.898Z" fill="#FFA785"/>
<path d="M321.197 241.822C321.197 241.822 319.845 237.958 317.658 239.556C315.472 241.155 314.951 252.109 320.781 252.963L321.197 241.822Z" fill="#FFA785"/>
<path d="M317.65 239.555C317.65 239.555 320.877 238.888 321.97 242.687L323.687 228.494C323.687 228.494 334.653 232.492 340.647 228.494C340.647 228.494 345.197 236.175 348.651 236.932C352.106 237.69 357.22 219.499 348.651 215.9C348.651 215.9 329.552 185.917 318.656 215.9C318.656 215.9 311.508 216.5 310.571 227.494C309.635 238.489 316.164 246.064 316.164 246.064C316.164 246.064 315.984 240.621 317.65 239.555" fill="#161616"/>
<path d="M321.04 343.242C321.04 343.242 342.277 371.028 363.2 371.028H404.735C404.735 371.028 395.054 354.835 390.369 357.135C385.685 359.434 382.562 362.831 382.562 362.831C382.562 362.831 352.687 355.583 334.054 327.224C334.054 327.224 325.018 327.253 321.04 343.242Z" fill="#FFA785"/>
<path d="M294.537 293.534C294.537 293.534 294.954 331.381 320.353 348.438C320.353 348.438 330.452 329.198 334.043 327.224C334.043 327.224 321.561 290.921 313.275 283.939C309.06 280.388 300.366 281.54 294.537 293.534" fill="#0B1320"/>
<path d="M361.997 371.028C361.997 371.028 360.956 372.427 361.06 374.825H428.411C428.411 374.825 427.682 371.228 426.746 371.028H361.997V371.028Z" fill="#0B1320"/>
<path d="M404.729 374.823L422.269 305.259H448.918L431.222 374.823H404.729V374.823Z" fill="#0B1320"/>
<path d="M435.19 337.5C434.669 340.234 433.16 342.112 431.82 341.694C430.479 341.275 429.815 338.719 430.336 335.985C430.857 333.248 432.366 331.371 433.707 331.79C435.047 332.208 435.711 334.765 435.19 337.5" fill="white"/>
<path d="M459.765 383.616H262.038C262.038 378.759 265.115 374.82 268.909 374.82H452.894C456.688 374.82 459.764 378.759 459.764 383.616" fill="#0B1320"/>
<path d="M320.667 374.825H288.937C285.659 374.825 283.003 371.424 283.003 367.229C283.003 363.034 285.659 359.633 288.937 359.633H320.667V374.825Z" fill="#0B1320"/>
<path d="M320.664 370.569H288.451C287.007 370.569 285.836 369.07 285.836 367.221C285.836 365.372 287.007 363.874 288.451 363.874H320.664V370.569V370.569Z" fill="white"/>
<path d="M320.667 359.629H288.937C285.659 359.629 283.003 356.227 283.003 352.032C283.003 347.837 285.659 344.436 288.937 344.436H320.667V359.629Z" fill="#0B1320"/>
<path d="M320.664 355.381H288.451C287.007 355.381 285.836 353.882 285.836 352.033C285.836 350.185 287.007 348.686 288.451 348.686H320.664V355.381Z" fill="white"/>
<path d="M286.057 288.589L286.4 289.99L286.742 288.589C287.183 286.784 288.1 285.275 289.309 284.361C288.1 283.447 287.183 281.938 286.742 280.134L286.4 278.731L286.057 280.134C285.616 281.938 284.699 283.447 283.49 284.361C284.699 285.275 285.616 286.784 286.057 288.589Z" fill="#434241"/>
<path d="M357.049 270.147L357.696 272.798L358.344 270.147C359.179 266.735 360.912 263.88 363.199 262.152C360.912 260.424 359.179 257.57 358.344 254.158L357.696 251.507L357.049 254.158C356.215 257.57 354.482 260.424 352.194 262.152C354.482 263.88 356.215 266.735 357.049 270.147Z" fill="#434241"/>
<path d="M402.728 326.748L403.376 329.398L404.024 326.748C404.858 323.335 406.591 320.481 408.878 318.752C406.591 317.024 404.858 314.171 404.024 310.758L403.376 308.107L402.728 310.758C401.894 314.171 400.161 317.024 397.874 318.752C400.161 320.481 401.894 323.335 402.728 326.748Z" fill="#434241"/>
<path d="M391.996 343.981L392.42 345.717L392.844 343.981C393.391 341.744 394.526 339.874 396.025 338.743C394.526 337.61 393.391 335.74 392.844 333.505L392.42 331.768L391.996 333.505C391.449 335.74 390.314 337.61 388.815 338.743C390.314 339.874 391.449 341.744 391.996 343.981Z" fill="#434241"/>
<path d="M365.292 236.889L365.717 238.626L366.141 236.889C366.688 234.654 367.823 232.784 369.321 231.652C367.823 230.52 366.688 228.649 366.141 226.414L365.717 224.678L365.292 226.414C364.745 228.649 363.61 230.52 362.112 231.652C363.61 232.784 364.745 234.654 365.292 236.889Z" fill="#434241"/>
<path d="M257.301 279.343L257.899 281.79L258.497 279.343C259.267 276.195 260.866 273.56 262.977 271.966C260.866 270.371 259.267 267.738 258.497 264.588L257.899 262.142L257.301 264.588C256.531 267.738 254.932 270.371 252.822 271.966C254.932 273.56 256.531 276.195 257.301 279.343Z" fill="#434241"/>
<path d="M651.544 361.253C651.544 328.971 676.778 302.801 707.906 302.801H847.638C878.766 302.801 904 328.971 904 361.253V564.616H707.906C676.777 564.616 651.543 538.447 651.543 506.165L651.544 361.253Z" fill="#EDEBEB"/>
<path d="M774.772 385.022C768.427 385.022 763.284 379.457 763.284 372.592C763.284 365.726 768.427 360.161 774.772 360.161C781.117 360.161 786.261 365.726 786.261 372.592C786.261 379.457 781.117 385.022 774.772 385.022ZM797.127 379.045V367.015H792.718C792.392 365.785 791.961 364.603 791.436 363.482L794.955 359.675L787.093 351.168L783.693 354.847C782.76 354.296 781.78 353.829 780.76 353.456V347.64H769.64V353.168C768.674 353.467 767.739 353.848 766.843 354.304L762.856 349.99L754.994 358.496L758.634 362.436C758.135 363.363 757.702 364.336 757.343 365.349H751.733V377.379H756.634C756.889 378.514 757.232 379.611 757.656 380.661L753.905 384.719L761.768 393.226L764.958 389.773C765.948 390.437 766.999 391.002 768.101 391.458V396.754H779.22V392.21C780.443 391.887 781.617 391.433 782.732 390.864L786.004 394.404L793.867 385.897L790.927 382.717C791.547 381.561 792.065 380.332 792.466 379.045H797.127Z" fill="#FA3900"/>
<path d="M775.969 386.503C769.624 386.503 764.48 380.937 764.48 374.072C764.48 367.207 769.624 361.641 775.969 361.641C782.315 361.641 787.458 367.207 787.458 374.072C787.458 380.937 782.315 386.503 775.969 386.503ZM798.325 380.525V368.495L797.127 367.015L793.915 368.495C793.589 367.265 793.158 366.084 792.634 364.963L796.152 361.155L788.29 352.649L784.89 356.327C783.958 355.777 782.977 355.31 781.957 354.937V349.12L780.76 347.64L770.837 354.649C769.871 354.947 768.936 355.329 768.04 355.785L764.054 351.471L756.191 359.977L759.832 363.917C759.332 364.843 758.9 365.817 758.54 366.829L751.733 377.379L752.93 378.86H757.832C758.086 379.994 758.43 381.091 758.854 382.142L755.103 386.2L762.965 394.706L766.156 391.254C767.145 391.918 768.026 392.483 769.127 392.939L768.101 396.754L769.127 398.235H780.417V393.69C781.64 393.367 782.815 392.914 783.93 392.345L787.201 395.884L795.063 387.377L792.124 384.197C792.744 383.041 793.262 381.812 793.663 380.525H798.325Z" fill="#1E1C1B"/>
<path d="M774.772 385.022C768.427 385.022 763.284 379.457 763.284 372.592C763.284 365.726 768.427 360.161 774.772 360.161C781.117 360.161 786.261 365.726 786.261 372.592C786.261 379.457 781.117 385.022 774.772 385.022ZM797.127 379.045V367.015H792.718C792.392 365.785 791.961 364.603 791.436 363.482L794.955 359.675L787.093 351.168L783.693 354.847C782.76 354.296 781.78 353.829 780.76 353.456V347.64H769.64V353.168C768.674 353.467 767.739 353.848 766.843 354.304L762.856 349.99L754.994 358.496L758.634 362.436C758.135 363.363 757.702 364.336 757.343 365.349H751.733V377.379H756.634C756.889 378.514 757.232 379.611 757.656 380.661L753.905 384.719L761.768 393.226L764.958 389.773C765.948 390.437 766.999 391.002 768.101 391.458V396.754H779.22V392.21C780.443 391.887 781.617 391.433 782.732 390.864L786.004 394.404L793.867 385.897L790.927 382.717C791.547 381.561 792.065 380.332 792.466 379.045H797.127Z" fill="#434241"/>
<path d="M698.893 430.548C686.382 430.548 676.241 419.575 676.241 406.04C676.241 392.505 686.382 381.532 698.893 381.532C711.403 381.532 721.545 392.505 721.545 406.04C721.545 419.575 711.403 430.548 698.893 430.548ZM742.968 418.763V395.044H734.275C733.632 392.62 732.782 390.291 731.747 388.079L738.685 380.573L723.183 363.802L716.48 371.054C714.642 369.969 712.709 369.049 710.697 368.313V356.845H688.775V367.745C686.868 368.333 685.026 369.086 683.26 369.984L675.399 361.479L659.898 378.251L667.075 386.017C666.091 387.844 665.238 389.764 664.529 391.761H653.468V415.48H663.132C663.635 417.716 664.311 419.879 665.147 421.95L657.751 429.95L673.253 446.723L679.544 439.916C681.495 441.224 683.567 442.339 685.739 443.238V453.679H707.662V444.719C710.072 444.082 712.389 443.188 714.586 442.066L721.037 449.045L736.538 432.273L730.743 426.003C731.966 423.723 732.987 421.301 733.777 418.763H742.968Z" fill="#FA3900"/>
<path d="M701.254 433.467C688.743 433.467 678.602 422.494 678.602 408.959C678.602 395.424 688.743 384.452 701.254 384.452C713.764 384.452 723.905 395.424 723.905 408.959C723.905 422.494 713.764 433.467 701.254 433.467ZM745.329 421.683V397.964L742.968 395.045L736.635 397.964C735.992 395.539 735.143 393.21 734.108 390.999L741.046 383.493L725.544 366.721L718.841 373.973C717.003 372.889 715.069 371.969 713.058 371.232V359.765L710.697 356.845L691.135 370.664C689.229 371.252 687.387 372.005 685.621 372.903L677.76 364.399L662.259 381.17L669.436 388.937C668.452 390.764 667.599 392.683 666.89 394.68L653.468 415.48L655.829 418.399H665.493C665.996 420.635 666.673 422.798 667.508 424.869L660.112 432.87L675.614 449.642L681.905 442.836C683.856 444.143 685.591 445.258 687.763 446.157L685.739 453.679L687.763 456.598H710.022V447.639C712.432 447.002 714.749 446.108 716.947 444.985L723.398 451.965L738.899 435.192L733.103 428.922C734.327 426.642 735.348 424.22 736.138 421.683H745.329Z" fill="#1E1C1B"/>
<path d="M698.893 430.548C686.382 430.548 676.241 419.575 676.241 406.04C676.241 392.505 686.382 381.532 698.893 381.532C711.403 381.532 721.545 392.505 721.545 406.04C721.545 419.575 711.403 430.548 698.893 430.548ZM742.968 418.763V395.044H734.275C733.632 392.62 732.782 390.291 731.747 388.079L738.685 380.573L723.183 363.802L716.48 371.054C714.642 369.969 712.709 369.049 710.697 368.313V356.845H688.775V367.745C686.868 368.333 685.026 369.086 683.26 369.984L675.399 361.479L659.898 378.251L667.075 386.017C666.091 387.844 665.238 389.764 664.529 391.761H653.468V415.48H663.132C663.635 417.716 664.311 419.879 665.147 421.95L657.751 429.95L673.253 446.723L679.544 439.916C681.495 441.224 683.567 442.339 685.739 443.238V453.679H707.662V444.719C710.072 444.082 712.389 443.188 714.586 442.066L721.037 449.045L736.538 432.273L730.743 426.003C731.966 423.723 732.987 421.301 733.777 418.763H742.968Z" fill="#434241"/>
<path d="M849.191 390.453H814.452C813.809 390.453 813.287 389.889 813.287 389.193V348.393C813.287 347.698 813.809 347.134 814.452 347.134H849.191C849.833 347.134 850.355 347.698 850.355 348.393V389.193C850.355 389.889 849.833 390.453 849.191 390.453Z" fill="#FFFFFB"/>
<path d="M845.754 354.66H818.506C817.837 354.66 817.296 354.074 817.296 353.351C817.296 352.628 817.837 352.042 818.506 352.042H845.754C846.422 352.042 846.964 352.628 846.964 353.351C846.964 354.074 846.422 354.66 845.754 354.66Z" fill="#248232"/>
<path d="M830.92 360.946H818.505C817.837 360.946 817.296 360.36 817.296 359.637C817.296 358.914 817.837 358.328 818.505 358.328H830.92C831.588 358.328 832.13 358.914 832.13 359.637C832.13 360.36 831.588 360.946 830.92 360.946Z" fill="#248232"/>
<path d="M843.784 367.232H818.505C817.837 367.232 817.296 366.646 817.296 365.923C817.296 365.201 817.837 364.615 818.505 364.615H843.784C844.452 364.615 844.993 365.201 844.993 365.923C844.993 366.646 844.452 367.232 843.784 367.232Z" fill="#248232"/>
<path d="M837.385 373.518H818.505C817.837 373.518 817.296 372.932 817.296 372.21C817.296 371.487 817.837 370.901 818.505 370.901H837.385C838.053 370.901 838.594 371.487 838.594 372.21C838.594 372.932 838.053 373.518 837.385 373.518Z" fill="#248232"/>
<path d="M845.754 379.804H818.506C817.837 379.804 817.296 379.218 817.296 378.496C817.296 377.773 817.837 377.187 818.506 377.187H845.754C846.422 377.187 846.964 377.773 846.964 378.496C846.964 379.218 846.422 379.804 845.754 379.804Z" fill="#248232"/>
<path d="M843.784 386.091H818.505C817.837 386.091 817.296 385.505 817.296 384.782C817.296 384.059 817.837 383.473 818.505 383.473H843.784C844.452 383.473 844.993 384.059 844.993 384.782C844.993 385.505 844.452 386.091 843.784 386.091Z" fill="#248232"/>
<path d="M884.738 470.938C880.316 470.938 876.731 467.059 876.731 462.275C876.731 457.491 880.316 453.612 884.738 453.612C889.16 453.612 892.745 457.491 892.745 462.275C892.745 467.059 889.16 470.938 884.738 470.938ZM900.318 466.772V458.388H897.245C897.018 457.532 896.717 456.708 896.351 455.926L898.803 453.273L893.324 447.345L890.955 449.908C890.305 449.525 889.622 449.199 888.91 448.939V444.886H881.162V448.738C880.488 448.946 879.836 449.212 879.212 449.53L876.434 446.524L870.955 452.452L873.491 455.197C873.144 455.843 872.842 456.521 872.591 457.228H868.682V465.611H872.098C872.276 466.402 872.515 467.166 872.81 467.898L870.196 470.727L875.675 476.655L877.898 474.25C878.588 474.711 879.321 475.105 880.089 475.423V479.114H887.838V475.947C888.69 475.722 889.509 475.406 890.285 475.009L892.565 477.476L898.045 471.548L895.996 469.331C896.428 468.525 896.79 467.669 897.069 466.772H900.318Z" fill="#FA3900"/>
<path d="M885.572 471.97C881.15 471.97 877.566 468.091 877.566 463.307C877.566 458.523 881.15 454.644 885.572 454.644C889.994 454.644 893.579 458.523 893.579 463.307C893.579 468.091 889.994 471.97 885.572 471.97ZM901.152 467.804V459.42L900.317 458.389L898.079 459.42C897.852 458.564 897.551 457.74 897.186 456.958L899.638 454.305L894.159 448.377L891.789 450.94C891.139 450.557 890.456 450.231 889.745 449.971V445.918L888.91 444.886L881.996 449.77C881.322 449.978 880.671 450.244 880.047 450.562L877.268 447.556L871.789 453.484L874.326 456.229C873.978 456.875 873.676 457.554 873.426 458.26L868.682 465.612L869.516 466.643H872.932C873.11 467.434 873.349 468.198 873.644 468.93L871.03 471.759L876.509 477.687L878.733 475.282C879.423 475.743 880.036 476.138 880.804 476.456L880.089 479.114L880.804 480.146H888.672V476.979C889.524 476.754 890.343 476.438 891.12 476.041L893.4 478.508L898.879 472.58L896.831 470.363C897.263 469.557 897.624 468.701 897.903 467.804H901.152Z" fill="#1E1C1B"/>
<path d="M884.738 470.938C880.316 470.938 876.731 467.059 876.731 462.275C876.731 457.491 880.316 453.612 884.738 453.612C889.16 453.612 892.745 457.491 892.745 462.275C892.745 467.059 889.16 470.938 884.738 470.938ZM900.318 466.772V458.388H897.245C897.018 457.532 896.717 456.708 896.351 455.926L898.803 453.273L893.324 447.345L890.955 449.908C890.305 449.525 889.622 449.199 888.91 448.939V444.886H881.162V448.738C880.488 448.946 879.836 449.212 879.212 449.53L876.434 446.524L870.955 452.452L873.491 455.197C873.144 455.843 872.842 456.521 872.591 457.228H868.682V465.611H872.098C872.276 466.402 872.515 467.166 872.81 467.898L870.196 470.727L875.675 476.655L877.898 474.25C878.588 474.711 879.321 475.105 880.089 475.423V479.114H887.838V475.947C888.69 475.722 889.509 475.406 890.285 475.009L892.565 477.476L898.045 471.548L895.996 469.331C896.428 468.525 896.79 467.669 897.069 466.772H900.318Z" fill="#434241"/>
<path d="M836.395 498.613H714.646C711.227 498.613 708.455 495.614 708.455 491.915V406.346C708.455 402.647 711.227 399.647 714.646 399.647H836.395C839.815 399.647 842.587 402.647 842.587 406.346V491.915C842.587 495.614 839.815 498.613 836.395 498.613Z" fill="#1E1C1B"/>
<path d="M788.367 489.477H762.241V512.273H788.367V489.477Z" fill="#FFFFFB"/>
<g opacity="0.8">
<path opacity="0.8" d="M788.367 494.209H762.241V503.243H788.367V494.209Z" fill="#CCCBCA"/>
</g>
<path d="M837.74 404.438H713.301V478.566H837.74V404.438Z" fill="#434241"/>
<path d="M708.455 483.791V491.924C708.455 495.624 711.227 498.623 714.646 498.623H836.395C839.815 498.623 842.587 495.624 842.587 491.924V483.791H708.455Z" fill="#FFFFFB"/>
<path d="M797.213 512.268H752.548V512.108C752.548 509.251 754.689 506.934 757.33 506.934H792.431C795.072 506.934 797.213 509.251 797.213 512.108V512.268Z" fill="#FFFFFB"/>
<path d="M873.927 502.438C873.927 502.438 876.64 507.108 876.494 508.847C876.304 511.138 874.751 511.674 869.127 513.439C863.503 515.205 860.073 512.553 863.002 510.791C865.932 509.029 870.998 504.199 870.998 504.199L873.927 502.438Z" fill="#191817"/>
<path d="M863.209 501.932C863.209 501.932 865.932 506.12 865.812 507.604C865.692 509.086 860.381 512.002 860.381 512.002C860.381 512.002 850.767 513.972 851.117 512.54C851.468 511.107 855.364 509.226 856.689 508C857.798 506.973 860.261 502.999 860.261 502.999L863.209 501.932Z" fill="#191817"/>
<path d="M871.874 440.566L876.554 433.114L856.257 434.83C856.257 434.83 849.418 463.899 850.038 475.631L857.162 506.955L865.092 504.548C865.092 504.548 864.481 478.668 860.827 474.227L871.874 440.566Z" fill="#101520"/>
<path d="M876.557 433.114C876.557 433.114 880.059 434.473 879.759 446.037C879.46 457.6 875.884 469.835 875.884 469.835C875.884 469.835 878.231 474.055 878.167 479.462C878.09 486.074 875.818 505.63 875.818 505.63L868.15 506.009L865.248 470.903L865.058 440.406L876.557 433.114Z" fill="#101520"/>
<path d="M869.803 389.924C869.803 389.924 868.144 397.595 871.263 402.125C871.263 402.125 866.561 404.456 861.842 401.476L863.521 393.314L869.803 389.924Z" fill="#FFA785"/>
<path d="M869.803 389.924C869.803 389.924 868.144 397.595 871.263 402.125C871.263 402.125 866.561 404.456 861.842 401.476L863.521 393.314L869.803 389.924" stroke="#434241" stroke-width="0.0001625" stroke-miterlimit="2" stroke-linejoin="round"/>
<path d="M868.731 380.578C871.531 382.693 872.374 390.29 869.115 393.644C866.065 396.784 864.598 397.434 861.174 396.353C858.608 395.543 857.774 392.18 858.254 388.408C857.638 387.979 857.606 387.54 857.54 387.141C857.5 386.899 858.571 386.779 859.599 385.166C859.601 385.089 859.608 385.007 859.631 384.912C860.895 379.766 865.693 378.283 868.731 380.578Z" fill="#FFA785" stroke="#434241" stroke-width="0.0001625" stroke-miterlimit="2" stroke-linejoin="round"/>
<path d="M871.44 398.694H869.421C869.421 398.694 864.961 401.39 860.476 398.694C860.476 398.694 855.492 400.311 854.911 404.265C854.329 408.219 855.824 420.801 855.824 425.834C855.824 430.866 854.777 438.415 854.777 438.415C854.777 438.415 872.935 444.166 879.746 438.415L878.749 427.271C878.749 427.271 878.323 402.225 871.44 398.694Z" fill="#0049AF"/>
<path d="M851.531 436.349L862.527 434.22C862.849 434.146 863.541 433.778 863.236 432.959L859.189 418.818C859.092 418.559 858.839 418.413 858.586 418.471L847.262 421.085C846.94 421.159 846.546 421.749 846.669 422.08L850.928 436.002C851.025 436.261 851.278 436.407 851.531 436.349Z" fill="#141011"/>
<path d="M851.311 436.81L862.537 434.219C862.856 434.145 863.037 433.778 862.915 433.45L858.886 419.356C858.79 419.1 858.538 418.955 858.289 419.012L847.063 421.603C846.743 421.677 846.563 422.045 846.684 422.372L850.714 436.466C850.81 436.723 851.062 436.868 851.311 436.81Z" fill="#231F20"/>
<path d="M861.924 428.659C861.924 428.659 861.956 428.974 860.199 430.701C859.22 431.664 860.547 432.31 860.697 432.55C861.165 433.295 857.437 433.861 858.64 434.083C859.843 434.305 863.633 432.718 864.084 432.411C864.535 432.104 868.257 432.702 868.257 432.702L867.986 428.513C867.986 428.513 865.65 429.068 864.961 428.254C863.399 426.403 861.476 426.762 861.476 426.762L861.924 428.659Z" fill="#FFA785"/>
<path d="M845.575 380.37C843.039 376.869 841.551 373.986 841.822 373.254C842.25 372.092 841.72 369.049 841.38 367.704C841.28 367.307 841.072 366.418 841.269 365.566C841.438 364.834 841.179 364.249 840.742 364.887C840.304 365.524 840.245 366.001 840.289 367.27C840.311 367.886 840.18 367.975 840.045 368.009C839.808 368.069 839.419 366.756 839.168 365.148C838.909 363.488 838.721 362.533 838.301 362.136C837.975 361.829 837.706 361.592 837.812 362.692C837.918 363.791 838.67 365.919 838.305 366.222C837.938 366.526 837.598 364.852 837.469 363.852C837.338 362.853 837.523 361.605 836.985 361.556C836.617 361.522 836.399 361.961 836.457 363.294C836.516 364.627 837.449 366.73 837.106 366.866C836.764 367.003 836.187 364.604 836.138 363.981C836.088 363.336 835.636 363.118 835.497 364.22C835.358 365.321 835.76 366.044 836.087 367.175C836.414 368.306 836.775 368.777 836.542 368.972C836.314 369.163 835.925 368.607 835.746 367.543C835.566 366.479 835.432 365.53 835.091 365.933C834.75 366.336 834.716 367.72 835.318 369.516C835.921 371.312 836.644 373.688 838.025 374.577C838.025 374.577 838.197 375.947 839.177 381.952C841.526 396.327 846.347 381.434 845.575 380.37Z" fill="#FFA785"/>
<path d="M845.575 380.37C843.039 376.869 841.551 373.986 841.822 373.254C842.25 372.092 841.72 369.049 841.38 367.704C841.28 367.307 841.072 366.418 841.269 365.566C841.438 364.834 841.179 364.249 840.742 364.887C840.304 365.524 840.245 366.001 840.289 367.27C840.311 367.886 840.18 367.975 840.045 368.009C839.808 368.069 839.419 366.756 839.168 365.148C838.909 363.488 838.721 362.533 838.301 362.136C837.975 361.829 837.706 361.592 837.812 362.692C837.918 363.791 838.67 365.919 838.305 366.222C837.938 366.526 837.598 364.852 837.469 363.852C837.338 362.853 837.523 361.605 836.985 361.556C836.617 361.522 836.399 361.961 836.457 363.294C836.516 364.627 837.449 366.73 837.106 366.866C836.764 367.003 836.187 364.604 836.138 363.981C836.088 363.336 835.636 363.118 835.497 364.22C835.358 365.321 835.76 366.044 836.087 367.175C836.414 368.306 836.775 368.777 836.542 368.972C836.314 369.163 835.925 368.607 835.746 367.543C835.566 366.479 835.432 365.53 835.091 365.933C834.75 366.336 834.716 367.72 835.318 369.516C835.921 371.312 836.644 373.688 838.025 374.577C838.025 374.577 838.197 375.947 839.177 381.952C841.526 396.327 846.347 381.434 845.575 380.37" stroke="#434241" stroke-width="0.0001625" stroke-miterlimit="2" stroke-linejoin="round"/>
<path d="M861.313 414.152H854.784C854.784 414.152 843.705 403.228 841.379 395.839C839.053 388.449 836.229 376.32 836.229 376.32L843.788 373.891C843.788 373.891 847.193 384.495 850.681 390.427C854.17 396.357 860.483 398.694 860.483 398.694L861.313 414.152Z" fill="#0049AF"/>
<path d="M863.281 429.317L862.285 428.076C862.285 428.076 860.052 429.416 858.769 429.31C857.309 429.19 856.661 428.999 856.679 429.515C856.695 429.954 857.973 430.317 858.865 430.279C859.719 430.242 861.659 430.189 861.659 430.189L863.281 429.317Z" fill="#FFA785"/>
<path d="M862.75 430.475L862.21 429.5C862.21 429.5 859.053 430.884 857.717 430.911C856.381 430.938 855.785 430.742 855.93 431.255C856.074 431.768 857.641 431.872 858.568 431.855C859.513 431.837 861.202 431.461 861.202 431.461L862.75 430.475Z" fill="#FFA785"/>
<path d="M863.028 431.7L863.012 430.006C863.012 430.006 859.422 432.291 858.136 432.294C856.849 432.297 856.468 432.169 856.452 432.694C856.441 433.089 857.747 433.306 858.937 433.148C859.841 433.029 860.939 432.673 861.568 432.48C861.96 432.36 863.028 431.7 863.028 431.7Z" fill="#FFA785"/>
<path d="M872.169 400.763L871.454 398.694C871.454 398.694 877.102 399.143 880.808 407.699C883.079 412.941 885.057 421.673 884.916 425.198C884.775 428.722 871.424 434.151 866.055 433.771L865.307 428.26C865.307 428.26 866.572 427.944 868.796 426.553C871.019 425.162 873.818 422.601 877.278 421.853C877.278 421.853 870.291 406.153 872.169 400.763Z" fill="#0049AF"/>
<path d="M865.655 383.171C865.655 383.171 862.414 383.193 860.346 381.3C857.794 378.963 861.289 375.103 862.908 376.686C864.528 378.268 865.494 377.163 866.887 377.247C868.279 377.331 870.247 377.719 870.247 379.526C870.247 381.332 872.23 380.341 873.169 382.461C873.927 384.171 873.944 386.512 872.871 388.6C871.797 390.689 873.759 391.902 873.549 393.98C873.289 396.538 872.533 398.196 870.147 398.196C867.578 398.196 867.244 395.099 867.888 393.324C868.472 391.712 865.945 388.811 866.887 387.226C868.279 384.881 866.887 383.3 865.655 383.171Z" fill="#1E1C1B"/>
<path d="M727.616 495.982C719.077 495.982 712.155 488.493 712.155 479.253C712.155 470.015 719.077 462.525 727.616 462.525C736.156 462.525 743.078 470.015 743.078 479.253C743.078 488.493 736.156 495.982 727.616 495.982ZM757.701 487.938V471.748H751.767C751.329 470.093 750.749 468.503 750.042 466.994L754.778 461.871L744.197 450.423L739.622 455.373C738.367 454.632 737.047 454.004 735.674 453.502V445.674H720.71V453.114C719.409 453.515 718.151 454.029 716.946 454.642L711.581 448.837L700.999 460.285L705.899 465.587C705.227 466.833 704.645 468.143 704.16 469.507H696.611V485.697H703.207C703.55 487.224 704.012 488.699 704.582 490.113L699.534 495.574L710.115 507.023L714.41 502.377C715.741 503.269 717.156 504.03 718.638 504.644V511.771H733.602V505.655C735.247 505.22 736.829 504.61 738.329 503.844L742.732 508.608L753.313 497.16L749.357 492.879C750.192 491.324 750.889 489.67 751.428 487.938H757.701Z" fill="#FA3900"/>
<path d="M729.228 497.975C720.689 497.975 713.766 490.486 713.766 481.246C713.766 472.008 720.689 464.518 729.228 464.518C737.767 464.518 744.689 472.008 744.689 481.246C744.689 490.486 737.767 497.975 729.228 497.975ZM759.312 489.931V473.741L757.701 471.749L753.379 473.741C752.94 472.086 752.36 470.496 751.653 468.987L756.389 463.863L745.808 452.416L741.233 457.365C739.978 456.625 738.658 455.997 737.285 455.495V447.667L735.674 445.674L722.321 455.107C721.02 455.508 719.763 456.022 718.557 456.635L713.192 450.83L702.611 462.279L707.51 467.579C706.838 468.826 706.256 470.137 705.772 471.499L696.611 485.697L698.222 487.69H704.818C705.161 489.216 705.623 490.692 706.194 492.106L701.145 497.567L711.727 509.016L716.021 504.37C717.352 505.262 718.537 506.023 720.019 506.638L718.638 511.771L720.019 513.764H735.213V507.649C736.858 507.214 738.44 506.603 739.94 505.837L744.343 510.601L754.924 499.153L750.968 494.873C751.803 493.317 752.5 491.663 753.039 489.931H759.312Z" fill="#1E1C1B"/>
<path d="M727.616 495.982C719.077 495.982 712.155 488.493 712.155 479.253C712.155 470.015 719.077 462.525 727.616 462.525C736.156 462.525 743.078 470.015 743.078 479.253C743.078 488.493 736.156 495.982 727.616 495.982ZM757.701 487.938V471.748H751.767C751.329 470.093 750.749 468.503 750.042 466.994L754.778 461.871L744.197 450.423L739.622 455.373C738.367 454.632 737.047 454.004 735.674 453.502V445.674H720.71V453.114C719.409 453.515 718.151 454.029 716.946 454.642L711.581 448.837L700.999 460.285L705.899 465.587C705.227 466.833 704.645 468.143 704.16 469.507H696.611V485.697H703.207C703.55 487.224 704.012 488.699 704.582 490.113L699.534 495.574L710.115 507.023L714.41 502.377C715.741 503.269 717.156 504.03 718.638 504.644V511.771H733.602V505.655C735.247 505.22 736.829 504.61 738.329 503.844L742.732 508.608L753.313 497.16L749.357 492.879C750.192 491.324 750.889 489.67 751.428 487.938H757.701Z" fill="#434241"/>
<path d="M787.301 388.647C787.301 388.647 785.753 389.82 785.959 392.5C786.166 395.18 781.831 392.5 781.831 392.5C781.831 392.5 783.481 387.697 787.301 388.647Z" fill="#1E1C1B"/>
<path fill-rule="evenodd" clip-rule="evenodd" d="M737.228 371.289L843.615 412.804L819.144 486.212L712.758 444.698L737.228 371.289Z" fill="#FFFFFB"/>
<path fill-rule="evenodd" clip-rule="evenodd" d="M841.293 419.787L734.906 378.272L737.234 371.289L843.621 412.804L841.293 419.787Z" fill="#1E1C1B"/>
<path d="M742.274 377.212C742.105 377.719 741.588 377.981 741.119 377.799C740.651 377.616 740.407 377.056 740.577 376.549C740.746 376.042 741.263 375.779 741.731 375.962C742.2 376.145 742.443 376.705 742.274 377.212Z" fill="#FFFFFB"/>
<path d="M745.263 378.376C745.094 378.884 744.577 379.146 744.108 378.964C743.64 378.781 743.397 378.222 743.566 377.714C743.735 377.207 744.252 376.944 744.72 377.127C745.19 377.31 745.432 377.869 745.263 378.376Z" fill="#FFFFFB"/>
<path d="M748.253 379.542C748.084 380.049 747.567 380.312 747.098 380.13C746.629 379.946 746.386 379.387 746.555 378.88C746.725 378.372 747.241 378.11 747.71 378.293C748.179 378.475 748.422 379.035 748.253 379.542Z" fill="#FFFFFB"/>
<path fill-rule="evenodd" clip-rule="evenodd" d="M791.383 409.17L834.125 425.85L824.46 454.844L781.717 438.165L791.383 409.17Z" fill="#170C76"/>
<g opacity="0.58">
<path opacity="0.58" d="M774.719 435.444C774.719 435.444 794.129 424.339 795.487 427.164C796.845 429.99 796.629 437.983 801.458 434.314C806.288 430.646 823.414 420.669 821.508 430.527C819.602 440.385 829.274 440.349 829.274 440.349L824.442 454.846L774.719 435.444Z" fill="#FFFFFB"/>
</g>
<path fill-rule="evenodd" clip-rule="evenodd" d="M737.415 388.111L784.393 406.443L782.608 411.796L735.631 393.464L737.415 388.111Z" fill="#248232"/>
<path fill-rule="evenodd" clip-rule="evenodd" d="M734.788 395.998L781.766 414.33L779.981 419.683L733.004 401.351L734.788 395.998Z" fill="#248232"/>
<path fill-rule="evenodd" clip-rule="evenodd" d="M732.161 403.873L779.14 422.205L777.355 427.558L730.377 409.226L732.161 403.873Z" fill="#248232"/>
<path fill-rule="evenodd" clip-rule="evenodd" d="M729.534 411.76L776.512 430.092L774.728 435.445L727.75 417.114L729.534 411.76Z" fill="#248232"/>
<path fill-rule="evenodd" clip-rule="evenodd" d="M725.911 423.556L822.61 461.29L820.826 466.643L724.127 428.909L725.911 423.556Z" fill="#248232"/>
<path fill-rule="evenodd" clip-rule="evenodd" d="M722.763 432.985L819.463 470.719L817.678 476.072L720.979 438.338L722.763 432.985Z" fill="#248232"/>
<path d="M833.624 513.869C832.231 514.698 830.481 514.15 829.714 512.644L812.245 478.345L817.287 475.339L834.756 509.639C835.523 511.145 835.016 513.038 833.624 513.869Z" fill="#1E1C1B"/>
<path d="M818.81 464.484C815.988 461.506 810.315 460.895 810.315 460.895L816.156 466.078L816.325 471.929L810.314 475.512L806.25 471.864L804.854 464.152C804.854 464.152 801.9 470.22 803.12 473.839C804.965 479.312 810.699 481.462 815.457 479.122L815.47 479.148C815.523 479.116 815.577 479.089 815.631 479.058C815.728 479.001 815.821 478.94 815.915 478.881C816.012 478.826 816.109 478.773 816.205 478.715C816.259 478.683 816.308 478.648 816.361 478.617L816.348 478.591C820.718 475.489 822.665 468.553 818.81 464.484Z" fill="#1E1C1B"/>
<path d="M832.604 513.869C831.212 514.698 829.462 514.15 828.695 512.644L811.227 478.345L816.268 475.339L833.736 509.639C834.503 511.145 833.997 513.038 832.604 513.869Z" fill="#AA2A32"/>
<path d="M817.791 464.484C814.97 461.506 809.297 460.895 809.297 460.895L815.136 466.078L815.306 471.929L809.295 475.512L805.231 471.864L803.835 464.152C803.835 464.152 800.881 470.22 802.1 473.839C803.946 479.312 809.679 481.462 814.438 479.122L814.451 479.148C814.504 479.116 814.558 479.089 814.611 479.058C814.709 479.001 814.801 478.94 814.896 478.881C814.993 478.826 815.09 478.773 815.186 478.715C815.239 478.683 815.289 478.648 815.342 478.617L815.329 478.591C819.7 475.489 821.646 468.553 817.791 464.484Z" fill="#AA2A32"/>
<path d="M658.247 58.9844C658.247 26.7024 681.769 0.532684 710.785 0.532684H841.035C870.051 0.532684 893.573 26.7024 893.573 58.9844V262.348H710.785C681.769 262.348 658.247 236.178 658.247 203.896V58.9844Z" fill="#EDEBEB"/>
<path d="M747.738 216.866C747.738 216.866 748.095 221.558 747.223 222.046L736.071 222.02C736.071 222.02 736.071 220.556 737.862 220.23C739.653 219.904 742.8 218.71 743.333 216.052C743.866 213.394 747.738 216.866 747.738 216.866Z" fill="#1E1C1B"/>
<path d="M779.742 215.059C779.742 215.059 780.078 221.567 779.206 222.055L768.054 222.029C768.054 222.029 768.054 220.565 769.845 220.239C771.636 219.913 774.783 218.719 775.316 216.061C775.849 213.403 779.742 215.059 779.742 215.059Z" fill="#1E1C1B"/>
<path d="M780.126 215.85C780.126 215.85 777.912 217.149 776.965 217.385C775.911 217.649 773.934 217.481 773.934 217.481C770.141 205.909 758.376 158.867 758.376 158.867C757.866 171.875 755.802 184.848 753.658 195.276C753.601 195.556 753.544 195.832 753.487 196.108V196.112C753.435 196.362 753.382 196.612 753.329 196.857C753.327 196.87 753.325 196.88 753.324 196.891C750.721 209.197 748.113 217.578 748.113 217.578C748.113 217.578 747.439 218.547 745.563 218.104C743.413 217.596 742.697 216.522 742.697 216.522C744.087 166.397 744.864 138.133 744.864 138.133C744.864 138.133 763.484 126.686 768.542 136.471C773.601 146.255 780.126 215.85 780.126 215.85Z" fill="#101520"/>
<path d="M772.624 143.23C770.21 133.409 769.814 124.084 769.833 116.363C769.858 105.375 770.725 97.6365 767.819 96.3314C767.819 96.3314 758.841 93.3614 752.661 92.0526C751.677 91.436 750.584 90.7898 749.755 90.4071C747.804 89.5059 740.197 76.9218 738.907 73.9089C737.618 70.8961 735.482 57.7691 735.482 57.7691L732.517 58.8444C732.517 58.8444 731.627 73.5789 732.054 77.4198C732.481 81.2604 741.901 97.774 742.682 99.2192V99.2194C746.035 113.167 742.682 135.866 744.215 140.927C745.003 143.53 759.623 148.3 767.625 147.7C768.023 147.671 768.406 147.627 768.769 147.569C768.77 147.569 768.772 147.568 768.773 147.568C770.666 147.268 772.043 146.58 772.547 145.373C772.794 144.787 772.834 144.076 772.624 143.23Z" fill="#248232"/>
<path d="M735.482 57.7719C735.482 57.7719 737.158 52.2334 735.932 52.0725C734.707 51.9116 731.633 51.9286 731.254 52.8639C730.874 53.7992 732.518 58.8471 732.518 58.8471L735.482 57.7719Z" fill="#FFA785"/>
<path d="M731.241 52.8673C731.241 52.8673 731.083 54.774 731.62 55.1337C732.157 55.4934 732.348 52.8673 732.348 52.8673C732.348 52.8673 732.378 55.0215 732.79 55.1674C733.201 55.3135 733.454 52.6873 733.454 52.6873C733.454 52.6873 733.497 54.774 733.775 54.702C734.054 54.6302 734.244 52.6873 734.244 52.6873C734.244 52.6873 734.371 54.2021 734.75 53.9304C735.129 53.6588 735.489 52.033 735.489 52.033L731.241 52.8673Z" fill="#FFA785"/>
<path d="M735.487 57.7788C735.487 57.7788 736.633 56.7561 736.885 55.8208C737.138 54.8855 737.881 53.3128 737.486 53.1226C737.091 52.9324 735.937 54.9573 735.937 54.9573L735.487 57.7788Z" fill="#FFA785"/>
<path d="M755.329 90.5458L755.186 91.398C755.186 91.398 754.519 94.0145 757.332 95.0516C760.145 96.0897 762.516 96.5701 762.796 94.4982C762.812 92.8492 762.777 90.2754 762.986 88.9549C763.064 88.4643 763.183 87.9517 763.366 87.3839L757.806 86.0007L756.108 85.9364L755.329 90.5458Z" fill="#FFA785" stroke="#434241" stroke-width="0.00015625" stroke-miterlimit="2" stroke-linejoin="round"/>
<path d="M756.106 85.9364L755.588 89.0429C760.87 90.6351 763.181 87.9517 763.364 87.3839L757.803 86.0007L756.106 85.9364Z" fill="#FFA785"/>
<path d="M764.18 86.1019C762.542 89.8909 758.041 88.3123 756.144 87.4355C755.61 87.1897 755.283 86.9989 755.283 86.9989C754.709 86.6116 754.636 85.3868 754.835 83.8759C755.227 80.8858 756.677 76.7754 757.373 75.8278C758.421 74.4022 760.071 73.0256 764.322 75.7566C768.573 78.4886 766.28 81.2475 764.18 86.1019Z" fill="#FFA785" stroke="#434241" stroke-width="0.00015625" stroke-miterlimit="2" stroke-linejoin="round"/>
<path d="M756.911 71.571C756.911 71.571 758.963 72.0368 761.623 71.6211C763.78 71.2835 765.949 73.1065 766.62 73.8302C766.635 73.679 766.633 73.4656 766.561 73.2296C766.561 73.2296 766.845 73.6279 766.799 74.0434C766.827 74.0857 766.838 74.112 766.827 74.1159C766.827 74.1159 767.249 74.1606 767.474 74.3748C767.474 74.3748 767.301 74.2878 767.204 74.399C767.194 74.411 767.181 74.4194 767.167 74.4261C769.76 77.034 768.707 82.5186 767.433 83.4588C765.901 84.5901 763.27 87.7036 763.27 87.7036C763.27 87.7036 763.362 86.5667 763.899 85.3124C764.436 84.058 763.434 83.7375 762.314 82.732C761.196 81.7265 762.666 80.3812 761.81 79.0056C760.952 77.6301 756.739 76.9326 756.984 76.1685C755.629 75.0608 756.869 71.7468 756.911 71.571Z" fill="#191817"/>
<path d="M757.587 84.7083C757.587 84.7083 757.313 85.177 756.216 84.6238C756.216 84.6238 755.296 84.1592 755.508 83.607C755.508 83.607 756.553 83.5912 757.587 84.7083Z" fill="#FEFFFE" stroke="#434241" stroke-width="0.00015625" stroke-miterlimit="2" stroke-linejoin="round"/>
<path d="M756.358 97.509C756.358 97.509 753.822 116.659 734.854 129.957L733.084 135.809H739.93C739.93 135.809 756.919 119.596 758.058 98.0596L756.358 97.509Z" fill="#101520"/>
<path d="M756.352 97.5187V94.6158L759.478 95.6229L758.052 98.0693L756.352 97.5187Z" fill="#101520"/>
<path d="M755.342 90.5454L753.512 92.3249C753.512 92.3249 753.007 94.8105 754.24 97.507L757.928 95.1076C757.928 95.1076 755.749 93.9103 755.342 90.5454Z" fill="#2BA84A"/>
<path d="M757.924 95.1168C757.924 95.1168 758.29 97.3707 759.251 98.4857C759.251 98.4857 763.405 97.6584 764.559 95.392L762.819 92.2988C762.819 92.2988 762.403 94.4099 757.924 95.1168Z" fill="#2BA84A"/>
<path d="M782.815 144.749C782.815 144.749 782.823 149.037 782.476 149.889C782.129 150.742 780.574 153.519 779.857 154.113C779.14 154.708 780.012 150.679 779.787 149.943C779.562 149.206 779.286 151.396 778.954 151.486C778.623 151.576 778.533 149.646 778.456 148.949C778.38 148.252 779.869 146.33 780.313 144.773C780.756 143.216 782.815 144.749 782.815 144.749Z" fill="#FFA785"/>
<path d="M767.756 96.3317C767.756 96.3317 771.409 97.4644 773.885 103.664C776.481 110.164 783.43 124.604 783.687 126.597C783.945 128.589 783.227 147.201 783.227 147.201C783.227 147.201 780.187 147.335 779.248 145.694C779.248 145.694 778.189 129.356 777.721 128.468C777.252 127.579 765.287 111.341 766.295 107.22C767.303 103.1 767.756 96.3317 767.756 96.3317Z" fill="#248232"/>
<path d="M772.536 145.381C771.631 146.265 770.408 147.034 768.762 147.575C768.761 147.575 768.76 147.576 768.758 147.576C768.353 147.709 767.974 147.749 767.614 147.708C760.927 146.924 761.955 117.361 765.195 115.176C768.609 112.874 769.822 116.371 769.822 116.371C769.803 124.091 770.199 133.416 772.613 143.237C772.823 144.084 772.783 144.794 772.536 145.381Z" fill="#248232"/>
<path d="M753.32 196.859C753.365 196.628 753.416 196.38 753.476 196.113C753.425 196.364 753.372 196.613 753.32 196.859Z" fill="#233862"/>
<path d="M753.657 195.286C755.703 184.266 753.497 154.737 754.483 154.175C755.494 153.601 758.375 158.877 758.375 158.877C757.864 171.885 755.8 184.857 753.657 195.286Z" fill="#101520"/>
<path d="M703.622 217.793L703.032 212.959L705.51 210.604L706.29 217.003L703.622 217.793Z" fill="#EDEBEB"/>
<path d="M711.862 222.11H701.762C701.762 222.11 701.52 220.358 702.048 219.029C702.553 217.754 703.34 216.967 703.412 215.99C704.054 216.743 704.843 217.226 706.303 217.002C706.482 217.333 707.458 219.099 708.055 219.587C708.716 220.127 711.658 219.934 711.862 222.11Z" fill="#1E1C1B"/>
<path d="M709.825 152.525C709.165 158.572 708.624 164.271 708.184 169.584C705.834 197.891 706.295 215.191 706.295 215.191C706.295 215.191 706.125 215.704 704.668 215.711C703.844 215.716 703.038 215.511 703.038 215.511C703.038 215.511 697.775 197.027 698.181 186.509C698.229 185.244 698.36 184.093 698.592 183.104C699.854 177.722 693.92 157.141 700.371 149.477C706.82 141.813 710.129 149.75 709.825 152.525Z" fill="#101520"/>
<path d="M709.825 152.525C709.165 158.572 708.624 164.271 708.184 169.584L698.181 186.509C698.229 185.244 698.36 184.093 698.592 183.104C699.854 177.722 693.92 157.141 700.371 149.477C706.82 141.813 710.129 149.75 709.825 152.525Z" fill="#101520"/>
<path d="M717.778 94.8544C717.778 94.8544 717.535 93.4728 717.261 92.4187C717.14 91.9523 717.985 88.8885 718.57 88.5115C719.156 88.1344 720.679 90.1976 720.249 91.782C720.026 92.5956 719.663 95.2439 719.663 95.2439L717.778 94.8544Z" fill="#FFA785"/>
<path d="M717.785 94.851C717.785 94.851 717.466 94.0499 717.179 93.92C716.893 93.7903 716.585 92.4805 716.373 91.9612C716.373 91.9612 716.577 91.6216 716.934 92.0587C717.152 92.3252 717.636 93.1068 717.636 93.1068L717.785 94.851Z" fill="#FFA785"/>
<path d="M676.079 99.5007C676.017 99.6462 675.931 99.9062 675.854 100.15C675.853 100.084 675.852 100.018 675.851 99.9529C675.847 99.4666 674.251 96.8185 673.594 96.6527C672.938 96.4871 672.011 98.9676 672.831 100.339C673.252 101.043 674.281 103.454 674.281 103.454L675.983 102.454C675.983 102.454 676.081 101.583 676.322 101.363C676.563 101.143 676.521 99.788 676.589 99.2212C676.589 99.2212 676.307 98.9643 676.079 99.5007Z" fill="#FFA785"/>
<path d="M686.68 216.339C686.537 214.789 686.502 210.714 686.502 210.714C686.502 210.714 690.151 209.386 690.017 210.297C689.357 214.779 689.536 216.998 689.536 216.998L688.06 218.001L686.68 216.339Z" fill="#EDEBEB"/>
<path d="M706.785 152.23C706.785 152.23 692.685 196.213 689.91 215.291C689.91 215.291 689.266 215.793 688.067 215.627C686.707 215.438 686.334 214.363 686.334 214.363C686.334 214.363 683.787 191.496 688.849 183.558C692.328 178.104 687.349 154.151 695.45 152.23C703.552 150.31 706.785 152.23 706.785 152.23Z" fill="#101520"/>
<path d="M704.266 109.927L704.266 109.925C704.263 109.906 704.259 109.887 704.254 109.868C704.172 109.481 704.082 109.1 703.985 108.722L703.985 108.72C703.69 107.564 703.338 106.463 702.96 105.491C702.741 104.933 702.516 104.416 702.284 103.956C702.249 103.885 702.215 103.819 702.181 103.751L702.18 103.75C701.635 102.707 701.075 101.987 700.569 101.765C699.647 101.359 698.622 101.472 697.916 101.639C698.071 101.394 698.422 101.254 698.422 101.254C697.971 101.253 697.05 101.918 697.05 101.918C690.556 100.266 690.936 110.72 691.378 113.089C691.819 115.458 689.728 116.61 686.779 119.034C681.152 123.66 681.246 128.564 681.246 128.564C681.297 128.588 681.352 128.615 681.41 128.649C681.636 128.014 682.116 126.814 682.62 126.56C682.605 126.616 682.196 128.172 682.08 129.043C682.937 129.58 684.123 130.413 685.411 131.353L685.413 131.354C687.137 132.609 689.039 134.053 690.563 135.226C690.49 134.749 690.419 134.068 690.525 133.684L691.011 135.396L691.075 135.619C692.047 136.37 692.815 136.97 693.205 137.277C693.245 137.308 693.28 137.337 693.312 137.36C693.426 137.45 693.487 137.498 693.487 137.498C693.357 136.893 693.925 135.315 694.878 133.327C694.943 133.188 695.012 133.048 695.083 132.905C695.391 132.276 695.734 131.613 696.104 130.931C696.237 130.684 696.372 130.437 696.512 130.185C696.511 130.184 696.513 130.184 696.513 130.184C696.624 129.981 696.738 129.781 696.855 129.575L696.856 129.574C697.132 129.088 697.418 128.599 697.709 128.109C698.464 126.841 699.263 125.582 700.053 124.425C701.2 122.744 702.325 121.281 703.267 120.324C703.298 120.252 703.327 120.178 703.354 120.103C703.501 119.714 703.614 119.28 703.702 118.84C703.729 118.707 703.753 118.574 703.775 118.441C704.01 117.034 704.014 115.639 704.011 115.307C704.087 116.666 704.057 117.691 703.977 118.466C703.959 118.636 703.939 118.793 703.916 118.939L703.916 118.941C703.866 119.272 703.808 119.545 703.746 119.772C703.9 119.554 704.036 119.315 704.156 119.054C704.234 118.884 704.306 118.705 704.369 118.517C705.129 116.309 704.925 113.016 704.266 109.927Z" fill="#191817"/>
<path d="M703.057 120.514C703.079 120.521 701.239 122.037 699.678 121.824C698.21 121.625 697.017 119.699 697.036 119.691C697.615 119.455 697.666 118.492 697.128 114.48L697.406 114.494L702.081 114.749C702.081 114.749 702.19 116.393 702.387 117.925C702.552 119.212 702.78 120.42 703.057 120.514Z" fill="#FFA785" stroke="#1E1C1B" stroke-width="0.00052125" stroke-miterlimit="2" stroke-linejoin="round"/>
<path d="M702.07 114.747C702.07 114.747 702.179 116.391 702.376 117.923C699.824 118.272 698.136 115.861 697.395 114.492L702.07 114.747Z" fill="#FFA785"/>
<path d="M696.86 114.015C696.86 114.015 695.216 111.847 694.628 109.853C694.209 108.43 694.155 102.901 699.042 102.872C699.042 102.872 700.452 102.792 701.889 103.575C703.033 104.197 704.757 105.668 703.699 110.679L703.472 112.35L696.86 114.015Z" fill="#191817"/>
<path d="M710.42 151.388C710.42 151.388 704.337 155.501 696.699 153.387C696.609 153.362 690.41 152.236 690.41 152.236C690.516 151.904 691.317 146.454 691.422 146.15C692.777 142.17 695.254 120.574 697.323 119.509C697.851 120.164 699.361 120.612 700.653 120.481C702.142 120.331 702.64 119.6 702.516 118.813C704.163 119.699 705.428 120.523 705.428 120.523C706.933 123.089 710.42 151.388 710.42 151.388Z" fill="white"/>
<path d="M703.105 116.052C703.105 116.052 697.107 117.183 696.546 112.921C695.985 108.661 694.833 105.937 698.638 105.035C702.444 104.133 703.404 105.632 703.895 107.002C704.386 108.372 704.651 115.648 703.105 116.052Z" fill="#FFA785" stroke="#1E1C1B" stroke-width="0.00015875" stroke-miterlimit="2" stroke-linejoin="round"/>
<path d="M701.366 104.467C701.366 104.467 700.374 109.746 697.944 110.913C695.514 112.08 694.318 111.495 694.318 111.495C694.318 111.495 696.026 109.415 696.029 106.289C696.029 106.289 699.813 102.298 701.366 104.467Z" fill="#191817"/>
<path d="M701.011 104.942C701.011 104.942 702.386 105.85 702.828 106.884C703.269 107.919 703.696 110.13 704.258 109.957C704.258 109.957 705.054 106.349 703.409 104.662C701.665 102.874 701.011 104.942 701.011 104.942Z" fill="#191817"/>
<path d="M719.704 94.9503C719.46 94.8527 719.101 94.6214 718.632 94.5732C718.215 94.5305 717.689 94.6854 717.689 94.6854C717.689 94.6854 715.998 106.655 715.872 107.289C715.747 107.923 708.613 117.066 706.691 117.03C704.955 116.997 702.897 118.522 702.516 118.815C702.516 118.815 706.559 128.546 706.761 130.374C706.981 132.363 709.073 162.99 709.073 162.99C709.073 162.99 708.949 164.415 711.288 163.648C713.629 162.883 714.213 162.249 714.213 162.249C714.213 162.249 712.064 138.136 711.613 130.638C711.553 129.632 711.408 128.7 711.202 127.841C711.004 127.011 711.161 126.126 711.605 125.432C714.563 120.811 719.234 113.325 719.494 111.734C719.877 109.397 719.704 94.9503 719.704 94.9503Z" fill="#170C76"/>
<path d="M695.107 222.11H685.007C685.007 222.11 684.765 220.358 685.293 219.029C685.798 217.754 686.585 216.967 686.657 215.99C687.298 216.743 688.088 217.226 689.548 217.002C689.727 217.333 690.703 219.099 691.3 219.587C691.961 220.127 694.904 219.934 695.107 222.11Z" fill="#1E1C1B"/>
<path d="M702.041 131.313C701.701 128.931 697.355 119.36 697.355 119.36C697.355 119.36 694.608 118.425 692.8 119.17C690.992 119.916 681.637 113.905 681.337 113.351C681.037 112.798 676.026 102.173 676.026 102.173C676.026 102.173 675.611 101.899 674.945 102.294C674.286 102.684 674.283 103.447 674.283 103.447C674.283 103.447 678.151 116.825 679.179 118.894C679.8 120.142 685.016 124.488 689.06 127.741C689.832 128.362 690.238 129.419 690.111 130.485C689.567 135.06 689.429 137.637 688.803 145.486C688.284 151.999 688.086 164.606 688.086 164.606C688.086 164.606 692.611 166.387 695.735 166.624C698.858 166.861 699.539 163.114 699.539 163.114C699.539 163.114 702.391 133.765 702.041 131.313Z" fill="#170C76"/>
<path d="M701.146 113.948C701.146 113.948 701.874 114.435 702.735 114.288C703.324 114.187 703.458 113.392 703.458 113.392C703.458 113.392 703.048 113.245 702.394 113.394C701.741 113.544 701.146 113.948 701.146 113.948Z" fill="white" stroke="#1E1C1B" stroke-width="0.00015625" stroke-miterlimit="2" stroke-linejoin="round"/>
<path d="M817.97 113.057C817.97 113.057 819.833 116.55 816.331 118.75C816.331 118.75 819.023 119.855 819.96 119.438C819.96 119.438 819.728 119.713 819.552 119.814C819.552 119.814 822.081 120.729 823.343 120.229C824.604 119.73 827.321 105.788 819.852 105.052C819.852 105.052 813.96 102.652 812.714 110.133C811.469 117.615 809.201 116.889 809.201 116.889C809.201 116.889 809.75 117.417 810.055 117.515C810.055 117.515 810.545 117.479 810.695 117.249C810.695 117.249 810.507 117.627 810.362 117.72C810.362 117.72 812.751 118.747 814.214 118.168C815.677 117.589 817.947 114.675 817.97 113.057Z" fill="#191817"/>
<path d="M810.481 223.128H820.009C820.009 223.128 820.237 221.476 819.74 220.222C819.263 219.018 818.521 218.276 818.453 217.355C817.847 218.064 817.102 218.52 815.725 218.309C815.557 218.621 814.635 220.287 814.072 220.748C813.449 221.257 810.672 221.076 810.481 223.128Z" fill="#1E1C1B"/>
<path d="M818.355 218.979C818.355 218.979 817.542 219.279 816.693 219.364C815.192 219.517 814.973 219.008 814.973 219.008C814.973 219.008 813.482 203.898 808.654 175.018C807.958 170.846 807.683 168.537 807.431 164.831C807.356 163.72 807.282 162.486 807.202 161.038C806.983 157.144 807.502 150.594 810.069 148.872C811.236 148.087 812.826 148.303 814.964 150.219C815.132 150.37 815.305 150.532 815.48 150.704C821.736 156.864 819.171 174.549 819.424 182.864C819.466 184.242 819.586 185.363 819.836 186.131C820.158 187.125 820.852 188.503 821.009 189.799C822.322 200.583 818.355 218.979 818.355 218.979Z" fill="#101520"/>
<path d="M819.424 182.864L807.431 164.831C807.356 163.719 807.282 162.486 807.202 161.038C806.983 157.144 807.502 150.594 810.069 148.871L814.963 150.219C815.132 150.37 815.305 150.531 815.48 150.704C821.736 156.864 819.171 174.549 819.424 182.864Z" fill="#101520"/>
<path d="M853.31 200.3L849.344 190.44C849.344 190.44 847.928 190.891 847.134 191.928C846.371 192.923 845.818 192.745 844.081 191.373C844.735 192.523 844.823 193.201 845.228 194.713C845.547 194.758 847.363 196.758 849.225 197.31C849.967 197.53 851.59 200.955 853.31 200.3Z" fill="#1E1C1B"/>
<path d="M811.735 153.209C811.735 153.209 820.274 186.987 823.402 189.161C826.531 191.335 842.98 194.326 846.323 195.957C846.323 195.957 846.731 195.293 846.492 193.872C846.439 193.558 845.967 192.423 845.967 192.423C845.967 192.423 835.752 183.685 829.029 182.803C827.361 182.584 832.426 153.59 821.151 152.431C810.852 151.374 811.735 153.209 811.735 153.209Z" fill="#101520"/>
<path d="M799.564 97.7873C799.564 97.7873 799.794 96.4839 800.053 95.4893C800.167 95.0494 799.369 92.1587 798.816 91.8029C798.265 91.4471 796.827 93.3938 797.233 94.8885C797.442 95.6563 797.786 98.1548 797.786 98.1548L799.564 97.7873Z" fill="#FFA785"/>
<path d="M799.565 97.7864C799.565 97.7864 799.866 97.0307 800.136 96.9082C800.407 96.7857 800.698 95.55 800.897 95.0602C800.897 95.0602 800.705 94.7397 800.369 95.1521C800.163 95.4035 799.706 96.1409 799.706 96.1409L799.565 97.7864Z" fill="#FFA785"/>
<path d="M838.903 102.17C838.961 102.307 839.042 102.552 839.114 102.783C839.116 102.72 839.117 102.657 839.117 102.596C839.121 102.137 840.627 99.6392 841.247 99.4828C841.865 99.3262 842.739 101.667 841.966 102.961C841.569 103.625 840.598 105.9 840.598 105.9L838.993 104.956C838.993 104.956 838.901 104.134 838.673 103.926C838.445 103.719 838.486 102.441 838.421 101.906C838.421 101.906 838.687 101.663 838.903 102.17Z" fill="#FFA785"/>
<path d="M813.446 122.002C813.426 122.008 815.162 123.438 816.633 123.237C818.018 123.049 819.144 121.233 819.127 121.225C818.58 121.003 818.533 120.094 819.04 116.308L818.778 116.322L814.367 116.562C814.367 116.562 814.263 118.113 814.077 119.559C813.922 120.773 813.707 121.913 813.446 122.002Z" fill="#FFA785" stroke="#191817" stroke-width="0.00015625" stroke-miterlimit="2" stroke-linejoin="round"/>
<path d="M814.364 116.561C814.364 116.561 814.26 118.112 814.074 119.558C816.483 119.887 818.075 117.612 818.775 116.321L814.364 116.561Z" fill="#FFA785"/>
<path d="M819.288 115.866C819.288 115.866 820.839 113.819 821.394 111.938C821.789 110.596 821.84 105.379 817.23 105.351C817.23 105.351 815.9 105.276 814.544 106.015C813.465 106.602 811.838 107.989 812.836 112.718L813.05 114.294L819.288 115.866Z" fill="#191817"/>
<path d="M807.92 151.899C807.92 151.899 812.247 155.006 819.452 153.011C819.537 152.987 823.55 152.259 823.55 152.259C823.449 151.946 819.232 144.019 819.134 143.731C817.855 139.976 820.816 122.053 818.863 121.047C818.365 121.665 816.94 122.088 815.722 121.965C814.317 121.824 813.847 121.133 813.964 120.391C812.411 121.227 811.216 122.004 811.216 122.004C809.796 124.426 807.92 151.899 807.92 151.899Z" fill="#FFA785"/>
<path d="M813.383 117.794C813.383 117.794 819.042 118.86 819.572 114.84C820.101 110.82 821.188 108.25 817.597 107.399C814.007 106.548 813.101 107.962 812.638 109.255C812.174 110.548 811.925 117.412 813.383 117.794Z" fill="#FFA785" stroke="#1E1C1B" stroke-width="0.00015625" stroke-miterlimit="2" stroke-linejoin="round"/>
<path d="M815.04 106.86C815.04 106.86 815.977 111.841 818.269 112.942C820.562 114.043 821.69 113.491 821.69 113.491C821.69 113.491 820.079 111.529 820.076 108.579C820.076 108.579 816.505 104.813 815.04 106.86Z" fill="#191817"/>
<path d="M815.365 107.314C815.365 107.314 814.069 108.171 813.651 109.147C813.235 110.123 812.832 112.21 812.302 112.046C812.302 112.046 811.551 108.642 813.103 107.051C814.749 105.364 815.365 107.314 815.365 107.314Z" fill="#191817"/>
<path d="M840.226 105.905C840.226 105.905 836.577 118.527 835.606 120.479C835.02 121.657 828.447 126.314 824.632 129.383C824.59 129.416 824.542 129.483 824.485 129.583C824.484 129.585 824.483 129.586 824.481 129.588C823.529 131.265 820.569 141.637 821.277 143.498C824.252 151.322 826.291 154.349 827.033 156.544C827.404 157.638 826.91 158.865 825.938 159.258C824.715 159.754 822.915 160.377 820.789 160.791C820.384 160.872 819.967 160.943 819.54 161.004C813.676 161.851 809.705 160.285 807.69 159.128C806.736 158.58 806.161 157.442 806.22 156.229C806.341 153.754 807.429 151.304 807.92 145.351C808.291 140.834 804.866 133.959 805.01 131.555C805.069 130.604 805.726 129.467 806.081 128.73C806.081 128.73 806.081 128.729 806.082 128.728C806.711 127.422 807.058 126.244 806.638 125.589C803.848 121.23 797.822 115.22 797.575 113.72C797.215 111.514 797.378 97.8836 797.378 97.8836C797.608 97.7918 797.947 97.5731 798.39 97.5284C798.784 97.4886 799.278 97.6336 799.278 97.6336C799.278 97.6336 800.875 108.928 800.993 109.526C801.112 110.123 807.842 118.75 809.656 118.715C811.294 118.684 813.603 120.124 813.963 120.4C813.963 120.4 812.492 123.366 812.126 127.371C811.869 130.172 813.514 128.927 814.547 127.008C815.946 124.411 818.759 120.713 818.759 120.713C818.759 120.713 821.049 120.036 822.755 120.74C824.461 121.443 833.288 115.771 833.571 115.249C833.855 114.727 838.582 104.703 838.582 104.703C838.582 104.703 838.973 104.445 839.602 104.817C840.223 105.185 840.226 105.905 840.226 105.905Z" fill="#AA2A32"/>
<path d="M815.033 115.609C815.033 115.609 814.791 116.164 814.465 116.175C814.14 116.185 813.312 116.096 813.256 115.999C813.2 115.903 813.064 115.323 813.064 115.323C813.064 115.323 814.431 115.261 815.033 115.609Z" fill="white" stroke="#434241" stroke-width="0.00015875" stroke-miterlimit="2" stroke-linejoin="round"/>
<path d="M825.93 159.254C824.707 159.75 822.907 160.372 820.782 160.787C818.758 157.613 815.334 153.619 816.215 146.272C817.126 138.678 823.687 130.686 824.474 129.584C823.522 131.26 820.561 141.632 821.269 143.494C824.245 151.318 826.283 154.344 827.026 156.539C827.396 157.634 826.902 158.86 825.93 159.254Z" fill="#AA2A32"/>
<path d="M806.073 128.724C806.702 127.418 807.049 126.24 806.629 125.584C803.839 121.226 797.813 115.216 797.566 113.716C798.164 115.346 805.461 120.219 807.513 122.314C809.542 124.382 806.156 128.622 806.073 128.724Z" fill="#AA2A32"/>
<path d="M683.597 68.6153C683.597 68.6153 684.964 70.7471 684.818 73.1788C684.709 74.9837 683.295 76.8095 683.2 76.8818L685.431 78.2359C685.431 78.2359 687.086 74.8928 686.529 72.0996C686.358 71.2437 685.566 69.8744 684.985 69.2644C684.345 68.5919 683.597 68.6153 683.597 68.6153Z" fill="#434241"/>
<path d="M679.021 68.8384L677.607 65.2838C677.607 65.2838 684.202 65.5376 686.387 71.6523C686.387 71.6523 681.773 67.9074 679.021 68.8384Z" fill="#FAF5F7"/>
<path d="M654.115 159.274C654.115 159.274 652.542 157.924 652.137 155.906C651.836 154.408 652.591 152.529 652.653 152.444L650.546 151.965C650.546 151.965 649.923 155.147 650.979 157.261C651.303 157.909 652.241 158.801 652.846 159.135C653.511 159.502 654.115 159.274 654.115 159.274Z" fill="#434241"/>
<path d="M657.768 157.818L659.684 160.312C659.684 160.312 654.268 161.949 651.172 157.588C651.172 157.588 655.732 159.343 657.768 157.818Z" fill="#EDEBEB"/>
<path d="M895.156 170.901C895.156 170.901 895.018 168.557 898.885 167.422C900.618 166.914 904.477 167.818 902.03 172.139C899.486 176.632 897.217 175.01 897.217 175.01C897.217 175.01 902.524 170.283 900.401 168.121C898.057 165.736 897.157 170.462 897.157 170.462C897.157 170.462 896.212 170.406 895.156 170.901Z" fill="#EDEBEB"/>
<path d="M896.544 175.273C896.544 175.273 895.098 174.383 895.671 172.405L897.75 172.816C897.75 172.816 896.95 174.957 898.906 175.216C898.906 175.216 897.024 175.724 896.544 175.273Z" fill="#434241"/>
<path d="M760.926 49.5532C760.926 49.5532 763.087 46.0123 766.401 48.5198L768.418 46.3238C768.418 46.3238 766.532 44.6949 762.184 47.6161C759.339 49.5274 760.926 49.5532 760.926 49.5532Z" fill="#434241"/>
<path d="M758.785 53.0227C758.785 53.0227 758.356 48.9579 764.336 46.422C764.336 46.422 762.175 47.614 761.508 51.6655L758.785 53.0227Z" fill="#EDEBEB"/>
<path d="M782.81 31.4667C782.81 31.4667 784.577 30.1969 784.763 28.6624C784.763 28.6624 786.484 28.7683 786.856 29.4032C786.856 29.4032 786.065 31.943 785.135 32.4192C785.135 32.4192 783.043 32.5781 782.81 31.4667Z" fill="#434241"/>
<path d="M725.944 176.361C725.944 176.361 724.06 175.006 723.862 173.369C723.862 173.369 722.025 173.482 721.629 174.16C721.629 174.16 722.472 176.869 723.464 177.376C723.464 177.376 725.697 177.546 725.944 176.361Z" fill="#434241"/>
<path d="M803.316 71.4698C803.316 71.4698 805.209 70.109 805.409 68.4649C805.409 68.4649 807.251 68.5782 807.65 69.2586C807.65 69.2586 806.803 71.98 805.807 72.4901C805.807 72.4901 803.565 72.6602 803.316 71.4698Z" fill="#434241"/>
<path d="M840.176 133.861C840.176 133.861 839.082 132.351 838.493 132.138C837.906 131.926 836.766 130.923 836.618 131.336C836.469 131.749 837.383 132.387 837.334 132.859C837.287 133.333 834.428 134.091 834.446 134.59C834.463 135.091 835.118 136.299 836.208 136.161C837.299 136.022 840.063 135.276 840.631 135.598C841.199 135.921 840.176 133.861 840.176 133.861Z" fill="#FFA785"/>
<path d="M869.647 126.507C868.033 128.973 866.143 130.922 864.203 132.458C858.031 137.344 851.337 138.07 851.337 138.07C849.733 137.486 844.806 136.876 841.895 136.343H841.894C840.623 136.11 839.738 135.892 839.679 135.697L839.751 132.811C839.751 132.811 850.439 132.169 852.209 131.234C855 128.498 857.466 124.946 859.072 122.17C860.429 119.826 861.948 118.095 864.451 117.079C868.073 115.61 874.657 118.847 869.647 126.507Z" fill="#0049AF"/>
<path d="M864.754 130.646L864.21 132.463C858.039 137.348 851.345 138.075 851.345 138.075C850.057 138.075 844.814 136.881 841.902 136.347C842.017 136.357 849.83 137.052 851.557 136.849C853.297 136.644 861.396 128.657 861.396 128.657L864.754 130.646Z" fill="#0049AF"/>
<path d="M857.759 222.105H869.571C870.416 221.452 869.342 215.067 869.342 215.067C869.342 215.067 866.118 213.675 865.561 216.506C865.003 219.334 861.455 220.234 859.579 220.578C858.294 220.816 857.888 221.619 857.759 222.105Z" fill="#1E1C1B"/>
<path d="M875.278 222.105H887.088C887.935 221.452 886.861 215.067 886.861 215.067C886.861 215.067 883.637 213.675 883.08 216.506C882.522 219.334 878.974 220.234 877.096 220.578C875.812 220.816 875.407 221.619 875.278 222.105Z" fill="#1E1C1B"/>
<path d="M860.948 156.967C860.948 156.967 861.479 164.505 862.103 173.564C862.95 185.872 865.238 216.387 865.238 216.387C865.238 216.387 866.739 217.843 870.06 217.046C870.06 217.046 872.887 206.52 873.732 194.504C873.745 194.307 873.758 194.109 873.771 193.91C874.559 181.679 875.782 155.923 875.782 155.923L860.948 156.967Z" fill="#101520"/>
<path d="M860.769 154.37C860.769 154.37 861.481 164.512 862.105 173.572L873.734 194.512C873.747 194.315 873.76 194.117 873.774 193.918C874.561 181.687 875.784 155.93 875.784 155.93L860.769 154.37Z" fill="#101520"/>
<path d="M864.16 154.364C864.16 154.364 872.594 178.257 875.291 187.312C877.212 193.764 882.628 216.395 882.628 216.395C882.628 216.395 884.984 217.21 886.963 215.633C886.963 215.633 888.979 192.512 884.908 185.993C882.748 182.535 884.372 150.039 875.615 149.76C866.859 149.481 864.16 154.364 864.16 154.364Z" fill="#101520"/>
<path d="M867.93 119.145C869.217 119.916 870.474 119.965 871.564 119.701C872.56 119.463 873.415 118.962 874.025 118.519C874.65 118.064 875.018 117.668 875.018 117.668C875.018 117.668 874.975 117.596 874.901 117.455C874.522 116.715 873.368 114.053 873.881 109.776C873.887 109.72 873.515 109.799 872.953 109.95C871.28 110.402 867.914 111.488 867.766 111.536H867.761C867.761 111.536 867.719 112.435 867.58 114.048C867.569 114.19 867.557 114.338 867.542 114.492C867.525 114.681 867.508 114.882 867.487 115.088C867.332 116.764 867.93 119.145 867.93 119.145Z" fill="#FFA785" stroke="black" stroke-width="0.00015625" stroke-miterlimit="2" stroke-linejoin="round"/>
<path d="M867.574 114.043C870.073 114.695 873.801 110.497 873.801 110.497C873.529 110.266 873.242 110.084 872.947 109.946C871.274 110.397 867.909 111.483 867.76 111.531H867.754C867.754 111.531 867.713 112.43 867.574 114.043Z" fill="#FFA785"/>
<path d="M866.717 111.312C866.717 111.312 867.745 111.731 869.053 111.932C870.969 112.226 873.488 112.052 874.279 109.415C875.612 104.976 877.314 102.315 873.393 100.502C871.294 99.532 869.95 99.4805 869.038 99.8509C868.246 100.17 867.778 100.809 867.424 101.441C866.663 102.799 865.13 110.535 866.717 111.312Z" fill="#FFA785" stroke="black" stroke-width="0.00015625" stroke-miterlimit="2" stroke-linejoin="round"/>
<path d="M864.34 101.791C866.609 103.648 869.751 101.822 870.728 102.316C871.703 102.809 871.878 104.671 871.896 105.262C871.913 105.854 871.981 106.353 873.307 105.999C873.524 105.941 873.68 105.958 873.788 106.032C874.337 106.403 873.635 108.201 873.423 108.59C873.423 108.59 873.119 109.878 873.795 110.505C873.876 110.58 875.205 111.241 878.407 105.665C878.91 104.79 879.391 102.818 878.614 100.919C877.837 99.0208 874.591 97.1859 871.841 96.2132C870.809 95.8486 870.044 95.8619 869.446 96.1117C868.449 96.5266 867.917 97.5994 867.389 98.6773C866.504 100.488 864.34 101.791 864.34 101.791Z" fill="#191817"/>
<path d="M878.945 156.035C878.945 156.035 877.846 156.306 876.457 156.573C875.097 156.832 873.458 157.088 872.3 157.078C866.378 157.025 861.422 155.041 861.422 155.041C860.309 155.041 859.799 153.079 859.618 150.342C859.493 148.488 859.521 146.277 859.609 144.079C859.637 143.366 859.674 142.654 859.712 141.957C859.79 140.571 859.882 139.243 859.964 138.067C860.042 136.965 860.113 135.998 860.155 135.248C860.155 135.247 859.996 130.002 860.059 125.387C860.103 122.076 861.737 119.061 862.145 118.569C863.331 117.143 866.765 116.24 867.453 116.116C867.506 116.108 867.533 116.102 867.533 116.102C870.358 117.907 874.161 115.469 874.161 115.469C874.247 115.485 874.332 115.509 874.416 115.529C874.695 115.46 877.55 115.943 878.215 116.355C879.857 117.373 880.81 128.676 880.81 128.676C881.084 136.352 880.74 148.647 881.274 153.34C881.45 154.885 880.136 155.722 878.945 156.035Z" fill="#0049AF"/>
<path d="M874.397 115.532C874.397 115.532 870.189 120.471 867.18 119.459C867.18 119.459 866.78 118.792 868.135 118.578C869.49 118.364 870.953 118.452 874.397 115.532Z" fill="#434241"/>
<path d="M866.699 108.443C866.699 108.443 866.618 109.018 867.791 109.476C867.791 109.476 868.778 109.861 868.957 109.272C868.957 109.272 868.175 108.424 866.699 108.443Z" fill="white" stroke="#434241" stroke-width="0.00015625" stroke-miterlimit="2" stroke-linejoin="round"/>
<path d="M876.703 134.218C876.703 134.218 870.591 145.85 867.124 147.898C864.78 149.283 861.498 150.012 859.618 150.34C859.493 148.486 859.521 146.275 859.609 144.077C862.092 143.734 865.876 143.188 865.876 143.188L876.703 134.218Z" fill="#434241"/>
<path d="M868.654 128.382L865.396 141.763C865.396 141.763 861.562 142.039 859.713 141.963C859.791 140.578 859.793 140.531 859.876 139.356C859.876 139.356 864.277 136.746 868.654 128.382Z" fill="#434241"/>
<path d="M849.048 142.741C849.048 142.741 847.953 141.23 847.365 141.018C846.776 140.806 845.637 139.802 845.488 140.216C845.34 140.629 846.253 141.267 846.206 141.739C846.157 142.213 843.3 142.97 843.317 143.47C843.335 143.971 843.989 145.179 845.08 145.041C846.17 144.902 848.935 144.155 849.502 144.477C850.07 144.801 849.048 142.741 849.048 142.741Z" fill="#FFA785"/>
<path d="M881.17 124.188C881.17 124.188 881.362 131.276 867.166 145.495L864.315 139.685C863.791 139.337 873.486 115.606 876.273 115.796C881.672 116.163 881.17 124.188 881.17 124.188Z" fill="#0049AF"/>
<path d="M865.999 138.99C865.999 138.99 849.855 141.089 849.258 141.455C848.66 141.82 847.378 143.241 847.805 145.024C847.805 145.024 856.161 146.219 860.759 146.198C864.725 146.178 867.291 145.455 867.291 145.455L865.999 138.99Z" fill="#0049AF"/>
<path d="M889.383 160.143H884.419V223.518H889.383V160.143Z" fill="#CCC9C9"/>
<path d="M890.641 160.143H885.677V223.518H890.641V160.143Z" fill="white"/>
<path d="M873.145 160.143H868.36V221.23H873.145V160.143Z" fill="#FAF5F7"/>
<path d="M694.148 160.143H689.848V221.23H694.148V160.143Z" fill="#FAF5F7"/>
<path d="M899.933 158.29H661.167V160.926H899.933V158.29Z" fill="white"/>
<path d="M885.843 160.394H675.249V163.03H885.843V160.394Z" fill="#FAF5F7"/>
<path d="M678.385 160.143H673.924V223.518H678.385V160.143Z" fill="#CCC9C9"/>
<path d="M677.554 160.143H673.093V223.518H677.554V160.143Z" fill="white"/>
<path d="M730.606 158.249H707.008L710.182 142.835H733.781L730.606 158.249Z" fill="#FAF5F7"/>
<path d="M730.586 157.638H702.538V158.349H730.586V157.638Z" fill="#CCC9C9"/>
<path d="M770.961 158.322H749.504L746.784 145.139H768.241L770.961 158.322Z" fill="#FAF5F7"/>
<path d="M774.98 157.463H750.939V158.47H774.98V157.463Z" fill="#FAF5F7"/>
</svg>
