<?xml version="1.0" encoding="UTF-8" standalone="no"?>
<!DOCTYPE svg PUBLIC "-//W3C//DTD SVG 1.1//EN" "http://www.w3.org/Graphics/SVG/1.1/DTD/svg11.dtd">
<svg width="30%" height="auto" viewBox="0 0 2745 2252" version="1.1" xmlns="http://www.w3.org/2000/svg" xmlns:xlink="http://www.w3.org/1999/xlink" xml:space="preserve" xmlns:serif="http://www.serif.com/" style="fill-rule:evenodd;clip-rule:evenodd;stroke-linejoin:round;stroke-miterlimit:2;"><g><path d="M363.506,1582.09c-9.74,-28.274 -19.046,-57.24 -27.673,-86.991c-10.265,-35.79 -19.385,-72.679 -27.207,-110.527c-7.847,-37.843 40.97,-105.782 54.88,197.518m2284.97,-83.058c-14.754,-54.343 -37.804,-112.491 -67.984,-172.819c0.07,-0.135 0.147,-0.275 0.218,-0.416c11.716,-24.041 21.795,-49.994 27.666,-78.479c5.872,-28.345 7.151,-59.683 0.423,-90.631c-3.179,-15.458 -8.692,-30.506 -15.478,-44.762c-1.515,-3.697 -3.639,-6.965 -5.557,-10.386l-5.942,-10.15l-1.496,-2.475l-1.439,-2.091l-2.872,-4.177l-5.762,-8.359c-15.669,-21.949 -32.381,-43.022 -50.409,-62.592c-71.848,-78.78 -156.479,-143.63 -246.214,-202.264c-69.507,-45.229 -142.71,-86.058 -218.586,-123.376c-363.61,-308.468 -824.61,-514.671 -1195.94,-352.296c-92.914,40.624 -170.67,104.515 -235.028,184.644c-69.449,29.055 -134.498,66.782 -191.539,113.226c-39.934,32.304 -75.87,69.635 -105.641,110.419c-29.688,40.912 -53.326,85.162 -71.099,130.513c-17.818,45.376 -29.854,91.807 -37.375,137.803c-7.521,46.029 -10.572,91.635 -10.482,136.18c0.102,44.557 3.344,88.066 8.717,130.308c5.327,42.274 12.97,83.263 22.173,122.915c9.184,39.659 19.711,78.057 31.395,115.126c11.8,37.03 24.559,72.78 37.938,107.297c23.152,58.909 48.267,114.032 74.457,165.522c33.934,236.103 104.861,412.081 190.906,438.469c28.613,8.768 76.675,13.303 139.434,13.769c45.984,43.829 664.467,-53.133 716.437,-77.961c205.302,-37.759 419.41,-88.718 610.188,-151.829c379.413,-125.364 666.59,-298.619 608.89,-511.128" style="fill:#cacaca;fill-rule:nonzero;"/><path d="M657.454,279.115c24.405,42.267 -13.737,109.977 -85.194,151.234c-71.457,41.257 -149.169,40.432 -173.568,-1.836c-24.405,-42.274 13.731,-109.983 85.188,-151.24c71.457,-41.251 149.169,-40.426 173.574,1.842" style="fill:#ccc9c9;fill-rule:nonzero;"/><path d="M1293.84,188.353c-4.119,27.68 -45.383,44.481 -92.172,37.523c-46.79,-6.958 -81.377,-35.035 -77.264,-62.714c4.112,-27.68 45.382,-44.475 92.172,-37.523c46.783,6.958 81.382,35.035 77.264,62.714" style="fill:#ccc9c9;fill-rule:nonzero;"/><path d="M440.713,595.976c-43.898,-0 -79.489,-35.585 -79.489,-79.49c-0,-43.892 35.591,-79.483 79.489,-79.483c43.899,-0 79.484,35.591 79.484,79.483c-0,43.905 -35.585,79.49 -79.484,79.49m192.511,-127.744l-39.524,0c-2.814,-8.96 -6.395,-17.575 -10.687,-25.774l27.961,-27.961c6.933,-6.965 6.933,-18.214 0,-25.147l-43.125,-43.099c-6.932,-6.959 -18.182,-6.959 -25.115,-0l-27.961,27.961c-8.205,-4.292 -16.839,-7.899 -25.806,-10.719l0,-39.511c0,-9.83 -7.949,-17.78 -17.779,-17.78l-60.956,0c-9.823,0 -17.773,7.95 -17.773,17.78l0,39.511c-8.966,2.82 -17.6,6.427 -25.806,10.719l-27.961,-27.961c-6.932,-6.959 -18.182,-6.959 -25.115,-0l-43.125,43.099c-6.939,6.933 -6.939,18.182 0,25.147l27.961,27.961c-4.291,8.199 -7.872,16.814 -10.693,25.774l-39.518,0c-9.83,0 -17.779,7.975 -17.779,17.78l-0,60.949c-0,9.836 7.949,17.779 17.779,17.779l39.518,0c2.821,8.967 6.428,17.601 10.693,25.806l-27.961,27.961c-6.939,6.933 -6.939,18.189 0,25.147l43.125,43.093c6.933,6.933 18.183,6.933 25.115,0l27.961,-27.961c8.206,4.266 16.84,7.873 25.806,10.693l0,39.518c0,9.83 7.95,17.78 17.773,17.78l60.956,-0c9.83,-0 17.779,-7.95 17.779,-17.78l0,-39.518c8.967,-2.82 17.601,-6.427 25.806,-10.693l27.961,27.961c6.933,6.933 18.183,6.933 25.115,0l43.125,-43.093c6.933,-6.958 6.933,-18.214 0,-25.147l-27.961,-27.961c4.266,-8.205 7.873,-16.839 10.687,-25.806l39.524,0c9.824,0 17.773,-7.943 17.773,-17.779l0,-60.949c0,-9.805 -7.949,-17.78 -17.773,-17.78" style="fill:#101420;fill-rule:nonzero;"/><path d="M440.71,391.104c-69.135,0 -125.384,56.249 -125.384,125.384c0,69.142 56.249,125.384 125.384,125.384c69.142,-0 125.384,-56.242 125.384,-125.384c-0,-69.135 -56.242,-125.384 -125.384,-125.384m0,264.422c-76.663,0 -139.038,-62.369 -139.038,-139.038c-0,-76.663 62.375,-139.038 139.038,-139.038c76.669,-0 139.038,62.375 139.038,139.038c0,76.669 -62.369,139.038 -139.038,139.038" style="fill:#fff;fill-rule:nonzero;"/><path d="M891.999,552.622c-48.043,-0 -87.126,-39.083 -87.126,-87.126l0,-40.087l28.639,0l0,40.087c0,32.253 26.241,58.487 58.487,58.487c32.246,-0 58.487,-26.234 58.487,-58.487l-0,-126.663c-0,-48.036 39.083,-87.119 87.126,-87.119l31.996,-0c48.043,-0 87.126,39.083 87.126,87.119l0,322.736l-28.639,0l0,-322.736c0,-32.246 -26.234,-58.48 -58.487,-58.48l-31.996,-0c-32.253,-0 -58.487,26.234 -58.487,58.48l-0,126.663c-0,48.043 -39.083,87.126 -87.126,87.126" style="fill:#fff;fill-rule:nonzero;"/><path d="M958.839,139.644c-0,-80.404 -67.952,-144.941 -149.565,-139.3c-68.362,4.72 -123.958,59.766 -129.292,128.089c-2.551,32.713 6.178,63.277 22.711,88.219c28.127,42.441 43.131,92.223 43.131,143.138l0,0.006l146.738,0c0,-50.55 14.275,-100.326 42.524,-142.242c14.998,-22.25 23.753,-49.053 23.753,-77.91" style="fill:#ff7b47;fill-rule:nonzero;"/><path d="M870.98,177.099l-23.734,-0l0,-23.024l23.734,-0l0,23.024Zm-79.841,-0l-23.734,-0l0,-23.024l23.734,-0l-0,23.024Zm43.157,-35.975l-0,35.975l-30.206,-0l-0,-35.975l-49.629,-0l-0,48.919l36.678,0l-0,187.734l12.951,-0l-0,-187.734l30.206,0l-0,187.734l12.95,-0l0,-187.734l36.685,0l0,-48.919l-49.635,-0Z" style="fill:#fff;fill-rule:nonzero;"/><rect x="784.666" y="429.567" width="69.052" height="33.084" style="fill:#101420;"/><path d="M862.079,444.673l-85.77,-0c-16.833,-0 -30.488,-13.648 -30.488,-30.481l0,-54.394l146.739,0l-0,54.394c-0,16.833 -13.648,30.481 -30.481,30.481" style="fill:#434241;fill-rule:nonzero;"/><path d="M2232.51,860.674l-196.604,36.051l43.125,50.685l-130.756,111.256l-152.085,-169.788l-258.878,218.509l43.1,51.061l209.293,-176.662l152.257,169.986l180.366,-153.473l43.125,50.678l67.057,-188.303Z" style="fill:#1e1c1b;fill-rule:nonzero;"/><path d="M2129.64,680.407l-156.606,28.716l34.35,40.368l-104.157,88.629l-121.144,-135.252l-206.21,174.06l34.331,40.669l166.718,-140.714l121.278,135.399l143.675,-122.249l34.35,40.368l53.415,-149.994Z" style="fill:#434241;fill-rule:nonzero;"/><path d="M2493.98,628.161c-7.911,0 -14.32,6.408 -14.32,14.32l0,14.326c0,7.904 6.409,14.313 14.32,14.313c7.911,-0 14.319,-6.409 14.319,-14.313l0,-14.326c0,-7.912 -6.408,-14.32 -14.319,-14.32" style="fill:#fff;fill-rule:nonzero;"/><path d="M2547.28,1325.71c-7.911,0 -14.32,6.409 -14.32,14.313l0,30.699c0,7.905 6.409,14.319 14.32,14.319c7.911,0 14.319,-6.414 14.319,-14.319l0,-30.699c0,-7.904 -6.408,-14.313 -14.319,-14.313" style="fill:#edebeb;fill-rule:nonzero;"/><path d="M2493.98,734.552c-7.911,0 -14.32,6.408 -14.32,14.32l0,30.692c0,7.905 6.409,14.313 14.32,14.313c7.911,-0 14.319,-6.408 14.319,-14.313l0,-30.692c0,-7.912 -6.408,-14.32 -14.319,-14.32" style="fill:#fff;fill-rule:nonzero;"/><path d="M2547.28,1202.95c-7.911,-0 -14.32,6.415 -14.32,14.319l0,30.692c0,7.905 6.409,14.32 14.32,14.32c7.911,-0 14.319,-6.415 14.319,-14.32l0,-30.692c0,-7.904 -6.408,-14.319 -14.319,-14.319" style="fill:#edebeb;fill-rule:nonzero;"/><path d="M2547.28,1097.26c-7.911,-0 -14.32,6.415 -14.32,14.319l0,30.692c0,7.905 6.409,14.32 14.32,14.32c7.911,-0 14.319,-6.415 14.319,-14.32l0,-30.692c0,-7.904 -6.408,-14.319 -14.319,-14.319" style="fill:#edebeb;fill-rule:nonzero;"/><path d="M2547.28,986.656c-7.911,0 -14.32,6.415 -14.32,14.32l0,30.692c0,7.905 6.409,14.319 14.32,14.319c7.911,0 14.319,-6.414 14.319,-14.319l0,-30.692c0,-7.905 -6.408,-14.32 -14.319,-14.32" style="fill:#edebeb;fill-rule:nonzero;"/><path d="M2547.28,898.174c-7.911,0 -14.32,6.415 -14.32,14.32l0,30.692c0,7.904 6.409,14.319 14.32,14.319c7.911,0 14.319,-6.415 14.319,-14.319l0,-30.692c0,-7.905 -6.408,-14.32 -14.319,-14.32" style="fill:#edebeb;fill-rule:nonzero;"/><path d="M2547.28,797.403c-7.911,-0 -14.32,6.414 -14.32,14.319l0,30.692c0,7.905 6.409,14.32 14.32,14.32c7.911,-0 14.319,-6.415 14.319,-14.32l0,-30.692c0,-7.905 -6.408,-14.319 -14.319,-14.319" style="fill:#edebeb;fill-rule:nonzero;"/><path d="M2547.28,1448.47c-7.911,-0 -14.32,6.414 -14.32,14.319c-7.911,0 -14.326,6.415 -14.326,14.326c0,7.911 6.415,14.319 14.326,14.319l28.639,0l0,-28.645c0,-7.905 -6.408,-14.319 -14.319,-14.319" style="fill:#edebeb;fill-rule:nonzero;"/><path d="M2150.82,1462.79l-25.473,-0c-7.911,-0 -14.326,6.415 -14.326,14.319c0,7.918 6.415,14.326 14.326,14.326l25.473,0c7.911,0 14.32,-6.408 14.32,-14.326c-0,-7.904 -6.409,-14.319 -14.32,-14.319" style="fill:#edebeb;fill-rule:nonzero;"/><path d="M2252.72,1462.79l-25.48,-0c-7.905,-0 -14.319,6.415 -14.319,14.319c-0,7.918 6.414,14.326 14.319,14.326l25.48,0c7.911,0 14.319,-6.408 14.319,-14.326c0,-7.904 -6.408,-14.319 -14.319,-14.319" style="fill:#edebeb;fill-rule:nonzero;"/><path d="M2354.63,1462.79l-25.48,-0c-7.905,-0 -14.32,6.415 -14.32,14.319c0,7.918 6.415,14.326 14.32,14.326l25.48,0c7.911,0 14.319,-6.408 14.319,-14.326c0,-7.904 -6.408,-14.319 -14.319,-14.319" style="fill:#edebeb;fill-rule:nonzero;"/><path d="M2456.53,1462.79l-25.473,-0c-7.912,-0 -14.326,6.415 -14.326,14.319c-0,7.918 6.414,14.326 14.326,14.326l25.473,0c7.911,0 14.319,-6.408 14.319,-14.326c0,-7.904 -6.408,-14.319 -14.319,-14.319" style="fill:#edebeb;fill-rule:nonzero;"/><path d="M2048.91,1462.79l-14.32,-0c-7.911,-0 -14.326,6.415 -14.326,14.319c0,7.918 6.415,14.326 14.326,14.326l14.32,0c7.911,0 14.319,-6.408 14.319,-14.326c0,-7.904 -6.408,-14.319 -14.319,-14.319" style="fill:#fff;fill-rule:nonzero;"/><path d="M0,1251.31l628.323,-189.562l135.197,448.126l-628.323,189.561l-135.197,-448.125Z" style="fill:#0b1320;"/><path d="M63.252,1317.09l548.754,-165.554l101.924,337.842l-548.754,165.555l-101.924,-337.843Z" style="fill:#fff;"/><path d="M488.139,1155.22c2.398,7.956 -2.104,16.353 -10.06,18.752c-7.956,2.398 -16.347,-2.104 -18.752,-10.06c-2.398,-7.956 2.104,-16.354 10.06,-18.752c7.956,-2.398 16.354,2.104 18.752,10.06" style="fill:#fff;fill-rule:nonzero;"/><path d="M545.415,1137.94c2.398,7.956 -2.104,16.353 -10.06,18.752c-7.956,2.398 -16.347,-2.104 -18.752,-10.06c-2.398,-7.956 2.104,-16.347 10.06,-18.752c7.956,-2.398 16.353,2.104 18.752,10.06" style="fill:#fff;fill-rule:nonzero;"/><path d="M602.69,1120.66c2.398,7.956 -2.105,16.353 -10.061,18.752c-7.949,2.398 -16.346,-2.104 -18.745,-10.06c-2.404,-7.956 2.098,-16.354 10.054,-18.752c7.962,-2.398 16.353,2.104 18.752,10.06" style="fill:#fff;fill-rule:nonzero;"/><path d="M196.633,1477.23l64.006,-19.317l35.445,117.443l-64.006,19.317l-35.445,-117.443Z" style="fill:#170c76;"/><path d="M290.665,1392.58l64.002,-19.316l51.014,169.034l-64.002,19.316l-51.014,-169.034Z" style="fill:#248232;"/><path d="M416.085,1411.95l64.02,-19.315l35.175,116.59l-64.02,19.315l-35.175,-116.59Z" style="fill:#aa2a32;"/><path d="M481.097,1231.1l64.029,-19.315l79.755,264.378l-64.029,19.316l-79.755,-264.379Z" style="fill:#0066f5;"/><path d="M132.861,1338.21c1.976,6.53 -1.727,13.431 -8.263,15.401c-6.536,1.976 -13.431,-1.727 -15.401,-8.263c-1.969,-6.53 1.727,-13.425 8.263,-15.401c6.537,-1.976 13.431,1.733 15.401,8.263" style="fill:#ebebeb;fill-rule:nonzero;"/><path d="M146.896,1328.93l132.388,-39.94l2.794,9.261l-132.388,39.94l-2.794,-9.261Z" style="fill:#ebebeb;"/><path d="M143.032,1371.93c1.976,6.53 -1.727,13.437 -8.263,15.4c-6.53,1.977 -13.43,-1.72 -15.4,-8.263c-1.97,-6.529 1.727,-13.424 8.263,-15.4c6.536,-1.976 13.43,1.733 15.4,8.263" style="fill:#ebebeb;fill-rule:nonzero;"/><path d="M157.067,1362.64l132.388,-39.94l2.794,9.261l-132.388,39.94l-2.794,-9.261Z" style="fill:#ebebeb;"/><path d="M825.948,827.753l41.155,30.775l-41.155,0l0,-30.775Zm-220.792,91.315l0,-18.553l78.46,-40.772l19.839,17.23c1.375,1.19 3.083,1.791 4.79,1.791c1.708,-0 3.416,-0.601 4.791,-1.791l19.838,-17.236l78.46,40.707l0,18.624l-206.178,0Zm70.421,-190.157l57.624,39.351l-57.624,0l0,-39.351Zm135.757,62.682l0,92.389l-66.59,-34.548l66.59,-57.841Zm-13.104,-23.331l-39.115,0l-67.185,-45.881l173.478,-0l-67.178,45.881Zm-108.903,77.085c-0.006,0 -0.012,-0.006 -0.012,-0.006l-71.911,-62.465l50.729,-0c0.051,-0 0.089,0.026 0.14,0.026c0.052,-0 0.09,-0.026 0.141,-0.026l88.284,-0c0.064,-0 0.128,0.026 0.192,0.026c0.083,-0 0.159,-0.026 0.243,-0.026l41.96,-0l-71.911,62.458l-0.025,0.02l-18.912,16.43l-18.918,-16.437Zm-84.171,-53.754l66.597,57.847l-66.597,34.606l0,-92.453Zm220.792,17.914l0,-33.935c0,-0.364 -0.153,-0.671 -0.205,-1.023c-0.07,-0.512 -0.121,-1.023 -0.307,-1.516c-0.185,-0.505 -0.486,-0.927 -0.78,-1.375c-0.185,-0.281 -0.268,-0.614 -0.499,-0.876c-0.057,-0.064 -0.134,-0.089 -0.191,-0.147c-0.371,-0.403 -0.825,-0.678 -1.28,-0.991c-0.089,-0.058 -0.172,-0.141 -0.262,-0.205l59.338,-40.528l-0,122.339l-55.814,-41.743Zm70.261,57.156c0.032,-0.281 0.166,-0.537 0.166,-0.825l0,-150.761c0,-0.243 -0.115,-0.447 -0.14,-0.69c-0.045,-0.487 -0.141,-0.947 -0.288,-1.427c-0.154,-0.486 -0.333,-0.933 -0.582,-1.375c-0.115,-0.198 -0.134,-0.428 -0.262,-0.626c-0.128,-0.186 -0.32,-0.275 -0.461,-0.448c-0.332,-0.403 -0.691,-0.742 -1.093,-1.062c-0.352,-0.281 -0.698,-0.531 -1.088,-0.735c-0.428,-0.231 -0.863,-0.384 -1.336,-0.531c-0.454,-0.128 -0.889,-0.224 -1.356,-0.269c-0.243,-0.025 -0.454,-0.14 -0.697,-0.14l-220.799,-0c-0.236,-0 -0.434,0.108 -0.665,0.134c-0.492,0.045 -0.953,0.141 -1.419,0.281c-0.455,0.141 -0.877,0.294 -1.286,0.512c-0.403,0.211 -0.761,0.467 -1.119,0.755c-0.403,0.319 -0.755,0.652 -1.081,1.048c-0.141,0.173 -0.339,0.269 -0.46,0.455c-0.135,0.198 -0.154,0.428 -0.269,0.626c-0.243,0.442 -0.429,0.889 -0.576,1.375c-0.147,0.48 -0.243,0.94 -0.287,1.427c-0.026,0.243 -0.141,0.447 -0.141,0.69l-0,53.185l-63.124,0c-0.083,0 -0.153,0.051 -0.236,0.051c-0.557,0.013 -1.075,0.179 -1.612,0.327c-0.39,0.102 -0.8,0.147 -1.158,0.313c-0.383,0.173 -0.71,0.467 -1.061,0.71c-0.442,0.307 -0.889,0.575 -1.254,0.972c-0.051,0.058 -0.134,0.083 -0.192,0.147c-0.23,0.262 -0.313,0.595 -0.499,0.876c-0.287,0.448 -0.588,0.87 -0.78,1.375c-0.185,0.493 -0.23,1.004 -0.307,1.516c-0.051,0.352 -0.204,0.659 -0.204,1.023l-0,150.8c-0,4.035 3.274,7.303 7.303,7.303l220.798,0c4.036,0 7.304,-3.268 7.304,-7.303l0,-29.304c0.07,-0.486 0.032,-0.953 0,-1.439l0,-22.487l63.124,0c1.093,0 2.104,-0.275 3.031,-0.71c0.256,-0.109 0.454,-0.313 0.697,-0.46c0.672,-0.41 1.273,-0.883 1.778,-1.478c0.103,-0.121 0.25,-0.16 0.339,-0.281c0.173,-0.23 0.211,-0.505 0.352,-0.748c0.262,-0.442 0.486,-0.87 0.646,-1.356c0.16,-0.48 0.237,-0.947 0.294,-1.446" style="fill:#fff;fill-rule:nonzero;"/><path d="M810.665,1949.96l0.039,-0.077c-0.013,0.026 -0.026,0.045 -0.039,0.077m-40.131,112.081l29.278,-84.689c-1.49,2.846 83.155,36.179 83.155,36.179l-67.825,-72.115c0,-0 -0.115,0.223 -0.332,0.633l0.332,-0.633l-239.569,-65.554l194.961,186.179Z" style="fill:#2ba84a;fill-rule:nonzero;"/><path d="M882.968,2013.54l-50.742,-102.859l-256.651,-34.811l239.569,65.554l67.824,72.116Z" style="fill:#248232;fill-rule:nonzero;"/><path d="M832.225,1910.68l52.686,-65.432l-309.337,30.621l256.651,34.811Z" style="fill:#2ba84a;fill-rule:nonzero;"/><path d="M936.305,2021.5c-2.091,0.787 -4.496,0.755 -6.683,-0.269c-8.404,-3.958 -13.06,-6.491 -13.252,-6.593c-4.17,-2.271 -5.698,-7.49 -3.428,-11.659c2.264,-4.164 7.483,-5.705 11.653,-3.435c0.045,0.026 4.458,2.424 12.35,6.134c4.291,2.027 6.133,7.15 4.112,11.435c-0.991,2.117 -2.731,3.632 -4.752,4.387" style="fill:#0066f5;fill-rule:nonzero;"/><path d="M1435.72,1775.96c-1.702,0.639 -3.607,0.748 -5.481,0.185c-4.548,-1.362 -7.131,-6.152 -5.769,-10.7c2.82,-9.388 5.468,-18.668 7.969,-27.782c1.253,-4.579 5.98,-7.265 10.559,-6.018c4.579,1.26 7.271,5.993 6.011,10.565c-2.532,9.236 -5.225,18.643 -8.077,28.173c-0.806,2.673 -2.788,4.662 -5.212,5.577m-28.352,82.572c-1.918,0.716 -4.106,0.754 -6.165,-0.058c-4.419,-1.739 -6.587,-6.721 -4.848,-11.141c3.409,-8.64 6.824,-17.728 10.15,-27.001c1.605,-4.471 6.517,-6.793 10.987,-5.181c4.471,1.599 6.792,6.517 5.187,10.988c-3.383,9.439 -6.856,18.687 -10.335,27.5c-0.927,2.354 -2.776,4.068 -4.976,4.893m-389.396,193.253c-1.656,0.626 -3.518,0.742 -5.353,0.223c-9.376,-2.647 -18.86,-5.602 -28.198,-8.787c-4.496,-1.528 -6.894,-6.408 -5.359,-10.898c1.522,-4.496 6.408,-6.894 10.898,-5.366c9.056,3.083 18.246,5.948 27.328,8.513c4.572,1.285 7.227,6.037 5.935,10.603c-0.774,2.738 -2.782,4.784 -5.251,5.712m352.501,-114.237c-2.29,0.857 -4.918,0.742 -7.221,-0.537c-4.138,-2.322 -5.621,-7.553 -3.306,-11.697c4.477,-8.014 8.947,-16.552 13.29,-25.378c2.091,-4.253 7.239,-6.005 11.499,-3.914c4.259,2.098 6.018,7.246 3.92,11.506c-4.47,9.081 -9.081,17.894 -13.705,26.17c-1.037,1.842 -2.648,3.16 -4.477,3.85m-266.948,130.699c-1.19,0.447 -2.501,0.639 -3.857,0.505c-9.619,-0.94 -19.5,-2.232 -29.374,-3.844c-4.682,-0.761 -7.861,-5.18 -7.093,-9.862c0.767,-4.688 5.187,-7.86 9.862,-7.099c9.51,1.554 19.026,2.802 28.274,3.697c4.733,0.473 8.18,4.669 7.72,9.395c-0.327,3.37 -2.565,6.088 -5.532,7.208m216.289,-59.945c-2.993,1.125 -6.504,0.524 -8.973,-1.842c-3.422,-3.294 -3.537,-8.724 -0.249,-12.145c6.178,-6.447 12.343,-13.636 18.31,-21.368c2.891,-3.767 8.295,-4.457 12.049,-1.547c3.761,2.89 4.451,8.288 1.554,12.042c-6.344,8.225 -12.906,15.88 -19.512,22.762c-0.921,0.959 -2.009,1.656 -3.179,2.098m-129.253,58.947c-0.608,0.224 -1.247,0.384 -1.919,0.473c-9.67,1.273 -19.647,2.162 -29.649,2.642c-4.739,0.223 -8.769,-3.428 -8.992,-8.174c-0.231,-4.733 3.434,-8.749 8.167,-8.986c9.535,-0.46 19.039,-1.304 28.242,-2.519c4.701,-0.621 9.018,2.699 9.632,7.399c0.531,4.036 -1.829,7.79 -5.481,9.165m68.905,-17.044c-4.208,1.58 -8.423,3.057 -12.637,4.438c-4.516,1.471 -9.37,-0.991 -10.834,-5.506c-1.471,-4.509 0.978,-9.203 5.5,-10.834c8.563,-2.795 17.178,-5.91 25.575,-10.303c4.234,-2.117 9.402,-0.557 11.595,3.652c2.194,4.214 0.557,9.395 -3.645,11.595c-5.117,2.66 -10.342,5.001 -15.554,6.958" style="fill:#0066f5;fill-rule:nonzero;"/><path d="M1426.69,1232.61c0,-0 57.758,289.268 281.153,373.759c-0,0 37.234,-30.071 63.015,-24.341c25.773,5.724 73.03,61.576 73.03,61.576l-146.067,0c-0,0 -239.147,-22.909 -362.305,-256.332l-7.157,-87.356l98.331,-67.306Z" style="fill:#ffa785;fill-rule:nonzero;"/><path d="M1300.68,986.305c-0,-0 145.107,184.734 162.292,233.416c-0,0 -91.648,75.902 -120.287,101.682c0,0 -108.685,-212.932 -90.221,-272.09c17.185,-55.046 48.216,-63.008 48.216,-63.008" style="fill:#0b1320;fill-rule:nonzero;"/><path d="M1081.1,938.569c-0,0 -219.577,30.552 -257.765,175.659c-38.187,145.114 259.197,582.362 259.197,582.362l344.168,-0c-0,-0 -84.018,-683.552 -126.024,-710.285c-42.005,-26.733 -97.378,-72.557 -219.576,-47.736" style="fill:#424242;fill-rule:nonzero;"/><path d="M1199.48,854.557l-8.237,134.203c-30.986,19.129 -142.588,-17.754 -142.588,-17.754l15.241,-147.378l135.584,30.929Z" style="fill:#ffa785;fill-rule:nonzero;"/><path d="M1322.63,665.527c-0,-0 -4.055,279.988 -157.521,243.445c-180.437,-42.959 -97.378,-300.742 -97.378,-300.742l254.899,57.297Z" style="fill:#ffa785;fill-rule:nonzero;"/><path d="M1067.73,743.812c0,0 -12.407,-27.686 -32.457,-16.232c-20.05,11.455 -24.827,89.928 28.639,96.042l3.818,-79.81Z" style="fill:#ffa785;fill-rule:nonzero;"/><path d="M1035.27,727.583c-0,0 29.592,-4.777 39.62,22.435l15.752,-101.675c0,-0 100.569,28.639 155.539,-0c-0,-0 41.724,55.02 73.407,60.45c31.684,5.423 78.588,-124.891 0,-150.672c0,0 -175.16,-214.799 -275.089,0c-0,0 -65.561,4.298 -74.15,83.059c-8.589,78.767 51.298,133.033 51.298,133.033c0,-0 -1.656,-38.994 13.623,-46.63" style="fill:#161616;fill-rule:nonzero;"/><path d="M1066.3,1470.33c0,-0 194.762,199.053 386.653,199.053l380.922,0c0,0 -88.789,-116.001 -131.754,-99.527c-42.958,16.469 -71.597,40.81 -71.597,40.81c-0,0 -273.99,-51.925 -444.878,-255.084c0,-0 -82.866,0.204 -119.346,114.748" style="fill:#ffa785;fill-rule:nonzero;"/><path d="M823.331,1114.23c0,0 3.818,271.131 236.762,393.33c-0,-0 92.613,-137.836 125.55,-151.977c-0,0 -114.473,-260.073 -190.465,-310.092c-38.654,-25.435 -118.387,-17.185 -171.847,68.739" style="fill:#0b1320;fill-rule:nonzero;"/><path d="M1441.97,1669.39c0,0 -9.548,10.022 -8.596,27.207l617.684,-0c0,-0 -6.683,-25.774 -15.272,-27.207l-593.816,0Z" style="fill:#0b1320;fill-rule:nonzero;"/><path d="M1833.87,1696.59l160.866,-498.35l244.397,-0l-162.292,498.35l-242.971,0Z" style="fill:#0b1320;fill-rule:nonzero;"/><path d="M2113.18,1429.22c-4.777,19.589 -18.617,33.046 -30.909,30.046c-12.299,-2.999 -18.387,-21.31 -13.61,-40.899c4.777,-19.602 18.617,-33.052 30.916,-30.053c12.292,3 18.38,21.317 13.603,40.906" style="fill:#fff;fill-rule:nonzero;"/><path d="M2338.58,1759.6l-1813.37,-0c-0,-34.798 28.217,-63.015 63.015,-63.015l1687.35,-0c34.798,-0 63.009,28.217 63.009,63.015" style="fill:#0b1320;fill-rule:nonzero;"/><path d="M1062.87,1696.59l-291.002,0c-30.059,0 -54.419,-24.367 -54.419,-54.419c-0,-30.053 24.36,-54.42 54.419,-54.42l291.002,0l-0,108.839Z" style="fill:#0b1320;fill-rule:nonzero;"/><path d="M1062.87,1666.16l-295.434,0c-13.245,0 -23.976,-10.738 -23.976,-23.983c-0,-13.245 10.731,-23.977 23.976,-23.977l295.434,0l-0,47.96Z" style="fill:#fff;fill-rule:nonzero;"/><path d="M1062.87,1587.76l-291.002,0c-30.059,0 -54.419,-24.367 -54.419,-54.419c-0,-30.053 24.36,-54.42 54.419,-54.42l291.002,0l-0,108.839Z" style="fill:#0b1320;fill-rule:nonzero;"/><path d="M1062.87,1557.32l-295.434,0c-13.245,0 -23.976,-10.738 -23.976,-23.983c-0,-13.239 10.731,-23.977 23.976,-23.977l295.434,0l-0,47.96Z" style="fill:#fff;fill-rule:nonzero;"/><path d="M745.486,1078.81l3.147,10.041l3.14,-10.041c4.048,-12.925 12.452,-23.74 23.542,-30.289c-11.09,-6.543 -19.494,-17.357 -23.542,-30.283l-3.14,-10.047l-3.147,10.047c-4.042,12.926 -12.445,23.74 -23.541,30.283c11.096,6.549 19.499,17.364 23.541,30.289" style="fill:#434241;fill-rule:nonzero;"/><path d="M1396.58,946.692l5.942,18.988l5.941,-18.988c7.656,-24.444 23.548,-44.897 44.519,-57.272c-20.971,-12.382 -36.863,-32.828 -44.519,-57.272l-5.941,-18.988l-5.942,18.988c-7.649,24.444 -23.542,44.89 -44.519,57.272c20.977,12.375 36.87,32.828 44.519,57.272" style="fill:#434241;fill-rule:nonzero;"/><path d="M1815.48,1352.2l5.942,18.989l5.941,-18.989c7.655,-24.45 23.548,-44.896 44.519,-57.278c-20.971,-12.381 -36.864,-32.821 -44.519,-57.271l-5.941,-18.989l-5.942,18.989c-7.649,24.45 -23.542,44.89 -44.519,57.271c20.977,12.382 36.87,32.828 44.519,57.278" style="fill:#434241;fill-rule:nonzero;"/><path d="M1717.13,1475.63l3.895,12.439l3.888,-12.439c5.014,-16.02 15.426,-29.419 29.17,-37.522c-13.744,-8.116 -24.156,-21.508 -29.17,-37.523l-3.888,-12.445l-3.895,12.445c-5.014,16.015 -15.426,29.407 -29.17,37.523c13.744,8.103 24.156,21.502 29.17,37.522" style="fill:#434241;fill-rule:nonzero;"/><path d="M1472.14,708.434l3.895,12.439l3.888,-12.439c5.014,-16.014 15.426,-29.413 29.17,-37.522c-13.744,-8.11 -24.156,-21.508 -29.17,-37.523l-3.888,-12.439l-3.895,12.439c-5.014,16.015 -15.426,29.413 -29.17,37.523c13.744,8.109 24.156,21.508 29.17,37.522" style="fill:#434241;fill-rule:nonzero;"/><path d="M481.793,1012.63l5.481,17.523l5.488,-17.523c7.06,-22.557 21.725,-41.43 41.084,-52.853c-19.359,-11.422 -34.024,-30.289 -41.084,-52.852l-5.488,-17.524l-5.481,17.524c-7.06,22.563 -21.725,41.43 -41.078,52.852c19.353,11.423 34.018,30.296 41.078,52.853" style="fill:#434241;fill-rule:nonzero;"/><rect x="2272.5" y="284.043" width="423.881" height="519.481" style="fill:#edebeb;"/><path d="M2744.1,340.41l-0,37.574l-47.717,-0l-0,-93.937c27.098,4.464 47.717,28.006 47.717,56.363" style="fill:#ccc9c9;fill-rule:nonzero;"/><rect x="2320.41" y="434.324" width="67.121" height="67.121" style="fill:#191817;"/><rect x="2420.77" y="434.324" width="227.699" height="16.731" style="fill:#ff7b47;"/><rect x="2420.77" y="484.715" width="227.699" height="16.731" style="fill:#ff7b47;"/><rect x="2320.41" y="586.122" width="67.121" height="67.121" style="fill:#191817;"/><rect x="2420.77" y="586.122" width="227.699" height="16.731" style="fill:#ff7b47;"/><rect x="2420.77" y="636.512" width="227.699" height="16.731" style="fill:#ff7b47;"/><path d="M2359.7,481.792l-27.904,-24.117l11.243,-13.002l14.339,12.394l29.157,-36.742l13.463,10.681l-40.298,50.786Z" style="fill:#fff;fill-rule:nonzero;"/><path d="M2359.7,629.77l-27.904,-24.118l11.243,-13.002l14.339,12.395l29.157,-36.743l13.463,10.681l-40.298,50.787Z" style="fill:#fff;fill-rule:nonzero;"/></g></svg>