<?xml version="1.0" encoding="utf-8"?>
<!-- Generator: Adobe Illustrator 23.0.1, SVG Export Plug-In . SVG Version: 6.00 Build 0)  -->
<svg version="1.1" id="Layer_1" xmlns="http://www.w3.org/2000/svg" xmlns:xlink="http://www.w3.org/1999/xlink" x="0px" y="0px"
	 viewBox="0 0 595.3 226.8" style="enable-background:new 0 0 595.3 226.8;" xml:space="preserve">
<style type="text/css">
	.st0{fill:#FFFDFD;}
	.st1{fill-rule:evenodd;clip-rule:evenodd;fill:#FFFDFD;}
</style>
<g id="Layer_x0020_1">
	<g id="_1859487936896">
		<path class="st0" d="M209.2,156.2c0,14.3,21.2,14,21.2,0V74.7h26.8c14.4,0,14.4-20.7,0-20.7h-76.3c-14,0-14,20.7,0,20.7h28.3
			V156.2z M341.1,166.2c15.8,0,14.7-21.2,0-21.2h-49.2v-24.2h40.7c14.4,0,14.4-21.2,0-21.2h-40.7V75.5h46.5c14.5,0,14.8-20.9,0-20.9
			h-58c-5.6,0-10,4.2-10,10v91.6c0,5.6,4.4,10,10,10H341.1z M378.6,126.5h25.3l24.3,34.8c9.7,12.3,26.5,0.4,18.1-12.1l-21.5-26.1
			c34.2-13.7,25.8-68.5-15.1-68.5h-42.9c-5.3,0-9.7,4.2-9.7,9.9v91.6c0,14.2,21.5,13.7,21.5-0.4V126.5z M378.6,74.1h31.2
			c22.2,0,20.9,33.9,0,33.9h-31.2V74.1z M453.6,155.1c0,7.1,5.1,11.2,10.9,11.2c5.8,0,10.2-4,10.2-11.2V92.8l53.4,67.7
			c4.7,4.4,7.4,5.7,13,5.7c4.2-1.3,8.6-4,8.6-11.2V64.2c0-5.3-5.6-11.1-11.4-11.1c-5.5,0-10.2,5.8-10.2,11.1v62.6L474.7,60
			c-4.3-4.2-5.6-5.6-11.4-5.6c-8.4,0-9.6,5.6-9.6,11.4V155.1z"/>
		<path class="st1" d="M106,107.3l57.9,60.1l-58.3-18.1L83,125.8L106,107.3z M115.6,54.3h48.3l-84.7,68.2L55,154.1l3.5-53.8
			L115.6,54.3z"/>
		<polygon class="st1" points="55,54.3 55,96.8 78,78.2 		"/>
		<polygon class="st1" points="53.4,69.8 53.4,54.3 45.5,62.1 		"/>
	</g>
</g>
</svg>
