<svg version="1.2" xmlns="http://www.w3.org/2000/svg" viewBox="0 0 2161 1549" width="2161" height="1549"><style>.s0{fill:#fdeacf}.s1{fill:#fec786}.s2{fill:#ffffff}.s3{fill:#efa04b}.s4{fill:#d4f1f9}.s5{fill:#3aa1c9}.s6{fill:#3f9896}.s7{fill:#7fc6a6}.s8{fill:#dcf4ff}.s9{fill:#223749}.s10{fill:#b1e8fc}.s11{fill:#fe9f73}.s12{fill:#e23e3d}.s13{fill:#472a31}.s14{fill:#d7e4f7}.s15{fill:#fecc86}.s16{fill:#683d46}.s17{fill:#ffb357}.s18{fill:#21111d}.s19{fill:#fd7583}.s20{fill:#f9b59d}.s21{fill:#cc2323}.s22{fill:#e2f2f1}.s23{fill:#f07162}.s24{fill:#49263e}.s25{fill:#4c222e}.s26{fill:#000000}.s27{fill:#fbfdfc}.s28{fill:#f9956e}.s29{fill:#ff424d}.s30{fill:#f78c63}.s31{fill:#4cb7d8}.s32{fill:#aac9f8}.s33{fill:#258d8c}.s34{fill:#3a1f33}.s35{fill:#febac7}.s36{fill:#33192c}.s37{fill:#f99247}.s38{fill:#fc4963}.s39{fill:#f7d6b2}.s40{fill:#61a3c5}</style><g style="opacity: .5"><path class="s0" d="m512.2 1488.7l-170.2-1.9c-153.8-1.7-437.1-350.7-308.6-701c113.3-309 404.6-458.2 682.9-476.1c339.5-21.9 370.3-342.3 743.5-306.3c174.5 16.8 466.3 148.4 606 426.4c91.4 181.7 171.8 463.7-36.8 873.4c-56.1 110-169 179.5-292.4 180.1z" /></g><g style="opacity: .8"><path class="s1" d="m1432.8 637c-157.7 0-285.5-127.9-285.5-285.6c0-157.6 127.8-285.5 285.5-285.5c157.7 0 285.5 127.9 285.5 285.5c0 157.7-127.8 285.6-285.5 285.6z" /><path class="s2" d="m1432.8 609.5c-142.5 0-258-115.5-258-258.1c0-142.5 115.5-258 258-258c142.5 0 258.1 115.5 258.1 258c0 142.6-115.6 258.1-258.1 258.1z" /><path class="s1" d="m1608.3 239.8q-173.1 60.9-175.4 112.9q65.1 14.1 175.4-112.9z" /><path class="s1" d="m1335.4 252q99.8 66.7 95.7 114.1q-37 3-95.7-114.1z" /><path class="s3" d="m1421.7 361.8c-5-6.1-4.1-15.2 2-20.3c6.2-5 15.3-4.1 20.3 2.1c5.1 6.1 4.2 15.2-2 20.3c-6.2 5-15.2 4.1-20.3-2.1z" /><path class="s3" d="m1435.2 93.4v56.8h-4.7v-56.8z" /><path class="s3" d="m1435.2 552.6v56.9h-4.7v-56.9z" /><path class="s3" d="m1690.9 353.8h-56.8v-4.7h56.8z" /><path class="s3" d="m1231.7 349.1v4.7h-56.9v-4.7z" /><path class="s3" d="m1617 170.6l-20.1 20.1l-3.3-3.3l20.1-20.1z" /><path class="s3" d="m1272.2 515.5l-20.1 20.1l-3.4-3.3l20.1-20.1z" /><path class="s3" d="m1526.9 591.8l-4.4 1.6l-10.1-26.5l4.4-1.7z" /><path class="s3" d="m1353.3 136l-4.3 1.7l-10.2-26.6l4.4-1.6z" /><path class="s3" d="m1341.1 561.9l-11.7 26l-4.3-2l11.7-25.9z" /><path class="s3" d="m1540.6 116.9l-11.6 26l-4.3-1.9l11.6-26z" /><path class="s3" d="m1219.1 435.4l-26.5 10.1l-1.7-4.4l26.5-10.1z" /><path class="s3" d="m1674.9 261.8l-26.6 10.1l-1.7-4.4l26.6-10.1z" /><path class="s3" d="m1224.3 255.3l-1.9 4.3l-25.9-11.6l1.9-4.3z" /><path class="s3" d="m1667.4 459.2l-26-11.7l1.9-4.2l26 11.6z" /><path class="s3" d="m1271.5 188l-19.7-20.4l3.4-3.3l19.7 20.5z" /><path class="s3" d="m1614 535.3l-3.4 3.3l-19.8-20.5l3.4-3.2z" /></g><path class="s4" d="m746.9 27.4v656.4h-488.9v-548.4l105.2-108z" /><path class="s5" d="m258 135.6l104.6-108.2v108.2z" /><path class="s5" d="m404.8 103.5c0-3 2.5-5.5 5.5-5.5h213.3c3.1 0 5.5 2.5 5.5 5.5c0 3.1-2.4 5.6-5.5 5.6h-213.3c-3 0-5.5-2.5-5.5-5.6z" /><path class="s5" d="m375.7 146.5c0-3.1 2.5-5.6 5.5-5.6h271.5c3 0 5.5 2.5 5.5 5.6c0 3-2.5 5.5-5.5 5.5h-271.5c-3 0-5.5-2.5-5.5-5.5z" /><path class="s5" d="m303.7 249c0-3.1 2.5-5.6 5.5-5.6h393.3c3.1 0 5.6 2.5 5.6 5.6c0 3-2.5 5.5-5.6 5.5h-393.3c-3 0-5.5-2.5-5.5-5.5z" /><path class="s5" d="m303.7 297.4c0-3 2.5-5.5 5.5-5.5h393.3c3.1 0 5.6 2.5 5.6 5.5c0 3.1-2.5 5.6-5.6 5.6h-393.3c-3 0-5.5-2.5-5.5-5.6z" /><path class="s5" d="m303.7 345.9c0-3.1 2.5-5.5 5.5-5.5h393.3c3.1 0 5.6 2.4 5.6 5.5c0 3.1-2.5 5.5-5.6 5.5h-393.3c-3 0-5.5-2.4-5.5-5.5z" /><path class="s5" d="m303.7 401.2c0-3.1 2.5-5.5 5.5-5.5h393.3c3.1 0 5.6 2.4 5.6 5.5c0 3.1-2.5 5.5-5.6 5.5h-393.3c-3 0-5.5-2.4-5.5-5.5z" /><path class="s5" d="m303.7 449.7c0-3.1 2.5-5.6 5.5-5.6h393.3c3.1 0 5.6 2.5 5.6 5.6c0 3-2.5 5.5-5.6 5.5h-393.3c-3 0-5.5-2.5-5.5-5.5z" /><path class="s5" d="m303.7 616c0-3.1 2.5-5.6 5.5-5.6h393.3c3.1 0 5.6 2.5 5.6 5.6c0 3-2.5 5.5-5.6 5.5h-393.3c-3 0-5.5-2.5-5.5-5.5z" /><path class="s5" d="m303.7 576.4c0-3.1 2.5-5.5 5.5-5.5h393.3c3.1 0 5.6 2.4 5.6 5.5c0 3.1-2.5 5.5-5.6 5.5h-393.3c-3 0-5.5-2.4-5.5-5.5z" /><path class="s6" d="m1811.2 494.6q49.4-81.6 167.8-60.4q-79.7 118.2-167.8 60.4z" /><path class="s7" d="m1734.1 516.2q14.7-163.7 214-220.4q-34 243.2-214 220.4z" /><path class="s8" d="m1856.6 1467.5h-1370.8v-1013.3h1370.8z" /><path fill-rule="evenodd" class="s9" d="m1821 1492.1h-1331.1c-33 0-59.7-26.7-59.7-59.7v-937.6c0-33 26.7-59.7 59.7-59.7h1331.1c33 0 59.7 26.7 59.7 59.7v937.6c0 33-26.7 59.7-59.7 59.7zm-0.7-24.6c20 0 36.3-16.2 36.3-36.2v-935.4c0-20-16.3-36.2-36.3-36.2h-1258c-17.9 0-32.5 14.5-32.5 32.4v943c0 17.9 14.6 32.4 32.5 32.4z" /><path class="s2" d="m1791.6 1223.8h-1196.8c-15.4 0-28-12.5-28-28v-676.5c0-15.5 12.6-28.1 28-28.1h1196.8c15.4 0 28 12.6 28 28.1v676.5c0 15.5-12.6 28-28 28z" /><path fill-rule="evenodd" class="s10" d="m755.9 646.1h-149.5v-90.8h149.5zm-144.3-5.2h139.1v-80.3h-139.1z" /><path fill-rule="evenodd" class="s10" d="m926.6 646.1h-149.6v-90.8h149.6zm-144.3-5.2h139v-80.3h-139z" /><path class="s10" d="m1094.7 643.5h-144.3v-85.5h144.3z" /><path class="s10" d="m1265.4 643.5h-144.4v-85.5h144.4z" /><path class="s10" d="m1436 643.5h-144.3v-85.5h144.3z" /><path class="s10" d="m1606.7 643.5h-144.3v-85.5h144.3z" /><path class="s10" d="m1777.4 643.5h-144.3v-85.5h144.3z" /><path class="s10" d="m753.3 755.5h-144.3v-85.6h144.3z" /><path class="s10" d="m924 755.5h-144.3v-85.6h144.3z" /><path class="s10" d="m1094.7 755.5h-144.3v-85.6h144.3z" /><path class="s10" d="m1265.4 755.5h-144.4v-85.6h144.4z" /><path class="s10" d="m1436 755.5h-144.3v-85.6h144.3z" /><path class="s10" d="m1606.7 755.5h-144.3v-85.6h144.3z" /><path class="s10" d="m1777.4 755.5h-144.3v-85.6h144.3z" /><path class="s10" d="m753.3 867.5h-144.3v-85.6h144.3z" /><path class="s10" d="m924 867.5h-144.3v-85.6h144.3z" /><path class="s10" d="m1094.7 867.5h-144.3v-85.6h144.3z" /><path class="s10" d="m1265.4 867.5h-144.4v-85.6h144.4z" /><path class="s10" d="m1436 867.5h-144.3v-85.6h144.3z" /><path class="s10" d="m1606.7 867.5h-144.3v-85.6h144.3z" /><path class="s10" d="m1777.4 867.5h-144.3v-85.6h144.3z" /><path class="s10" d="m753.3 979.5h-144.3v-85.6h144.3z" /><path class="s10" d="m924 979.5h-144.3v-85.6h144.3z" /><path class="s10" d="m1094.7 979.5h-144.3v-85.6h144.3z" /><path class="s10" d="m1265.4 979.5h-144.4v-85.6h144.4z" /><path class="s10" d="m1436 979.5h-144.3v-85.6h144.3z" /><path class="s10" d="m1606.7 979.5h-144.3v-85.6h144.3z" /><path class="s10" d="m1777.4 979.5h-144.3v-85.6h144.3z" /><path class="s10" d="m753.3 1091.4h-144.3v-85.5h144.3z" /><path class="s10" d="m924 1091.4h-144.3v-85.5h144.3z" /><path class="s10" d="m1094.7 1091.4h-144.3v-85.5h144.3z" /><path class="s10" d="m1265.4 1091.4h-144.4v-85.5h144.4z" /><path fill-rule="evenodd" class="s10" d="m1438.7 1094.1h-149.6v-90.8h149.6zm-144.3-5.3h139v-80.2h-139z" /><path fill-rule="evenodd" class="s10" d="m1609.4 1094.1h-149.6v-90.8h149.6zm-144.4-5.3h139.1v-80.2h-139.1z" /><path fill-rule="evenodd" class="s10" d="m1780 1094.1h-149.5v-90.8h149.5zm-144.3-5.3h139.1v-80.2h-139.1z" /><path class="s5" d="m1019.1 963.5l-42.4-63.2c-1-1.4-0.6-3.4 0.8-4.4c1.5-0.9 3.4-0.5 4.4 0.9l35.7 53.1l45.3-115.9c0.6-1.6 2.5-2.4 4.1-1.8c1.6 0.6 2.4 2.5 1.8 4.1z" /><path class="s5" d="m1189.7 740.4l-42.4-63.2c-1-1.4-0.6-3.4 0.9-4.4c1.4-0.9 3.4-0.5 4.3 0.9l35.7 53.1l45.3-115.9c0.7-1.6 2.5-2.4 4.1-1.8c1.7 0.6 2.5 2.5 1.8 4.1z" /><path class="s5" d="m705.4 1059.4l-42.4-63.2c-1-1.4-0.6-3.4 0.8-4.4c1.5-0.9 3.4-0.5 4.4 0.9l35.7 53.1l45.3-115.9c0.6-1.6 2.5-2.4 4.1-1.8c1.6 0.6 2.4 2.5 1.8 4.1z" /><path class="s5" d="m1025 821.2l-42.4-63.1c-0.9-1.5-0.6-3.4 0.9-4.4c1.4-1 3.4-0.6 4.4 0.9l35.7 53.1l45.3-116c0.6-1.6 2.4-2.4 4.1-1.8c1.6 0.7 2.4 2.5 1.8 4.1z" /><path class="s5" d="m691 735.7l-42.4-63.1c-0.9-1.5-0.5-3.5 0.9-4.4c1.5-1 3.4-0.6 4.4 0.8l35.7 53.1l45.3-115.9c0.6-1.6 2.4-2.4 4.1-1.8c1.6 0.6 2.4 2.5 1.8 4.1z" /><path class="s2" d="m1041.3 1409.8h-438.9c-19.6 0-35.6-15.9-35.6-35.6v-69.5c0-19.7 16-35.6 35.6-35.6h438.9c19.7 0 35.7 15.9 35.7 35.6v69.5c0 19.7-16 35.6-35.7 35.6z" /><path fill-rule="evenodd" class="s10" d="m1017.9 1341.3c0 19.3-15.6 34.9-34.9 34.9c-19.2 0-34.8-15.6-34.8-34.9c0-19.2 15.6-34.8 34.8-34.8c19.3 0 34.9 15.6 34.9 34.8zm-5.1 0c0-16.4-13.3-29.7-29.8-29.7c-16.4 0-29.7 13.3-29.7 29.7c0 16.5 13.3 29.8 29.7 29.8c16.5 0 29.8-13.3 29.8-29.8z" /><path class="s10" d="m1002.4 1343.5h-22.4v-23.9c0-0.7 0.7-1.4 1.4-1.4c0.8 0 1.5 0.7 1.5 1.4v21h19.5c0.7 0 1.4 0.7 1.4 1.5c0 0.8-0.7 1.4-1.4 1.4z" /><path class="s10" d="m897.6 1328.2h-267.9c-2.8 0-5-2.2-5-5v-0.7c0-2.8 2.2-5 5-5h267.9c2.7 0 5 2.2 5 5v0.7c0 2.8-2.3 5-5 5z" /><path class="s10" d="m897.6 1361.5h-267.9c-2.8 0-5-2.3-5-5.1v-0.7c0-2.8 2.2-5 5-5h267.9c2.7 0 5 2.2 5 5v0.7c0 2.8-2.3 5.1-5 5.1z" /><path class="s10" d="m636.1 1386.2c0 3.2-2.6 5.7-5.7 5.7c-3.2 0-5.7-2.5-5.7-5.7c0-3.2 2.5-5.7 5.7-5.7c3.1 0 5.7 2.5 5.7 5.7z" /><path class="s10" d="m653.8 1386.2c0 3.2-2.5 5.7-5.7 5.7c-3.2 0-5.7-2.5-5.7-5.7c0-3.2 2.5-5.7 5.7-5.7c3.2 0 5.7 2.5 5.7 5.7z" /><path class="s10" d="m671.5 1386.2c0 3.2-2.5 5.7-5.7 5.7c-3.1 0-5.7-2.5-5.7-5.7c0-3.2 2.6-5.7 5.7-5.7c3.2 0 5.7 2.5 5.7 5.7z" /><g style="mix-blend-mode: multiply"><path class="s10" d="m1450.7 1379.2h-322.6c-1.4 0-2.5-1.1-2.5-2.5v-2.3c0-1.4 1.1-2.5 2.5-2.5h322.6c1.4 0 2.5 1.1 2.5 2.5v2.3c0 1.4-1.1 2.5-2.5 2.5z" /></g><g style="mix-blend-mode: multiply"><path class="s10" d="m1450.7 1409.8h-322.6c-1.4 0-2.5-1.1-2.5-2.5v-2.2c0-1.4 1.1-2.6 2.5-2.6h322.6c1.4 0 2.5 1.2 2.5 2.6v2.2c0 1.4-1.1 2.5-2.5 2.5z" /></g><g style="mix-blend-mode: multiply"><path fill-rule="evenodd" class="s10" d="m1125 1309.3q0-19.3 7.1-29.7q7.1-10.4 20.1-10.4q13 0 20 10.4q7.1 10.3 7.1 29.7q0 19.2-7.1 29.8q-7.1 10.5-20 10.5q-13 0-20.1-10.6q-7.1-10.5-7.1-29.7zm6.4 0.1q0 16.6 5.3 25.4q5.3 8.8 15.3 8.8q9.9 0 15.2-8.8q5.3-8.8 5.3-25.4q0-16.6-5.3-25.4q-5.3-8.9-15.2-8.9q-9.9 0-15.2 8.9q-5.4 8.8-5.4 25.4z" /><path fill-rule="evenodd" class="s10" d="m1207.9 1307q-7.9-3.6-11.6-8.1q-3.7-4.5-3.7-10.4q0-8.8 6.5-14.1q6.4-5.3 17.4-5.3q11.2 0 17.5 5.2q6.2 5.2 6.2 14.5q0 6-3.7 10.5q-3.7 4.4-11.2 7.7q9.3 3.3 13.8 8.3q4.6 5.1 4.6 12.2q0 10.4-7 16.3q-7 5.9-19.1 5.9q-13 0-20.4-5.9q-7.4-5.9-7.4-16.1q0-6.7 4.2-11.6q4.2-4.8 13.9-9.1zm8.3 2.5q-10.1 3.6-14.8 8.1q-4.7 4.5-4.7 10.7q0 7.1 5.5 11.3q5.5 4.1 14.9 4.1q9.1 0 14.4-4.2q5.4-4.2 5.4-11.3q0-6.7-4.5-10.8q-4.5-4.2-16.2-7.9zm1-4.8q8.2-2.9 12.2-6.8q4.1-4 4.1-9.1q0-6.4-4.5-10.1q-4.5-3.7-12.3-3.7q-7.9 0-12.6 3.6q-4.7 3.6-4.7 9.7q0 5 4 8.7q3.9 3.7 13.8 7.7z" /><path class="s10" d="m1260.7 1315.4v-10.1h9.1v10.1zm0 32.8v-10.1h9v10.1z" /><path class="s10" d="m1301.3 1303.5h8.7q8.6 0 13.5-4q5-3.9 5-10.7q0-6.1-4.4-9.9q-4.4-3.8-11.5-3.8q-6.1 0-10.6 2.6q-4.4 2.5-7.9 8.1l-5.2-3.1q4-6.8 10-10.2q5.9-3.4 13.6-3.4q10.3 0 16.6 5.5q6.2 5.5 6.2 14.7q0 5.9-3 9.9q-3 4.1-9.4 6.8v0.7q7.9 2.7 11.6 7.4q3.8 4.8 3.8 12q0 10.5-7.1 17q-7 6.5-18.5 6.5q-9.1 0-16.2-4.1q-7.1-4-11.4-11.7l5.8-3.5q3.6 6.7 8.9 10.1q5.3 3.3 12.3 3.3q8.6 0 14-4.7q5.4-4.8 5.4-12.4q0-8.1-5.8-12.9q-5.9-4.7-16.2-4.7h-8.2z" /><path fill-rule="evenodd" class="s10" d="m1351.1 1309.3q0-19.3 7.1-29.7q7.1-10.4 20.1-10.4q13.1 0 20.1 10.4q7 10.3 7 29.7q0 19.2-7.1 29.8q-7.1 10.5-20 10.5q-13 0-20.1-10.6q-7.1-10.5-7.1-29.7zm6.4 0.1q0 16.6 5.3 25.4q5.4 8.8 15.3 8.8q9.9 0 15.2-8.8q5.3-8.8 5.3-25.4q0-16.6-5.3-25.4q-5.3-8.9-15.2-8.9q-9.9 0-15.2 8.9q-5.4 8.8-5.4 25.4z" /></g><path fill-rule="evenodd" class="s10" d="m1652.6 1330.1c1-4.8 2.8-9.2 5.2-13.3l-6.8-9.5l5.6-5.8l5.5-5.7l9.8 6.5c3.9-2.6 8.3-4.5 13.1-5.7l1.9-11.6l8-0.1l8-0.2l2.3 11.5c4.7 1 9.2 2.8 13.3 5.2l9.5-6.8l5.7 5.6l5.8 5.6l-6.5 9.7c2.6 4 4.5 8.4 5.7 13.1l11.6 1.9l0.1 8l0.1 8l-11.4 2.3c-1.1 4.8-2.8 9.3-5.3 13.3l6.8 9.5l-5.5 5.8l-5.6 5.7l-9.7-6.4c-4 2.5-8.4 4.5-13.1 5.7l-1.9 11.5l-8 0.1l-8 0.2l-2.3-11.5c-4.8-1-9.3-2.8-13.3-5.2l-9.5 6.8l-5.8-5.6l-5.8-5.5l6.5-9.8c-2.5-3.9-4.5-8.4-5.7-13.1l-11.5-1.9l-0.2-8l-0.1-8zm43.8 39.4c16.6-0.3 29.8-14 29.5-30.5c-0.3-16.6-14-29.8-30.6-29.5c-16.5 0.3-29.7 13.9-29.5 30.5c0.3 16.6 14 29.8 30.6 29.5z" /><path class="s11" d="m719.3 301.2l12.7 5.5l14 6.6q21.9 3.8 22.2 3.8q0.1-0.1-1.8 3.2c27.1 3.4 112.6 6.9 126.7 8.4c8.4 1 16.6 11.5 21.7 19.7l-7 4.7q-74.6-3.3-74.5-1.7c0.1 0.5 2.2 7.9 5.4 17.6c-46.1 3.1-110.7 2.8-122.7-16.2c-9.8-15.6-0.2-38 3.3-51.6z" /><path class="s11" d="m1009.4 636.4l-56.8 0.7l-0.8-53l56.5-7z" /><path class="s12" d="m1064 656.1l-115-14l2.8-23q9.7-10 21.8-2.8q17.2 15.8 36.2 1.7l40.3 23.3q14.9 7 13.9 14.8z" /><path class="s13" d="m949 642.1l118.9 14.4c0.6 0.1 1.1 0.7 1 1.3l-0.7 5.7c-0.1 0.7-0.7 1.1-1.3 1l-118.8-14.4z" /><path class="s14" d="m1021.7 624.9c-4.6 5.5-13.8 16.6-19.6 23.6l-7.9-0.9c5.2-6.3 16.2-19.5 21.7-26z" /><path class="s14" d="m1014.6 650l-7.8-0.9c4.2-5.1 12.5-15.1 18.4-22.2l5.9 3.4c-5 5.9-11.8 14.2-16.5 19.7z" /><path class="s15" d="m832.9 447.2q-48.8 0.8-83.1-0.4c-11-0.3-20.7 0.4-26.5-0.9c-23.9-5.2-29.7-79.6-2.7-125.2q27.1-45.6 121.8 94.3z" /><path class="s11" d="m921.3 636.4l-56.7 0.7l-0.8-53l56.5-7z" /><path class="s12" d="m971.9 661.8l-113.6-22.9l4.6-22.7q10.5-9.2 21.9-1.1q15.9 17.2 35.9 4.6l38.5 26.4q14.2 8 12.7 15.7z" /><path class="s16" d="m858.3 638.9l117.4 23.7c0.6 0.1 1 0.8 0.9 1.4l-1.1 5.6c-0.2 0.6-0.8 1.1-1.4 0.9l-117.4-23.7z" /><path class="s14" d="m932.1 627.5c-5 5.1-15 15.4-21.4 22l-7.8-1.6c5.7-5.8 17.7-18.1 23.7-24.2z" /><path class="s14" d="m923.1 652l-7.8-1.6c4.7-4.7 13.7-14 20.2-20.6l5.5 3.8c-5.4 5.5-12.8 13.2-17.9 18.4z" /><path class="s17" d="m885.5 347.7q120 7.6 123.5 21.5c3.4 13.8 13.4 161.1 5.9 224q-45.5 3.1-67.3-2.2l-5.3-153.2l-35.9-4.1l-82.3-99z" /><path class="s15" d="m827.9 345.4q92.5 26.1 96 40c3.4 13.8 13.3 145.3 5.9 208.1q-49 2.8-70.8-2.5l-5.8-144.5l-21.1 0.7l-51.2-90.1z" /><path class="s18" d="m888.4 595.2c-21.6 0-29.3-3.2-29.7-3.4l-0.5-0.2l-5.7-145.4l9 4.2l-0.7 1.5l-6.5-3l5.6 141.6c2.3 0.8 13.5 4 40 2.8l0.1 1.6q-6.4 0.3-11.6 0.3z" /><path class="s18" d="m868.1 563.9c-2.3-8.9-2.9-95.8-3-99.5h1.7c0 0.9 0.7 90.3 2.9 99.1z" /><path class="s18" d="m954.1 441.1c-11-3.6-26.1-4.1-26.2-4.1v-1.7c0.2 0 15.5 0.6 26.7 4.2z" /><path class="s18" d="m978.8 594.9c-18.5 0-31.2-3-31.4-3l-0.6-0.2l-5.3-154.9l6.8 5.5l-1 1.3l-4-3.2l5.1 150c2.9 0.6 15.2 3 32 2.8v1.7q-0.8 0-1.6 0z" /><path class="s18" d="m955.5 567.1c-2.3-13.4-0.1-104.5 0-108.4l1.7 0.1c0 0.9-2.3 94.7 0 108z" /><path class="s18" d="m796.2 448.8c-21.4 0-46.9-0.8-75.6-2.9l0.1-1.7c85.6 6.5 143 0.1 143.6 0l0.1 1.7c-0.3 0-25.9 2.9-68.2 2.9z" /><path class="s19" d="m825.5 298.7q1.6 0 68.1 28.6l-13.4 25.6l-37.3-8.2z" /><path class="s19" d="m692.6 250.6q-1.1 3.1-18.2 12.4q-7.1-65.3 13-76.7q13.5-7.7 41.7-6.7q-35.5 67.8-36.5 71z" /><path class="s18" d="m721.8 320.5c0.1-0.4 0.5-0.7 0.9-0.6l20.8 4.8c0.5 0.1 0.7 0.5 0.6 0.9c-0.1 0.4-0.5 0.7-0.9 0.6l-20.8-4.8q-0.1 0-0.1 0c-0.4-0.1-0.6-0.5-0.5-0.9z" /><path class="s20" d="m711.4 309l12.7 5.5l14.1 6.7q21.8 3.8 22.1 3.7q0.1 0-1.8 3.3c27.2 3.3 112.7 6.8 126.7 8.4c8.5 0.9 16.6 11.5 21.7 19.7l-6.9 4.7q-74.7-3.3-74.5-1.7c0 0.5 2.1 7.9 5.4 17.6c-46.1 3-110.7 2.8-122.7-16.3c-9.9-15.5-0.3-37.9 3.2-51.6z" /><path class="s19" d="m701.8 184.7q16.1-2.2 58.4-3.8q5.7 1.5 3.9 0.7q46.8 8.3 52 43l22.8 100.3l25.4 1.3q8.3 15.6 2.2 57.7l-123.1 13.9q-26.7 4.3-49.2-24.5c-14.9-19.1-19.9-77.8-19.9-120.6q2.5-64.5 27.5-68z" /><path class="s12" d="m1005.9 366.5h-117.3l40.9-104.1h117.2z" /><path class="s21" d="m929.5 262.4h6.1l-40.9 104.1h-6.1z" /><path class="s22" d="m978.6 304.4c3.1 1 4.3 5.7 2.7 10.5c-1.6 4.8-5.5 7.8-8.6 6.8c-3-1.1-4.2-5.8-2.6-10.6c1.6-4.8 5.4-7.8 8.5-6.7z" /><path class="s21" d="m849.8 358.1h43.8v8.4h-43.8c-2.3 0-4.2-1.9-4.2-4.2c0-2.3 1.9-4.2 4.2-4.2z" /><path class="s12" d="m860.9 361h27.7v1.3h-27.7z" /><path class="s18" d="m742.7 326c-0.1-0.5-13-55.3-18.5-89.8c-0.1-0.4 0.2-0.8 0.7-0.8c0.4-0.1 0.8 0.2 0.8 0.6c5.5 34.4 18.4 89.1 18.5 89.7c0.1 0.4-0.1 0.8-0.6 0.9q-0.2 0.1-0.4 0c-0.2-0.1-0.4-0.3-0.5-0.6z" /><path class="s18" d="m822.4 325.2c-0.2-0.6-19.3-61.3-23.3-82.3c-0.1-0.4 0.2-0.8 0.6-0.9c0.4-0.1 0.8 0.2 0.9 0.6c4 20.9 23.1 81.5 23.3 82.1c0.1 0.4-0.1 0.9-0.5 1q-0.3 0.1-0.6 0c-0.2-0.1-0.3-0.3-0.4-0.5z" /><path class="s18" d="m714.1 187.7c-0.1-0.3 0.2-0.6 0.5-0.7c0.3-0.1 0.7 0.2 0.7 0.5c0.1 0.2 5.1 19.8 31.8 21.7c0.4 0 0.7 0.3 0.6 0.7c0 0.4-0.3 0.6-0.6 0.6q-1-0.1-1.9-0.2c-26.2-2.7-31.1-22.4-31.1-22.6z" /><path class="s18" d="m828.2 311.2c-0.4-0.2-0.5-0.7-0.3-1.1l4.9-8.4l-17.5-77c0-0.1-1.5-9.2-9-19c-7-9.1-20.8-20.6-46.8-24c-0.4-0.1-0.7-0.5-0.7-0.9c0.1-0.4 0.5-0.7 0.9-0.7c26.6 3.6 40.7 15.4 47.9 24.7c7.6 9.9 9.1 18.9 9.2 19.6l17.6 77.3l0.1 0.3l-5.2 8.9c-0.2 0.3-0.6 0.5-1 0.3q0 0-0.1 0z" /><path class="s18" d="m855.8 311.5l-22.4-8.9c-0.4-0.2-0.6-0.7-0.5-1.1c0.2-0.4 0.6-0.5 1-0.4l22.5 9c0.4 0.1 0.6 0.6 0.4 1c-0.1 0.4-0.6 0.6-0.9 0.4q-0.1 0-0.1 0z" /><path class="s19" d="m864.3 326.2q8.2 19.2 2.2 57.7l-29.7-16l8.8-28.7z" /><path class="s18" d="m715.8 326.6c0-0.4 0.4-0.8 0.8-0.8c1.1-0.1 112.2-3.4 147.8-0.3h0.5l0.1 0.4c0.3 0.5 5.4 12.7 4.1 38.1c0 0.4-0.3 0.7-0.8 0.7c-0.4 0-0.7-0.4-0.7-0.8c1.1-22.4-2.9-34.6-3.8-36.9c-36-3-146.1 0.3-147.2 0.3q-0.1 0-0.3 0c-0.3-0.1-0.5-0.4-0.5-0.7z" /><path class="s11" d="m766.6 122.6l0.9 33.9q0.8 10.8-8.7 12.4l2.1 14.5c0.8 5.4-2.3 10.6-7.4 12.4c-2.5 0.9-5.5 1.5-9 1.6c-10.8 0.3-17-7.7-18-11.8q-1-4 1.2-23.6l-0.5-9.5l0.2-37.2z" /><path class="s23" d="m758.8 168.9l1.6 10.7q-22.8-1.1-23.9-19.3q7.6 12 22.3 8.6z" /><path class="s24" d="m740.8 141q-0.1 0-0.3-0.1c-0.2-0.1-0.2-0.4 0-0.6c0-0.1 6.1-6.6 11.9-2.2c0.2 0.2 0.3 0.5 0.1 0.7c-0.1 0.2-0.4 0.2-0.6 0c-5.2-3.9-10.5 1.8-10.7 2.1q-0.2 0.1-0.4 0.1z" /><path class="s25" d="m733.5 120.7q2 3.2 3.2 19.6l-1.8-1.8l-9.8-1.8q6.5-19.2 8.4-16z" /><path class="s24" d="m759.4 137.8q-0.2 0-0.3-0.1c-0.2-0.2-0.2-0.5 0-0.7c0.2-0.1 4.4-3.9 7.2-1.7c0.2 0.2 0.3 0.5 0.1 0.7c-0.2 0.2-0.4 0.2-0.6 0.1c-2.2-1.8-6 1.6-6.1 1.6q-0.1 0.1-0.3 0.1z" /><path class="s26" d="m750 142.6c0.1 0.8-0.5 1.4-1.3 1.4c-0.7 0.1-1.4-0.5-1.4-1.3c0-0.7 0.6-1.4 1.3-1.4c0.8 0 1.4 0.6 1.4 1.3z" /><path class="s26" d="m764.5 140.9c0 0.8-0.6 1.4-1.4 1.4c-0.7 0-1.3-0.6-1.4-1.3c0-0.8 0.6-1.4 1.4-1.4c0.7 0 1.3 0.6 1.4 1.3z" /><path class="s11" d="m738.8 142.5c0.1 4.5-3.4 8.2-7.9 8.3c-4.6 0.1-8.3-3.4-8.4-7.9c-0.1-4.5 3.4-8.3 7.9-8.4c4.5-0.1 8.3 3.4 8.4 8z" /><path class="s23" d="m729.3 147.2c-1.7 0.1-2.8-1.2-3.2-2.4c-0.5-1.5-0.1-3 1.2-3.8c1.7-1.2 3.4-0.5 4.2 0q-0.5-1.3-1.7-1.9c-1.6-0.9-3.6-0.2-3.6-0.2c-0.1 0.1-0.2 0-0.3-0.1c0-0.1 0-0.2 0.2-0.3c0 0 2.1-0.8 3.9 0.2q1.6 0.8 2.2 2.9l0.2 0.8l-0.6-0.6c-0.1-0.1-2-1.9-4.3-0.4c-1.2 0.8-1.3 2.2-1 3.2c0.3 1.1 1.3 2.2 2.8 2.2q0 0 0.1 0c0.1 0 0.2 0.1 0.2 0.2c0 0.1-0.1 0.2-0.2 0.2q0 0-0.1 0z" /><path class="s23" d="m755.1 151.7q-0.2 0-0.2-0.2c-0.1-0.1 0-0.2 0.1-0.3l4.5-1.6l-1.7-10.6c0-0.2 0.1-0.3 0.2-0.3c0.1 0 0.2 0.1 0.2 0.2l1.8 11l-4.8 1.8q-0.1 0-0.1 0z" /><path class="s27" d="m751.7 156.2q0.1 0 8.9-0.5q-1 3.7-4.3 3.9q-3.2 0.2-4.6-3.4z" /><path class="s25" d="m725.1 136.7q-3.2-15.8 1.5-21.9c4.7-6 32.4-17.1 35.9-14.2q3.4 2.8 0.1 6.5q11.1-3.9 13.9 6c2.8 9.9-21.2 14.7-35.7 10.5q-9.4 3-15.7 13.1z" /><path class="s18" d="m693.6 373.8c-14.6-18.8-20-76.1-20.1-119.4c0-0.4 0.3-0.8 0.8-0.8c0.4 0 0.7 0.4 0.7 0.8c0.2 43.1 5.4 99.9 19.8 118.4c11.5 14.7 24.1 20.5 32.6 22.8c9.2 2.4 15.8 1.4 15.8 1.4c0.5-0.1 0.9 0.2 0.9 0.6c0.1 0.5-0.2 0.9-0.6 0.9c-0.3 0.1-6.9 1.1-16.5-1.4q-2.4-0.6-5.1-1.7c-8.3-3.1-18.7-9.3-28.3-21.6z" /><path class="s28" d="m925.2 1407c1.5 5.6 4.7 17.3 4.2 19.4c-0.2 1-1.1 2-3.2 2.5q-0.2 0-0.4 0.1q0 0 0 0q0 0 0 0q-0.2 0-0.4 0c-2.3 0.2-4.4-1.2-4.9-3l0.4 1.6c0.4 1.9-1 3.5-3.3 3.7c-2.2 0.2-4.4-1.1-4.8-3c0.4 1.9-1.1 3.5-3.3 3.7c-2.3 0.2-4.4-1.1-4.9-3l-0.3-1.6c0.4 1.8-1.1 3.5-3.3 3.7c-2.3 0.1-4.4-1.2-4.9-3l-0.9-4l-6.7-14.9c-2.2-0.3-7.8-1.3-15.6-3c12-8.1 10.6-28.2 21.5-35.6c1.2 0.6 16.1 12.6 16.8 13.1c8 6.1 12 14.7 14 23.3z" /><path class="s23" d="m920.4 1427.4l-8.9-23.8c-0.1-0.3 0.1-0.7 0.4-0.8c0.3-0.1 0.7 0 0.8 0.4l8.8 23.7c0.2 0.3 0 0.7-0.3 0.8q-0.1 0.1-0.2 0.1c-0.3 0-0.5-0.2-0.6-0.4z" /><path class="s23" d="m912.3 1429.3l-8-21.6c-0.1-0.3 0-0.7 0.4-0.8c0.3-0.1 0.6 0.1 0.8 0.4l8 21.5c0.1 0.4-0.1 0.7-0.4 0.8q-0.1 0.1-0.2 0.1c-0.3 0-0.5-0.2-0.6-0.4z" /><path class="s28" d="m877.8 1356.9c11.8 9.6 33.1 27 37.5 30.9q6.1 5.5-22.5 29.4q-33.2-17.6-51.4-30.1z" /><path class="s23" d="m903.9 1428.8l-6.4-17.3c-0.1-0.3 0-0.7 0.4-0.8c0.3-0.1 0.6 0 0.8 0.4l6.4 17.3c0.1 0.3 0 0.7-0.4 0.8q-0.1 0-0.2 0c-0.2 0-0.5-0.1-0.6-0.4z" /><path class="s18" d="m997.1 1409.2c-0.4-0.4-0.3-0.9 0-1.3l13.2-11.4c0.4-0.3 1-0.3 1.3 0.1c0.3 0.4 0.3 1-0.1 1.3l-13.2 11.4q-0.2 0.2-0.6 0.2c-0.2 0-0.5-0.1-0.6-0.3z" /><path class="s29" d="m730.9 1430.9q10.5-31.7 122.3-25.8c127.7 6.7 214.8-15.4 237.4 25.8l-177.1 65.7z" /><path class="s29" d="m905.2 1537.8c-31-8.1-147.9-42.9-158.1-50.3c-23.7-17-20-45.9-16.2-56.6c3.9-10.7 28.5-22.8 64.1-13.6q35.5 9.2 136.9 70.2q1.9 38.2-26.7 50.3z" /><path class="s18" d="m910 1475.7c-96.5-57.7-129.1-60.7-129.4-60.7c-0.5-0.1-0.9-0.5-0.8-1c0-0.5 0.4-0.9 0.9-0.8c1.3 0.1 33.1 2.9 130.2 60.9c0.4 0.3 0.6 0.8 0.3 1.3c-0.2 0.3-0.5 0.4-0.8 0.4q-0.2 0-0.4-0.1z" /><path class="s11" d="m806.1 1502.5q3-2.9 64.8-2.4l37.4-19l22.1 43.2l-45.9 23.4c-14.3 7.3-81.3-42.3-78.4-45.2z" /><path class="s13" d="m884.5 1547.7c-14.3 7.3-81.3-42.3-78.4-45.2q3-2.9 64.8-2.4l6.8-3.5c2.3 7.5 9.4 28.6 22.6 43.1z" /><path class="s29" d="m889.6 1487.5q101.4-61 136.9-70.2c35.6-9.2 60.2 2.9 64.1 13.6c3.8 10.7 7.5 39.6-16.2 56.6c-10.2 7.4-135.3 44.4-166.3 52.5q-20.5-14.3-18.5-52.5z" /><path class="s18" d="m907.6 1540.8c-19-12.6-18.9-51.6-18.9-53.3v-0.5l0.4-0.2c1-0.6 94.5-55 131.1-68.7c0.4-0.2 0.9 0 1.1 0.5c0.2 0.4 0 1-0.5 1.1c-35.1 13.2-123.2 64.2-130.3 68.4c0.1 4.6 1 39.9 18.1 51.2c0.4 0.3 0.6 0.8 0.3 1.2c-0.2 0.3-0.5 0.4-0.8 0.4q-0.2 0-0.5-0.1z" /><path class="s18" d="m740.9 1429.8c-0.4-0.2-0.5-0.8-0.2-1.2c0.1-0.2 4-5.5 16.7-5.3c0.5 0 0.9 0.4 0.9 0.9c0 0.5-0.4 0.9-0.9 0.9c-11.6-0.2-15.2 4.5-15.2 4.5c-0.2 0.3-0.5 0.4-0.8 0.4q-0.3 0-0.5-0.2z" /><path class="s18" d="m746.6 1434.2c-0.4-0.3-0.4-0.9-0.1-1.2c0.2-0.2 4.8-4.8 17.3-2.8c0.5 0.1 0.9 0.5 0.8 1c-0.1 0.5-0.5 0.8-1 0.8c-11.5-1.9-15.7 2.2-15.8 2.2q-0.2 0.3-0.6 0.3q-0.4 0-0.6-0.3z" /><path class="s24" d="m936.2 1158.6c15.8 13.5 16.1 76.5 9.5 86.2c-19 27.4-31.1-28.7-23.9-29.1q7.1-0.5 12.5-48.4q-14-22.2 1.9-8.7z" /><path class="s11" d="m936.9 1155.2q6.5 45.3 0.6 53.4q-2.9 4.2-9.9 4.5l0.5 26.6l-32-3.7l-1-75.6q9.1-18.7 9.1-18q0 0.8 32.7 12.8z" /><path class="s23" d="m927.1 1193c-0.1 0-0.2-0.1-0.2-0.2c0-0.2 0.1-0.3 0.2-0.4c1.3-0.4 2.1-2.7 2.3-3.4q-2.8-2.1-3.5-5.4c-0.6-3.6 0.9-6.9 1-7.1c0.1-0.1 0.2-0.1 0.3 0c0.1 0.1 0.1 0.2 0 0.4c0 0-1.5 3.2-0.9 6.5q0.6 3.2 3.5 5.2l0.1 0.1v0.2c-0.1 0.2-0.9 3.5-2.7 4.1q-0.1 0-0.1 0z" /><path class="s23" d="m902.8 1206.6q9.4 5.8 24.8 6.5l0.1 9q-12-3.4-24.9-15.5z" /><path class="s24" d="m906 1178q-0.3 0-0.4-0.1c-0.3-0.3-0.3-0.6-0.1-0.9c0.1 0 7.4-7.7 14.3-2.4c0.2 0.2 0.3 0.6 0.1 0.9c-0.2 0.2-0.6 0.2-0.8 0.1c-6.1-4.8-12.4 1.9-12.7 2.2q-0.2 0.2-0.4 0.2z" /><path class="s24" d="m929.8 1176.5q-0.3 0-0.5-0.2c-0.2-0.3-0.2-0.6 0.1-0.8c0.2-0.2 5.3-4.7 8.6-2c0.2 0.2 0.3 0.6 0.1 0.9c-0.3 0.2-0.6 0.2-0.9 0c-2.5-2.1-7 1.9-7.1 1.9q-0.1 0.2-0.3 0.2z" /><path class="s26" d="m917.6 1181.1c0 0.9-0.7 1.6-1.6 1.6c-0.9 0-1.6-0.7-1.6-1.6c0-0.9 0.7-1.6 1.6-1.6c0.8 0 1.6 0.7 1.6 1.6z" /><path class="s26" d="m936.4 1180.9c0.1 0.8-0.7 1.6-1.5 1.6c-0.9 0-1.7-0.7-1.7-1.6c0-0.9 0.7-1.6 1.6-1.6c0.9 0 1.6 0.7 1.6 1.6z" /><path class="s27" d="m919.2 1195.7q0.2 0 11.4 1.2q-2 4.5-6.2 4q-4.2-0.4-5.2-5.2z" /><path class="s11" d="m923 1156.1l-7.8-10.7q12.5 7.8 11.5 8.1q-1.1 0.3-3.7 2.6z" /><path class="s24" d="m891 1151.9c-0.6 0.3 2-22.3 31.4-13.9q29.4 8.3 20 33.3q-40.5-3.4-42.7-20.3q-8.1 0.7-8.7 0.9z" /><path class="s24" d="m905.8 1160.5q-7.5 11.1-10.9 19.1q13.5 70.7-13.8 66.7h-4.8c-24.1-0.4-7.4-52.5-7-80.1c0.2-17.3 21.3-34.9 34.9-24.4q13.7 10.6 1.6 18.7z" /><path class="s11" d="m901.8 1188.2c0.1 5-3.9 9.1-8.9 9.2c-5 0.1-9.1-3.9-9.2-8.9c0-5 3.9-9.1 8.9-9.2c5 0 9.1 4 9.2 8.9z" /><path class="s23" d="m892.2 1194c-1.9 0-3.2-1.4-3.7-2.8c-0.5-1.7 0.1-3.4 1.4-4.2c2-1.3 3.7-0.6 4.7 0q-0.6-1.4-1.8-2.1c-1.8-0.9-3.9-0.2-4-0.2c-0.1 0.1-0.3 0-0.3-0.1c-0.1-0.2 0-0.4 0.1-0.4c0.1 0 2.5-0.8 4.5 0.2q1.7 0.9 2.4 3.3l0.2 1l-0.7-0.7c-0.1-0.1-2.3-2.1-4.8-0.5c-1.3 0.8-1.4 2.4-1.1 3.5c0.3 1.1 1.4 2.4 3.1 2.4c0.2 0 0.3 0.1 0.3 0.3c0 0.1-0.1 0.2-0.3 0.2q0 0.1 0 0.1z" /><path class="s24" d="m938.7 1147.6q14 14.8 10.8 57.3l-9.7-41.9z" /><path class="s7" d="m867.5 1337.2l19.1 5.1l-11.7 49c-53-8.6-106.2-1.2-108.9-38.2c-2.9-40.7 55.7-105.3 77-116.6c0.3-0.2 8.1-3.9 13.7-3.9h53.1l19.5 81.8z" /><path class="s7" d="m911.7 1326.5v-93.9h53.1c5.6 0 13.4 3.7 13.7 3.9c21.3 11.3 87.3 78 84.4 118.7c-2.7 36.9-64.9 35.4-94 44.4l-16.2-58.6l1.4-2.9z" /><path class="s7" d="m997.8 1339.3l-0.7 102.4q-92.7 16.9-175.2-5q-2.1-0.6 3.8-84.7q0-16.3 8.6-21.3c8.6-5.1 78.8-36.2 80.5-36.2q1.7 0 83 44.8z" /><path class="s18" d="m908.8 1261.1c-31.7-2-42.1-24-42.2-24.2c-0.2-0.5 0-1.1 0.5-1.3c0.5-0.2 1.1 0 1.4 0.5c0.1 0.2 10 21.1 40.5 23c0.5 0 0.9 0.5 0.9 1c0 0.6-0.5 1-1 1q0 0-0.1 0z" /><path class="s11" d="m910.7 1253.5q-23.2 0.1-35.4-20.9h67.2c-9.8 17-21.2 20.9-31.8 20.9z" /><path class="s30" d="m901.1 1368q-4.3-4.3-0.3-9.8q-1.6-6.5 0.1-9.4q17.9 5.3 28.1 9.1q5.8-0.8 7.8-3.7l0.1 0.3c0.2-5 0.3-11.2 0.3-11.9c0-1.2 1.9-3.1 4.9 0.7q2.9 3.7 8.7 13.8l14.8-8.7l12.1 41.7q-36 5.1-41.6 5.5c-5.5 0.4-24.8-4.1-30.5-8.9q-5.7-4.7-4.5-9q-4.3-5.1 0-9.7z" /><path class="s19" d="m940.2 1340.4v12.9q-3.9 5.7-11.2 4.6l-5.5-2l4.3-18.8z" /><path class="s23" d="m912.8 1364.6c-5.1-1.6-12.1-5.6-12.4-5.8c-0.3-0.2-0.4-0.6-0.2-0.9c0.2-0.3 0.6-0.4 0.9-0.3c0.1 0.1 7.1 4.1 12.1 5.7c0.3 0.1 0.5 0.5 0.4 0.9c-0.1 0.3-0.4 0.4-0.6 0.4q-0.1 0-0.2 0z" /><path class="s23" d="m912.8 1373.1c-6.4-1.2-11.8-4.4-12.1-4.5c-0.3-0.2-0.4-0.6-0.2-0.9c0.2-0.3 0.6-0.4 0.9-0.3c0.1 0.1 5.5 3.2 11.7 4.4c0.3 0 0.6 0.4 0.5 0.7c0 0.4-0.3 0.6-0.6 0.6q-0.1 0-0.2 0z" /><path class="s23" d="m911.3 1382.7c-5.5-1.2-10.4-4.3-10.6-4.4c-0.3-0.2-0.4-0.6-0.2-0.9c0.2-0.3 0.6-0.4 0.9-0.2c0.1 0 4.9 3.1 10.2 4.2c0.4 0.1 0.6 0.4 0.5 0.8c0 0.3-0.3 0.5-0.6 0.5q-0.1 0-0.2 0z" /><path class="s31" d="m954.9 1349.2l20.4-5.1q11.6 28.5 11.6 29.5c0 0.9-5.8 26.1-6.5 26q-0.7-0.1-7.3-6.9z" /><path class="s18" d="m972.6 1300c-0.3-0.5-0.2-1.3 0.4-1.6c0.6-0.4 1.3-0.3 1.7 0.3l18.9 29.2l8.5-1.4c0.7-0.1 1.3 0.4 1.4 1c0.1 0.7-0.3 1.3-1 1.4l-10 1.7z" /><path class="s18" d="m988.7 1259.3c-0.3 0-0.6-0.2-0.8-0.4c-7.6-10.9-14-10.9-14-10.9q0 0 0 0c-0.6 0-1-0.4-1-1c0-0.5 0.4-1 1-1q0 0 0 0c0.3 0 7.5 0.2 15.6 11.7c0.3 0.5 0.2 1.1-0.2 1.4q-0.3 0.2-0.6 0.2z" /><path class="s18" d="m986.5 1269.5c-0.3 0-0.7-0.2-0.9-0.6c-5.7-11.6-12.2-12.8-12.2-12.8c-0.6-0.1-0.9-0.6-0.8-1.1c0-0.6 0.5-0.9 1.1-0.8c0.3 0 7.4 1.2 13.7 13.8c0.3 0.5 0.1 1.1-0.4 1.4q-0.2 0.1-0.5 0.1z" /><path class="s23" d="m930.1 1350.9c-0.3 0.1-0.6 0-0.7-0.3c-0.2-0.3-0.1-0.7 0.2-0.9c4.5-2.6 10.6-8 10.6-8.1c0.3-0.2 0.7-0.2 1 0.1c0.2 0.3 0.2 0.7-0.1 0.9c-0.2 0.3-6.2 5.6-10.8 8.2q-0.1 0.1-0.2 0.1z" /><path class="s23" d="m931.8 1359.2c-0.3 0.1-0.6-0.1-0.7-0.4c-0.2-0.3 0-0.7 0.3-0.9c5.9-2.4 10.5-6.6 10.6-6.6c0.2-0.3 0.7-0.2 0.9 0c0.3 0.3 0.2 0.7 0 1c-0.2 0.2-4.9 4.4-10.9 6.9q-0.1 0-0.2 0z" /><path class="s23" d="m935.3 1368.3c-0.3 0.1-0.6-0.1-0.8-0.4c-0.1-0.3 0-0.7 0.4-0.8c4.9-2.3 9-6.3 9-6.3c0.3-0.3 0.7-0.3 1 0c0.2 0.3 0.2 0.7 0 1c-0.2 0.1-4.3 4.2-9.5 6.5q-0.1 0-0.1 0z" /><path class="s18" d="m844.1 1329.9l-10.2 0.5c-0.7 0-1.2-0.5-1.3-1.2c0-0.6 0.5-1.2 1.2-1.2l8.6-0.4l12.5-32.5c0.2-0.7 1-1 1.6-0.7c0.6 0.2 0.9 0.9 0.7 1.5z" /><path class="s31" d="m886.6 1342.3l-10.5 50.3q-21.6-17.6-21.6-19.5c0-1.9 6.9-25.3 7.6-25.8q0.7-0.4 24.5-5z" /><path class="s18" d="m876.8 1393.9l-1-0.1c-0.3 0-25.4-1.6-54.5-13.8c-0.7-0.3-1-1-0.7-1.6c0.3-0.7 1-0.9 1.6-0.7c25.4 10.7 47.6 13.1 52.7 13.6l9-47.4l-41-14c-0.7-0.2-1-0.9-0.8-1.6c0.2-0.6 0.9-0.9 1.5-0.7l43 14.7z" /><path class="s18" d="m950.5 1342.3l43-14.7c0.6-0.2 1.3 0.1 1.5 0.7c0.2 0.7-0.1 1.4-0.7 1.6l-41 14l8.9 47.4c5.1-0.5 27.4-2.9 52.7-13.6c0.6-0.2 1.3 0 1.6 0.7c0.3 0.6 0 1.3-0.6 1.6c-29.1 12.2-54.3 13.8-54.6 13.8l-1 0.1z" /><path class="s24" d="m812.3 1441.8v-109c0-3.5 2.8-6.3 6.3-6.3h194.3c3.5 0 6.3 2.8 6.3 6.3v109c0 3.5-2.8 6.3-6.3 6.3h-194.3c-3.5 0-6.3-2.8-6.3-6.3z" /><path class="s2" d="m905.4 1377.1c0-4.6 3.7-8.3 8.2-8.3c4.6 0 8.3 3.7 8.3 8.3c0 4.5-3.7 8.2-8.3 8.2c-4.5 0-8.2-3.7-8.2-8.2z" /><path class="s2" d="m1941.6 1398.1q-20.6 51.9-3.3 91.2l-396.3 3.3l-36.6-3.3l-32.3-20v-30.6l9-25.3l29.3-15.3z" /><path class="s29" d="m1466.4 1444c0-29.5 25.6-53.6 57-53.6h428.2c2.8 0 5.1 2.3 5.1 5.1c0 2.8-2.3 5-5.1 5h-428.2c-25.9 0-46.9 19.6-46.9 43.5c0 24 21 43.5 46.9 43.5h428.2c2.8 0 5.1 2.3 5.1 5.1c0 2.8-2.3 5-5.1 5h-428.2c-31.4 0-57-24-57-53.6z" /><path class="s32" d="m1935.8 1445.2h-210.1c-0.6 0-1.2-0.5-1.2-1.2c0-0.6 0.6-1.1 1.2-1.1h210.1c0.6 0 1.1 0.5 1.1 1.1c0 0.7-0.5 1.2-1.1 1.2z" /><path class="s32" d="m1696.1 1445.2h-204.2c-0.6 0-1.1-0.5-1.1-1.2c0-0.6 0.5-1.1 1.1-1.1h204.2c0.6 0 1.1 0.5 1.1 1.1c0 0.7-0.5 1.2-1.1 1.2z" /><path class="s32" d="m1602.2 1465.3h-104.8c-0.6 0-1.1-0.5-1.1-1.2c0-0.6 0.5-1.1 1.1-1.1h104.8c0.6 0 1.1 0.5 1.1 1.1c0 0.7-0.5 1.2-1.1 1.2z" /><path class="s32" d="m1935.8 1465.3h-318.3c-0.6 0-1.1-0.5-1.1-1.2c0-0.6 0.5-1.1 1.1-1.1h318.3c0.6 0 1.1 0.5 1.1 1.1c0 0.7-0.5 1.2-1.1 1.2z" /><path class="s2" d="m1943.5 1298.1l27.2 14.2l8.3 23.5v28.3l-29.9 18.6l-34 3.1l-367.8-3.1q16.1-36.4-3.1-84.6z" /><path class="s33" d="m1932.4 1390.4h-397.4c-2.6 0-4.7-2.1-4.7-4.6c0-2.6 2.1-4.7 4.7-4.7h397.4c24 0 43.5-18.1 43.5-40.4c0-22.3-19.5-40.4-43.5-40.4h-397.4c-2.6 0-4.7-2.1-4.7-4.7c0-2.5 2.1-4.6 4.7-4.6h397.4c29.1 0 52.9 22.3 52.9 49.7c0 27.4-23.8 49.7-52.9 49.7z" /><path class="s32" d="m1744.7 1341.8h-195.1c-0.6 0-1.1-0.5-1.1-1.1c0-0.6 0.5-1.1 1.1-1.1h195.1c0.6 0 1.1 0.5 1.1 1.1c0 0.6-0.5 1.1-1.1 1.1z" /><path class="s32" d="m1961.6 1341.8h-189.5c-0.6 0-1.1-0.5-1.1-1.1c0-0.6 0.5-1.1 1.1-1.1h189.5c0.6 0 1.1 0.5 1.1 1.1c0 0.6-0.5 1.1-1.1 1.1z" /><path class="s32" d="m1956.5 1360.5h-97.2c-0.6 0-1.1-0.5-1.1-1.1c0-0.7 0.5-1.2 1.1-1.2h97.2c0.6 0 1.1 0.5 1.1 1.2c0 0.6-0.5 1.1-1.1 1.1z" /><path class="s32" d="m1956.5 1323.2h-406.9c-0.6 0-1.1-0.6-1.1-1.2c0-0.6 0.5-1.1 1.1-1.1h406.9c0.6 0 1.1 0.5 1.1 1.1c0 0.6-0.5 1.2-1.1 1.2z" /><path class="s18" d="m1951.6 1498.8h-428.2c-32 0-58.1-24.6-58.1-54.8c0-30.1 26.1-54.7 58.1-54.7h428.2c3.4 0 6.2 2.8 6.2 6.2c0 3.4-2.8 6.2-6.2 6.2c-0.6 0-1.1-0.5-1.1-1.2c0-0.6 0.5-1.1 1.1-1.1c2.2 0 3.9-1.7 3.9-3.9c0-2.2-1.7-3.9-3.9-3.9h-428.2c-30.8 0-55.9 23.5-55.9 52.4c0 29 25.1 52.5 55.9 52.5h428.2c2.2 0 3.9-1.8 3.9-3.9c0-2.2-1.7-3.9-3.9-3.9c-0.6 0-1.1-0.5-1.1-1.2c0-0.6 0.5-1.1 1.1-1.1c3.4 0 6.2 2.8 6.2 6.2c0 3.4-2.8 6.2-6.2 6.2z" /><path class="s18" d="m1932.4 1391.6h-397.4c-3.2 0-5.8-2.6-5.8-5.8c0-3.3 2.6-5.9 5.8-5.9c0.6 0 1.1 0.5 1.1 1.2c0 0.6-0.5 1.1-1.1 1.1c-2 0-3.6 1.6-3.6 3.6c0 1.9 1.6 3.5 3.6 3.5h397.4c28.5 0 51.7-21.8 51.7-48.6c0-26.8-23.2-48.6-51.7-48.6h-397.4c-2 0-3.6 1.6-3.6 3.5c0 2 1.6 3.6 3.6 3.6c0.6 0 1.1 0.5 1.1 1.1c0 0.7-0.5 1.2-1.1 1.2c-3.2 0-5.8-2.7-5.8-5.9c0-3.2 2.6-5.8 5.8-5.8h397.4c29.8 0 54 22.9 54 50.9c0 28-24.2 50.9-54 50.9z" /><path class="s7" d="m1762.7 1423.9q13.4 33.6 5.7 58.3l-11-16.9q-7.5 9-12.1 16.9q-8.3-55.2-24.5-58.3z" /><path class="s31" d="m1824 1359.4q-16.2 3-24.5 58.3q-4.6-8-12.1-16.9l-11 16.9q-7.7-24.7 5.7-58.3z" /><path class="s32" d="m1935.8 1425h-438.4c-0.6 0-1.1-0.5-1.1-1.1c0-0.6 0.5-1.1 1.1-1.1h438.4c0.6 0 1.1 0.5 1.1 1.1c0 0.6-0.5 1.1-1.1 1.1z" /><path class="s32" d="m1845 1360.5h-295.4c-0.6 0-1.1-0.5-1.1-1.1c0-0.7 0.5-1.2 1.1-1.2h295.4c0.6 0 1.1 0.5 1.1 1.2c0 0.6-0.5 1.1-1.1 1.1z" /><path class="s11" d="m1584.2 1404.7l45-8.4l5.7 41.5l-0.6 3.6l-23.2 22.8l-19.4-10.9z" /><path class="s34" d="m1624.8 1465.4l-62.1 8.5q-0.9 0-1.4-0.1q-6.1-1-4.7-5l27.3-22.5l0.2-2.8c0.3-4.4 5.4-6.7 9.8-4.3l11.5 6.2q26.9 0.4 29.5-7.6l2.4 19.5q2.9 5.9-12.5 8.1z" /><path class="s11" d="m1503.9 1407.4l45.1-8.4l5.6 41.4l-0.6 3.7l-23.2 22.8l-19.3-10.9z" /><path class="s34" d="m1544.6 1468.1l-62.2 8.4q-0.8 0-1.3-0.1q-6.1-1-4.7-4.9l27.2-22.5l0.2-2.8c0.3-4.5 5.5-6.7 9.9-4.3l11.4 6.1q26.9 0.4 29.5-7.6l2.5 19.5q2.8 6-12.5 8.2z" /><path class="s24" d="m1655.3 1261.4q85.4-126.3 109.9-85.1c24.4 41.1 19.1 108.3-2.4 113q-21.5 4.8-99 1.2z" /><path class="s34" d="m1671.8 1188.9l-72.9 102.1l-33.1-0.6l-5.6 130q-19.7 4.7-60.8 1.9c-6.7-56.8 2.3-189.8 5.4-202.3q3.2-12.5 111.1-29.3z" /><path class="s24" d="m1710.8 1209.2l-46.2 81.3l-19.1-0.7l-5.3 130.6q-19.7 4.7-63.9 2.2c-6.7-56.8 2.2-175.5 5.4-188q3.1-12.5 86.6-36z" /><path class="s35" d="m1720.1 1039.4q37 0.6 45.5 5.6c8.6 5.1 47.9 69.9 56.4 97.4q-22.2 19.4-50.7 20.2l-6.9-13l3.9 26.5l-74.9 22.2c-25.4 7.6-52.6 6.7-77.4-2.5l-7.8-2.8q0.1-126.1 22.6-139.4c20.1-11.9 63.5-18.1 89.3-14.2z" /><path class="s11" d="m1717 966.4l1.3 41.1l-0.3 10.6q3 21.7 2 26.2c-1 4.5-7.6 13.5-19.6 13.5c-3.8 0-7.2-0.6-10-1.5c-5.7-1.8-9.3-7.5-8.6-13.5l2-16.1q-10.6-1.5-10.1-13.6v-35.7z" /><path class="s18" d="m1702.5 995.1c-0.3-0.3-6.4-6.5-11.9-2c-0.3 0.2-0.6 0.2-0.8 0c-0.1-0.2-0.1-0.6 0.1-0.7c6.3-5.1 13.3 1.9 13.3 2c0.2 0.2 0.2 0.5 0 0.7q-0.1 0.2-0.3 0.2q-0.2 0-0.4-0.2z" /><path class="s18" d="m1681.8 992.1c0 0-4.3-3.7-6.7-1.6c-0.2 0.1-0.5 0.1-0.7-0.1c-0.2-0.2-0.2-0.5 0-0.7c3.1-2.6 7.9 1.5 8.1 1.7c0.2 0.2 0.2 0.5 0 0.7q-0.1 0.2-0.4 0.2q-0.1 0-0.3-0.2z" /><path class="s26" d="m1694.2 995.8c0.8 0 1.5 0.7 1.5 1.5c0 0.8-0.7 1.5-1.5 1.5c-0.8 0-1.5-0.7-1.5-1.5c0-0.8 0.7-1.5 1.5-1.5z" /><path class="s26" d="m1678.2 994.3c0.8 0 1.5 0.7 1.5 1.5c0 0.8-0.7 1.5-1.5 1.5c-0.9 0-1.5-0.7-1.5-1.5c0-0.8 0.6-1.5 1.5-1.5z" /><path class="s18" d="m1715.6 968.4l-8.5 11.9q-25.5 9.9-38.5-1.9c-13.1-11.7-9.1-17.3-5.2-23.2c1.8-2.9 10.9-8.8 21.9-3.9c6.1 2.7 10.5-5.3 17.6-1.3c7 4.1 15.3 11 14.4 13.8q-1 2.7-1.7 4.6z" /><path class="s18" d="m1715 963.3q11.6-0.5 14.9 10.6c3.2 11.2-1.1 17.1-1.2 20.4c-0.2 3.3 2.1 25.8-13.7 24.1l-4.2-37.1l5.5-14.8z" /><path class="s11" d="m1714.2 987.7c5 0 9 4.1 9 9.1c0 5-4 9-9 9c-5 0-9.1-4-9.1-9c0-5 4.1-9.1 9.1-9.1z" /><path class="s23" d="m1714.8 1002.3c-0.1 0-0.2-0.1-0.2-0.2c0-0.2 0.1-0.3 0.2-0.3q0 0 0.1 0c1.7 0 2.7-1.3 3-2.4c0.4-1.1 0.2-2.7-1.2-3.6c-2.5-1.6-4.7 0.5-4.8 0.6l-0.6 0.6l0.2-0.8q0.6-2.4 2.3-3.3c2-1.1 4.3-0.4 4.4-0.3c0.2 0 0.2 0.2 0.2 0.3c-0.1 0.1-0.2 0.2-0.3 0.1c0 0-2.3-0.7-4 0.3q-1.3 0.7-1.9 2.2c1-0.6 2.8-1.4 4.8-0.1c1.3 0.8 1.9 2.4 1.4 4.1c-0.4 1.4-1.7 2.8-3.5 2.8q-0.1 0-0.1 0z" /><path class="s23" d="m1708.3 1016.4q-0.8 20.2-26 22.2l1.5-11.9q16.3 3.3 24.5-10.3z" /><path class="s18" d="m1765.2 1149.7c30.6-4.7 48.8-23 49-23.2l1 1c-0.1 0.2-18.6 18.9-49.8 23.7z" /><path class="s18" d="m1603.2 1423.9l0.1-1.5c23.9 1.1 34-1.8 36.2-2.6l5-127.8l-5.9 2.7l-0.6-1.3l8.1-3.8l-5.2 131.3l-0.4 0.1c-0.3 0.2-7.3 3.1-26.8 3.1q-4.7 0-10.5-0.2z" /><path class="s18" d="m1630.5 1395.4c2.1-7.8 2.7-88.6 2.7-89.4h1.5c0 3.4-0.6 81.8-2.7 89.8z" /><path class="s18" d="m1530.6 1424.6v-1.5c15.2 0.2 26.3-2 28.9-2.6l4.7-127.6l-3.7 2.9l-0.9-1.2l6.2-4.2l-4.9 131.3q-12.2 2.9-28.8 2.9q-0.8 0-1.5 0z" /><path class="s18" d="m1551.6 1398.5c2-12 0-96.7 0-97.6h1.5c0.1 3.5 2 85.7 0 97.8z" /><path class="s11" d="m1627.6 1205l8.5-13.2c4.7-7.6 12.3-17.6 20.3-18.5c12.9-1.4 91.6-4.7 116.5-7.8q-1.7-3-1.6-2.9q0.2 0 20.4-3.5l12.9-6.1l11.7-5.1c3.2 12.6 12 33.2 3 47.5c-16.8 26.5-144.7 13.5-156.1 10l-10.4 11.3l-2.2 3.3c-1 1.6-3.1 2-4.6 1c-1.6-1-2-3.1-1-4.6l-0.9 1.3c-1 1.6-3.1 2-4.6 1c-1.6-1-2-3.1-1-4.6c-1 1.5-3.1 2-4.7 1c-1.5-1.1-2-3.1-0.9-4.7l0.8-1.4c-1 1.6-3 2-4.6 1q-0.1 0-0.2-0.1q0 0 0 0q-0.1-0.1-0.1-0.1q0 0 0 0q0 0 0 0q-0.3-0.3-0.6-0.6q-1.8-2.2-0.6-4.2z" /><path class="s18" d="m1763.5 1148.6l1.4-0.6l6.9 14.1c22.9-0.8 45.8-17.1 49.4-19.7l-15.7-34.6l1.4-0.6l16.1 35.7l-0.4 0.3c-0.3 0.2-25.8 19.8-51.3 20.4h-0.5z" /><path class="s23" d="m1781.6 1177.7l-9.1-11.8c-0.2-0.2-0.2-0.5 0-0.7c0.3-0.2 0.6-0.1 0.8 0.1l9.1 11.8c0.2 0.2 0.1 0.5-0.1 0.7q-0.2 0.1-0.4 0.1q-0.2-0.1-0.3-0.2z" /><path class="s23" d="m1632.1 1210.9c-0.2-0.2-0.3-0.5-0.1-0.7l12-16.5c0.1-0.2 0.4-0.2 0.7-0.1c0.2 0.2 0.2 0.5 0.1 0.7l-12 16.5c-0.1 0.1-0.3 0.2-0.5 0.2q-0.1-0.1-0.2-0.1z" /><path class="s23" d="m1637.4 1215.7c-0.3-0.1-0.3-0.5-0.2-0.7l11.5-17c0.1-0.2 0.4-0.2 0.7-0.1c0.2 0.2 0.3 0.5 0.1 0.7l-11.4 17c-0.1 0.2-0.4 0.2-0.6 0.2q0 0-0.1-0.1z" /><path class="s23" d="m1643.7 1218.8c-0.2-0.2-0.3-0.5-0.1-0.7l9.5-14.4c0.2-0.2 0.5-0.3 0.7-0.1c0.2 0.1 0.3 0.4 0.1 0.7l-9.5 14.3c-0.1 0.2-0.3 0.3-0.5 0.3q-0.1-0.1-0.2-0.1z" /><path class="s18" d="m1697 1291.9c-38.2 0-61.3-2.6-61.7-2.6l0.2-1.5c0.5 0 52.3 5.8 129.6 0l0.1 1.5c-25.9 1.9-49 2.6-68.2 2.6z" /><path class="s18" d="m1642.9 1153.8l-1.5-0.1l2-64h1.5z" /><path class="s18" d="m1770.6 1163.9l-29.9-68.9l1.4-0.6l29.9 68.9z" /><path class="s18" d="m1766.1 1166.3l-3.3-20.6l1.4-0.3l3.4 20.7z" /><path class="s23" d="m1687.3 1007.5l-5.4-1.8l1.6-12.3c0-0.1 0.2-0.2 0.3-0.2c0.1 0 0.2 0.1 0.2 0.3l-1.6 11.8l5.1 1.7c0.1 0 0.2 0.2 0.1 0.3q-0.1 0.2-0.2 0.2q-0.1 0-0.1 0z" /><path class="s27" d="m1686.2 1016.3q-3.6-0.1-4.9-4.2q9.8 0.2 10 0.3q-1.5 4-5.1 3.9z" /><path class="s15" d="m1481.7 1107.2h119.7l41.8 106.3h-119.8z" /><path class="s17" d="m1643.2 1213.5h-6.2l-41.8-106.3h6.2z" /><path class="s22" d="m1560 1156.9c1.6 4.9 0.4 9.8-2.7 10.8c-3.2 1.1-7.1-2-8.8-6.9c-1.6-4.9-0.4-9.7 2.7-10.8c3.2-1 7.1 2.1 8.8 6.9z" /><path class="s17" d="m1687.1 1209.2c0 2.4-1.9 4.3-4.3 4.3h-44.7v-8.6h44.7c2.4 0 4.3 1.9 4.3 4.3z" /><path class="s15" d="m1671.5 1209.2h-28.3v-1.3h28.3z" /><path class="s24" d="m1626.3 1213.5h52.8v18.8h-52.8z" /><path class="s11" d="m364.9 696.1q14-6.9 26.9-3.2c7.5 2.2 12.8 8.9 13.2 16.7l0.4 7.6l-40.1-14.7q-6 3.3-5.5 2.4q0.4-0.9 5.1-8.8z" /><path class="s11" d="m404.9 708.7l1.8 32.1q1 11.5-8.9 13.4l2.7 15.2c1 5.7-2.1 11.3-7.5 13.3c-2.6 1-5.8 1.8-9.4 2c-11.5 0.6-18.1-7.7-19.3-11.9q-1.2-4.3 0.6-25l-0.9-10l-0.8-39.2z" /><path class="s18" d="m378.1 725.3q-0.2 0-0.4-0.1c-0.2-0.2-0.2-0.5 0-0.7c0 0 6.3-7.1 12.5-2.6c0.2 0.2 0.3 0.5 0.1 0.7c-0.1 0.2-0.4 0.2-0.6 0.1c-5.6-4-11.1 2.2-11.3 2.5q-0.1 0.1-0.3 0.1z" /><path class="s18" d="m397.6 721.4q-0.2 0-0.4-0.1c-0.1-0.2-0.1-0.5 0.1-0.7c0.1-0.2 4.5-4.3 7.5-2c0.2 0.2 0.2 0.5 0.1 0.7c-0.2 0.2-0.5 0.2-0.7 0.1c-2.3-1.9-6.2 1.8-6.3 1.9q-0.1 0.1-0.3 0.1z" /><path class="s26" d="m387.8 726.7c0.1 0.8-0.5 1.5-1.3 1.6c-0.8 0-1.5-0.6-1.5-1.4c-0.1-0.8 0.5-1.5 1.3-1.5c0.8-0.1 1.5 0.6 1.5 1.3z" /><path class="s26" d="m403 724.5c0 0.8-0.6 1.5-1.4 1.5c-0.8 0.1-1.4-0.6-1.5-1.3c0-0.8 0.6-1.5 1.4-1.6c0.8 0 1.4 0.6 1.5 1.4z" /><path class="s18" d="m363.9 698.7l5.9 13.8l-2.1 35.4c-14.9 2.4-13.9-19-14.2-22.2c-0.3-3.2-5.8-8.5-3.3-19.3q2.5-10.8 14.7-10.8z" /><path class="s11" d="m376 726.9c0.2 4.7-3.4 8.8-8.2 9c-4.7 0.3-8.8-3.4-9-8.1c-0.3-4.8 3.4-8.8 8.1-9.1c4.8-0.2 8.8 3.4 9.1 8.2z" /><path class="s23" d="m367 732.6c-1.8 0.1-3-1.1-3.5-2.5c-0.6-1.5-0.1-3.1 1.1-4c1.9-1.3 3.7-0.6 4.6-0.1q-0.7-1.4-1.9-2c-1.7-0.8-3.8 0-3.8 0c-0.1 0-0.3 0-0.3-0.2c-0.1-0.1 0-0.2 0.1-0.3c0.1 0 2.3-0.8 4.2 0.1q1.7 0.8 2.4 3l0.2 0.8l-0.6-0.5c-0.1-0.1-2.2-2-4.6-0.4c-1.3 0.9-1.3 2.4-0.9 3.5c0.3 1 1.3 2.2 3 2.2q0 0 0 0c0.2-0.1 0.3 0 0.3 0.2c0 0.1-0.1 0.2-0.2 0.2q-0.1 0-0.1 0z" /><path class="s23" d="m397.8 754.2l2 11.2q-24.1-0.5-25.8-19.7q8.4 12.5 23.8 8.5z" /><path class="s23" d="m393.4 736.1q-0.2 0-0.2-0.1c-0.1-0.1 0-0.3 0.1-0.3l4.7-1.9l-2.1-11.1c0-0.2 0.1-0.3 0.2-0.3c0.1-0.1 0.2 0 0.3 0.2l2.2 11.5l-5.1 2q-0.1 0-0.1 0z" /><path class="s11" d="m364.7 750.5l0.8-16.2l4 0.2l0.9 16.2z" /><path class="s18" d="m367.1 695.1q-2.5 6.9 2.8 17.9q5.2 10.9-12.1-3.6q0.3-16.4 9.3-14.3z" /><path class="s18" d="m354.9 699c5.2-10.5 25.6-11.1 36.5-15.3q10.8-4.2 9.8 8q8.6-0.2 6.9 8.5q-1.8 8.7-38.2 12.8q-20.2-3.5-15-14z" /><path class="s18" d="m362.4 712q8.2-7.1 10.6-2.6q2.4 4.5-0.2 14.2l-1.5 2.1l-1.9-6.6z" /><path class="s27" d="m394.8 743.7q-3.7-0.1-4.9-4.2q9.9 0.3 10 0.3q-1.5 4-5.1 3.9z" /><path class="s11" d="m351.8 1495.1l-45 0.6l-0.6-42.4l44.8-5.7z" /><path class="s11" d="m453.7 1495.1l-45 0.6l-0.7-42.4l44.9-5.7z" /><path class="s11" d="m454.9 1113.6q-6.8 8.9-8.6 0.2c-4.2 4.3-6.3 3.5-7.4 2c-0.7-1-0.9-2.4-0.5-3.6c1.3-4 5.2-16 8-23.4c-0.6-5.1-9.1-2.9-13.4-0.4c-2.2 1.3-6 1.6-2.5-4.1q2.8-4.7 12.6-12.2l-4.5-28.3l39.5 1.9q1.5 32.5 1.8 37.4c0.2 4.9-4.4 21.6-8.4 26.8q-7.2 9.5-8 3.9q-8.5 9.1-8.6-0.2z" /><path class="s23" d="m452.1 1103.3c-1.5 4.4-5.2 10.5-5.3 10.8c-0.2 0.2-0.5 0.3-0.8 0.2c-0.3-0.2-0.4-0.6-0.2-0.8c0-0.1 3.7-6.3 5.2-10.6c0.1-0.3 0.4-0.5 0.7-0.4c0.3 0.1 0.4 0.3 0.4 0.6q0 0.1 0 0.2z" /><path class="s23" d="m459.6 1103.3c-1.2 5.7-4 10.4-4.2 10.6c-0.1 0.3-0.5 0.4-0.8 0.2c-0.2-0.1-0.3-0.5-0.2-0.8c0.1 0 2.9-4.8 4-10.2c0.1-0.3 0.4-0.5 0.7-0.5c0.3 0.1 0.5 0.3 0.5 0.6q0 0.1 0 0.1z" /><path class="s23" d="m468.1 1104.8c-1.2 4.9-4 9.1-4.1 9.3c-0.2 0.3-0.5 0.3-0.8 0.2c-0.3-0.2-0.4-0.6-0.2-0.8c0.1-0.1 2.8-4.3 3.9-9c0.1-0.3 0.4-0.5 0.7-0.4c0.3 0.1 0.5 0.3 0.5 0.6q0 0 0 0.1z" /><path class="s22" d="m481.7 1057.9l-0.7 13.7q-7.2 4.8-20.4 4.5l3.4-18.2z" /><path class="s36" d="m468.9 975.4l-4.9 62.2l-1.5 415q-34.4 16.1-61.8 7.5q-20.6-162.5-26.5-444.1z" /><path class="s24" d="m424.4 956.5l-18 106.7l-42.4 398.9q-35.1 13.9-60.7-2.2q-13.5-163.6-1.4-441.2z" /><path class="s26" d="m338 1468.4c-19.3 0-34.9-7.5-35.1-7.7l-0.4-0.2l-0.1-0.4c-11.5-62.4-4.2-369.9-4.1-373c0-0.5 0.4-0.9 0.9-0.9q0 0 0.1 0c0.5 0 0.9 0.4 0.9 0.9c-0.1 3.1-7.4 308.9 4 372.1c3.8 1.8 32.7 14.1 59.4 2c0.5-0.2 1 0 1.2 0.5c0.3 0.4 0 1-0.4 1.2c-8.9 4-18 5.5-26.4 5.5z" /><path class="s26" d="m420.4 1463.2c-6.2 0-12.9-0.6-19.9-2.2c-0.5-0.1-0.9-0.6-0.7-1.1c0.1-0.5 0.6-0.8 1.1-0.7c31.4 6.9 56.9-5.2 60.6-7.1l1.5-390.5c0-0.5 1-1.7 1-2.2c0-13.5 0 1.2 0 1.2c0.5 0 0.9 0.5 0.9 1l-1.5 391.6l-0.4 0.3c-0.3 0.1-17.9 9.7-42.6 9.7z" /><path class="s29" d="m451.2 777.4q22.4 9.1 26.2 26.9c3.7 17.8 13.5 232.5 6.7 253.6h-32.9z" /><path class="s22" d="m281.5 782q23.8-13.2 68.3-12c28.6-3.1 97.4-2.1 99.9 10.4q2.2 10.7 13.2 273.3q-68.9 36.2-157.7 16.6l-14.9-169.2z" /><path class="s29" d="m311.5 771.6c20.2-2.5 48.5-3.1 49.8-3.1q11.3 9.2 11.4 311.8q-27.5 10.8-84.2 0v-217.4q2.8-88.8 23-91.3z" /><path class="s29" d="m457.5 780.5q7.6 7.4 12.8 285q-29.2 10.2-52.1 8.7q-5.6-39.6-11.3-305.7q43.1 4.6 50.6 12z" /><path class="s22" d="m365 768.9q35.6-0.9 41.6 0.3q-4.7 14-5.5 14.6q-0.8 0.5-23.8 5.2q-7.9-4.6-8.3-6.2q-0.3-1.6-4-13.9z" /><path class="s26" d="m288.5 932.9c-0.5 0-0.9-0.4-0.9-1v-44.8c0-0.5 0.4-0.9 0.9-0.9c0.5 0 1 0.4 1 0.9v44.8c0 0.6-0.5 1-1 1z" /><path class="s26" d="m372.7 1081.2q0 0 0 0c-0.5 0-0.9-0.4-0.9-0.9c0.5-192.6-4.9-259.6-4.9-260.2c-0.1-0.6 0.3-1 0.8-1.1c0.5 0 1 0.4 1 0.9c0.1 0.7 5.5 67.7 5 260.4c0 0.5-0.4 0.9-1 0.9z" /><path class="s26" d="m470.3 1066.4q0 0 0 0c-0.5 0-0.9-0.4-0.9-0.9c1.8-82.7-13.2-261.5-13.4-263.3c0-0.5 0.4-0.9 0.9-1c0.6 0 1 0.4 1 0.9c0.2 1.8 15.2 180.7 13.4 263.4c0 0.5-0.5 0.9-1 0.9z" /><path class="s26" d="m408.2 823.8c-0.6 0-1-0.4-1-1l-1.2-55.3h1c1.9 0.2 47.4 3.9 60.8 19.5c0.4 0.4 0.3 1-0.1 1.4c-0.4 0.3-1 0.3-1.3-0.1c-11.8-13.8-51.5-18.1-58.5-18.8l1.2 53.3c0 0.5-0.4 1-0.9 1q0 0 0 0z" /><path class="s1" d="m209 984.1c-10.5-17.5-17.3-34.3-16-46.9c1-9.5 3.4-19 6.6-28.4c9.5 9.8 22.2 28.4 16.4 57.8c-1.5 7.4-3.9 13.1-7 17.5z" /><path class="s18" d="m291 794.4c-0.2-0.2-0.3-0.6-0.1-0.9c6.5-8.7 16.7-12 17.1-12.2c0.4-0.1 0.7 0.1 0.8 0.4c0.1 0.4 0 0.7-0.4 0.9c-0.1 0-10.2 3.4-16.5 11.6c-0.1 0.2-0.3 0.3-0.5 0.3q-0.2 0-0.4-0.1z" /><path class="s18" d="m292.3 800.3c-0.3-0.2-0.4-0.6-0.2-0.9c6.5-8.6 16.7-12 17.1-12.1c0.4-0.1 0.7 0.1 0.8 0.4c0.2 0.3 0 0.7-0.4 0.8c-0.1 0-10.2 3.4-16.4 11.7c-0.2 0.2-0.4 0.3-0.6 0.3q-0.2 0-0.3-0.2z" /><path class="s26" d="m318.8 1466.1c-0.5 0-0.9-0.4-0.9-1l-1.7-111.3c0-0.5 0.4-1 0.9-1q0 0 0 0c0.6 0 1 0.4 1 0.9l1.6 111.4c0.1 0.5-0.4 1-0.9 1q0 0 0 0z" /><path class="s26" d="m421.5 1463.2c-0.5 0-0.9-0.4-0.9-0.9l-6.2-108.5c-0.1-0.5 0.3-1 0.8-1c0.6 0 1 0.4 1 0.9l6.3 108.5c0 0.5-0.4 1-0.9 1q0 0-0.1 0z" /><path class="s1" d="m580.8 775.8l54.9 64.4l-551.2 469.6l-54.9-64.4z" /><path class="s37" d="m597.7 795.6l21.1 24.8l-551.2 469.6l-21.1-24.8z" /><path class="s31" d="m87.3 1196.2l54.9 64.5l-16.2 13.8l-54.9-64.4z" /><path class="s38" d="m32.3 1243.1l38.8-33l54.9 64.4l-38.8 33c-17.8 15.1-44.5 13-59.6-4.8c-15.2-17.8-13.1-44.5 4.7-59.6z" /><path class="s39" d="m689.8 738.5l-54.1 101.7c-5.4 4.6-13.5 3.8-18.2-1.6c-4.6-5.5-4.1-13.7 1.3-18.2c-5.4 4.5-14.4 2.7-20.3-4.1c-5.8-6.9-6.2-16.1-0.8-20.7c-5.4 4.6-13.5 3.8-18.2-1.6c-4.6-5.5-4.1-13.7 1.3-18.2z" /><path class="s1" d="m624.2 850l-16.9-19.9l11.5-9.7q-1 15.8 16.9 19.8z" /><path class="s1" d="m586.2 805.4l-16.9-19.9l11.5-9.7q-1 15.8 16.9 19.8z" /><path class="s37" d="m606.3 831l-21.1-24.8l12.5-10.6q1.2 23.2 21.1 24.8z" /><path class="s29" d="m671.8 772.3q-16-3.3-18.2-21.4l36.2-12.4z" /><path class="s26" d="m26.5 1303.6c-14.5-17.1-12.4-33-8-43.3c4.6-11.1 12.6-18 12.9-18.3l548.7-467.5l0.3-0.1l112.4-38.4l-34.9 65.4l-2.5-1.3l31.4-59l-105.3 35.9l-548.2 467.2c-0.1 0-7.8 6.8-12.2 17.3c-5.8 13.9-3.3 27.4 7.6 40.3z" /><path class="s26" d="m208.6 1202.2l317-270.5l1.9 2.2l-317 270.4z" /><path class="s26" d="m141.7 1207.5l-0.5-2.8l31.5-5.9l0.5 2.8z" /><path class="s26" d="m61.8 1287.2l-0.5-2.8l17.9-3.3l0.6 2.8z" /><path class="s26" d="m51.3 1299.2l-0.5-2.9l17.9-3.3l0.5 2.8z" /><path class="s26" d="m133.2 1222.1l-0.5-2.8l31.5-5.8l0.5 2.8z" /><path class="s26" d="m124.7 1275.5l-54.7-64.5l2.2-1.9l54.7 64.5z" /><path class="s11" d="m336.7 1104.9q3.4 4.6-8.4 2.9c-6.5-0.9-21.5-9.6-24.8-13.3q-3.2-3.7-24.9-27.9l26.8-29l16.7 23.3q12.1-1.6 17.4-0.2c6.5 1.7 3.7 4.1 1.2 4.8c-4.9 1.1-12.4 5.6-9.4 9.7c7.3 3.2 18.5 9.1 22.2 11c1.1 0.6 2 1.7 2.2 3c0.2 1.7-0.7 3.8-6.7 3.6q4.8 7.5-6.3 6q6.4 6.7-6 6.1z" /><path class="s23" d="m337.3 1089.3c-0.2-0.1-0.2-0.4-0.1-0.7c0.1-0.2 0.5-0.4 0.8-0.2c4.1 2 11 3.8 11.1 3.9c0.3 0 0.5 0.4 0.4 0.7c-0.1 0.3-0.4 0.5-0.7 0.4c-0.3-0.1-7.1-1.9-11.3-4q-0.1 0-0.2-0.1z" /><path class="s23" d="m332.1 1094.7c-0.2-0.2-0.3-0.5-0.1-0.8c0.2-0.3 0.6-0.3 0.8-0.1c4.6 3.1 10 4.4 10 4.4c0.4 0.1 0.6 0.4 0.5 0.8c-0.1 0.3-0.4 0.5-0.7 0.4c-0.3-0.1-5.7-1.5-10.4-4.7q-0.1 0-0.1 0z" /><path class="s23" d="m327 1101.7c-0.1-0.2-0.2-0.5 0-0.8c0.1-0.3 0.5-0.3 0.8-0.2c4 2.6 9 3.6 9 3.7c0.3 0 0.5 0.3 0.5 0.7c-0.1 0.3-0.4 0.5-0.7 0.4c-0.2 0-5.2-1.1-9.5-3.8q0 0-0.1 0z" /><path class="s22" d="m310.6 1041.9q7.7 11.3 8.2 11.7q-2 3.1-29.2 26.6l-7.3-8.2z" /><path class="s29" d="m332.5 826.5q-79.1 104.3-75.3 113.9q4.2 10.6 58.3 96.3l-34 36.2c-19.1-18.7-92.5-96.6-88.5-135.7c5.1-48.4 45.4-97.6 66.5-132.6q23.1-38.3 69.4-34z" /><path class="s26" d="m281.5 1073.8q-0.3 0-0.6-0.2c-0.4-0.3-0.4-0.9-0.1-1.3c7.8-8.9 29.8-31.9 33.5-35.7c-18.9-29-58-95.6-58-97.5c0-0.5 0.4-0.9 0.9-0.9q0 0 0 0c0.5 0 0.9 0.3 1 0.7c1.1 3 37.7 66.1 58.1 97.3l0.4 0.6l-0.5 0.6c-0.3 0.2-25.6 26.5-34 36.1c-0.1 0.2-0.4 0.3-0.7 0.3z" /><path class="s26" d="m238.8 947.3c-0.5 0-1-0.4-1-0.9c0-0.6 0.5-1 1-1c5.7 0 15.6-5.7 17.6-6.9c3.1-12.8 47.6-75.5 49.5-78.2c0.3-0.4 0.9-0.5 1.4-0.2c0.4 0.3 0.5 0.9 0.2 1.3c-0.5 0.7-47.2 66.5-49.3 77.9l-0.1 0.4l-0.4 0.2c-0.5 0.3-12 7.4-18.9 7.4z" /><path class="s26" d="m216 874.2q-0.3 0-0.5-0.1c-0.5-0.3-0.6-0.9-0.3-1.3l51-78.8c26-27.9 57.9-24.2 58.2-24.2c0.6 0.1 0.9 0.6 0.9 1.1c-0.1 0.5-0.6 0.9-1.1 0.8c-0.3 0-31.2-3.6-56.6 23.5l-50.8 78.6c-0.2 0.3-0.5 0.4-0.8 0.4z" /><path class="s1" d="m306.1 1501.1h38.8l15.8-17.6l28.8 17.6h6.2c2.2 0 4.1 1.5 4.5 3.6c0.6 2.9-1.6 5.5-4.3 5.5h-90.4c-0.7 0-1.2-0.6-1.2-1.3v-6c0-1 0.8-1.8 1.8-1.8z" /><path class="s25" d="m306.4 1501.2v-16.4q6.6-9.1 16.5-4.4q15.1 10.9 28.4-2.4l33 15.1q9.1 3.1 11.5 8.1z" /><path class="s26" d="m306.1 1484.8h0.6v16.3h-0.6z" /><path class="s26" d="m322.7 1480.6l0.4-0.5c7.4 5.2 15.2 4.1 15.3 4.1l0.1 0.6c0 0-0.8 0.2-2.1 0.2c-2.8 0-8.4-0.6-13.7-4.4z" /><path class="s26" d="m310.2 1495.2l0.4-0.6l4.2 2.9l-0.4 0.6z" /><path class="s26" d="m313.2 1494.4l0.4-0.6l4.2 2.9l-0.3 0.6z" /><path class="s26" d="m398.6 1508.9c0.9-0.8 1.4-2 1.4-3.2c0-2.3-1.8-4.2-4.1-4.2h-89.4c-1 0-1.9 0.8-1.9 1.9v4.5h-0.6v-4.5c0-1.4 1.1-2.6 2.5-2.6h89.4c2.6 0 4.8 2.2 4.8 4.9c0 1.4-0.6 2.8-1.7 3.7z" /><path class="s26" d="m387.3 1494.7c-6.6-2.9-35.8-16.2-36.1-16.3l0.2-0.7c0.3 0.2 29.5 13.5 36.2 16.4c6.7 2.9 8.5 6.7 8.6 6.9l-0.6 0.3c0-0.1-1.8-3.8-8.3-6.6z" /><path class="s1" d="m408.4 1501.1h38.9l15.8-17.6l28.8 17.6h6.2c2.2 0 4.1 1.5 4.5 3.6c0.6 2.9-1.6 5.5-4.3 5.5h-90.4c-0.7 0-1.2-0.6-1.2-1.3v-6c0-1 0.8-1.8 1.7-1.8z" /><path class="s25" d="m408.8 1501.2v-16.4q6.5-9.1 16.5-4.4q15.1 10.9 28.4-2.4l33 15.1q9 3.1 11.5 8.1z" /><path class="s26" d="m408.4 1484.8h0.7v16.3h-0.7z" /><path class="s26" d="m425.1 1480.6l0.4-0.5c7.4 5.2 15.2 4.1 15.3 4.1l0.1 0.6c-0.1 0-0.8 0.2-2.1 0.2c-2.9 0-8.4-0.6-13.7-4.4z" /><path class="s26" d="m412.6 1495.2l0.4-0.6l4.2 2.9l-0.4 0.6z" /><path class="s26" d="m415.6 1494.4l0.4-0.6l4.2 2.9l-0.4 0.6z" /><path class="s26" d="m500.9 1508.9c0.9-0.8 1.5-2 1.5-3.2c0-2.3-1.9-4.2-4.1-4.2h-89.4c-1 0-1.9 0.8-1.9 1.9v4.5h-0.7v-4.5c0-1.4 1.2-2.6 2.6-2.6h89.4c2.6 0 4.7 2.2 4.7 4.9c0 1.4-0.6 2.8-1.6 3.7z" /><path class="s26" d="m489.7 1494.7c-6.7-2.9-35.9-16.2-36.2-16.3l0.3-0.7c0.3 0.2 29.5 13.5 36.1 16.4c6.8 2.9 8.6 6.7 8.7 6.9l-0.6 0.3c0-0.1-1.8-3.8-8.3-6.6z" /><path class="s29" d="m675.2 744.5c-25.6 0-50-12.6-62-33.1c-6.9-12-9.1-26-6.2-40.5c3.2-16.2 12.5-32.8 27.5-49.5c1.6-1.8 4.5-2 6.3-0.3c1.9 1.7 2 4.5 0.4 6.3c-26 28.9-33.2 57.1-20.2 79.4c12.4 21.4 41.8 33 68.5 27.2c28-6.1 45.9-29.3 49.2-63.6c2.1-21-3.3-39-15.5-52.1c-14.8-15.8-38.9-24.2-67.9-23.5c-2.5 0.1-4.6-1.9-4.6-4.3c-0.1-2.5 1.9-4.6 4.3-4.7c31.7-0.7 58.3 8.6 74.8 26.4c14 15 20.2 35.4 17.9 59.1c-3.7 38.4-24.2 64.5-56.3 71.5c-5.4 1.2-10.8 1.7-16.2 1.7z" /><path class="s29" d="m1016.1 980.2c-25.5 0-50-12.6-62-33.1c-6.9-12-9.1-26-6.2-40.5c3.2-16.2 12.5-32.8 27.5-49.5c1.7-1.8 4.5-2 6.4-0.3c1.8 1.7 1.9 4.5 0.3 6.3c-26 28.9-33.2 57.1-20.2 79.4c12.4 21.4 41.9 33 68.5 27.2c28-6.1 46-29.3 49.3-63.6c2-21-3.4-39-15.6-52.1c-14.7-15.8-38.9-24.2-67.9-23.5c-2.5 0.1-4.6-1.9-4.6-4.3c-0.1-2.5 1.9-4.6 4.4-4.7c31.6-0.7 58.2 8.6 74.7 26.4c14 15 20.2 35.4 17.9 59.1c-3.7 38.4-24.2 64.5-56.2 71.5c-5.4 1.2-10.9 1.7-16.3 1.7z" /><path class="s29" d="m1533.1 996.4c-25.5 0-50-12.6-62-33.2c-6.9-12-9.1-26-6.2-40.5c3.2-16.1 12.5-32.8 27.5-49.4c1.7-1.9 4.5-2 6.3-0.4c1.9 1.7 2 4.5 0.4 6.4c-26 28.8-33.2 57-20.2 79.4c12.4 21.3 41.8 33 68.5 27.1c28-6.1 45.9-29.2 49.2-63.5c2.1-21-3.3-39.1-15.5-52.1c-14.8-15.9-38.9-24.3-67.9-23.5q-0.1 0-0.1 0c-2.5 0-4.5-2-4.5-4.4c-0.1-2.5 1.9-4.6 4.3-4.6c31.7-0.8 58.3 8.5 74.8 26.3c14 15 20.2 35.5 17.9 59.1c-3.7 38.5-24.2 64.5-56.3 71.5c-5.4 1.2-10.8 1.8-16.2 1.8z" /><path class="s5" d="m1531.1 966.6l-42.4-63.1c-1-1.5-0.6-3.5 0.8-4.4c1.5-1 3.5-0.6 4.4 0.8l35.7 53.1l45.3-115.9c0.6-1.6 2.5-2.4 4.1-1.8c1.6 0.6 2.4 2.5 1.8 4.1z" /><path class="s40" d="m879.2 226.4l-1 0.3l-0.2-0.5q-1-2.8-1.9-5.7l-0.1-0.5l1-0.3l0.2 0.5q0.8 2.9 1.8 5.7zm-3.4-11.5l-1.1 0.3l-0.1-0.6q-0.7-3-1.2-5.9l-0.1-0.5l1.1-0.2l0.1 0.5q0.5 2.9 1.2 5.9zm62.8-38.6q0 0 0 0q-1.2 0.6-2.6 1l-0.5 0.2l-0.3-1.1l0.5-0.1q1.3-0.4 2.4-0.9q0 0 0 0q1.4-0.8 2.6-1.8l0.4-0.4l0.7 0.8l-0.4 0.4q-1.3 1.1-2.8 1.9zm-8.2 1.8l-0.6-0.1q-3-0.4-5.5-2.9l-0.4-0.4l0.8-0.8l0.4 0.4q2.2 2.3 4.9 2.6l0.5 0.1zm14.4-8.3l-1-0.4l0.2-0.5q1.1-2.5 1.3-5.6v-0.6l1.1 0.1l-0.1 0.5q-0.1 3.3-1.3 6zm-71.1 33.3l-1.1 0.1v-0.5q-0.4-3.1-0.5-6v-0.6h1.1v0.5q0.1 3 0.5 6zm48.5-33.2l-1 0.5l-0.2-0.5q-1.2-2.7-1.8-5.9l-0.1-0.5l1.1-0.2l0.1 0.5q0.6 3.1 1.7 5.6zm23.7-12.2l-1 0.2l-0.1-0.5q-0.6-2.9-1.8-5.6l-0.2-0.5l1-0.5l0.2 0.5q1.2 2.9 1.8 5.9zm-72.8 33.4h-1.1v-0.5q0.1-3.1 0.5-6.1l0.1-0.5l1.1 0.1l-0.1 0.6q-0.4 2.9-0.5 5.9zm46.6-32.7h-1.1v-0.5q0-3 0.3-6.1l0.1-0.5l1.1 0.1l-0.1 0.5q-0.3 3.1-0.3 5.9zm20.8-11.4l-0.4-0.4q-0.6-1-1.4-1.8q-1.1-1.4-2.5-2.5l-0.4-0.4l0.7-0.8l0.4 0.3q1.4 1.2 2.7 2.7q0.7 0.9 1.4 1.9l0.3 0.4zm-65.9 32.3l-1.1-0.2l0.2-0.6q0.6-3 1.6-5.8l0.2-0.5l1 0.3l-0.2 0.6q-0.9 2.7-1.6 5.7zm46.4-32.7l-1-0.2l0.1-0.6q0.7-2.9 1.8-5.8l0.1-0.5l1.1 0.4l-0.2 0.5q-1.1 2.8-1.7 5.7zm-42.7 21.4l-1-0.5l0.2-0.5q1.3-2.7 2.9-5.3l0.3-0.5l0.9 0.6l-0.2 0.5q-1.6 2.5-2.9 5.2zm53.5-28.7l-0.5-0.2q-2.6-1.2-5.6-1.6l-0.5-0.1l0.2-1.1l0.5 0.1q3.1 0.5 5.9 1.7l0.5 0.2zm-47.4 18.6l-0.8-0.7l0.3-0.4q1.9-2.4 4-4.6l0.4-0.4l0.8 0.8l-0.4 0.4q-2.1 2.1-3.9 4.5zm40.4-22.5l-1-0.5l0.3-0.5q1.3-2.7 2.9-5.3l0.3-0.5l0.9 0.6l-0.3 0.5q-1.6 2.5-2.9 5.2zm-4.5 1.7l-0.5 0.1q-2.9 0.1-5.9 0.8l-0.5 0.1l-0.2-1l0.5-0.1q3.1-0.8 6-0.9h0.6zm-27.7 12.1l-0.7-0.8l0.4-0.4q2.3-2 4.8-3.7l0.5-0.3l0.6 0.9l-0.5 0.3q-2.4 1.7-4.7 3.6zm16.1-9.7l-0.5 0.2q-2.7 1.1-5.4 2.5l-0.5 0.3l-0.5-1l0.5-0.3c1.8-0.9 3.7-1.8 5.5-2.5l0.5-0.2zm22.2-14.3l-0.8-0.7l0.3-0.4q1.9-2.4 4.1-4.6l0.3-0.4l0.8 0.8l-0.4 0.4q-2.1 2.1-3.9 4.4zm47.4-25.1l-0.6 0.1q-2.9 0.6-5.8 1.3l-0.5 0.2l-0.3-1.1l0.5-0.1q3-0.8 5.9-1.3l0.6-0.1zm-11.6 2.8l-0.6 0.2q-2.9 0.9-5.6 1.9l-0.5 0.2l-0.4-1l0.5-0.2q2.8-1.1 5.7-2l0.5-0.1zm-27.4 13.7l-0.7-0.8l0.4-0.3q2.3-1.9 4.9-3.6l0.5-0.3l0.6 0.9l-0.5 0.3q-2.5 1.7-4.8 3.5zm16.2-9.7l-0.5 0.3q-2.7 1.2-5.3 2.6l-0.5 0.2l-0.5-0.9l0.5-0.3q2.6-1.4 5.4-2.6l0.5-0.3z" /><path class="s6" d="m999.8 95.4l25.7-13.3l16.8-4.8q-10.8 11.2-11.1 11.5q-0.3 0.3-24.9 11.9l-3.1 7.7z" /><path class="s7" d="m989.1 84.3l53.2-7l-42.5 18.1z" /><path class="s7" d="m1042.3 77.3l-24.7 35.3l-11.3-11.9z" /><path class="s33" d="m1827.2 1267.8q4.5-63.6 29.2-51.2c24.7 12.3 44.8 93.3 47.5 95.8q2.7 2.4 1.9 76.4l-28.7-14.5q-7.7-177-49.9-106.5z" /><path class="s7" d="m1854.8 1136.2q55.3 49.5 70.4 134.3q15.1 84.9-32.6 109.8q-6.8-178.4-37.8-244.1z" /><path class="s33" d="m1901.5 1386.7c-0.5-8-2.3-18.8-2.6-31.4c-0.2-7.1 0.5-14.2 1.7-22.2c1.2-7.8 2.1-15.8 3.6-23q27.2-128.4 109.1-177.3q-46.6 78.3-55.9 259q-51.5 63.4-55.9-5.1z" /><path class="s7" d="m1955.8 1315.1c3.2-25.8 13-50.3 28.7-71c11.3-14.9 24.5-26.2 34.8-18.1q22.8 17.9 27.3 129.6q-25.7-77.3-37-72.2q-11.3 5.1-21.7 110l-42.2 3.5z" /><path class="s18" d="m1898.4 1385.5c-1.7-39.5 3.2-77.3 14.7-112.5c9.2-28.2 22.5-54.8 39.7-79c29.3-41.2 59.9-61.5 60.2-61.7l0.7 1.1c-0.3 0.2-30.7 20.5-59.8 61.5c-26.9 37.8-58.1 101.6-54.2 190.5z" /><path class="s18" d="m1891.9 1380.4c0-0.5-1.7-45.2-7.2-97.4c-5.1-48.2-14.5-112.7-30.5-146.5l1.2-0.6c16.1 34 25.5 98.7 30.6 146.9c5.5 52.3 7.3 97.1 7.3 97.5z" /><path class="s18" d="m1876.4 1374.4c0-0.3-1.3-29.4-5.6-58.9c-5.6-38.8-13.7-60.6-23.5-63.1c-5.7-1.4-12.3 3.9-19.6 15.8l-1.1-0.7c7.6-12.5 14.6-18 21-16.4c10.5 2.7 18.8 24.3 24.5 64.2c4.3 29.6 5.6 58.7 5.6 59z" /><path class="s18" d="m1946.4 1397l-1.3-0.2l10.1-81.8c3.2-26.1 13.1-50.8 28.8-71.3c9.8-13 18.6-20.1 26.1-21c3.5-0.4 6.7 0.5 9.6 2.7c9.6 7.6 17.1 31.8 22.5 72c3.9 29.8 5.1 57.8 5.1 58.1l-1.4 0.1c0-1.1-4.8-111.5-27.1-129.1c-2.5-2-5.4-2.8-8.6-2.4c-7 0.8-15.5 7.7-25.2 20.4c-15.4 20.4-25.3 44.8-28.5 70.7z" /><path class="s18" d="m1982.6 1313.9l-1.2-0.7l8.8-17.1l1.2 0.6z" /><path class="s18" d="m1982.6 1324.4l-1.2-0.7l8.8-16.1l1.2 0.7z" /><path class="s18" d="m1898.4 1211l-7.5-16.7l1.2-0.5l7.6 16.6z" /><path class="s18" d="m1898.5 1219l-6.5-11.6l1.2-0.6l6.5 11.6z" /><path class="s18" d="m1862.1 1230.4l-12.8-6.5l0.6-1.2l12.9 6.5z" /><path class="s18" d="m1862.1 1236l-7.6-4.6l0.7-1.2l7.6 4.6z" /><path class="s37" d="m1998.1 1369.7q-2.4 132.1-37.8 129h-27.8h-4.5h-27.8q-35.4 3.1-37.8-129c33.5-5 102.2-5 135.7 0z" /><path class="s18" d="m1946.2 1428.4l-1-0.9l38.7-40.8l1 0.9z" /><path class="s18" d="m1952.3 1438.3l-1-0.9l21.2-24.5l1.1 0.9z" /></svg>