<svg xmlns="http://www.w3.org/2000/svg" xmlns:xlink="http://www.w3.org/1999/xlink" width="1381" height="653" viewBox="0 0 1381 653">
    <defs>
        <path id="a" d="M0 .933h95.265V39H0z"/>
    </defs>
    <g fill="none" fill-rule="evenodd">
        <g fill="#000">
            <path d="M1329.5 26.6c.7.3 1.4.8 2 1.3.5.4 1.4.4 1.8-.2.9-1.4 2.2-1.4 3.7-1.9 1.3-.4.9-2.3-.3-2.5-1.7-.3-3.5.6-4.7 1.9-1.8-1.1-4.3-2.3-6-1.2-.4.3-.5 1-.1 1.3 1.2.8 2.5.8 3.6 1.3zM382.6 4.6c2.6-.5 5.7-1.9 7.8.3.5.5.7 1 1 1.6.1.3.3 1 .2.7.2 1.3 2.3 1.6 2.5.1.1-1.2.8-2.3 1.7-3.1 2.9-2.6 6.5-.8 9.8-1.1.7-.1 1.1-1 .5-1.5-3.9-2.8-10.4-1.7-13.2 2.2-2.4-3.1-7.4-3.8-11-1.8-1.2.7-.9 2.9.7 2.6zM175.1 230c-.2 6.6-.6 13.1-.6 19.7 0 3.9-.1 7.8-.1 11.7-.1 4.8-.5 9.8 0 14.6.2 1.3 1.9 1.3 2.1 0 .6-4.7.2-9.6.3-14.3.1-3.9.2-7.7.4-11.6.4-6.7.5-13.4.6-20.1.2-6.3.2-12.6.1-18.9-.2-7.9-.2-15.9-1.2-23.7-.2-1.7-2.8-1.7-2.7.1.2 7.8 1 15.6 1.2 23.4.1 6.3.1 12.7-.1 19.1zM160.8 252.2c.2 4.2.2 8.3.3 12.5 0 4.9-.4 9.9.2 14.8.2 1.3 1.9 1.3 2.1 0 .6-4.7.1-9.7.1-14.5 0-4-.1-8 0-12 .1-7.1-.2-14.3-.3-21.4-.1-6.7-.2-13.4-.1-20.1.1-8 .6-16 .5-24 0-1.8-2.6-1.6-2.7.1-.6 7.9-.5 15.9-.6 23.8 0 6.7 0 13.4.1 20 .1 6.9.1 13.8.4 20.8zM147 238.7v39.8c0 2.5.1 5 .1 7.5 0 1.7 2.7 1.7 2.7-.1v-22.3c-.1-16 .3-32-.2-48-.1-4.9-.1-9.8-.1-14.6 0-4.5.4-9.1-.2-13.5-.2-1.3-1.9-1.3-2.1 0-.5 4.1-.2 8.4-.2 12.5v38.7zM133.2 267.1c.1 4.8.2 9.6.2 14.4 0 4.8-.4 9.8.2 14.5.2 1.3 1.9 1.3 2.1 0 .6-4.7.1-9.6.1-14.3 0-4.8-.1-9.7-.1-14.5 0-8.8-.2-17.6-.3-26.5-.1-8.5-.2-17-.1-25.4.1-9 .5-18 .5-26.9 0-1.8-2.6-1.6-2.7.1-1.2 17.2-.6 34.7-.4 52 .1 8.9.2 17.7.5 26.6zM277.4 138.5c4.9-4.9 11-9.5 18.1-9.7 1.3 0 1.6-2.1.4-2.5-4.3-1.5-9.3 1.7-12.7 4.1-2.3 1.6-4.5 3.4-6.5 5.3-1.1-1.7-2.4-3.3-3.8-4.7-3.2-3.2-8.6-6.7-13.3-5.3-.7.2-.8 1.3-.1 1.5 2.3.8 4.7.9 7 2.1 1.8.9 3.5 2.2 4.9 3.7 1.1 1.1 2 2.3 2.9 3.7.2.4.5.7.7 1.1.1.1.4.8.2.4.6.8 1.5 1 2.2.3zM1229.6 247.9c.6-2.6 2.9-2.3 5.2-1.9 1.5.2 2-1.8.7-2.5-2.5-1.4-5.6-.6-7.3 1.4-2.1-2.3-6-3.2-8.4-1.2-.5.4-.4 1.4.3 1.5 2 .4 4.1-.7 5.8.8.4.3.6.7.9 1.2.1.2.3.9.2.5.4 1.4 2.3 1.6 2.6.2zM673.4 153.7c3.8-.1 7.3-1.4 11.1-.7 2.4.4 4.6 1.4 6.4 3.1 1.2 1.1 2.1 2.5 2.7 3.9.2.5.4 1 .5 1.5.1.3.1.6.1.4.3 1.3 2.2 1.6 2.5.1.4-2 1.4-3.9 2.7-5.4 3.9-4.5 9.3-3.1 14.4-1.9 1.5.4 2-1.9.7-2.5-7.2-3.5-15.9-1-19.2 5.8-.8-1.4-1.8-2.7-2.9-3.8-4.8-4.5-14-5.5-19.7-2.1-.6.6-.1 1.7.7 1.6zM337.6 434.2c2-.9 3.8-2.8 4.3-5 .3-1.7-2.2-2.3-2.5-.7-.1.6-.2.9-.6 1.4-.6.9-1.5 1.5-2.4 2-1.5.9-.3 3 1.2 2.3zM40.5 421.9c.3.4.7.5 1 .9.2.2.3.6.5.9.3.6 1.3.5 1.6 0 .7-1 1.6-1.9 2.3-3 .9-1.4-1.1-3.1-2-1.7-.3.5-.7 1.1-1.1 1.7-.3-.6-.7-1.2-1.1-1.8-.6-1-1.2-2.2-2.1-2.9-.9-.7-2.4-.1-2 1.2.4 1.4 1.4 2.6 2.2 3.8.3.3.5.6.7.9zM233.4 413c-.2 1.2 1.5 3.1 2.1 4 .4.6.7 1.2 1.1 1.7.3.4.7.6 1 .9.4.4 1.1.5 1.4-.1.4-.9 1.1-1.7 1.7-2.5.6-.8 1.1-1.7 1.6-2.6.7-1.2-1.3-2.2-2-1-.5.8-1 1.6-1.4 2.5-.2.4-.4.8-.6 1.3-.4-.6-.8-1.3-1.2-1.9-.7-1.1-1.4-2.8-2.7-3.3-.5-.3-.8.3-1 1zM234.8 310.3c-.2-1.4-2.2-1.3-2.4 0-.2 2.4-.2 4.8-.1 7.2.1 5.6.1 11.1.2 16.7.1 12.5.4 25 .4 37.6 0 2.9 0 5.8.1 8.6 0 1.8 2.8 1.6 2.8-.2-.2-20.1-.5-40.1-.7-60.2 0-3.3.1-6.5-.3-9.7z"/>
            <path fill-rule="nonzero" d="M32.1 328.2V364c-.7-.8-1.4-1.6-2.1-2.3-1.5-1.7-2.8-3.4-4.3-5.1-1.5-1.8-4 .4-2.4 2.2 1.8 1.9 3.7 3.8 5.4 5.7 1 1.1 2 2.6 3.3 3.5v23.7c0 1.8 2.8 1.6 2.8-.2v-10.8c2.9-1.3 5.6-4.2 8-6.1 2.7-2.1 5.5-4 8.2-6.1 1.6-1.3-.2-4-1.9-2.7-2.8 2.2-5.4 4.5-8.1 6.7-1.8 1.4-4.3 2.9-6.3 4.7v-45.9-3.4c8 16.4 16 32.9 24 49.3 1.3 2.6 2.5 5.2 3.8 7.7.1.3.3.5.5.6 0 3.3-.1 6.6-.2 9.9 0 1.8 2.8 1.6 2.8-.2 0-3.5.1-7.1.1-10.6v-.2c.2-33.3-.3-66.6-.6-99.9-.1-10.9.2-21.8-.3-32.6 18-1.5 36.1-2.2 54.2-1.9.3.1.6.1.9 0 1.2 0 2.5 0 3.7.1v124.6c0 6.4.2 12.8.2 19.2 0 1.5 2.3 1.2 2.3-.3 0-7 0-14.1.1-21.1.2 0 .4-.1.6-.2 2.3-1.7 6-3.1 7.8.1.4.6 1.4.9 1.9.3 1.6-1.9 4.3-4.1 6.9-2.5 1.8 1.1 1.8 3 4.3 2.6.8-.1 1.1-.4 2-.2 1.2.2 1.3.7 2.1 1.5.5.5.8.8 1.5.9 2.3.6 5-.5 6.1 2.5.2.5.6.9 1.2.9 2.9.2 5 2 4.9 5 0 .8.8 1.4 1.6 1.2 3.2-.9 6.3.2 7.6 3.3.1.4.7.7 1.1.6 2.6-.3 5.2.5 5.4 3.5.1 1.6 2.6 1.6 2.5 0-.2-4-3.4-6.2-7.1-6-1-1.9-2.7-3.2-4.6-3.8v-.2-3.3-10.6c0-4.7.1-9.3.1-14 5.6.1 11.5.5 17.1-.2v28c0 3.4.2 6.9.2 10.3 0 1.5 2.3 1.2 2.3-.3 0-16.9.1-34.1.2-51.3 2.7.3 5.1 2 6.3 4.4.2.4.6.8 1.1.7 2-.4 3.8-.1 5.6.8.8.4 1.4.8 2.1 1.3-1.1 2.4-2.1 4.9-3.2 7.3-1.5 3.5-3 7-4.4 10.5-.4.9 1.1 1.5 1.6.7 11.1-21.2 20.5-43.4 30.5-65.2 1-2.1 2-4.3 2.9-6.4 3.9 7.9 7.8 15.9 11.7 23.8 7 14.3 13.9 28.7 20.9 43 1.6 3.3 3.2 6.6 4.9 10 .9 1.9 4 .8 3.1-1.1l-13.5-27.3c-2.1-4.2-4.2-8.5-6.3-12.7 2.6-3.5 4.6-7.5 6.7-11.3l5.7-10.2 1.8 2.7c2.3 3.2 4 6.8 5.9 10.2 2.8 5 5.5 10 8.4 14.9.8 1.5 3-.1 2.1-1.5-2.3-4-4.8-8-7.2-11.9 6.1-10 11.6-20.3 17.2-30.6 0 8.4.2 16.7.3 25.1.1 8.3-.3 16.6-.3 25v22.5c0 3.4 0 6.9.4 10.3.1 1.1 1.8 1.2 2 .1 1.1-10.5.4-21.4.4-32 0-5.6-.2-11.1-.3-16.6l.4.3 10.6-10.8c.8 1.7 1.7 3.3 2.5 5 4.9 9.3 8.9 19 13.3 28.5 3.8 8.2 7.4 16.5 11.2 24.8 1.9 4.1 3.8 8.2 5.7 12.2.7 1.5 3.2.6 2.5-.9-5.2-11.2-10.4-22.4-15.7-33.5-.2-.5-.5-1-.7-1.4.1-.1.2-.1.2-.2 3.7-5 6.5-10.8 9.6-16.2 2.6-4.6 5.2-9.2 7.7-13.9 3 4.4 5.6 9.3 8 14 2.5 4.8 5.3 9.5 8.1 14.2.5.8 1.3.7 1.8.2v41.5c0 1 0 2 .1 2.9 0 .5.1.9.1 1.4v.2c0 1.5 2.3 1.2 2.3-.3 0-7.6.1-15.2.1-22.9 1.6.1 3.3 0 5 0 2.8 0 5.5.1 8.3.1 0 2.8.1 5.6.1 8.4 0 4.8-.4 9.8.2 14.5.2 1.3 1.9 1.3 2.1 0 .6-4.7.1-9.6.1-14.3 0-2.9 0-5.7-.1-8.6h13.8v10.3c0 2.8.1 5.7.1 8.5 0 1.7 2.7 1.7 2.7-.1v-18.7h13.2c0 2.8.1 5.6.1 8.3 0 4.8-.4 9.8.2 14.5.2 1.3 1.9 1.3 2.1 0 .6-4.7.1-9.6.1-14.3 0-2.9 0-5.7-.1-8.6h11v4.7c0 5.6.1 11.2.3 16.8 0 1 1.8 1 1.8-.1.3-6.1.4-12.2.4-18.3 8.3-15.8 16.9-31.6 25.3-47.5.3-.6.6-1.1.9-1.7v4.1c.1 5.6.1 11.1.2 16.7.1 12.5.4 25 .4 37.6 0 2.9 0 5.8.1 8.6 0 1.8 2.8 1.6 2.8-.2-.2-20.1-.5-40.1-.7-60.2v-5.1c5.4 11.1 10.7 22.2 16.1 33.3 0 .3.2.6.4.9 3.4 7 6.8 14 10.3 21 1.5 2.9 2.9 5.9 4.5 8.6.6 1 2.1.3 1.7-.8-3.3-8.4-7.5-16.6-11.5-24.7-.8-1.7-1.7-3.5-2.5-5.2 5.3-9.2 10.3-18.5 15.7-27.6 2.5 4.6 4.8 9.2 7.3 13.8l13.5 24c1 1.8 2.2 3.6 3.4 5.3.6.9 2.2.1 1.7-.9-2.4-5.5-5.5-10.7-8.5-15.9.6-.1 1.3-.2 1.9-.2 6.7.1 13.3.1 20 .1h111.4c0 7.3.1 14.6.1 22 0 3.4 0 6.7.2 10.1.1 1.3 2 1.3 2.1 0 .3-9.5.1-18.9.1-28.4v-3.6h165.5v27.9c0 3.4.1 6.8.1 10.3 0 .7.4 1.1.9 1.2-1.3.6-2.6 1-4 .9-2.2-.1-4-1.6-6-2.4-3.7-1.7-7.4-1.3-11.3-.4-4.9 1.1-10 1.9-15 1.7-4.9-.1-9.8-.6-14.7-.8l-14.7-.3c-9.7-.2-19.4-1.1-29.1-1.7-9.4-.6-18.9-.3-28.3.4-9.9.7-19.8 1.6-29.7 1-4.9-.3-9.8-.9-14.6-2-4.4-1-8.9-2.1-13.5-2.2-4.5-.1-8.9.9-13.3 1.3-4.6.3-9.2-.2-13.8-.6-4.1-.4-8.3-.7-12.5-.4-4.4.4-8.1 1.7-12 3.7-1.9 1-3.8 1.9-5.9 2.1-2.2.2-4.4-.5-6.5-1.2-3.1-1.1-6.3-2.5-9.6-2.6-4.3-.1-7.4 3.2-11.7 2.2-4.3-.9-8.2-2.2-12.6-2.3-4-.1-8 .5-11.9 1.7-1.1.3-.4 1.9.6 1.6 4.8-1.3 9.8-1.7 14.8-1 4.1.5 8.7 3.2 12.8 2.4 1.8-.4 3.3-1.4 5-2 2.2-.7 4.6-.3 6.8.4 3.4 1 6.6 2.7 10.2 3.1 3.9.4 7.1-1.3 10.5-3 4.2-2.1 8.7-2.9 13.4-2.9 8.7.1 17.2 1.9 26 .8 4.7-.6 9.2-1.2 14-.5 4.6.6 9 1.9 13.5 2.7 9.4 1.6 18.9 1.4 28.3.9 9.9-.6 19.8-1.5 29.8-1.4 9.7 0 19.2 1.2 28.9 1.7s19.4.4 29 .8c4.8.2 9.7.9 14.5.6 4.5-.3 8.9-1.2 13.3-2 2.7-.5 5.2-.7 7.8.4 1.7.7 3.2 1.8 4.9 2.4 3.7 1.3 6.7-.3 10-1.8 7.3-3.3 15 .2 22.3 1.6 8.8 1.6 17.8 2.1 26.6 2.6 11.6.6 23.2.8 34.8.9 18.5.1 37.2.2 55.7-1.1.9-.1 1.8-.1 2.6-.2 1.7-.2 1.6-2.9-.1-2.7-6 .7-12.1.7-18.1.9-10.6.3-21.2.5-31.8.5-12 0-23.9-.1-35.9-.5-9.8-.4-19.6-.8-29.3-2.1-5.3-.7-10.4-2.4-15.7-3.2-4.1-.6-8.2-.5-12 1.2-.3.1-.5.2-.8.4 0-.1.1-.3.1-.5v-38H944.8c5.3 0 10.7.1 16.1 0h.7c1.7 0 1.7-2.7-.1-2.7h-18c-.2-.1-.3-.2-.6-.2-10.8-.7-21-2.7-31.2-6.4-5.1-1.8-10.1-4-14.9-6.3-.1-.1-.2-.1-.3-.1-5.6-2.7-11.1-5.7-16.5-8.9-19.1-11.3-37.4-25-52.8-41-5.1-5.3-10.9-11.4-13.6-18.4-.4-1-1.6-1.1-2.2-.6-.4-.1-.9 0-1.1.5-11.1 19.2-25.4 37.6-44.2 49.8-15.4 10.1-32.6 15.4-51.1 13.2-18.3-2.1-34.7-11-47.3-24.3-10.4-11-18-24.4-23.2-38.6v-.1c0-.1-.1-.1-.1-.2l-.3-.3-.1-.1c-.1 0-.2-.1-.3-.1-.1 0-.1 0-.2-.1-.4-.1-.8 0-1.1.2-.3.2-.5.5-.5 1-1.6 7-5.5 14-9.8 20.1-.3.1-.6.4-.6.8-.5.7-1 1.3-1.4 2-3.8 5.2-8.2 10-12.8 14.3l-.1.1-.1.1c-12.9 12-28.5 21.1-44.7 27.7-11.3 4.6-22.9 8.1-34.7 10.8-.3-.2-.7-.1-.8.2-9.4 2.1-18.8 3.7-28.4 5.1-.4.1-.6.2-.8.4-4-7.3-7.9-14.8-12.5-21.6-1.1-1.6-2-3.3-2.9-4.9-.4-.6-1.3-.5-1.6.1-5.3 9.1-10.8 18.1-16.2 27.2l-14.1-29.1c-1.4-2.8-2.7-5.7-4.1-8.5-.5-1-1.9-.7-2.4.1-8.2 15.6-16.5 31.3-24.7 46.9-.5.9-.9 1.8-1.4 2.7V356v-59.6-13.6c0-.8-.7-1.3-1.4-1.3-20.3-1.2-41.2-1.4-61.4 1.3-.8.1-1.3.6-1.3 1.4v25.5c-3.2-3.9-6.5-7.7-9.9-11.5-3.3-3.7-6.6-7.3-10.2-10.7-2.7-2.6-5.5-5.5-8.9-7.1-3.1-1.5-6-1.1-9.2-.5-4.7.8-8.7-.5-12.6-3.2-7.5-5-14.2-11.6-21.1-17.5-5.4-4.7-10.8-9.3-16.2-14-.6-.5-1.4-.5-1.9 0-8.4 7.8-16.9 15.7-25.3 23.5-8.3-7.6-16.6-15.1-25.1-22.4-2-1.7-3.9-3.4-5.9-5.1-.5-.4-1.5-.6-1.9 0-5.2 6.7-10.5 13.4-15.7 20.2-2.6 3.3-5.2 6.7-7.8 10-.2.2-.4.5-.6.7.5-16.1-.2-32.2-.4-48.3-.2-16 0-32.1.5-48.1 0-.8-.7-1.3-1.4-1.3-18.3-.9-36.6-.8-54.9-.2.1-.1.2-.3.2-.5.5-5 .3-10 .3-15v-7.6c0-1.1-.3-.9.8-1.2.8-.2 1.9 0 2.8-.1 1.5-.1 3-.2 4.4-.2 11.2-.5 22.5-.7 33.7-.6 0 4.7-.1 9.5-.1 14.2-.1 3.1-.7 6.7.1 9.7.3 1.1 2 1.5 2.4.2.9-3 .4-6.7.4-9.8v-15.7c0-.7-.6-1.3-1.3-1.4-6.9 0-13.7 0-20.6.2.1-1.9.1-3.9-.1-5.8-.3-3.5-.4-6.8-.4-10.3 0-2.4.1-4.8 0-7.2 0-1.6.2-3.6-.3-5.1-.3-1-1.7-.9-2 .1-.5 1.7-.2 3.7-.2 5.4 0 3.1.1 6.3.1 9.4 0 2.9-.1 5.6-.4 8.4-.2 1.7-.2 3.5 0 5.2-5.4.2-10.7.4-16.1.7-1.7.1-4.9-.5-5.7 1.6-.8 1.9-.2 5.2-.2 7.2 0 5.9-.2 11.8.3 17.7 0 .2.1.4.2.5-4.5.2-9 .3-13.4.6-.8 0-1.3.7-1.3 1.4v71.4c-4.9-.1-9.8 0-14.7 0-13 .2-26.3.3-39.1 2.7-.7-.5-1.9-.2-2 .8-.5 9.9-.2 20-.1 29.9l.3 27.4c.2 17.8.6 35.7.6 53.5 0 5.7-.1 11.5-.1 17.2-8.2-16.6-16.5-33.2-24.7-49.9-1.3-2.6-2.5-5.1-3.8-7.7-.6-1.1-2.1-1-2.6.1-9.3 20.2-18.9 40.3-27.7 60.7-1.4 3.3-2.8 6.6-4.1 9.9-.4.9 1.1 1.5 1.6.7 10.6-20 19.4-41.1 28.9-61.6 0-1.3.4-2.2.8-3.1zm892.2 28.6h-7.8c0-.1 0-.2-.1-.3l-.6-1.8c0-.1-.1-.2-.1-.3 2.8.8 5.7 1.7 8.6 2.4zm-27.1-9.8c3 1.4 6.1 2.7 9.2 3.9 2.2.9 4.5 1.7 6.9 2.6-.1 1.1.2 2.2.6 3.3h-16.6c.2-1.8-.1-3.8-.1-5.7V347zm-17.8 5.6c0-2.1 0-4.1-.1-6.2 0-2.8.1-5.8-.1-8.6 5.1 2.9 10.3 5.7 15.6 8.1-.2 1.7-.1 3.4-.1 5.1 0 1.8-.2 3.9.1 5.8h-15.6c.4-1.3.2-2.7.2-4.2zm-16.8 3.1c.1-.6 0-1.3.1-2 0-1.3.1-2.6.1-3.9.1-2.8.1-5.6.2-8.4.1-4.5.5-9.1.2-13.7 4.5 3.1 9 6 13.7 8.7-.4 3.2-.1 6.7-.1 9.8v5.8c0 1.6-.2 3.2.3 4.7h-14.3c0-.3-.2-.5-.5-.7.6.5.2.7.3-.3zm-1.3-29.3c-.8 5.3-.6 10.9-.8 16.3-.1 3-.2 5.9-.3 8.9 0 1.5-.5 3.7-.1 5.3h-14.2c.3-7.4-.7-15.1-1-22.5-.3-6.9-.5-13.9-.5-20.8 5.5 4.4 11.1 8.7 16.9 12.8zM828.1 299c4.5 4.4 9.2 8.6 14 12.7-.2 7.5.1 15 .5 22.5l.6 11.7c.2 3.6.2 7.4.8 11h-14.1c.5-9.6-.3-19.2-1-28.7-.4-5.1-.7-10.1-.9-15.2-.2-4.7 0-9.4.1-14zm-16-19.4c2.4 4.7 6.2 9 9.6 12.8 1.5 1.7 3.1 3.4 4.7 5-2.2 9.4-1.2 20-.6 29.5.7 10 1.4 19.9 1.1 30h-14.7c0-16.5 0-33-.2-49.4-.1-5.5 0-10.9-.1-16.4.1-3.8.3-7.7.2-11.5zm-2.6 1.2c-.3 7.7.1 15.5.1 23.2-.1 10.5-.1 20.9-.1 31.4v21.5h-9.7c-.6-9.4-1-18.8-1.3-28.2-.1-4.7-.3-9.4-.4-14.2-.1-5.2.3-10.8-.6-16 0-.1 0-.2-.1-.2 4.4-5.5 8.8-11.3 12.1-17.5zM796 300.2c-.5 4.3-.3 8.8-.2 13.1 0 4.9.1 9.9.2 14.8.3 9.6.7 19.2 1.3 28.7h-14.6c.5-2.3.1-5.5.1-7.4v-11.2V327c0-3.6.3-7.2-.1-10.8 0-.4-.2-.7-.4-.9 4.8-4.7 9.4-9.8 13.7-15.1zM766.6 329c0-.4-.1-.7-.4-.9 4.8-3.2 9.4-6.7 13.6-10.6-.4 7 0 14.1 0 21v11.2c0 2-.5 5 .1 7.2h-14.1c.2-1.2.6-2.3.6-3.5.1-2.7.1-5.4.2-8V329zm-5.8 2.4c1.1-.6 2.1-1.2 3.2-1.9v14.9c0 2.5 0 4.9.1 7.4 0 1 0 2 .1 3 .1.7.3 1.4.5 2.1h-11.3c.7-2.7.3-6.1.3-8.7v-6.4c0-2.3.3-4.6-.5-6.8 2.6-1 5.2-2.2 7.6-3.6zM737 349.6c.1-3 .6-6.5-.2-9.5 5-1 10-2.4 14.8-4.4-.9 3.5-.3 7.7-.2 11.2 0 1.9 0 3.9.1 5.8.1 1.3 0 2.8.3 4.2h-15.2c.7-2.3.4-5 .4-7.3zm-2-9.1c-.6 2.7-.1 6-.1 8.7 0 2.4-.2 5.3.4 7.7h-11.1c.4-1.9.1-4.2.1-5.7 0-3.2-.2-6.5-.5-9.7 3.7-.1 7.5-.4 11.2-1zm-13.7 1c.3 3.3.5 6.7.5 10 0 1.5-.3 3.6-.1 5.4h-12c.5-2.5.1-5.5.1-7.7 0-2.9.3-5.9-.1-8.8 3.9.7 7.8 1 11.6 1.1zm-23.3 6.2v-10.3c2.8 1 5.6 1.8 8.5 2.4.3.1.7.1 1 .2-.6 3.2-.2 6.8-.2 10 0 2.1-.3 4.7.1 6.9h-10.6c2-2.2 1.2-6.5 1.2-9.2zm-2.3-11.1v10.9c0 2.8-.8 7.2 1.1 9.5h-13.6c.7-4.9.4-9.9.4-14.8 0-4 .2-8.1-.7-12 4 2.5 8.3 4.6 12.8 6.4zm-13.9-7.1c-1.2 4.6-.9 9.4-.9 14.1 0 4.4-.2 8.9.4 13.3h-13.7c.6-3.2.2-6.9.2-10.1v-10.4c0-3.5 0-7.1-.1-10.6 0-2.5.1-5.2-.4-7.7 4.5 4.3 9.3 8.1 14.5 11.4zm-27.2 18.7c0-2.3.1-4.6.1-6.9.1-4.3.1-8.6.2-12.9.2-8.1.9-16.3.5-24.4 3.2 4.5 6.8 8.8 10.7 12.8-.7 2.6-.6 5.4-.6 8.1-.1 4.1-.1 8.2-.1 12.2V348c0 2.9-.3 6 .2 8.9h-11c.3-2.8 0-6 0-8.7zm-10.5-41.7c.1-7.7 0-15.4 0-23.1 2.6 6.4 5.9 12.7 9.9 18.5-1.4 9.6-1.2 19.5-1.4 29.2l-.3 14.8c0 3.6-.5 7.5-.1 11H644c0-16.7 0-33.6.1-50.4zM633.4 351v-7.9-15.3c0-9.8.3-19.7-.3-29.4 3-4.2 5.6-8.7 7.7-13.4l.6-1.2c0 24.4.1 48.9.2 73.3h-8.5c.5-2 .3-4.1.3-6.1zm-14.9-17.8c0-3.7-.1-7.4-.2-11.1 0-1.9-.1-3.7-.2-5.5v-1c4.6-4.3 9-8.9 12.8-13.9-.3 8.9-.1 17.9-.1 26.8V352.2c0 1.6-.1 3.3.3 4.9h-13.4c.7-8 .8-15.9.8-23.9zm-12.7 18.1c0-3 .1-5.9.2-8.9.1-2.9.1-5.8.1-8.7 0-2.5.3-5.7-.3-8.2.3-.2.6-.4.9-.7 3.1-2.3 6.2-4.7 9.1-7.3v4.5c.1 3.8.1 7.7.2 11.5.1 7.9-.1 15.8-.8 23.7h-9.7c.7-1.8.3-4.3.3-5.9zm-10.6.3v-6.9-6.5c0-1.9.2-3.8-.3-5.6 2.9-1.7 5.7-3.5 8.4-5.4-.2 1.9 0 4 0 5.8 0 2.9.1 5.9.1 8.8.1 3 .2 6.1.2 9.1 0 1.7-.5 4.4.2 6.2h-9.2c.8-1.7.6-3.6.6-5.5zm-2.5-17.7c-.2 1.6-.1 3.2-.1 4.7V352c0 1.8-.1 3.5.6 5.1h-12.3c.6-3.3.1-7.1.1-10.5 0-2 .3-4.5-.3-6.5 4.2-1.9 8.1-4 12-6.2zM567.6 357c1-1.7.6-4.2.5-6.1 0-1.7 0-3.6-.4-5.2 3.7-1.4 7.4-3 11.1-4.6-.4 2.2-.1 4.7-.1 6.6 0 3-.4 6.5.1 9.5h-11.4c.2-.1.2-.2.2-.2zm-18.5-5.2c-.2 1.9-.1 4.3 1.4 5.2.4.2.8.1 1-.3.6-1.1 0-2.2-.2-3.4-.1-.7-.1-1.4-.1-2.1 4.9-1.4 9.8-3 14.6-4.8-.2 1.3-.2 2.7-.2 4 0 2.1-.6 4.8.6 6.7h-28.1c-.1-.8-.3-1.5-.4-2.3v-.2c3.8-.8 7.6-1.8 11.4-2.8zm-13.4 3.3c0 .7.1 1.4.2 2h-10.1c3.3-.6 6.6-1.3 9.9-2zm-154.2 14.8v-3.4c0-8.8-.2-17.7-.3-26.5v-1.5c2.3 0 4.7.1 7 .1h7.1V370c-4.6-.2-9.2-.2-13.8-.1zm13.8-58.4c-.1 8.1-.1 16.2-.1 24.3-4.7 0-9.4.1-14.1.1-.1-7.1-.1-14.3-.1-21.4 0-1.6 0-3.3.1-4.9h3.4c3.6 0 7.2 0 10.8-.1v2zm2.5-2c4.2 0 8.4 0 12.5-.1 0 8.8.1 17.6.3 26.3h-12.4c0-6.8-.1-13.7-.2-20.5-.2-1.9-.2-3.8-.2-5.7zm8.1 60.2h-7.8v-3.1c0-9.4.1-18.8.1-28.2h12.5v1.2c.1 8.9.2 17.8.5 26.7 0 1.1 0 2.3.1 3.4h-5.4zm18.7 0h-11v-3.2c0-8.8-.2-17.7-.3-26.5v-1.5h11.2c0 10.4.1 20.8.1 31.2zm-.1-51.3v17.4h-11.3c-.1-7.1-.1-14.2-.1-21.3 0-1.7 0-3.4.1-5.1h3.7c2.5 0 5 .2 7.5 0 .1 3 .1 6 .1 9zm0-34.7v23.2c-1.6-.1-3.3 0-4.9 0-2.1 0-4.2 0-6.3-.1.2-6.5.4-12.9.4-19.4 0-1.8-2.6-1.6-2.7.1-.5 6.4-.7 12.8-.7 19.2H397.7v-6.6c0-4.9.4-10.1-.2-14.9-.2-1.3-1.9-1.3-2.1 0-.5 4.1-.2 8.4-.2 12.6v8.9h-14.1c.2-6.4.4-12.9.4-19.3 0-1.8-2.6-1.6-2.7.1-.5 6.4-.7 12.8-.7 19.2h-12.3v-10-11.8c19.4-2.5 39.3-2.3 58.7-1.2zM365.9 355v-45.5h12.3c0 8.8.1 17.6.3 26.4h-2c-2.7 0-5.5-.3-8.2.2-1 .2-1 1.8 0 2 2 .4 4.1.2 6.1.2h4.1v1.3c.1 8.9.2 17.8.5 26.7 0 1.2 0 2.3.1 3.5h-5.6c-2.5 0-5.1-.2-7.6 0V355zm-196.2 21.4c0 1.6-.3 3.7-.2 5.5-.4 0-.9 0-1.3.1-.5-3.3-3.1-5.4-6.5-5.9-1-1.9-2.8-3.1-5-3.4-.8-.1-2.1.2-2.9-.3-.3-.2-.7-1-1-1.2-.9-.8-2.2-1.3-3.4-1.3-.5 0-1.3.5-1.8.4-1-.2-1.3-1.1-2-1.7l-.9-.6c0-.3.1-.7.1-.9V364v-9.8H169.6c.1 7.4.1 14.8.1 22.2zm19.6-24.4c-5.6-.8-11.5-.3-17.1-.3v-7.2c0-2 .1-4.1-.3-6.1 0-.1 0-.2-.1-.2-.3-.7-1.4-.5-1.6.1-.4 1.3-.3 3.2-.3 4.7-.1 2.9-.1 5.7-.1 8.6-5.7 0-11.5 0-17.2-.1H145c.1-5 .4-10.1-.2-15.1.1-.9-1.2-1.2-1.7-.5-.8 1.2-.4 3.9-.4 5.3-.1 3.4-.1 6.9-.1 10.3-4.5 0-9.1.1-13.2.1-1.3 0-1.6 2.1-.3 2.1-.4 0 .3.1.5.2.5.1 1 0 1.6 0H142.6V367c-2.5-.2-4.7 1-6.4 2.6-2.5-2.7-6.6-2-9.6-.1.1-9.3.1-18.7.1-28v-7c7.4 0 15.8.2 23.5.3 7.1 0 14.3 0 21.4.1 5.9 0 12.1.5 17.9-.2-.2 5.8-.2 11.5-.2 17.3zm118.6-37l-9.8 10v-6.1c.1-7 .3-14 .3-21v-4.2c3.3 7.4 6.6 14.8 10.2 22l-.7-.7zm-96.4-65.3c1.5-2 3.1-3.9 4.6-5.9 5.4 4.6 10.7 9.2 16 13.9-1.5.5-2.9 1.2-4.3 1.9-1.9.9-3.8 1.8-5.6 2.9-2.5 1.3-4.8 3.1-7.4 4.1-5 2-9.9-.4-12.8-4.5 3.1-4.2 6.3-8.3 9.5-12.4zm-90.4-72.6c22.4-1.1 44.8-1.5 67.2-.5-.4 15.5-.4 31-.2 46.5l.3 23.8c.1 9.2-.1 18.4.3 27.6-.4.5-.8 1.1-1.2 1.6-1.5 1.9-2.8 4.3-4.6 5.9-1.6 1.4-4.4.9-6.3.6-2.6-.3-5.3-.9-7.9-.8-3.3.1-4.6 1.6-6.6 4.1-3.1 3.9-6.3 7.7-9.1 11.8-1 1.5 1.4 2.8 2.4 1.4 2.7-3.9 5.7-7.5 8.7-11.2.9-1.1 1.6-2.4 2.9-3 1.1-.4 2.4-.3 3.5-.3 4.1.2 10.1 2.6 13.8-.1 1.3-.9 2.2-2.6 3.2-3.8 1.5-1.9 2.9-3.8 4.4-5.6 2.6-3.3 5.2-6.7 7.8-10 .3-.3.5-.7.8-1 3.1 4 8.4 6.6 13.4 5.4 2.7-.6 4.9-2.2 7.3-3.6 2.5-1.4 5.1-2.8 7.7-4 1.8-.8 3.7-1.5 5.5-2.4 4.3 3.8 8.5 7.6 12.7 11.5l.1.1c5.6 5.2 11.2 10.5 16.7 15.9 5.1 5.1 10.2 10.2 14.9 15.7 1.1 1.3 3.1-.6 1.9-1.9-8.9-10.5-19.1-19.9-29.1-29.3-.5-.5-1-.9-1.5-1.4 8.1-7.5 16.2-15 24.3-22.6 10.8 9.4 21.6 19 32.8 28 3.8 3.1 8.1 6.2 13.2 6.8 3.2.4 6.2-.9 9.4-.8 3.7.1 6.7 2.9 9.2 5.2 3.5 3.2 6.8 6.7 10.1 10.2 4.9 5.4 9.7 10.9 14.3 16.5V347c-2.6-4.5-5.2-9-8-13.4-3.2-5-6.5-10.2-9-15.6-.4-.9-1.6-.7-2.1 0-3.5 4.9-6.1 10.6-9.1 15.8-2.8 5-6 9.9-8.2 15.1-7.8-16.6-15.1-33.4-22.8-50-1.9-4-3.7-8.1-5.6-12.1-.5-1.2-2-1-2.5 0-6.2 11.4-12.8 22.6-18.4 34.3-.1-.2-.3-.5-.4-.7-2-3.3-4.3-6.6-5.9-10.2-.8-1.7-1.6-3.3-2.5-4.8-.6-1-1.9-.5-2.3.3-2.3 4.1-4.6 8.2-7 12.3-1.8 3.2-3.9 6.5-5.4 9.9-4.5-9.1-8.9-18.1-13.4-27.2-1.6-3.3-3.2-6.6-4.8-9.8-.6-1.1-2.1-1-2.6.1-8.4 18.3-17 36.5-25.2 54.9-2-1.9-5.4-2.7-8.1-2.4-1.6-2.7-4.7-4.8-7.9-5v-9.1-8.1c0-.7-.7-1.3-1.4-1.3-7 0-13.9-.1-20.9-.1-4.9 0-9.8-.1-14.7-.2 0-.1 0-.2-.1-.4-1.1-3-2.1-6-3.1-9-.2-.5-.6-.7-1.1-.7-4.3 0-8.5-.1-12.8 0-.6 0-1.1.3-1.2.9-.2 2.3-.3 4.6.1 6.9.2 1.1.1 1.6-.3 2.4-2.1.1-4.2.2-6.2.4-1 .1-.9 1.7.1 1.8 6.6.6 13.2.4 19.8.4 6.5 0 13 .1 19.6.1 6.5 0 13 .1 19.5.1v10.1c-6.1-.8-12.6-.3-18.7-.3-7 0-14 0-21-.1-5.6 0-11.3 0-16.9-.1H126.8v-66.6-17c0-.8-.7-1.3-1.4-1.3-1.3 0-2.7-.1-4-.1v-62.6c-.3-2.4-.3-4.9-.3-7.5zM139 318c-.2-2.1-.3-4.1-.1-6.2h11.3c1 2.7 2.2 5.8 3 8-4.8-.1-9.7-.1-14.5.1.2-.6.3-1.2.3-1.9z"/>
            <path d="M120.5 422.5c.1.1.1.3.2.4.2.3.3.6.5.9.3.7.6 1.4 1.1 1.9.1.3.2.6.4 1 .8 1.9 3.5.5 2.5-1.3-.2-.3-.3-.5-.5-.8-.2-1-.9-2-1.3-2.9-.3-.6-.5-1.2-1.2-1.4-1.4-.4-2.3 1-1.7 2.2-.2-.4 0-.1 0 0zM298.5 404.3c.7-1.6 1.8-3.2 3.3-4.2 1.3-.9.1-3.1-1.3-2.2-1.3.9-2.5 2.1-3.3 3.5-.6-.8-1.2-1.5-1.9-2.3-1-1.2-2.8.5-1.8 1.8l3 3.6c.5.6 1.7.5 2-.2z"/>
            <path fill-rule="nonzero" d="M88.1 264.1c-3.9 0-7.9.1-11.8.1-.1 0-.2 0-.3.1-.3.1-.5.2-.6.6-.5 3.5-.1 7.3 0 10.9 0 .5.4.9.9.9 3.9 0 7.8.1 11.8.1.5 0 .9-.4.9-.9.1-3.7.2-7.3.2-11-.1-.5-.6-.8-1.1-.8zm-.9 11c-3.3 0-6.7-.1-10-.1 0-2.9.2-5.9-.1-8.8 3.4 0 6.8-.1 10.2-.1-.1 2.9-.1 5.9-.1 9z"/>
            <path d="M77.8 292.1h-.3v.1c.2 0 .3 0 .3-.1z"/>
            <path fill-rule="nonzero" d="M89.3 291.5c0-.5-.5-.9-1-.9-2.5 0-5-.1-7.6-.2-1 0-3.5-.5-4.4.1-.9.6-.5 2.6-.5 3.6 0 2.4 0 4.7.1 7.1-.6.4-.6 1.6.3 1.7 4 .5 8.2.2 12.2.1.5 0 .9-.5.9-1 0-3.4.2-7 0-10.5zm-1.8 9.8c-3.4.1-7 .3-10.4-.1.1-1.9.2-3.8.2-5.8 0-.9 0-1.8.1-2.7v-.6c-.1 0-.3-.1-.5-.2.1.1.3.1.5.1v-.3c-.3-.7.4.1.3.3h1.1c1 .1 2 .1 3 .2 1.9.1 3.8.2 5.6.2.2 3 .1 6 .1 8.9zM113 264c-3.8-.2-7.8.1-11.6.2-.5 0-.9.4-.9.9 0 1.9-.1 3.7-.1 5.6 0 1.5-.4 3.6.2 5.1 0 .5.3.9.9 1 4 .3 7.9.1 11.9-.1.5 0 .9-.4.9-.8-.1-3.7-.3-7.3-.4-11 0-.5-.4-.9-.9-.9zm-.5 11c-3.5.1-7 .2-10.5 0 .3-1.7.1-3.7.2-5.3 0-1.2.1-2.5.1-3.7 3.3 0 6.7.1 10-.1.4 2.9.2 6.1.2 9.1zM100.7 302.2c0 .5.4.9.9.9 3.8.2 7.7 0 11.5 0 .5 0 .9-.5.9-1 0-3.6.1-7.2.1-10.8 0-.6-.5-.8-1-.9-1.6-.1-3.3-.1-4.9-.2-1.8 0-4.7-.5-6.4.2-.3-.1-.7 0-.8.5-.6 1.6-.3 3.8-.3 5.4-.1 2.1.1 4 0 5.9zm1.6-10c.6.1 1.2 0 1.9 0h4.1c1.3 0 2.6.1 3.9.1 0 3-.1 6-.1 9-3.2 0-6.5-.1-9.7.1-.1-1.5-.1-2.9-.1-4.4 0-1.4-.4-3.4 0-4.8zM75.3 328.2c-.2.6.2 1.3.9 1.2 4-.5 8.3.3 12.3.3.4 0 .8-.4.8-.8.1-2.1-.1-4.1-.1-6.2-.1-1.9.1-3.9-.3-5.8-.1-.3-.4-.6-.7-.6-3.7-.5-8.4.7-11.7.1-.6-.1-1 .3-1.1.9-.3 3.6-.4 7.4-.1 10.9zm2-10c1.2-.1 3.2 0 4.5 0h3.8c.2 0 1 .1 1.7.1 0 .3.1.7.1.9.1 1.2.1 2.5.1 3.7.1 1.6.2 3.3.2 5-3.4 0-7-.6-10.5-.4.1-3.1.2-6.3.1-9.3zM113.9 316.8c-1-1-3.8-.5-5.1-.5-2.4 0-4.8.2-7.3.2-.4 0-.8.3-.8.7-.3 1.6-.2 3.3-.2 4.9 0 2.1.1 4.3.2 6.4 0 .3.1.4.3.5.1.2.3.3.5.3 3.8.7 8 .1 11.9 0 .4 0 .8-.4.8-.8.3-2.2.2-4.4.1-6.6.1-1.2.6-4.1-.4-5.1zm-1.5 1.9v.9c-.1.8.1 1.8.1 2.6.1 1.8.2 3.6 0 5.4-3.3.2-6.8.6-10.1 0 .3-3.1-.3-6.2 0-9.3 1.4-.1 2.8-.1 4.1-.1 1.2 0 5.1-.6 5.9.1.7 0 .7.1 0 .4zM74.2 356.1c-.1.5.3 1.2.9 1.2 2.3.1 4.6.1 7 .1 1.8 0 3.9.2 5.6-.3.3-.1.5-.4.6-.7.5-2 .1-4.5.1-6.6 0-1.6.3-3.6 0-5.2-.1-.3-.4-.6-.7-.6-1.4-.2-3 0-4.4 0-2.7 0-5.3.1-8 .1-.6 0-1 .5-.9 1.1.3 1.6-.2 4-.2 5.7v5.2zm1.8-6.3c0-1.4.3-2.7.2-4 2.9 0 5.9.1 8.8 0 .3 0 1 .1 1.4.1 0 .7.1 1.5.1 1.7v4c0 1 .3 2.4 0 3.4-.2.9 0 .6-1.3.5-.9-.1-1.9 0-2.8.1-2.1 0-4.3 0-6.4-.1.1-1.9 0-3.8 0-5.7zM100.6 355.8c-.2.6.1 1.4.9 1.3 3.9-.4 7.8.1 11.7-.2.4 0 .6-.4.7-.8.3-2 .2-4 .1-6 0-1.7.2-3.6-.2-5.2-.1-.4-.5-.6-.9-.6-3.7-.2-7.5.2-11.2-.1-.3 0-.6.1-.7.3-.7 1.3-.4 3.2-.4 4.6 0 2.2-.3 4.5 0 6.7zm1.6-10c3.3.1 6.7.1 10 .2.1 1.1 0 2.9 0 4v3.2c0 .5.1 1.3.1 2-3.3-.1-6.8-.3-10.1-.1.2-1.8.1-3.6.1-5.4.1-.9-.3-2.7-.1-3.9z"/>
            <path d="M114.5 395.5c.3-3.8.2-7.7.1-11.6-.1-3.9 0-8-.5-11.9-.1-.5-.4-.9-.9-.9h-11.9c-.5 0-.9.4-.9.9-.2 4.3-.1 8.5-.1 12.8 0 3.5-.1 7 .2 10.5.1.7 1.3 1 1.4.2.9-7.4 0-15.1.2-22.5h10.2c.4 3.5.3 7 .4 10.5 0 3.9.2 7.8-.1 11.7 0 1.2 1.8 1.5 1.9.3z"/>
            <path fill-rule="nonzero" d="M75.5 384.2c4.1.1 8.2.1 12.4.1.5 0 .9-.5.9-1 0-3.8.1-7.5.1-11.3 0-.4-.4-.8-.8-.8-4.1-.5-8.5 0-12.6.1-.5 0-.8.5-.9 1-.1 2-.1 3.9-.2 5.9 0 1.3-.2 3.1.2 4.6-.3.5 0 1.3.9 1.4zm.9-11.1c3.4-.2 7.5-.4 10.5-.1-.1 3.2-.1 6.3-.1 9.5-3.5 0-7 0-10.5-.1.3-3.1 0-6.3.1-9.3zM1318.9 333.1c-5.2-14.3-10.5-28.6-15.7-42.8-1.8-4.9-3.6-9.9-5.4-14.8-.4-1-1.8-.8-2.1.1-4.3 10.6-8.6 21.3-12.9 31.9l-3 7.5c-1.5-1.8-3.6-3.5-5.9-3.5-2.3 0-4 1.9-5.3 3.7-1.5-.6-3.6-.5-4.9.4l-4.5-12.3c-.4-1-1.8-.8-2.1.1-1.5 4.1-3.1 8.2-4.6 12.3-1.4 3.8-3.3 7.6-3.9 11.6-.1.9 1 1.3 1.5.5 2.2-3.7 3.4-8 4.9-12 1.1-2.9 2.2-5.8 3.2-8.7 3.9 10.8 7.9 21.5 11.8 32.2-2.7 6.5-5.3 13.1-7.9 19.7-1.7 4.3-3.3 8.6-4.8 12.9-.3.8 1.1 1.3 1.5.5 5.1-10.9 9.4-22.1 13.9-33.2 6.9-17 13.8-34.1 20.7-51.1.8-2 1.6-4 2.4-5.9 0 1.2-.1 2.4-.1 3.7-.1 7.2-.3 14.4-.4 21.5 0 1.2 0 2.4-.1 3.6l-.1-.1c-.5-.5-1-.9-1.5-1.4-.6-.5-1.1-1-1.7-1.6-.5-.4-1.3-.2-1.6.2-.4.5-.2 1.2.2 1.6.5.5.9.8 1.5 1.4.8.7 1.6 1.8 2.6 2.3.2.1.4.1.6.1-.3 16-.6 32-.8 48-.6-.5-1.1-1.1-1.7-1.6l-5.4-5.1c-2.5-2.4-5-4.7-7.6-7.1-1.1-1-2.4.9-1.4 1.9l9.3 8.7c1.9 1.8 3.7 3.6 5.7 5.3.3.3.6.6 1 .8l-.3 25.1c0 1.5 2.3 1.8 2.3.3.1-14.4.4-28.9.6-43.3l.1-.1c3-4 5.9-7.9 8.9-11.9 2-2.7 4-5.4 6-8 .5-.7 1.1-1.4 1.6-2.1 7 19.2 14.1 38.3 21.1 57.5 1.8 4.9 3.6 9.9 5.4 14.8.5 1.4 2.6.5 2.1-.9l-6-16.5c2.8-4.7 4.8-9.9 7.1-14.9 3.4-7.6 6.9-15.1 10.3-22.7.4-.9.8-1.7 1.2-2.6 4.9 13.4 9.9 26.8 14.8 40.3.8 2.1 1.5 4.2 2.3 6.2.5 1.4 2.6.5 2.1-.9-5.2-14.3-10.5-28.6-15.7-42.9-.8-2.1-1.5-4.2-2.3-6.2-.4-1-1.8-.8-2.1.1-5.5 12.2-11.1 24.5-16.6 36.7-.7 1.5-1.3 3-1.8 4.5-2.6-7.2-5.3-14.4-7.9-21.6l-7.2-19.5c3.5-6.5 6.1-13.5 9-20.3 4.6-10.8 9.3-21.7 13.9-32.5.4-1 .8-2 1.3-2.9 0 1.6.1 3.3.1 4.8V318c0 1.5 2.3 1.8 2.3.3v-20-13.9-2.2c3.7 9.5 7.3 19 11 28.5.7 1.7 1.3 3.4 2 5.1.5 1.4 2.6.5 2.1-.9-4.5-11.7-9-23.5-13.5-35.2-.7-1.7-1.3-3.4-2-5.1-.4-1-1.8-.8-2.1.1-7.6 17.8-15.2 35.5-22.8 53.3-1.4 1.5-2.1 3.3-2.7 5.1zm-47.9 3c-2.3-6.2-4.6-12.4-6.8-18.6 1.2-.8 2.5-1.3 4-.1.5.3 1.1.1 1.4-.4 1.3-1.9 2.9-4.3 5.6-3 1.4.6 2.6 2.3 3.4 3.6-2.6 6.1-5.1 12.3-7.6 18.5zm38.5-10.8c-2 2.7-4 5.4-6.1 8.1-2.3 3-4.5 6.1-6.8 9.1.3-18.3.6-36.6 1-54.8 0-1.9.1-3.8.1-5.7 4.3 11.7 8.5 23.3 12.8 35 .6 1.6 1.2 3.2 1.8 4.9-1.2.8-2 2.2-2.8 3.4z"/>
            <path fill-rule="nonzero" d="M1162.1 352.8c4.8-8.6 8.7-18 12.8-27 2.3-4.9 4.5-9.8 6.8-14.7.6.7 1.2 1.4 1.6 1.9 1.6 2 3.1 4.1 4.7 6.1 2.2 2.8 4.3 5.6 6.5 8.4l.2.2c0 1.6-.1 3.2-.1 4.8-.1 6.2-.3 12.5-.3 18.7 0 1.5 2.3 1.8 2.3.3.2-22.7 1.1-45.4 1.9-68 0-1.2.1-2.4.1-3.6 2.9 8 5.9 15.9 8.8 23.9l-5.7 4.1c-.4.3-.6.9-.2 1.4.2.3.5.4.8.4.2 0 .4-.1.6-.2l5.2-3.8c2 5.4 4 10.9 6 16.3.8 2.3 1.7 4.6 2.5 6.9 0 .1.1.1.1.2-2.7 6.3-5.4 12.5-8 18.8-1.2 2.9-2.3 5.8-3.3 8.8-.3.9 1.1 1.3 1.5.5 3.6-6.8 6.4-14 9.4-21 4.6-10.8 9.3-21.7 13.9-32.5.1-.3.2-.5.3-.8v2.1l-.3 15.1c-.3 12.7-.5 25.4-.6 38.2 0 1.5 2.3 1.8 2.3.3.1-13.3.4-26.6.7-39.9l.3-15.2c0-1.1.1-2.1 0-3.2 6.4 16.8 12.9 33.5 19.3 50.3 1 2.6 2 5.1 3 7.7.5 1.4 2.6.5 2.1-.9-7-18.1-13.9-36.3-20.9-54.4-1-2.6-2-5.1-3-7.7-.4-1-1.8-.8-2.1.1-4.4 10.3-8.8 20.5-13.2 30.8-5.6-15.3-11.2-30.7-16.9-46-.8-2.3-1.7-4.6-2.5-6.9-.4-1-1.8-.8-2.1.1-4 8.7-8 17.4-11.9 26.1-6.4 14.1-12.9 28.1-19.3 42.2-1.6 3.6-3.2 7.1-4.5 10.8-.5.7.8 1.1 1.2.3zm32.1-69c.7-1.6 1.4-3.1 2.1-4.7-.1 1.3-.1 2.6-.2 3.9-.2 4.6-.3 9.1-.5 13.7-.3 9.2-.6 18.4-.9 27.5-1.7-2.3-3.5-4.5-5.2-6.8-1.6-2-3.1-4.1-4.7-6.1-.6-.7-1.3-2-2.1-2.8 3.9-8.2 7.7-16.5 11.5-24.7zM1118.8 331l2.7-11.1c1.8.3 3.7.2 5.6.2h40.3c.3 1.3.5 2.7.8 4 .3 1.5 2.6 1.1 2.3-.3-.3-1.5-.6-3.1-.9-4.6.1-.4.1-.9-.2-1.1-2.3-12.1-4.6-24.2-7-36.3l-.9-4.8h.3c1.5 0 1.8-2.3.3-2.3h-1c-1.4-7.1-2.7-14.3-4.1-21.4 0-.1 0-.3-.1-.5l-7.2-37.8c-.9-4.9-1.9-9.8-2.8-14.8 1.1-.3 2-1.3 2.3-2.5.5-2.1-1.2-4.5-3.4-4.6-2-.1-3.9 1.5-4 3.5-.1 1.8 1 3.1 2.5 3.7-3 14.4-6 28.8-9.1 43.2l-14.7 70.2c-1.2 5.6-2.3 11.2-3.2 16.9-.2 1.1 1.3 1.4 1.5.4zm46.5-22.2c.4 2.2.8 4.4 1.3 6.6-11.4-5.3-22.7-10.5-34.1-15.8-1.6-.7-3.1-1.6-4.8-2 1.9.2 3.9 0 5.8 0H1161.8c.6 0 1-.4 1.2-.9.8 4 1.5 8.1 2.3 12.1zm-3-15.6l-.2-.2c-5-2.9-10.1-5.9-15.1-8.9-3.4-2-6.9-4-10.3-6-.6-.3-1.2-.7-1.7-1.1.7 0 1.4-.1 2.1-.1h22.1c1 5.5 2.1 10.9 3.1 16.3zm-4.1-21.7c-3.3-2.7-6.7-5.3-10-8-2.6-2.1-5.3-4.2-7.9-6.3-1.3-1-2.5-2.2-3.9-2.8h18.6c1 5.7 2.1 11.4 3.2 17.1zm-5.7-29.4c.5 2.5.9 4.9 1.4 7.4-1.7-1.8-3.4-3.7-5.1-5.5-1.8-2-3.7-4-5.5-6-.3-.3-.7-.8-1-1.3 3 .1 6.2-.1 9.1-.1.4 1.7.7 3.6 1.1 5.5zm-8.2-45.1c.2-.7.7-1.5 1.6-1.4.9.1 1.6 1.2 1.2 2-.2.5-.6.8-1 .9-.1 0-.2-.1-.3-.1-.8-.1-1.8-.5-1.5-1.4zm-.9 18.9l2.1-10.2c1.8 9.5 3.6 19 5.5 28.5h-7.4c-1.2 0-2.7-.3-3.9 0-.1 0-.1.1-.2.1 1.3-6.1 2.6-12.3 3.9-18.4zm-4.4 20.7c.7 1.3 2.4 2.7 3.2 3.6 1.8 2 3.7 4 5.5 6 1.8 2 3.6 4 5.5 6H1143c-2.4 0-4.8-.1-7.1 0h-.1c1.1-5.3 2.2-10.5 3.2-15.6zm-4 19.1c1 1.5 2.7 2.5 4.1 3.7 2.7 2.1 5.3 4.3 8 6.4 3.7 3 7.5 5.9 11.2 8.9h.1H1133.2c-.6 0-1.4-.1-2.1 0 1.3-6.3 2.6-12.7 3.9-19zm-6.3 30c.6-2.9 1.2-5.9 1.9-8.8 1.7 1.8 4.4 2.9 6.5 4.1 3.4 2 6.7 3.9 10.1 5.9 4.5 2.7 9.1 5.3 13.6 8 .7.4 1.5 0 1.8-.6.1.4.2.9.3 1.3-.2-.2-.4-.3-.7-.3H1131.4c-1.5 0-3-.1-4.5.1.5-3.3 1.1-6.5 1.8-9.7zm-2.4 11.7c.1 0 .2 0 .3.1-.1 0-.3.1-.4.2.1-.1.1-.2.1-.3zm-.2 1.2c0 .1.1.2.2.2 1.3 1.1 2.9 1.8 4.5 2.5 3.3 1.5 6.5 3 9.8 4.5 7.1 3.3 14.1 6.5 21.2 9.8 1.6.7 3.1 1.5 4.7 2.2h-37.7c-2.2 0-4.5-.1-6.7.2 1.3-6.5 2.6-12.9 4-19.4z"/>
            <path d="M1312.6 429.4c.3-.4.7-.8 1-1.3.3-.4.7-.8 1-1.3.7-1.3-1-2.6-2.1-1.6-.3.3-.6.8-.9 1.1-.4.5-.8 1-1.1 1.4-.8 1.3 1.1 2.8 2.1 1.7zM1207.4 473.7c.2-.3.9-.9 1.3-1.4.4-.4.7-1 1-1.4 1-1.6-1.2-3-2.2-1.4-.2.4-.5.8-.7 1.2 0 .1-.1.2-.1.3-.1-.2-.3-.4-.4-.5-.6-.9-1.2-2.1-2.3-2.5-.6-.2-1.4.2-1.5.9 0 1.2.8 2.2 1.6 3.2.3.4.6.9 1 1.3.2.2.5.4.8.5-.1 0-.2-.3-.1-.1.4.6 1.2.6 1.6-.1zM1182.5 410.5c-1 .8-1.9 1.9-3 2.6-.3-.5-.7-.9-1-1.3-.6-.9-1.3-2.2-2.4-2.4-.5-.1-.9.3-1 .7-.2 1.2 1.1 2.6 1.8 3.5.5.7 1 1.8 1.9 2 .5.1 1.1-.2 1.3-.7.1-.5 2-1.2 2.4-1.5.5-.3.9-.7 1.3-1 1.2-1-.1-2.8-1.3-1.9zM1084.1 420.3c-.3-.7-1-1.1-1.8-.9-.6.2-1.2 1.1-.9 1.8.3.7.7 1.5 1.1 2.2 0 .2.1.3.2.5.3.8 1.2 1.2 2 .8.8-.4 1-1.3.5-2-.4-.8-.7-1.6-1.1-2.4zM1232.6 395.7c-.9 1.2-1.9 2.4-2.8 3.5l-.9-1.2c-1-1.3-3.1 0-2.2 1.3.7.9 1.3 1.8 2 2.6.4.6 1.4.9 2 .3 1.2-1.6 2.5-3.1 3.7-4.7.9-1.2-.8-3-1.8-1.8zM1086.5 398.2c-1.3-2.2-3.8-3.2-6.3-3-.9.1-1.8.5-2.6.2-.4-.1-.8-.8-1.2-1-1-.6-2.3-.8-3.5-.5-.5.1-1.2.7-1.6.7-1 .1-1.7-1-2.4-1.4-1.1-.6-2.5-.8-3.7-.6-2.4.4-4.2 1.9-5.4 3.9-3.1-2.4-7.4-.5-9.9 2.3-1 1.1.6 2.6 1.6 1.6 2-2.2 5.4-4.2 7.8-1.3.5.5 1.4.4 1.8-.2 1.2-2.3 3.6-4.9 6.5-3.8 2.1.8 2.2 2.5 4.6 1.7 1-.3 1.2-.7 2.3-.5 1.1.2 1.2.6 2 1.1.5.4 1 .5 1.6.5 2.5.1 4.8-1.4 6.6 1.4.6 1.2 2.5.1 1.8-1.1zM1262.4 425.7c.3.7 1.2 1.2 1.9.5.5-.5 1.8-2 2.5-1.9 1.2.2 1.8 1.3 2.2 2.2.4.9.6 1.6 1.3 2.4.4.4 1.2.5 1.6 0 1.5-1.8 4.4-2 5.9 0 .9 1.1 2.8 0 1.9-1.1-2-2.7-5.8-3.3-8.4-1.4-.8-1.6-.7-3.5-2.9-4.2-1.8-.5-3.3.3-4.6 1.4-2.6-3.6-8.1-3.4-10.1.7-3.9-1.7-9.1.9-12.2 3.2-1.1.9.4 2.5 1.6 1.6 2.6-2 7.5-4.5 10.6-2.3.6.4 1.5 0 1.6-.7 1-3.5 5.7-4 7.1-.4zM943.3 348.6c2.8-4.8 4.8-10.2 7-15.3 3.1-7.2 6.2-14.4 9.2-21.6v.4c-.1 3.6-.2 7.3-.2 10.9-.2 8.7-.3 17.5-.4 26.2 0 1.5 2.3 1.8 2.3.3.1-9.1.3-18.2.4-27.3.1-3.5.1-7 .2-10.6v-1.8c4.4 11.3 8.7 22.7 13.1 34 .7 1.8 1.4 3.7 2.1 5.5.5 1.4 2.6.5 2.1-.9-4.9-12.8-9.9-25.7-14.8-38.5-.7-1.8-1.4-3.7-2.1-5.5-.4-1-1.8-.8-2.1.1-5.3 12.3-10.5 24.6-15.8 37-.9 2.2-1.8 4.4-2.4 6.7-.4.7.9 1.1 1.4.4z"/>
            <path fill-rule="nonzero" d="M986.9 347.7c3.4-6.7 5.6-14.1 8.3-21.2 4-10.9 8.1-21.7 12.1-32.6.6-1.5 1.1-3 1.7-4.6 4.5 12.2 8.9 24.3 13.4 36.5.6 1.7 1.3 3.5 1.9 5.2-3.2 7.5-6.4 15.1-9.6 22.6-1.2 2.9-2.4 5.7-3.3 8.6-.3.9 1 1.3 1.5.5 3.7-6.7 6.4-14 9.4-21 4.6-10.8 9.3-21.7 13.9-32.5.7-1.6 1.4-3.3 2.1-4.9l13.5 35.7c.1.2.2.3.3.4-3.3 7.4-6.7 14.8-10 22.1-1 2.2-1.9 4.4-2.6 6.8-.3.9 1 1.2 1.5.5 2.9-4.8 5-10.1 7.3-15.3 3.4-7.6 6.9-15.1 10.3-22.7.4-.9.8-1.7 1.2-2.6 4.9 13.4 9.9 26.8 14.8 40.3.8 2.1 1.5 4.2 2.3 6.2.5 1.4 2.6.5 2.1-.9-3-8.3-6.1-16.6-9.1-24.9.1 0 .2-.1.3-.2 2-2.4 3-5.7 4.2-8.6.7-1.6 1.4-3.3 2.1-4.9 2.7 7.4 5.5 14.9 8.2 22.3.5 1.4 2.6.5 2.1-.9-.6-1.6-1.2-3.2-1.7-4.7 1.6-2.1 2.8-6.2 3.9-9l2.4-6c1.7 4.6 3.4 9.3 5.1 13.9-.9 2.3-1.9 4.6-2.8 6.9-1 2.4-1.8 4.7-2.5 7.1-.2.9 1 1.3 1.5.5 2.8-5 4.7-10.5 6.9-15.8.6-1.4 1.2-2.8 1.7-4.3.9.8 1.9 1.5 2.8 2.3.9.7 1.8 1.5 2.7 2.2 1.1.9 2.5-.9 1.4-1.9-.9-.7-1.8-1.5-2.7-2.3-1-.9-2.1-1.9-3.3-2.6 2.4-5.8 4.7-11.5 7.1-17.3.4-.9.7-1.7 1.1-2.6 4.8 13 9.5 26 14.3 39 .7 1.9 1.4 3.8 2.1 5.6-.6 1.4-1.2 2.8-1.8 4.1-1 2.4-2 4.8-2.7 7.4-.3.9 1 1.3 1.5.5 3-5.4 5.2-11.2 7.6-16.9 1.3-3 2.6-6.1 3.9-9.1l6.9 4.9-.3 19c0 1.5 2.3 1.8 2.3.3.1-11.3.3-22.5.6-33.8 0-2.1.1-4.3.2-6.4l11.4 36.9c.7 2.1 1.3 4.2 2 6.3.4 1.4 2.5.5 2.1-.9-4.5-14.5-9-29-13.4-43.5-.7-2.1-1.3-4.2-2-6.3-.3-1-1.8-.8-2.1.1-1.3 3-2.6 6.1-3.9 9.1-1-1.6-2.8-2.5-4.8-2.7.6-3-.6-6.3-3.6-7.6-3.2-1.5-7 .4-8.4 3.5-1.8-1.3-4.3-1.8-6.1-.6l-2.4-6.6c-.7-2-1.5-4-2.2-6-.4-1-1.8-.8-2.1.1-3.8 9.4-7.7 18.8-11.5 28.1-1.8-4.8-3.5-9.6-5.3-14.4-.4-1-1.8-.8-2.1.1-1.1 2.8-2.2 5.6-3.3 8.3-.9 2.2-2.3 4.7-3 7.2-2.1-5.7-4.2-11.5-6.3-17.2-.4-1-1.8-.8-2.1.1-1.2 2.7-2.3 5.3-3.5 8-1 2.2-2.4 4.6-3 7.1-1.9-5.3-3.9-10.6-5.8-15.9-.8-2.1-1.5-4.2-2.3-6.2-.4-1-1.8-.8-2.1.1-1.8 3.9-3.5 7.8-5.3 11.7-4.6-12.3-9.3-24.6-13.9-36.8-.4-1-1.8-.8-2.1.1-3.9 9-7.7 18.1-11.6 27.1-4.5-12.2-9-24.5-13.4-36.7l-2.1-5.7c-.4-1-1.8-.8-2.1.1l-19.8 53.1c-1 2.8-2 5.5-2.7 8.4-1 1 .3 1.5.7.7zm155.2-9.5c.1-.1.1-.3.2-.4-.1 3.2-.2 6.4-.2 9.6-.1 3.3-.1 6.7-.2 10l-6.1-4.4c2.1-4.9 4.2-9.8 6.3-14.8zm-20.5-2.1c.4.6 1.7.7 1.9-.2.5-2.5 3.1-4.8 5.8-3.9 2.6.9 3.5 4.1 2.3 6.4-.4.7.1 1.6.9 1.6 2.4-.2 4.4.9 4.7 3.4 0 .1.1.3.1.4-3.1 7.3-6.3 14.7-9.4 22-3.8-10.4-7.6-20.8-11.4-31.1 1.8-.3 3.7-.5 5.1 1.4z"/>
            <path d="M1016.2 390.6c1-.7 1.7-1.9 2.4-2.8 1-1.2-.8-3-1.8-1.8-.7.8-2.5 4-3.8 2.3-1-1.3-3.1 0-2.2 1.3 1.5 1.7 3.7 2.3 5.4 1zM1150.8 204.9c-1.1.7-.1 2.4 1 1.7 4.6-3 7-8.5 5.3-13.9-1.5-4.6-5.9-8.2-10.8-8.4-5.3-.3-10.2 3.2-12 8.2-1.9 5.3.3 10.8 4.8 13.9 1.1.7 2.1-1 1-1.7-8.2-5.6-4-18.9 6.1-18.3 4 .2 7.7 3.2 8.9 7 1.5 4.4-.5 9-4.3 11.5z"/>
            <path d="M1154.9 218.1c7.6-3.4 13-10.5 13.9-18.8 1-8.3-2.8-16.7-9.7-21.5-6.6-4.7-15-6-22.6-2.7-7.8 3.3-13.3 11-14.3 19.4-1.1 10 4.7 18.9 13.6 23.2 1.2.6 2.2-1.2 1-1.7-7.2-3.5-12.5-10.1-12.7-18.4-.2-7.7 3.9-15.2 10.4-19.2 13.7-8.6 32.2 2 32.4 18 .1 8.8-5.2 16.5-13.1 20-1.1.5-.1 2.2 1.1 1.7z"/>
            <path d="M1159.7 229.5c11.4-5.1 19.6-15.7 21.3-28.1 1.7-12.5-3.7-25.2-13.7-32.8-10.2-7.8-23.7-10-35.6-4.8-12.1 5.2-20.6 17.4-21.7 30.4-1.3 15 7.5 28.3 20.8 34.7 1.2.6 2.2-1.2 1-1.7-11.3-5.4-19.5-15.9-20-28.7-.5-12.2 6.1-24.3 16.5-30.7 10.5-6.5 23.9-6.3 34.3.1 10.3 6.3 16.9 17.3 16.6 29.6-.3 13.3-8.6 24.9-20.6 30.3-1 .5 0 2.2 1.1 1.7z"/>
            <path d="M1165.2 242.3c15.8-7 27.3-21.8 29.6-39 2.4-17.7-5.3-35.6-19.6-46.2-6.5-4.8-13.9-8.4-21.9-9.6-9-1.4-18.8-.2-27.2 3.5-16.6 7.2-28.4 24-30.1 42-.9 9.6 1.2 19.4 6 27.8 5.3 9.3 13.5 16.2 23 20.7 1.2.6 2.2-1.2 1-1.7-15.9-7.6-27.4-22.4-28.2-40.4-.7-17.4 8.6-34.4 23.3-43.5 14.7-9.1 33.8-9.1 48.4 0 14.4 9 23.9 24 23.7 41.3-.2 18.9-11.9 35.9-29.1 43.5-1.1.4 0 2.2 1.1 1.6zM162.2 119.5c6.3-5.6 3-16.7-5.8-16.9-8.9-.2-13.1 11.1-6.4 16.8 1 .8 2.4-.6 1.4-1.4-5.3-4.5-2.2-13.6 5-13.4 7.1.2 9.3 9.1 4.4 13.5-.9.8.5 2.2 1.4 1.4z"/>
            <path d="M163.2 128.4c12.1-5.5 14.3-22.4 3.2-30.3-11-7.8-26.4-.8-27.8 12.6-.8 7.5 3.6 14.1 10.2 17.4 1.3.6 2.4-1.3 1.1-1.9-6.5-3.2-10.5-9.9-8.8-17.2 1.7-7.3 8.5-12.5 16-12.1 6.9.4 12.9 6 14.1 12.7 1.3 7.2-2.8 13.9-9.2 16.9-1.2.6-.1 2.5 1.2 1.9z"/>
            <path d="M145.1 136.3c1.3.6 2.4-1.3 1.1-1.9-8.2-4-14.1-11.4-14.5-20.7-.4-9.1 4.6-18 12.4-22.6 15.8-9.4 36.6 3.1 36.6 21.2 0 9.9-6.1 18.6-15 22.6-1.3.6-.2 2.5 1.1 1.9 8.4-3.8 14.6-11.6 15.8-20.8 1.3-9.5-2.8-19.2-10.6-24.9-7.6-5.6-17.4-7.1-26.2-3.4-9 3.8-15.3 12.8-16.3 22.5-1.1 11.2 5.6 21.2 15.6 26.1zM24.4 442.5c105.5 1.3 211 4.5 316.1 13.5 84.5 7.2 168.7 17.9 252.5 31 74.7 11.6 149 25 223.6 37.5 74.8 12.5 149.8 23.8 225.2 31.9 88.5 9.5 177.4 14.7 266.4 15.8 12.3.1 24.6.1 36.9-.1 1.3 0 1.3-2.1 0-2.1-91.3-.9-182.5-4.4-273.5-13.2-77.2-7.5-154-18.4-230.6-31-74.2-12.1-148.2-25.5-222.4-37.4-81.2-13-162.6-24.1-244.5-31.9-101.9-9.8-204.2-14.8-306.5-15.7-14.4-.1-28.8.1-43.3.3-.8-.1-.8 1.4.1 1.4z"/>
            <path d="M1379.1 604.2c-99.8.8-199.4-1.7-298.8-11.4-83.4-8.1-166.2-20.8-248.5-36.2-76.9-14.4-153.4-30.9-230.1-46-81.7-16.1-163.8-30.5-246.5-41-99.6-12.7-199.9-20-300.3-21.9-14.3-.3-28.6-.2-42.9-.1-1 0-1 1.5 0 1.5 103.4 2.1 206.6 7.3 309.3 19 85.2 9.8 169.8 23.8 254 40 76.9 14.9 153.5 31.4 230.4 46.2 80.1 15.4 160.6 28.7 241.7 37.7 96.4 10.7 193.4 15.4 290.5 15 13.7-.1 27.5-.4 41.2-.7 1.3 0 1.3-2.1 0-2.1z"/>
            <path d="M1236.6 636.2c-84.5-2.9-168.8-8.2-252.6-19.9-66.9-9.4-133.1-22.6-198.9-37.9-64.2-14.9-128-31.3-192.3-46.1-76.5-17.6-153.5-32.6-231.1-44.3-102.8-15.5-206.4-25.5-310.2-31.8-15.7-1-31.5-1.5-47.3-2.2-1 0-1 1.4 0 1.5 109.7 7 219.2 15.6 328.1 30.8 79.4 11.1 158.3 25.7 236.6 43.2 65 14.5 129.5 31 194.3 46.4 64.8 15.4 130 29.2 195.9 39.3 79.4 12.2 159.6 19.1 239.9 22.1 12.5.5 25.1.7 37.6.9 1.4.1 1.3-2 0-2zM597.7 424.4c2.6-.2 5.1-.6 6.8-2.7.6-.8-.3-1.6-1.1-1.4-13.1 4.6-27.2-1-40.6 1.5-.9.2-.6 1.5.2 1.5 7.8-.3 15.5.4 23.3 1 3.8.3 7.6.4 11.4.1zM713.9 427.2c3.1 0 6.4.4 9.4-.2 1.1-.2.8-1.9-.1-2.1-2.8-.6-5.8-.2-8.7-.2-2.7 0-6.4-.6-8.9.7-.4.2-.5.9-.1 1.2 2.4 1.1 5.8.6 8.4.6zM668 412.5c.9.2 1.8.5 2.7.1.7-.3.7-1.1.2-1.5-.7-.7-1.9-.5-2.8-.7-.8-.1-1.7-.2-2.6-.2-1.1-.1-1.4 1.5-.3 1.7 1 .3 1.9.5 2.8.6zM785 419.8c.8-.2 1.1-1.5.2-1.8-3.2-.9-7.2-.3-10.4.5-.4.1-.5.7 0 .8 2.9.7 7.1 1.3 10.2.5zM823.8 437.4c.6-.5.3-1.6-.5-1.6-1.5 0-2.7.5-4.2.6-.8.1-1.6.1-2.3.1-.9 0-1 1.2-.2 1.5 2.2.7 5.3 1 7.2-.6zM866 420.2c4.1.3 8.3 1.3 12.4 1.5 1.2.1 2-1.8.6-2.3-4.3-1.3-9.3-1.5-13.8-1.7-4.6-.3-9.1.5-13.7.8-.4 0-.4.8 0 .7 4.9-.2 9.7.7 14.5 1zM460.7 446.1c1.2.2 2.5-.2 3.7-.2 1.6-.1 3.1 0 4.6.2 2.7.4 5.3 1 8 1.5 4.2.8 9.9 1.9 13.8-.6.9-.6.5-2-.6-1.8-2.4.5-4.7 1-7.2.9-2.6-.1-5.3-.7-7.8-1.2-2.6-.5-5.1-1-7.8-1.1-2.2-.1-5.2-.2-6.9 1.2-.4.4-.3 1.1.2 1.1zM465.8 427.3c.9.1 1.8.5 2.8.6.6.1 1-.7.5-1-1.7-1.2-4.2-1.1-6.1-.9-.8.1-.6 1.3.2 1.2.7 0 1.6 0 2.6.1zM656.9 465.8c-.5 0-.7.8-.2 1 4.8 1.9 10.6 2 15.7 2.4 5.4.4 10.8.7 16.2.7 5 0 10-.2 15-.3 6.3-.2 11.9.7 18 2.2.9.2 1.2-.9.6-1.4-3.8-2.7-9.1-3.2-13.6-3.3-5.4-.1-10.9.3-16.3.4-5.7.1-11.4-.1-17.1-.4-2.9-.2-5.8-.4-8.7-.7-3.2-.3-6.5-.9-9.6-.6zM814.5 493.3c4 .5 8 .5 11.9.4 3.6-.1 7.6.2 11.1-.9 1-.3 1-1.8-.1-1.9-3.4-.3-7 .5-10.4.7-4.1.3-8.3.3-12.4.5-.7.1-.7 1.1-.1 1.2zM952.7 479.1c-1.8.2-3.6 1-5.5 1.1-2.2.2-4.4-.1-6.5-.8-3.1-1.1-5.6-3.5-8.9-4.1-3.5-.7-6.4 1.4-9.6 2.5-2 .7-4.1 1.1-6.2 1.2-2.5.1-4.9-.8-7.4-.6-.5 0-.7.7-.3 1 2.9 2.4 8.6 2.1 12.1 1.3 3.9-.8 7.9-4.2 11.9-2.8 3.6 1.2 6.3 3.7 10.2 4.5 3.4.6 8.1.6 10.9-1.7.9-.6.2-1.7-.7-1.6zM943.8 516.3c4.3.8 8.8.4 13.1.4h5.9c1.8 0 3.8.2 5.5-.4.7-.3.7-1.3 0-1.5-1.8-.6-3.7-.3-5.5-.3-2.1 0-4.1.1-6.2.1-4.2.1-8.6-.2-12.7.7-.5.2-.5.9-.1 1zM760 460.5c2.3-.1 3.2.6 5 1.5 2 1.1 4.5 1.7 6.6.6.7-.3.3-1.3-.3-1.3-1.7-.2-3.3 0-4.9-.7-1.1-.5-2-1.5-3.2-1.9-2.6-.9-6.5.3-9.1.8-.9.2-.6 1.6.2 1.5 1.9 0 3.8-.4 5.7-.5zM574.4 444.6c-.4-.4-1-.1-1.3.2-1.6 1.6-3.5 2.4-5.7 2.5-.9.1-1 1.4 0 1.5 2.5.2 4.7-.7 6.5-2.2 2.8 2.4 7.2 4.3 10.8 2.8.8-.3.7-1.5-.2-1.5-4.1-.1-7.1-.3-10.1-3.3zM981.3 448.5c3.2 1 5.5-2.5 8.6-1 2.4 1.2 4.8 2.7 7.2.5.5-.4 0-1.5-.6-1.3-2.1.4-3.3.6-5.2-.5-.9-.5-1.7-1.1-2.8-1.1-2.5-.1-4.4 2.5-6.9 2.1-.7-.1-1 1.1-.3 1.3zM1085 502.3c-.9-.5-1.7-1.1-2.8-1.1-2.5-.1-4.4 2.5-6.9 2.1-.7-.1-1 1-.3 1.3 3.2 1 5.5-2.5 8.6-1 2.4 1.2 4.8 2.7 7.2.5.5-.4 0-1.5-.6-1.3-2.1.4-3.3.6-5.2-.5zM1008.7 427.2c19.8 6.3 38.6 15.6 55.5 27.8 7.9 5.7 15.1 11.8 24.9 13.5 5 .9 10.2 1.1 14.9 3.2 3.7 1.7 6.9 4.3 9.8 7.2 5.7 5.6 10.3 12.3 16.7 17.3 7.4 5.8 16.5 7.4 25.5 9 18.5 3.4 35.1 11.7 51.7 20.3 17.5 9 36.4 19.3 56.5 20 1.3.1 1.6-1.9.3-2.1-9.3-1.1-18.2-3.3-27-6.6-8.5-3.2-16.7-7.3-24.8-11.5-16-8.2-32-17.1-49.7-21.2-9.5-2.2-19.9-2.7-28.4-7.9-6.9-4.3-11.7-11-17.1-16.8-5.8-6.2-12.1-10.7-20.5-12.1-5.3-.9-10.7-1.3-15.6-3.6-4.3-2-8.1-4.9-11.9-7.7-18.2-13.6-38.4-24.2-60.1-30.9-1.2-.3-2 1.6-.7 2.1zM1251.5 494.8c-.1-.3-.2-.5-.3-.8-.1-.4-.1-1-.3-1.4-.1-.3-.3-.5-.5-.7-.1-.1-.2-.1-.2-.1-.5-.7-1.7-.8-2 .2-.2.6-.5.8-.5 1.5 0 .6.3 1.3.4 1.8.4 1.2.9 2.3 1.5 3.4.6 1 2.1.8 2.7 0 1.3-1.7 3.2-2.7 4.6-4.2.4-.5.3-1.5-.5-1.5-1.9-.2-3.5.7-4.9 1.8zM1143.8 439.4c.1-1-.7-1.2-1.5-1-.7.1-1.1.5-1.8.5-.4 0-.8 0-1.2-.2-1-.4-1.4-1.2-2.3-1.7-.3-.2-.7 0-.9.3-.7 1.1-.4 2.2.5 3.2.6.7 1.5 1.2 2.5 1.4 1.8.3 4.4-.5 4.7-2.5zM1156.7 483.1c-.2-.3-.5-.5-.8-.7-.5-.4-1-.7-1.5-1-.8-.5-1.8-.5-2.4.3-.6.7-.4 1.8.3 2.4.5.4 1 .7 1.5 1.1l.9.6c.3.1.6.1.9.1.3-.1.6-.2.9-.2.6.2 1-.6.7-1-.1-.2-.1-.5-.1-.7-.1-.4-.2-.6-.4-.9zM1320.3 484.9c.7 0 1.2-.7 1.2-1.4v-1.4c0-.7-.1-1.2-.7-1.7-.4-.3-.9-.3-1.2 0-.8.6-.7 1.2-.7 2v1.2c.1.8.8 1.3 1.4 1.3zM480.9 406.6c-8.4-1.8-17-1.2-25 1.8-4.4 1.7-7.9 3.7-12.8 3.3-4.2-.4-8-.9-12.3-.2-9 1.5-17.9 4.8-26.6 7.4-8.9 2.6-17.7 5.2-26.6 7.9-4.9 1.5-9.8 2.8-14.7 4.4-3.8 1.2-7.5 2.6-10.1 5.7-.7.8.3 1.9 1.1 1.2 6.4-4.9 15.4-6.3 23-8.5 8.7-2.5 17.3-4.9 26-7.5 8.7-2.6 17.5-5.7 26.4-7.5 4.4-.9 8.4-.7 12.9-.3 3.8.4 7-.2 10.4-1.8 9-4 18.2-6 28-4.8.9.2 1.1-1 .3-1.1zM192.2 509.8c-.8.6-1.5 1.5-2.1 2.3-.9-1.2-1.7-2.3-2.6-3.5-.7-.9-2 .1-1.4 1 1.1 1.5 2.1 3 3.2 4.5.3.4 1 .4 1.3.1 1.1-1 2.6-2.3 2.7-3.8.1-.5-.7-.9-1.1-.6zM103.9 531.9c-.4-.2-.6-.3-.8-.7-.3-.4-.5-.7-.8-1.1-.7-.8-1.4-1.6-1.9-2.4-.8-1.4-3.1-.2-2.2 1.1.6.9 1.3 1.7 2.2 2.4.5.4 1.1.8 1.7.9.3.1.5 0 .8 0 .3 0 .6.2.9.3.2.2.4-.4.1-.5zM287.1 547.4c-1.9 1-3.4 2.6-4.5 4.5-.2.3-2.1 4.4-.5 4 1.2-.2 1.7-2.1 2.3-3 1-1.5 2.4-2.5 3.8-3.5 1-.8 0-2.7-1.1-2zM173.5 605.8c-1 .4-1.6 1.4-2.5 1.9-.7.3-2.2.3-2.1-.8.1-1-1.3-1.4-1.6-.3-.5 1.8 1.2 3.3 2.9 3.4 1.7.2 4-1.5 4.5-3.2 0-.7-.6-1.2-1.2-1zM371.1 567.9c-1 .6-1.4 1.9-2.3 2.6-1 .8-2.3 1.3-3.6 1.5-1.1.1-1 1.9.1 1.9 1.7 0 3.2-.5 4.5-1.4 1.2-.8 2.8-2.4 2.6-3.9 0-.8-.7-1.1-1.3-.7zM478.2 640.5c-.6-.7-1.7-.1-1.7.7-.1 1.6-.1 3.3-.1 4.9-3.7-1-7.4-2-11.2-2.9-.9-.2-1.6.8-1.2 1.6 1.7 2.8 3.7 5.2 6.3 7.2 1 .8 2.5-.6 1.5-1.5-1.6-1.4-3.1-2.9-4.3-4.5 3.2.8 6.4 1.7 9.7 2.5.7.2 1.3-.3 1.3-1 0-1.2 0-2.4.1-3.6 1.2 1.3 2.5 2.7 3.7 4 .6.6 1.5-.2 1-.9-1.7-2.2-3.4-4.4-5.1-6.5zM1298.9 520.5c-2 1.9-4 3.7-5.6 5.9-.3.4.2.9.6.6 1.8-1.1 3.3-2.5 4.9-3.9.2 1 .6 2 1.3 3 .2.3.6.4.9.3 2.2-.2 4.2-.8 6.2-1.7-.7 1.2-1.6 2.2-2.9 3-.9.6.1 2.1 1 1.6 2.5-1.4 4-3.7 4.5-6.4.1-.7-.8-1.3-1.4-.9-1.5.9-3.1 1.6-4.8 2.1-.5.1-1.7.6-2.1.4-1-.3-1.1-2.4-1.1-3.2 0-.7-.9-1.4-1.5-.8zM578.9 589.7c-1.8-.6-3.4-1.6-4.5-3.1-.6-.8-2-3.3-3-1.4-.8 1.6 1.3 3.6 2.4 4.5 1.4 1.2 3 1.9 4.8 2.1 1.3.1 1.3-1.7.3-2.1zM50.2 568.3l-3.6-.3c-.1-3-.2-6-.3-8.9 0-.9-.9-1.2-1.6-.9-1.8.9-2.6 2.6-3.2 4.4-.3 1.1-.4 2.4-1 3.4-.4.8-2.2 2.4-3.2 1.8-.2-.3-.5-.6-.7-.8-.7-.8-2 .1-1.7 1 .3 1 1 1.6 1.8 1.9.5.5 1 .9 1.5 1.4.6.6 1.8-.2 1.2-1-.1-.2-.3-.3-.4-.5.6-.2 1.2-.5 1.7-.8 2.4-1.8 2.2-5.4 3.6-7.6.1 2.5.2 5 .3 7.6 0 .6.5 1 1 1l3.3.3-.6 2.7c-.2 1.1 1.5 1.4 1.8.4.4-1.2.7-2.5 1.1-3.7.1-.8-.3-1.4-1-1.4z"/>
        </g>
        <g transform="translate(1245 106.067)">
            <mask id="b" fill="#fff">
                <use xlink:href="#a"/>
            </mask>
            <path fill="#010101" d="M2.1 14.995a5.581 5.581 0 0 1 .818-2.035C5.372 9.181 10.72 7.478 14.81 6.331c11.685-3.277 24.37-3.1 36.339-1.836 10.846 1.145 21.392 3.233 31.36 7.771 2.882 1.312 5.87 2.778 8.56 4.58-29.664-.136-59.301-1.824-88.968-1.85m76.868 8.165c-27.664 7.55-40.657 6.968-42.481 6.968-7.593.001-23.485-.28-31.49-8.054-1.433-1.393-2.6-3.2-2.911-5.096 29.183.027 58.337 1.658 87.517 1.84-3.832 1.612-7.082 3.372-10.635 4.342m7.21 7c-1.538.176-3.074.371-4.61.57-.377.048-.762.121-1.141.147-.59-.188-1.171-.454-1.745-.675l-6.531-2.51-.49-.188c5.363-1.427 10.62-3.187 15.693-5.314a500.008 500.008 0 0 1-1.176 7.97m-34.512 6.83l-11.813-.14c-.46-1.505-.86-3.046-1.4-4.525a161.16 161.16 0 0 0 14.918-1.24c-.77 1.853-1.188 4.027-1.705 5.905M79.394 3.708c.582-.214 1.162-.438 1.748-.642.218.016.44.038.652.07 1.566.224 3.159.356 4.74.486.428 2.982.823 5.966 1.2 8.954a107.423 107.423 0 0 0-3.401-1.662c-3.931-1.842-8.007-3.37-12.161-4.635 2.34-.828 5.016-1.762 7.222-2.57m15.535 13.375c-1.57-1.265-3.292-2.37-5.073-3.374 0-.043.016-.074.01-.12a552.066 552.066 0 0 1-1.29-11.036c-.047-.445-.38-.938-.863-.998-2.876-.36-5.817-1.136-8.566-.118l-6.37 2.358-2.881 1.067c-.317.117-.65.217-.96.353l-.147.067c-5.262-1.487-10.53-2.732-15.998-3.346C39.384.434 24.658.798 11.765 5.177c-3.91 1.328-8.434 3.26-10.68 6.947-1.878 3.082-1.15 6.724.894 9.526 2.97 4.072 7.977 6.36 12.644 7.85 6.8 2.17 14.378 3.103 21.547 2.741.483 1.995 1.338 3.924 1.975 5.866.14.426.509.73.965.735L52.42 39c.45.005.834-.316.964-.734.724-2.338 1.976-4.983 2.297-7.493a144.345 144.345 0 0 0 12.465-2.384c3.527 1.37 7.11 2.855 10.67 4.233 2.574.996 5.693-.016 8.359-.416.434-.065.937-.352.994-.844.4-3.372.856-6.736 1.324-10.099a104.443 104.443 0 0 0 5.289-2.513c.584-.3.645-1.265.147-1.666" mask="url(#b)"/>
        </g>
        <path fill="#010101" d="M1288.61 141.109l.009-1.566c.004-.823-1.981-.833-1.985-.011l-.008 1.566c-.003.625.47.777.957.793.506.017 1.024-.13 1.027-.782M1291.84 141.202c.022-.523.086-1.048.016-1.567-.136-1.01-1.883-.792-1.984-.01-.067.518.006 1.043-.017 1.566-.03.638.48.74.976.741.496.002.98-.093 1.008-.73M1295.135 141.272v-1.637c0-.629-.504-.82-.992-.833-.504-.013-.992.173-.992.822v1.637c0 .658.537.866 1.047.85.482-.017.937-.219.937-.839"/>
    </g>
</svg>
