<svg width="1556" height="640" viewBox="0 0 1556 640" fill="none" xmlns="http://www.w3.org/2000/svg">
<rect width="1556" height="640" rx="71" fill="white"/>
<path d="M407.954 303C407.107 303 406.388 302.704 405.795 302.111C405.202 301.518 404.906 300.799 404.906 299.952V217.275C404.906 216.344 405.16 215.582 405.668 214.989C406.261 214.396 407.023 214.1 407.954 214.1H440.847C451.176 214.1 459.262 216.513 465.104 221.339C471.031 226.165 473.994 233.023 473.994 241.913C473.994 248.094 472.47 253.301 469.422 257.534C466.459 261.683 462.31 264.688 456.976 266.551L475.518 298.936C475.772 299.444 475.899 299.91 475.899 300.333C475.899 301.095 475.603 301.73 475.01 302.238C474.502 302.746 473.909 303 473.232 303H461.675C460.32 303 459.262 302.704 458.5 302.111C457.823 301.518 457.188 300.672 456.595 299.571L440.212 269.472H422.559V299.952C422.559 300.799 422.263 301.518 421.67 302.111C421.162 302.704 420.442 303 419.511 303H407.954ZM440.466 255.121C445.546 255.121 449.356 253.978 451.896 251.692C454.521 249.406 455.833 246.104 455.833 241.786C455.833 237.468 454.521 234.124 451.896 231.753C449.356 229.382 445.546 228.197 440.466 228.197H422.559V255.121H440.466ZM513.998 304.27C504.6 304.27 497.107 301.561 491.519 296.142C486.016 290.639 483.095 282.934 482.756 273.028L482.629 269.853L482.756 266.678C483.179 257.026 486.143 249.448 491.646 243.945C497.234 238.442 504.685 235.69 513.998 235.69C523.989 235.69 531.693 238.738 537.112 244.834C542.615 250.93 545.367 259.058 545.367 269.218V271.885C545.367 272.732 545.071 273.451 544.478 274.044C543.885 274.637 543.123 274.933 542.192 274.933H500.028V275.949C500.197 280.606 501.467 284.543 503.838 287.76C506.293 290.893 509.638 292.459 513.871 292.459C518.866 292.459 522.888 290.512 525.936 286.617C526.698 285.686 527.291 285.093 527.714 284.839C528.222 284.585 528.942 284.458 529.873 284.458H540.795C541.557 284.458 542.192 284.712 542.7 285.22C543.293 285.643 543.589 286.194 543.589 286.871C543.589 288.903 542.361 291.316 539.906 294.11C537.535 296.819 534.106 299.19 529.619 301.222C525.132 303.254 519.925 304.27 513.998 304.27ZM528.095 264.265V263.884C528.095 258.889 526.825 254.867 524.285 251.819C521.83 248.771 518.401 247.247 513.998 247.247C509.595 247.247 506.166 248.771 503.711 251.819C501.256 254.867 500.028 258.889 500.028 263.884V264.265H528.095ZM577.319 303C576.049 303 575.076 302.746 574.398 302.238C573.721 301.645 573.171 300.841 572.747 299.825L548.998 240.897L548.744 239.754C548.744 238.992 548.998 238.357 549.506 237.849C550.099 237.256 550.776 236.96 551.538 236.96H561.825C563.434 236.96 564.535 237.764 565.127 239.373L582.018 283.95L598.909 239.373C599.163 238.78 599.544 238.23 600.052 237.722C600.645 237.214 601.365 236.96 602.211 236.96H612.625C613.303 236.96 613.895 237.256 614.403 237.849C614.996 238.357 615.292 238.992 615.292 239.754C615.292 240.262 615.25 240.643 615.165 240.897L591.289 299.825C590.866 300.841 590.316 301.645 589.638 302.238C588.961 302.746 587.987 303 586.717 303H577.319ZM626.877 226.038C626.031 226.038 625.311 225.742 624.718 225.149C624.126 224.556 623.829 223.837 623.829 222.99V213.846C623.829 212.999 624.126 212.28 624.718 211.687C625.311 211.094 626.031 210.798 626.877 210.798H638.434C639.281 210.798 640.001 211.094 640.593 211.687C641.271 212.28 641.609 212.999 641.609 213.846V222.99C641.609 223.837 641.313 224.556 640.72 225.149C640.128 225.742 639.366 226.038 638.434 226.038H626.877ZM627.385 303C626.539 303 625.819 302.704 625.226 302.111C624.634 301.518 624.337 300.799 624.337 299.952V240.008C624.337 239.161 624.634 238.442 625.226 237.849C625.819 237.256 626.539 236.96 627.385 236.96H637.926C638.858 236.96 639.577 237.256 640.085 237.849C640.678 238.357 640.974 239.077 640.974 240.008V299.952C640.974 300.799 640.678 301.518 640.085 302.111C639.577 302.704 638.858 303 637.926 303H627.385ZM683.732 304.27C674.334 304.27 666.841 301.561 661.253 296.142C655.749 290.639 652.828 282.934 652.49 273.028L652.363 269.853L652.49 266.678C652.913 257.026 655.876 249.448 661.38 243.945C666.968 238.442 674.418 235.69 683.732 235.69C693.722 235.69 701.427 238.738 706.846 244.834C712.349 250.93 715.101 259.058 715.101 269.218V271.885C715.101 272.732 714.804 273.451 714.212 274.044C713.619 274.637 712.857 274.933 711.926 274.933H669.762V275.949C669.931 280.606 671.201 284.543 673.572 287.76C676.027 290.893 679.371 292.459 683.605 292.459C688.6 292.459 692.622 290.512 695.67 286.617C696.432 285.686 697.024 285.093 697.448 284.839C697.956 284.585 698.675 284.458 699.607 284.458H710.529C711.291 284.458 711.926 284.712 712.434 285.22C713.026 285.643 713.323 286.194 713.323 286.871C713.323 288.903 712.095 291.316 709.64 294.11C707.269 296.819 703.84 299.19 699.353 301.222C694.865 303.254 689.658 304.27 683.732 304.27ZM697.829 264.265V263.884C697.829 258.889 696.559 254.867 694.019 251.819C691.563 248.771 688.134 247.247 683.732 247.247C679.329 247.247 675.9 248.771 673.445 251.819C670.989 254.867 669.762 258.889 669.762 263.884V264.265H697.829ZM742.215 303C741.114 303 740.225 302.746 739.548 302.238C738.955 301.645 738.447 300.841 738.024 299.825L719.863 240.897C719.778 240.643 719.736 240.262 719.736 239.754C719.736 238.992 719.99 238.357 720.498 237.849C721.091 237.256 721.726 236.96 722.403 236.96H731.801C732.732 236.96 733.494 237.214 734.087 237.722C734.68 238.23 735.061 238.78 735.23 239.373L747.676 281.41L760.884 239.754C761.138 238.992 761.561 238.357 762.154 237.849C762.831 237.256 763.678 236.96 764.694 236.96H771.044C772.06 236.96 772.864 237.256 773.457 237.849C774.134 238.357 774.6 238.992 774.854 239.754L788.062 281.41L800.508 239.373C800.593 238.78 800.931 238.23 801.524 237.722C802.201 237.214 802.963 236.96 803.81 236.96H813.208C813.97 236.96 814.605 237.256 815.113 237.849C815.706 238.357 816.002 238.992 816.002 239.754L815.748 240.897L797.587 299.825C797.248 300.841 796.74 301.645 796.063 302.238C795.47 302.746 794.624 303 793.523 303H785.268C783.067 303 781.67 301.942 781.077 299.825L767.869 259.693L754.661 299.825C753.984 301.942 752.544 303 750.343 303H742.215ZM873.961 304.27C866.171 304.27 860.033 301.73 855.546 296.65C851.058 291.485 848.815 284.5 848.815 275.695V240.008C848.815 239.161 849.111 238.442 849.704 237.849C850.296 237.256 851.016 236.96 851.863 236.96H863.039C863.97 236.96 864.69 237.256 865.198 237.849C865.79 238.357 866.087 239.077 866.087 240.008V274.933C866.087 285.432 870.701 290.681 879.93 290.681C884.332 290.681 887.804 289.284 890.344 286.49C892.968 283.696 894.281 279.844 894.281 274.933V240.008C894.281 239.161 894.577 238.442 895.17 237.849C895.762 237.256 896.482 236.96 897.329 236.96H908.505C909.436 236.96 910.156 237.256 910.664 237.849C911.256 238.357 911.553 239.077 911.553 240.008V299.952C911.553 300.799 911.256 301.518 910.664 302.111C910.156 302.704 909.436 303 908.505 303H898.218C897.371 303 896.651 302.704 896.059 302.111C895.466 301.518 895.17 300.799 895.17 299.952V294.745C890.428 301.095 883.359 304.27 873.961 304.27ZM950.808 304.27C944.458 304.27 939.124 303.339 934.806 301.476C930.488 299.529 927.27 297.285 925.154 294.745C923.122 292.12 922.106 289.877 922.106 288.014C922.106 287.167 922.402 286.49 922.995 285.982C923.587 285.474 924.265 285.22 925.027 285.22H935.06C935.822 285.22 936.457 285.516 936.965 286.109C937.303 286.363 938.192 287.125 939.632 288.395C941.071 289.75 942.764 290.808 944.712 291.57C946.659 292.332 948.818 292.713 951.189 292.713C954.575 292.713 957.369 292.036 959.571 290.681C961.772 289.326 962.873 287.464 962.873 285.093C962.873 283.315 962.365 281.876 961.349 280.775C960.417 279.674 958.682 278.701 956.142 277.854C953.602 276.923 949.834 275.949 944.839 274.933C937.642 273.409 932.308 271.081 928.837 267.948C925.45 264.815 923.757 260.667 923.757 255.502C923.757 252.115 924.773 248.94 926.805 245.977C928.837 242.929 931.842 240.474 935.822 238.611C939.886 236.664 944.712 235.69 950.3 235.69C955.972 235.69 960.883 236.621 965.032 238.484C969.18 240.262 972.313 242.421 974.43 244.961C976.631 247.416 977.732 249.618 977.732 251.565C977.732 252.327 977.435 253.004 976.843 253.597C976.335 254.105 975.7 254.359 974.938 254.359H965.54C964.862 254.359 964.143 254.063 963.381 253.47C962.788 253.047 961.857 252.242 960.587 251.057C959.317 249.872 957.835 248.94 956.142 248.263C954.448 247.586 952.459 247.247 950.173 247.247C947.04 247.247 944.585 247.924 942.807 249.279C941.113 250.634 940.267 252.412 940.267 254.613C940.267 256.222 940.69 257.534 941.537 258.55C942.383 259.566 944.034 260.54 946.49 261.471C948.945 262.402 952.628 263.334 957.539 264.265C965.667 265.874 971.466 268.371 974.938 271.758C978.494 275.145 980.272 279.293 980.272 284.204C980.272 290.131 977.689 294.957 972.525 298.682C967.36 302.407 960.121 304.27 950.808 304.27ZM1046.53 304.27C1036.63 304.27 1028.96 301.73 1023.55 296.65C1018.13 291.485 1015.21 284.458 1014.78 275.568L1014.66 269.98L1014.78 264.392C1015.21 255.587 1018.17 248.602 1023.67 243.437C1029.18 238.272 1036.8 235.69 1046.53 235.69C1056.27 235.69 1063.89 238.272 1069.39 243.437C1074.9 248.602 1077.86 255.587 1078.28 264.392C1078.37 265.408 1078.41 267.271 1078.41 269.98C1078.41 272.689 1078.37 274.552 1078.28 275.568C1077.86 284.458 1074.94 291.485 1069.52 296.65C1064.1 301.73 1056.44 304.27 1046.53 304.27ZM1046.53 291.697C1051.02 291.697 1054.49 290.3 1056.95 287.506C1059.4 284.627 1060.76 280.436 1061.01 274.933C1061.1 274.086 1061.14 272.435 1061.14 269.98C1061.14 267.525 1061.1 265.874 1061.01 265.027C1060.76 259.524 1059.4 255.375 1056.95 252.581C1054.49 249.702 1051.02 248.263 1046.53 248.263C1042.05 248.263 1038.57 249.702 1036.12 252.581C1033.66 255.375 1032.31 259.524 1032.05 265.027L1031.93 269.98L1032.05 274.933C1032.31 280.436 1033.66 284.627 1036.12 287.506C1038.57 290.3 1042.05 291.697 1046.53 291.697ZM1092.99 303C1092.14 303 1091.42 302.704 1090.83 302.111C1090.24 301.518 1089.94 300.799 1089.94 299.952V240.008C1089.94 239.161 1090.24 238.442 1090.83 237.849C1091.42 237.256 1092.14 236.96 1092.99 236.96H1103.4C1104.25 236.96 1104.97 237.256 1105.56 237.849C1106.15 238.442 1106.45 239.161 1106.45 240.008V245.215C1111.45 238.865 1118.52 235.69 1127.66 235.69C1135.45 235.69 1141.63 238.272 1146.2 243.437C1150.77 248.517 1153.06 255.46 1153.06 264.265V299.952C1153.06 300.799 1152.76 301.518 1152.17 302.111C1151.66 302.704 1150.94 303 1150.01 303H1138.84C1137.99 303 1137.27 302.704 1136.68 302.111C1136.08 301.518 1135.79 300.799 1135.79 299.952V265.027C1135.79 260.032 1134.56 256.179 1132.11 253.47C1129.73 250.676 1126.26 249.279 1121.69 249.279C1117.2 249.279 1113.65 250.676 1111.02 253.47C1108.48 256.264 1107.21 260.116 1107.21 265.027V299.952C1107.21 300.799 1106.92 301.518 1106.32 302.111C1105.82 302.704 1105.1 303 1104.17 303H1092.99Z" fill="black"/>
<path d="M552.052 407.711C555.501 403.675 557.719 399.454 557.719 394.986C557.719 387.499 551.529 382.753 543.954 382.753C536.902 382.753 531.051 387.314 529.942 394.986L519.626 392.49C521.597 379.919 531.851 372 543.892 372C557.411 372 568.158 381.213 568.158 394.893C568.158 402.381 564.709 409.19 559.72 414.952C549.743 426.568 549.496 427 538.718 439.725H568.404V450.386H520.55V445.826L552.052 407.711Z" fill="black"/>
<path d="M520.735 502.643L520.827 463.728H605.204C606.066 469.151 606.497 474.758 606.497 480.335C606.497 539.217 558.581 587.13 499.764 587.13C440.916 587.223 393 539.31 393 480.428C393 421.546 440.916 373.633 499.733 373.633V411.316C461.641 411.316 430.661 442.313 430.661 480.428C430.661 518.542 461.641 549.539 499.733 549.539C530.004 549.539 555.902 529.912 565.202 502.643H520.735ZM685.454 475.775C685.454 447.644 687.178 436.182 691.828 429.31C697.679 420.714 708.95 415.969 723.67 415.969C736.665 415.969 747.504 419.759 753.263 426.568C757.636 431.375 759.453 438.092 759.453 448.691V455.069H735.618C735.279 443.022 734.94 440.865 733.216 438.277C731.337 435.35 727.704 433.532 723.331 433.532C718.588 433.532 714.739 435.596 713.107 438.708C710.705 443.515 709.997 452.389 709.997 475.621C709.997 494.817 710.859 506.002 712.399 510.747C713.785 514.691 717.726 516.94 722.992 516.94C732.292 516.94 734.848 512.195 735.649 494.478H759.391C759.206 509.453 758.344 515.554 755.172 521.408C750.799 529.85 739.251 534.565 722.653 534.565C703.315 534.565 691.613 527.416 687.733 513.643C686.224 508.066 685.454 494.54 685.454 475.775ZM773.125 417.787H810.017C827.724 417.787 830.926 418.465 837.116 423.456C842.628 428.016 845.369 435.504 845.369 446.596C845.369 455.901 843.49 463.05 839.857 467.856C836.746 472.078 832.989 473.896 824.891 475.683C840.288 477.562 845.615 484.803 845.8 504.184C845.8 507.296 846.139 513.643 846.477 521.562C846.816 527.077 847.001 528.094 848.356 532.932H822.981C821.934 525.444 821.934 525.259 821.934 511.147C821.934 497.282 820.887 490.411 818.147 487.299C816.268 485.234 814.205 484.711 808.077 484.711H796.56V532.993H773.064L773.125 417.787ZM806.229 467.702C816.976 467.702 820.856 463.142 820.856 451.095C820.856 444.716 819.132 439.571 816.299 437.075C814.236 435.35 812.696 435.011 806.845 435.011H796.437V467.702H806.229ZM860.335 475.19C860.335 448.322 861.536 439.047 866.186 430.943C871.698 421.053 883.123 415.969 899.382 415.969C917.366 415.969 929.56 422.686 934.303 435.319C936.705 441.512 937.752 453.652 937.752 475.775C937.752 499.963 936.551 511.394 933.194 517.957C927.682 528.895 915.919 534.75 899.567 534.75C883.215 534.75 871.944 529.758 866.278 519.775C861.628 511.764 860.335 502.212 860.335 475.19V475.19ZM899.043 517.002C906.188 517.002 910.406 513.551 911.854 506.772C912.716 502.397 913.393 487.422 913.393 471.307C913.393 454.022 912.531 443.854 910.807 439.725C909.267 435.935 904.771 433.532 899.105 433.532C892.576 433.532 888.019 436.459 886.726 441.45C885.525 446.257 884.847 458.243 884.847 476.576C884.847 491.797 885.371 501.781 886.233 506.618C887.526 513.551 891.714 517.002 899.043 517.002V517.002ZM945.481 417.787H969.47L977.292 459.784C980.032 475.005 980.741 488.87 982.034 515.369C986.838 480.089 988.408 470.26 990.626 459.784L999.741 417.787H1026.66L1035.25 459.784C1039.19 478.98 1040.05 491.982 1041.28 515.369C1042.82 495.834 1044.39 481.537 1048.15 459.784L1055.63 417.787H1076.7L1053.48 533.024H1027.42L1016.55 479.473C1014.68 470.167 1012.34 448.414 1011.81 436.613C1008.36 462.526 1008.21 466.223 1005.44 479.473L994.259 532.993H967.591L945.481 417.787ZM1086.98 417.787H1119.16C1137.82 417.787 1143.52 418.834 1149.34 422.963C1156.64 428.294 1160.27 437.599 1161.81 455.84C1162.33 462.988 1162.67 472.108 1162.67 480.212C1162.67 500.949 1161.23 511.117 1157.87 517.895C1153.07 527.632 1141.95 533.117 1127.69 533.117H1087.1L1086.98 417.787ZM1121.32 514.845C1129.57 514.845 1134.13 512.965 1135.76 508.652C1137.48 504.091 1138.01 497.467 1138.01 478.61C1138.01 458.027 1137.33 448.999 1135.42 443.33C1133.7 438.523 1129.05 435.843 1121.9 435.843H1111.15V514.845H1121.32ZM650.533 372.4H642.865V585.066H650.533V372.4Z" fill="black"/>
<line y1="162" x2="1556" y2="162" stroke="black" stroke-width="2"/>
<path d="M577.008 66.2183L544.47 63.8862L527.502 30L510.342 63.8859L478 66.2183L499.66 92.3783L493.468 125.868L527.502 110.453L561.536 125.865L555.245 92.3754C555.246 92.3747 577.008 66.2183 577.008 66.2183Z" fill="#F4B459"/>
<path d="M561.537 125.868L555.246 92.3751L576.989 66.2398V66.2151L544.47 63.8859L527.502 30V110.453L561.537 125.868Z" fill="#E3A753"/>
<path d="M702.008 66.2183L669.47 63.8862L652.502 30L635.342 63.8859L603 66.2183L624.66 92.3783L618.468 125.868L652.502 110.453L686.536 125.865L680.245 92.3754C680.246 92.3747 702.008 66.2183 702.008 66.2183Z" fill="#F4B459"/>
<path d="M686.537 125.868L680.246 92.3751L701.989 66.2398V66.2151L669.47 63.8859L652.502 30V110.453L686.537 125.868Z" fill="#E3A753"/>
<path d="M827.008 66.2183L794.47 63.8862L777.502 30L760.342 63.8859L728 66.2183L749.66 92.3783L743.468 125.868L777.502 110.453L811.536 125.865L805.245 92.3754C805.246 92.3747 827.008 66.2183 827.008 66.2183Z" fill="#F4B459"/>
<path d="M811.537 125.868L805.246 92.3751L826.989 66.2398V66.2151L794.47 63.8859L777.502 30V110.453L811.537 125.868Z" fill="#E3A753"/>
<path d="M952.008 66.2183L919.47 63.8862L902.502 30L885.342 63.8859L853 66.2183L874.66 92.3783L868.468 125.868L902.502 110.453L936.536 125.865L930.245 92.3754C930.246 92.3747 952.008 66.2183 952.008 66.2183Z" fill="#F4B459"/>
<path d="M936.537 125.868L930.246 92.3751L951.989 66.2398V66.2151L919.47 63.8859L902.502 30V110.453L936.537 125.868Z" fill="#E3A753"/>
<path d="M1077.01 66.2183L1044.47 63.8862L1027.5 30L1010.34 63.8859L978 66.2183L999.66 92.3783L993.468 125.868L1027.5 110.453L1061.54 125.865L1055.25 92.3754C1055.25 92.3747 1077.01 66.2183 1077.01 66.2183Z" fill="#F4B459"/>
<path d="M1061.54 125.868L1055.25 92.3751L1076.99 66.2398V66.2151L1044.47 63.8859L1027.5 30V110.453L1061.54 125.868Z" fill="#E3A753"/>
</svg>
