<?xml version="1.0" standalone="no"?><svg xmlns:xlink="http://www.w3.org/1999/xlink" xmlns="http://www.w3.org/2000/svg" viewBox="0 0 1000 545.4636912958457" preserveAspectRatio="xMaxYMax slice"><g transform="scale(1.5719414734750596)"><rect x="0" y="0" width="636.1666666666667" height="347" fill="#ffffff"/><rect x="249.84" y="76.34" width="20.82" height="20.82" fill="#ffffff"/><g transform="translate(260.25,76.34) scale(0.5205) rotate(0)"><rect width="20" height="2" fill="#ffe9ca"/><rect y="4" width="20" height="2" fill="#ffe9ca"/><rect y="8" width="20" height="2" fill="#ffe9ca"/><rect y="12" width="20" height="2" fill="#ffe9ca"/><rect y="16" width="20" height="2" fill="#ffe9ca"/></g><path d="M 249.84 97.16 A 10.41 10.41 0 0 1  260.25 86.75 L 249.84 97.16 A 10.41 10.41 0 0 0 260.25 86.75" fill="#fffcf7"/><rect x="365.50666666666666" y="76.34" width="20.82" height="20.82" fill="#ffffff"/><path d="M 375.92 76.34 A 10.41 10.41 0 0 1  386.33000000000004 86.75 L 375.92 76.34 A 10.41 10.41 0 0 0 386.33000000000004 86.75" fill="#f6f7f9"/><rect x="423.34000000000003" y="76.34" width="20.82" height="20.82" fill="#ffffff"/><path d="M 423.34 76.34 A 10.41 10.41 0 0 1  433.75 86.75 L 423.34 76.34 A 10.41 10.41 0 0 0 433.75 86.75" fill="#fff2de"/><g transform="translate(423.34,86.75) scale(0.5205) rotate(0)"><rect width="20" height="2" fill="#fff3e1"/><rect y="4" width="20" height="2" fill="#fff3e1"/><rect y="8" width="20" height="2" fill="#fff3e1"/><rect y="12" width="20" height="2" fill="#fff3e1"/><rect y="16" width="20" height="2" fill="#fff3e1"/></g><g transform="translate(433.75,86.75) scale(0.5205) rotate(0)"><rect width="20" height="2" fill="#fdfdfe"/><rect y="4" width="20" height="2" fill="#fdfdfe"/><rect y="8" width="20" height="2" fill="#fdfdfe"/><rect y="12" width="20" height="2" fill="#fdfdfe"/><rect y="16" width="20" height="2" fill="#fdfdfe"/></g><rect x="71.71333333333334" y="129.54666666666668" width="30.07333333333333" height="30.07333333333333" fill="#ffffff"/><path d="M 86.75 129.55 A 15.04 15.04 0 0 1  101.78999999999999 144.59 L 86.75 129.55 A 15.04 15.04 0 0 0 101.78999999999999 144.59" fill="#ffeacd"/><g transform="translate(71.71,144.58) scale(0.752) rotate(0)"><rect width="20" height="2" fill="#fff3e2"/><rect y="4" width="20" height="2" fill="#fff3e2"/><rect y="8" width="20" height="2" fill="#fff3e2"/><rect y="12" width="20" height="2" fill="#fff3e2"/><rect y="16" width="20" height="2" fill="#fff3e2"/></g><rect x="187.38" y="129.54666666666668" width="30.07333333333333" height="30.07333333333333" fill="#ffffff"/><g transform="translate(187.38,144.58) scale(0.752) rotate(0)"><rect width="2" height="20" fill="#fff7ed"/><rect x="4" width="2" height="20" fill="#fff7ed"/><rect x="8" width="2" height="20" fill="#fff7ed"/><rect x="12" width="2" height="20" fill="#fff7ed"/><rect x="16" width="2" height="20" fill="#fff7ed"/></g><path d="M 202.42 159.62 A 15.04 15.04 0 0 1  217.45999999999998 144.58 L 202.42 159.62 A 15.04 15.04 0 0 0 217.45999999999998 144.58" fill="#f6f7f9"/><rect x="245.21333333333334" y="129.54666666666668" width="30.07333333333333" height="30.07333333333333" fill="#ffffff"/><path d="M 245.21 144.58 A 15.04 15.04 0 0 1  260.25 159.62 L 245.21 144.58 A 15.04 15.04 0 0 0 260.25 159.62" fill="#ffffff"/><rect x="418.71333333333337" y="129.54666666666668" width="30.07333333333333" height="30.07333333333333" fill="#ffffff"/><path d="M 433.75 144.59 A 15.04 15.04 0 0 1  448.79 129.55 L 433.75 144.59 A 15.04 15.04 0 0 0 448.79 129.55" fill="#ffffff"/><path d="M 418.71 144.58 A 15.04 15.04 0 0 1  433.75 159.62 L 418.71 144.58 A 15.04 15.04 0 0 0 433.75 159.62" fill="#fffefc"/><g transform="translate(433.75,144.58) scale(0.752) rotate(0)"><rect width="20" height="2" fill="#ffe7c6"/><rect y="4" width="20" height="2" fill="#ffe7c6"/><rect y="8" width="20" height="2" fill="#ffe7c6"/><rect y="12" width="20" height="2" fill="#ffe7c6"/><rect y="16" width="20" height="2" fill="#ffe7c6"/></g><rect x="476.5466666666667" y="129.54666666666668" width="30.07333333333333" height="30.07333333333333" fill="#ffffff"/><path d="M 491.58 159.62 A 15.04 15.04 0 0 1  506.62 144.58 L 491.58 159.62 A 15.04 15.04 0 0 0 506.62 144.58" fill="#f1f3f7"/><rect x="534.38" y="129.54666666666668" width="30.07333333333333" height="30.07333333333333" fill="#ffffff"/><path d="M 549.42 144.58 A 15.04 15.04 0 0 1  564.4599999999999 159.62 L 549.42 144.58 A 15.04 15.04 0 0 0 564.4599999999999 159.62" fill="#fff0d8"/><rect x="124.92" y="182.75333333333333" width="39.32666666666667" height="39.32666666666667" fill="#ffffff"/><rect x="182.75333333333333" y="182.75333333333333" width="39.32666666666667" height="39.32666666666667" fill="#ffffff"/><g transform="translate(182.75,182.75) scale(0.983) rotate(0)"><rect width="2" height="20" fill="#f4f6f8"/><rect x="4" width="2" height="20" fill="#f4f6f8"/><rect x="8" width="2" height="20" fill="#f4f6f8"/><rect x="12" width="2" height="20" fill="#f4f6f8"/><rect x="16" width="2" height="20" fill="#f4f6f8"/></g><path d="M 202.42 182.75 A 19.66 19.66 0 0 1  222.07999999999998 202.41 L 202.42 182.75 A 19.66 19.66 0 0 0 222.07999999999998 202.41" fill="#fffcf6"/><g transform="translate(182.75,202.42) scale(0.983) rotate(0)"><rect width="20" height="2" fill="#f8f9fb"/><rect y="4" width="20" height="2" fill="#f8f9fb"/><rect y="8" width="20" height="2" fill="#f8f9fb"/><rect y="12" width="20" height="2" fill="#f8f9fb"/><rect y="16" width="20" height="2" fill="#f8f9fb"/></g><rect x="240.58666666666667" y="182.75333333333333" width="39.32666666666667" height="39.32666666666667" fill="#ffffff"/><g transform="translate(260.25,182.75) scale(0.983) rotate(0)"><rect width="2" height="20" fill="#fff4e1"/><rect x="4" width="2" height="20" fill="#fff4e1"/><rect x="8" width="2" height="20" fill="#fff4e1"/><rect x="12" width="2" height="20" fill="#fff4e1"/><rect x="16" width="2" height="20" fill="#fff4e1"/></g><g transform="translate(240.59,202.42) scale(0.983) rotate(0)"><rect width="20" height="2" fill="#ffe9ca"/><rect y="4" width="20" height="2" fill="#ffe9ca"/><rect y="8" width="20" height="2" fill="#ffe9ca"/><rect y="12" width="20" height="2" fill="#ffe9ca"/><rect y="16" width="20" height="2" fill="#ffe9ca"/></g><g transform="translate(260.25,202.42) scale(0.983) rotate(0)"><rect width="2" height="20" fill="#ffebd0"/><rect x="4" width="2" height="20" fill="#ffebd0"/><rect x="8" width="2" height="20" fill="#ffebd0"/><rect x="12" width="2" height="20" fill="#ffebd0"/><rect x="16" width="2" height="20" fill="#ffebd0"/></g><rect x="298.42" y="182.75333333333333" width="39.32666666666667" height="39.32666666666667" fill="#ffffff"/><path d="M 298.42 202.41 A 19.66 19.66 0 0 1  318.08000000000004 182.75 L 298.42 202.41 A 19.66 19.66 0 0 0 318.08000000000004 182.75" fill="#ffdfb5"/><path d="M 318.08 202.41 A 19.66 19.66 0 0 1  337.74 182.75 L 318.08 202.41 A 19.66 19.66 0 0 0 337.74 182.75" fill="#ffeacf"/><g transform="translate(298.42,202.42) scale(0.983) rotate(0)"><rect width="20" height="2" fill="#fffdfb"/><rect y="4" width="20" height="2" fill="#fffdfb"/><rect y="8" width="20" height="2" fill="#fffdfb"/><rect y="12" width="20" height="2" fill="#fffdfb"/><rect y="16" width="20" height="2" fill="#fffdfb"/></g><g transform="translate(318.08,202.42) scale(0.983) rotate(0)"><rect width="2" height="20" fill="#fff0dc"/><rect x="4" width="2" height="20" fill="#fff0dc"/><rect x="8" width="2" height="20" fill="#fff0dc"/><rect x="12" width="2" height="20" fill="#fff0dc"/><rect x="16" width="2" height="20" fill="#fff0dc"/></g><rect x="356.25333333333333" y="182.75333333333333" width="39.32666666666667" height="39.32666666666667" fill="#ffffff"/><g transform="translate(356.25,182.75) scale(0.983) rotate(0)"><rect width="20" height="2" fill="#ffecd3"/><rect y="4" width="20" height="2" fill="#ffecd3"/><rect y="8" width="20" height="2" fill="#ffecd3"/><rect y="12" width="20" height="2" fill="#ffecd3"/><rect y="16" width="20" height="2" fill="#ffecd3"/></g><g transform="translate(375.92,182.75) scale(0.983) rotate(0)"><rect width="2" height="20" fill="#fff6e7"/><rect x="4" width="2" height="20" fill="#fff6e7"/><rect x="8" width="2" height="20" fill="#fff6e7"/><rect x="12" width="2" height="20" fill="#fff6e7"/><rect x="16" width="2" height="20" fill="#fff6e7"/></g><g transform="translate(356.25,202.42) scale(0.983) rotate(0)"><rect width="2" height="20" fill="#fff3e3"/><rect x="4" width="2" height="20" fill="#fff3e3"/><rect x="8" width="2" height="20" fill="#fff3e3"/><rect x="12" width="2" height="20" fill="#fff3e3"/><rect x="16" width="2" height="20" fill="#fff3e3"/></g><g transform="translate(375.92,202.42) scale(0.983) rotate(0)"><rect width="20" height="2" fill="#ffe3bd"/><rect y="4" width="20" height="2" fill="#ffe3bd"/><rect y="8" width="20" height="2" fill="#ffe3bd"/><rect y="12" width="20" height="2" fill="#ffe3bd"/><rect y="16" width="20" height="2" fill="#ffe3bd"/></g><rect x="414.0866666666667" y="182.75333333333333" width="39.32666666666667" height="39.32666666666667" fill="#ffffff"/><g transform="translate(414.09,182.75) scale(0.983) rotate(0)"><rect width="20" height="2" fill="#f7f8fa"/><rect y="4" width="20" height="2" fill="#f7f8fa"/><rect y="8" width="20" height="2" fill="#f7f8fa"/><rect y="12" width="20" height="2" fill="#f7f8fa"/><rect y="16" width="20" height="2" fill="#f7f8fa"/></g><g transform="translate(433.75,182.75) scale(0.983) rotate(0)"><rect width="20" height="2" fill="#eef1f5"/><rect y="4" width="20" height="2" fill="#eef1f5"/><rect y="8" width="20" height="2" fill="#eef1f5"/><rect y="12" width="20" height="2" fill="#eef1f5"/><rect y="16" width="20" height="2" fill="#eef1f5"/></g><g transform="translate(414.09,202.42) scale(0.983) rotate(0)"><rect width="20" height="2" fill="#ebeef3"/><rect y="4" width="20" height="2" fill="#ebeef3"/><rect y="8" width="20" height="2" fill="#ebeef3"/><rect y="12" width="20" height="2" fill="#ebeef3"/><rect y="16" width="20" height="2" fill="#ebeef3"/></g><g transform="translate(433.75,202.42) scale(0.983) rotate(0)"><rect width="2" height="20" fill="#eceef3"/><rect x="4" width="2" height="20" fill="#eceef3"/><rect x="8" width="2" height="20" fill="#eceef3"/><rect x="12" width="2" height="20" fill="#eceef3"/><rect x="16" width="2" height="20" fill="#eceef3"/></g><rect x="471.92" y="182.75333333333333" width="39.32666666666667" height="39.32666666666667" fill="#ffffff"/><g transform="translate(491.58,182.75) scale(0.983) rotate(0)"><rect width="20" height="2" fill="#fffaf1"/><rect y="4" width="20" height="2" fill="#fffaf1"/><rect y="8" width="20" height="2" fill="#fffaf1"/><rect y="12" width="20" height="2" fill="#fffaf1"/><rect y="16" width="20" height="2" fill="#fffaf1"/></g><g transform="translate(491.58,202.42) scale(0.983) rotate(0)"><rect width="20" height="2" fill="#fff6e8"/><rect y="4" width="20" height="2" fill="#fff6e8"/><rect y="8" width="20" height="2" fill="#fff6e8"/><rect y="12" width="20" height="2" fill="#fff6e8"/><rect y="16" width="20" height="2" fill="#fff6e8"/></g><rect x="235.96" y="235.96" width="48.58" height="48.58" fill="#ffffff"/><g transform="translate(260.25,235.96) scale(1.2145) rotate(0)"><rect width="20" height="2" fill="#eff1f5"/><rect y="4" width="20" height="2" fill="#eff1f5"/><rect y="8" width="20" height="2" fill="#eff1f5"/><rect y="12" width="20" height="2" fill="#eff1f5"/><rect y="16" width="20" height="2" fill="#eff1f5"/></g><g transform="translate(235.96,260.25) scale(1.2145) rotate(0)"><rect width="20" height="2" fill="#f7f8fa"/><rect y="4" width="20" height="2" fill="#f7f8fa"/><rect y="8" width="20" height="2" fill="#f7f8fa"/><rect y="12" width="20" height="2" fill="#f7f8fa"/><rect y="16" width="20" height="2" fill="#f7f8fa"/></g><rect x="293.79333333333335" y="235.96" width="48.58" height="48.58" fill="#ffffff"/><g transform="translate(293.79,235.96) scale(1.2145) rotate(0)"><rect width="20" height="2" fill="#f9f9fb"/><rect y="4" width="20" height="2" fill="#f9f9fb"/><rect y="8" width="20" height="2" fill="#f9f9fb"/><rect y="12" width="20" height="2" fill="#f9f9fb"/><rect y="16" width="20" height="2" fill="#f9f9fb"/></g><g transform="translate(293.79,260.25) scale(1.2145) rotate(0)"><rect width="20" height="2" fill="#fff9ef"/><rect y="4" width="20" height="2" fill="#fff9ef"/><rect y="8" width="20" height="2" fill="#fff9ef"/><rect y="12" width="20" height="2" fill="#fff9ef"/><rect y="16" width="20" height="2" fill="#fff9ef"/></g><rect x="351.62666666666667" y="235.96" width="48.58" height="48.58" fill="#ffffff"/><path d="M 351.63 260.25 A 24.29 24.29 0 0 1  375.92 235.96 L 351.63 260.25 A 24.29 24.29 0 0 0 375.92 235.96" fill="#f1f3f6"/><g transform="translate(375.92,235.96) scale(1.2145) rotate(0)"><rect width="20" height="2" fill="#fdfdfe"/><rect y="4" width="20" height="2" fill="#fdfdfe"/><rect y="8" width="20" height="2" fill="#fdfdfe"/><rect y="12" width="20" height="2" fill="#fdfdfe"/><rect y="16" width="20" height="2" fill="#fdfdfe"/></g><g transform="translate(351.63,260.25) scale(1.2145) rotate(0)"><rect width="20" height="2" fill="#fff7eb"/><rect y="4" width="20" height="2" fill="#fff7eb"/><rect y="8" width="20" height="2" fill="#fff7eb"/><rect y="12" width="20" height="2" fill="#fff7eb"/><rect y="16" width="20" height="2" fill="#fff7eb"/></g><rect x="409.46000000000004" y="235.96" width="48.58" height="48.58" fill="#ffffff"/><g transform="translate(409.46,235.96) scale(1.2145) rotate(0)"><rect width="20" height="2" fill="#ffdfb5"/><rect y="4" width="20" height="2" fill="#ffdfb5"/><rect y="8" width="20" height="2" fill="#ffdfb5"/><rect y="12" width="20" height="2" fill="#ffdfb5"/><rect y="16" width="20" height="2" fill="#ffdfb5"/></g><path d="M 433.75 235.96 A 24.29 24.29 0 0 1  458.04 260.25 L 433.75 235.96 A 24.29 24.29 0 0 0 458.04 260.25" fill="#ffe2ba"/><g transform="translate(409.46,260.25) scale(1.2145) rotate(0)"><rect width="20" height="2" fill="#fff7ec"/><rect y="4" width="20" height="2" fill="#fff7ec"/><rect y="8" width="20" height="2" fill="#fff7ec"/><rect y="12" width="20" height="2" fill="#fff7ec"/><rect y="16" width="20" height="2" fill="#fff7ec"/></g><g transform="translate(433.75,260.25) scale(1.2145) rotate(0)"><rect width="20" height="2" fill="#fffaf1"/><rect y="4" width="20" height="2" fill="#fffaf1"/><rect y="8" width="20" height="2" fill="#fffaf1"/><rect y="12" width="20" height="2" fill="#fffaf1"/><rect y="16" width="20" height="2" fill="#fffaf1"/></g><rect x="467.29333333333335" y="235.96" width="48.58" height="48.58" fill="#ffffff"/><path d="M 467.29 260.25 A 24.29 24.29 0 0 1  491.58000000000004 235.96 L 467.29 260.25 A 24.29 24.29 0 0 0 491.58000000000004 235.96" fill="#fff5e4"/><g transform="translate(491.58,260.25) scale(1.2145) rotate(0)"><rect width="20" height="2" fill="#f3f4f7"/><rect y="4" width="20" height="2" fill="#f3f4f7"/><rect y="8" width="20" height="2" fill="#f3f4f7"/><rect y="12" width="20" height="2" fill="#f3f4f7"/><rect y="16" width="20" height="2" fill="#f3f4f7"/></g><rect x="582.96" y="235.96" width="48.58" height="48.58" fill="#ffffff"/><g transform="translate(582.96,260.25) scale(1.2145) rotate(0)"><rect width="20" height="2" fill="#fffdf9"/><rect y="4" width="20" height="2" fill="#fffdf9"/><rect y="8" width="20" height="2" fill="#fffdf9"/><rect y="12" width="20" height="2" fill="#fffdf9"/><rect y="16" width="20" height="2" fill="#fffdf9"/></g><rect x="173.5" y="289.1666666666667" width="57.833333333333336" height="57.833333333333336" fill="#ffffff"/><g transform="translate(173.5,289.17) scale(1.4460000000000002) rotate(0)"><rect width="20" height="2" fill="#f3f5f8"/><rect y="4" width="20" height="2" fill="#f3f5f8"/><rect y="8" width="20" height="2" fill="#f3f5f8"/><rect y="12" width="20" height="2" fill="#f3f5f8"/><rect y="16" width="20" height="2" fill="#f3f5f8"/></g><g transform="translate(202.42,289.17) scale(1.4460000000000002) rotate(0)"><rect width="20" height="2" fill="#f4f6f8"/><rect y="4" width="20" height="2" fill="#f4f6f8"/><rect y="8" width="20" height="2" fill="#f4f6f8"/><rect y="12" width="20" height="2" fill="#f4f6f8"/><rect y="16" width="20" height="2" fill="#f4f6f8"/></g><rect x="231.33333333333334" y="289.1666666666667" width="57.833333333333336" height="57.833333333333336" fill="#ffffff"/><g transform="translate(231.33,318.08) scale(1.4460000000000002) rotate(0)"><rect width="2" height="20" fill="#f1f3f6"/><rect x="4" width="2" height="20" fill="#f1f3f6"/><rect x="8" width="2" height="20" fill="#f1f3f6"/><rect x="12" width="2" height="20" fill="#f1f3f6"/><rect x="16" width="2" height="20" fill="#f1f3f6"/></g></g></svg>