<svg width="84" height="84" viewBox="0 0 84 84" fill="none" xmlns="http://www.w3.org/2000/svg">
<path d="M41.998 85C18.84 85 0 66.156 0 42.998C0 19.84 18.84 1 41.998 1C65.156 1 83.996 19.844 83.996 42.998C83.996 66.152 65.156 85 41.998 85ZM41.998 7.08219C22.1918 7.08219 6.07818 23.1958 6.07818 43.002C6.07818 62.8082 22.1918 78.9218 41.998 78.9218C61.8042 78.9218 77.9178 62.8082 77.9178 43.002C77.9178 23.1958 61.8042 7.08219 41.998 7.08219Z" fill="#1E1E22"/>
<path d="M2.72724 31.1341C7.3865 13.7455 22.5756 1.27034 40.5254 0.0862482C42.203 -0.024606 43.6482 1.24263 43.7591 2.92019C43.871 4.59389 42.6027 6.04304 40.9252 6.1539C25.5739 7.16678 12.5831 17.8359 8.59831 32.7072C3.47208 51.8386 14.8661 71.5736 33.9975 76.6999C53.1288 81.8261 72.86 70.431 77.9862 51.2997C78.421 49.677 80.0895 48.717 81.7083 49.1507C83.3271 49.5845 84.2998 51.2522 83.865 52.8749C77.8713 75.2438 54.7971 88.5657 32.4282 82.572C10.0582 76.5821 -3.2665 53.503 2.72724 31.1341Z" fill="#1F40FF"/>
</svg>
