<svg width="84" height="84" viewBox="0 0 84 84" fill="none" xmlns="http://www.w3.org/2000/svg">
<path d="M41.998 84C18.84 84 0 65.1591 0 42C0 18.8409 18.84 0 41.998 0C65.156 0 83.996 18.8409 83.996 42C84 65.1591 65.16 84 41.998 84ZM41.998 6.07847C22.1918 6.07847 6.07818 22.1928 6.07818 42C6.07818 61.8072 22.1918 77.9215 41.998 77.9215C61.8042 77.9215 77.9178 61.8072 77.9178 42C77.9178 22.1968 61.8042 6.07847 41.998 6.07847Z" fill="#1E1E22"/>
<path d="M59.5069 79.8581C58.3963 79.8581 57.3218 79.2447 56.7886 78.1862C56.0348 76.6866 56.6362 74.8582 58.1357 74.1004C70.3362 67.9538 77.9139 55.6525 77.9139 42C77.9139 22.1928 61.8003 6.08248 41.9981 6.08248C40.3182 6.08248 38.959 4.71924 38.959 3.04325C38.959 1.36726 40.3222 0 41.9981 0C65.1561 0 83.9961 18.8409 83.9961 42C83.9961 57.962 75.1354 72.3443 60.8701 79.5294C60.4331 79.7539 59.968 79.8581 59.5069 79.8581Z" fill="#C50AF3"/>
</svg>
