<svg width="3302" height="2488" viewBox="0 0 3302 2488" fill="none" xmlns="http://www.w3.org/2000/svg">
<g clip-path="url(#clip0)">
<path opacity="0.18" d="M1270.99 79.5471C921.44 207.891 627.649 479.403 521.472 800.982C490.965 893.491 474.611 988.88 439.275 1080.54C399.956 1182.2 337.588 1277.17 294.456 1377.89C163.704 1680.75 229.292 2026.73 436.563 2271.13C592.737 2455.21 823.651 2528.75 1087.02 2465.97C1216.75 2435.14 1328.44 2366.01 1454.19 2329.84C1627.65 2279.94 1823.66 2284.68 2000.84 2280.11C2198.8 2274.94 2613.59 2203.86 2812.22 2186.92C3116.77 2160.83 3102.2 1529.02 3035.42 1369.76C2968.65 1210.49 2864.59 1067.24 2789.68 911.196C2703.08 730.922 2654.52 532.773 2533.43 370.205C2348.02 121.227 2000.84 -14.3173 1654.35 1.18556C1523.29 7.45469 1393.99 33.8857 1270.99 79.5471Z" fill="#9B1516"/>
<path d="M1640.11 2238.18C2337.71 2238.18 2903.23 2181.06 2903.23 2110.59C2903.23 2040.13 2337.71 1983.01 1640.11 1983.01C942.509 1983.01 376.991 2040.13 376.991 2110.59C376.991 2181.06 942.509 2238.18 1640.11 2238.18Z" fill="url(#paint0_linear)"/>
<path d="M1984.24 1656.1H1505.63L1418.6 1285.55H1897.21L1984.24 1656.1Z" fill="#9B1516"/>
<path d="M1955.93 1656.1H1505.63L1418.6 1285.55H1868.91L1955.93 1656.1Z" fill="url(#paint1_linear)"/>
<path d="M2618.25 1642.63H911.441V2097.21H2618.25V1642.63Z" fill="#9B1516"/>
<path d="M2618.25 1642.63H911.441V2097.21H2618.25V1642.63Z" fill="#3E0202"/>
<path d="M2336.75 325.646H943.557C861.329 325.646 794.67 392.285 794.67 474.49V1253.36C794.67 1335.57 861.329 1402.21 943.557 1402.21H2336.75C2418.98 1402.21 2485.64 1335.57 2485.64 1253.36V474.49C2485.64 392.285 2418.98 325.646 2336.75 325.646Z" fill="#C84647"/>
<path d="M2485.64 1188.64V1253.28C2485.59 1292.74 2469.89 1330.57 2441.98 1358.48C2414.07 1386.38 2376.22 1402.08 2336.75 1402.12H943.472C903.984 1402.12 866.115 1386.44 838.193 1358.53C810.271 1330.61 794.585 1292.75 794.585 1253.28V1188.64H2485.64Z" fill="url(#paint2_linear)"/>
<path opacity="0.1" d="M2287.43 1055.47V1474.47H1924.66C1914.62 1474.47 1904.98 1470.48 1897.88 1463.38C1890.78 1456.27 1886.79 1446.64 1886.79 1436.6V1093.33C1886.79 1083.29 1890.78 1073.66 1897.88 1066.56C1904.98 1059.46 1914.62 1055.47 1924.66 1055.47H2287.43Z" fill="#020202"/>
<path d="M1348.52 1411.69H1618.93C1621.24 1411.69 1623.53 1412.15 1625.67 1413.04C1627.81 1413.92 1629.75 1415.22 1631.39 1416.86C1633.03 1418.49 1634.32 1420.43 1635.21 1422.57C1636.1 1424.71 1636.55 1427 1636.55 1429.31C1636.55 1431.63 1636.1 1433.92 1635.21 1436.06C1634.32 1438.2 1633.03 1440.14 1631.39 1441.77C1629.75 1443.41 1627.81 1444.71 1625.67 1445.59C1623.53 1446.48 1621.24 1446.94 1618.93 1446.94H1348.52C1346.21 1446.94 1343.92 1446.48 1341.78 1445.59C1339.64 1444.71 1337.7 1443.41 1336.06 1441.77C1334.42 1440.14 1333.13 1438.2 1332.24 1436.06C1331.35 1433.92 1330.9 1431.63 1330.9 1429.31C1330.9 1424.64 1332.76 1420.16 1336.06 1416.86C1339.37 1413.55 1343.85 1411.69 1348.52 1411.69Z" fill="#473F47"/>
<path d="M1392.25 1317.41L1384.2 1370.52L1406.49 1373.06L1430.81 1316.9L1392.25 1317.41Z" fill="#FCBDBA"/>
<path d="M1413.18 1365.27C1412.1 1364.4 1411.15 1363.37 1410.38 1362.22C1409.24 1362.93 1407.96 1363.38 1406.63 1363.54C1405.3 1363.71 1403.95 1363.57 1402.67 1363.15L1391.49 1361.29C1389.52 1361.05 1387.61 1360.51 1385.81 1359.68H1385.05L1382.67 1364.25C1378.62 1372.43 1376.23 1381.32 1375.64 1390.43C1396.81 1395.44 1418.56 1397.53 1440.3 1396.61C1442.04 1396.85 1443.81 1396.63 1445.43 1395.96C1447.05 1395.29 1448.47 1394.2 1449.53 1392.8C1449.95 1391.85 1450.17 1390.83 1450.17 1389.79C1450.17 1388.76 1449.95 1387.73 1449.53 1386.79C1448.51 1384.64 1447.07 1382.72 1445.29 1381.13C1443.52 1379.55 1441.44 1378.33 1439.19 1377.55C1433.43 1375.18 1427.59 1373.15 1422.25 1370.44C1419 1369.13 1415.95 1367.39 1413.18 1365.27Z" fill="#9B1516"/>
<path d="M1541.73 1333.59L1534.78 1386.87L1557.15 1388.91L1580.29 1332.32L1541.73 1333.59Z" fill="#FCBDBA"/>
<path opacity="0.1" d="M2301.58 591.227V755.659C2301.58 777.273 2293 798.002 2277.71 813.286C2262.42 828.569 2241.69 837.155 2220.06 837.155H1742.73L1549.27 1059.62V509.731H2220.06C2230.77 509.731 2241.37 511.839 2251.26 515.935C2261.15 520.03 2270.14 526.033 2277.71 533.601C2285.28 541.168 2291.28 550.152 2295.38 560.04C2299.48 569.928 2301.58 580.525 2301.58 591.227Z" fill="#020202"/>
<path d="M2200.31 440H1660.52C1615.5 440 1579 476.487 1579 521.496V685.928C1579 730.937 1615.5 767.424 1660.52 767.424H2200.31C2245.33 767.424 2281.83 730.937 2281.83 685.928V521.496C2281.83 476.487 2245.33 440 2200.31 440Z" fill="white"/>
<path opacity="0.1" d="M1673.84 726.602C1671.1 726.847 1668.34 726.44 1665.79 725.416C1661.66 722.543 1658.83 718.161 1657.91 713.217C1644.6 672.131 1617.06 632.145 1575.71 620.031C1564.95 663.829 1565.71 709.575 1566.56 754.728C1566.56 766.757 1567.91 780.566 1577.57 787.682C1583.87 791.567 1591.2 793.457 1598.59 793.104C1645.48 794.884 1692.08 784.956 1734.17 764.216C1746.8 757.947 1772.81 733.464 1748.58 725.501C1741.29 723.044 1725.19 726.772 1717.39 726.772L1673.84 726.602Z" fill="#020202"/>
<path d="M1390.3 947.709L1423.52 1132.3L1390.3 1330.88L1444.11 1335.03L1522.49 1111.38L1495.97 934.154L1390.3 947.709Z" fill="#473F47"/>
<path d="M1576.05 934.154L1635.79 1179.91L1587.49 1349.09L1539.61 1346.63L1546.3 1202.28L1461.99 968.888L1576.05 934.154Z" fill="#473F47"/>
<path d="M1740.53 730.329C1747.71 726.133 1755.4 722.86 1763.41 720.587C1764.66 720.026 1766.04 719.779 1767.41 719.867C1768.78 719.956 1770.11 720.377 1771.29 721.095C1772.53 722.259 1773.34 723.814 1773.58 725.5C1774.82 730.925 1774.37 736.599 1772.3 741.766C1781.33 746.766 1790.81 750.907 1800.61 754.134C1802.65 754.483 1804.6 755.25 1806.34 756.387C1808.07 757.524 1809.55 759.006 1810.69 760.742C1811.3 762.555 1811.35 764.509 1810.83 766.351C1810.32 768.193 1809.27 769.839 1807.81 771.077C1804.85 773.533 1801.27 775.143 1797.47 775.737C1772.9 781.497 1732.9 775.737 1727.05 746.34C1725.78 739.902 1728.15 738.801 1733.24 735.158C1735.95 733.379 1738.41 731.854 1740.53 730.329Z" fill="#FCBDBA"/>
<path d="M1555.88 503.547C1561.47 514.757 1565.05 526.855 1566.47 539.297C1567.13 545.509 1566.15 551.785 1563.64 557.504C1561.13 563.224 1557.17 568.19 1552.15 571.912C1549.09 573.325 1546.24 575.149 1543.68 577.334C1534.7 586.568 1544.95 603.257 1539.78 615.202C1537.79 619.134 1534.4 622.182 1530.28 623.749C1526.15 625.315 1521.6 625.288 1517.49 623.673C1513.39 621.879 1509.74 619.191 1506.81 615.805C1503.87 612.419 1501.73 608.422 1500.55 604.104C1498.26 595.429 1497.23 586.471 1497.5 577.504L1496.56 524.133C1495.37 512.255 1497.24 500.27 1501.99 489.315C1505.22 483.736 1509.93 479.156 1515.59 476.077C1521.26 472.999 1527.66 471.541 1534.1 471.864C1547.58 473.558 1551.39 493.043 1555.88 503.547Z" fill="#FCBDBA"/>
<path d="M1742.14 770.061C1742.14 770.061 1639.77 861.468 1632.4 861.468C1625.03 861.468 1579.52 804.031 1579.52 804.031L1576.05 934.493C1563.41 941.947 1550.24 948.459 1536.64 953.977C1513.24 964.659 1487.71 969.874 1461.99 969.226C1412.25 964.736 1390.3 948.047 1390.3 948.047L1420.98 641.632C1420.98 641.632 1478.94 599.953 1498.77 606.306C1512.95 608.847 1527.46 608.847 1541.64 606.306C1570.29 602.494 1599.52 641.632 1599.52 641.632L1637.57 766.587L1726.8 734.904C1732.61 738.529 1737.18 743.828 1739.92 750.104C1742.66 756.38 1743.43 763.338 1742.14 770.061Z" fill="white"/>
<path d="M1567.15 446.025C1567.81 439.296 1566.23 432.537 1562.66 426.795C1555.8 417.222 1541.73 416.375 1530.2 418.916C1522.28 421.089 1514.61 424.099 1507.33 427.896C1501.97 430.103 1496.12 430.863 1490.38 430.099C1475.16 429.829 1460.42 435.339 1449.11 445.517C1433.52 460.257 1429.87 482.029 1428.26 502.446C1426.57 525.573 1436.74 544.803 1452.08 562.424C1465.04 577.757 1488.68 592.837 1505.55 573.437C1513.07 563.576 1516.49 551.197 1515.12 538.873C1511.08 538.46 1507.27 536.791 1504.23 534.101C1501.19 531.412 1499.07 527.836 1498.17 523.878C1497.59 521.392 1497.71 518.792 1498.52 516.37C1499.33 513.947 1500.79 511.795 1502.75 510.155C1503.95 509.431 1505.28 508.951 1506.67 508.743C1508.06 508.534 1509.47 508.601 1510.83 508.939C1512.2 509.277 1513.48 509.88 1514.61 510.714C1515.73 511.548 1516.69 512.595 1517.41 513.797C1517.9 514.557 1518.27 515.385 1518.51 516.254C1520.95 511.339 1522.75 506.128 1523.85 500.751C1525.8 495.584 1532.32 491.094 1536.56 494.567C1539.02 496.515 1540.46 500.836 1543.59 500.158C1544.63 499.768 1545.54 499.093 1546.22 498.21C1552.39 492.278 1557.59 485.418 1561.64 477.878C1565.44 468.982 1567.42 459.422 1567.49 449.753C1567.17 448.538 1567.05 447.278 1567.15 446.025Z" fill="#FC682D"/>
<path d="M1365.98 434.674C1355.2 433.396 1344.29 435.436 1334.71 440.522C1325.12 445.609 1317.32 453.499 1312.34 463.138C1300.56 487.282 1309.04 515.831 1310.98 542.686C1312.75 552.008 1311.3 561.654 1306.87 570.043C1302.44 578.432 1295.28 585.065 1286.58 588.856C1267.6 600.292 1245.74 608.001 1230.57 624.182C1218.62 637.482 1211.57 654.454 1210.57 672.3C1209.62 679.739 1210.92 687.291 1214.3 693.987C1217.61 698.94 1221.95 703.128 1227.01 706.271C1241.05 716.419 1256.98 723.662 1273.86 727.575C1290.74 731.489 1308.23 731.993 1325.31 729.059C1342.34 725.83 1358.1 717.822 1370.75 705.971C1383.4 694.121 1392.41 678.916 1396.74 662.134C1404.2 626.384 1386.06 590.889 1379.2 554.97C1377.94 550.761 1377.54 546.344 1378.02 541.979C1378.51 537.614 1379.86 533.39 1382 529.555C1387.67 521.931 1398.18 520.152 1406.4 515.323C1450.89 489.146 1398.61 439.079 1365.98 434.674Z" fill="#FC682D"/>
<path d="M1429.37 469.237H1428.6C1419.29 469.237 1411.74 476.785 1411.74 486.096V486.858C1411.74 496.169 1419.29 503.716 1428.6 503.716H1429.37C1438.68 503.716 1446.23 496.169 1446.23 486.858V486.096C1446.23 476.785 1438.68 469.237 1429.37 469.237Z" fill="#9B1516"/>
<path d="M1563.59 1381.03C1562.53 1380.14 1561.59 1379.11 1560.8 1377.98C1559.67 1378.72 1558.4 1379.22 1557.07 1379.42C1555.74 1379.63 1554.38 1379.54 1553.08 1379.16L1541.9 1377.47C1539.91 1377.25 1537.97 1376.74 1536.14 1375.94H1535.37L1533.09 1380.6C1529.26 1388.89 1527.07 1397.83 1526.65 1406.95C1547.91 1411.46 1569.68 1413.11 1591.39 1411.86C1593.14 1412.08 1594.91 1411.81 1596.52 1411.09C1598.14 1410.38 1599.52 1409.24 1600.54 1407.8C1600.96 1406.85 1601.17 1405.82 1601.17 1404.79C1601.17 1403.75 1600.96 1402.73 1600.54 1401.78C1599.49 1399.65 1598.01 1397.76 1596.21 1396.21C1594.4 1394.67 1592.3 1393.51 1590.03 1392.8C1584.18 1390.51 1578.25 1388.65 1572.57 1385.94C1569.37 1384.72 1566.34 1383.07 1563.59 1381.03Z" fill="#9B1516"/>
<path d="M1568.34 1446.94H1534.02L1506.65 1520.98H1365.22L1392.59 1446.94H1358.27L1117.53 2097.21H1151.85L1175.66 2032.91H1316.83L1293.02 2097.21H1327.34L1351.15 2032.91H1352.17V2030.2L1566.3 1451.93V2097.21H1600.62V1446.94H1568.34ZM1497.33 1546.22L1461.65 1642.63H1320.14L1355.81 1546.22H1497.33ZM1275.06 1764.7L1310.73 1668.38H1452.41L1416.57 1764.7H1275.06ZM1407.25 1790.12L1371.57 1886.44H1230.06L1265.99 1789.61L1407.25 1790.12ZM1184.98 2008.17L1220.65 1911.77H1362.17L1326.49 2008.17H1184.98Z" fill="#9B1516"/>
<path d="M2440.85 1010H1924.88C1903.96 1010 1887 1026.95 1887 1047.87V1391.05C1887 1411.96 1903.96 1428.92 1924.88 1428.92H2440.85C2461.77 1428.92 2478.73 1411.96 2478.73 1391.05V1047.87C2478.73 1026.95 2461.77 1010 2440.85 1010Z" fill="white"/>
<path d="M2425.13 1534.36C2425.13 1534.36 2307.43 1756.74 2285.4 1826.63C2263.37 1896.52 2265.4 2102.46 2265.4 2102.46H2329.46C2329.46 2102.46 2329.46 1894.66 2356.66 1859.67C2383.87 1824.68 2535.46 1646.1 2535.46 1646.1L2425.13 1534.36Z" fill="#473F47"/>
<path d="M2412.08 1561.39C2412.08 1561.39 2483.43 1849.42 2520.38 1913.89C2557.33 1978.35 2658.33 2094.5 2658.33 2094.5L2712.74 2065.36C2712.74 2065.36 2572.83 1881.86 2580.63 1828.15C2588.43 1774.44 2608.25 1568.93 2608.25 1568.93C2608.25 1568.93 2509.7 1515.47 2412.08 1561.39Z" fill="#473F47"/>
<path d="M2654.01 1147.47C2654.01 1147.47 2710.87 1176.52 2689.69 1246.41C2668.5 1316.3 2601.47 1473.71 2608.76 1520.3C2616.05 1566.89 2608.25 1568.42 2608.25 1568.42C2608.25 1568.42 2458.69 1622.3 2412.08 1561.13C2412.08 1561.13 2501.06 1246.41 2519.96 1207.11C2538.85 1167.8 2592.83 1124.26 2654.01 1147.47Z" fill="#9B1516"/>
<path d="M2624.52 1302.83C2619 1320.03 2611.25 1336.44 2601.47 1351.63C2596.54 1360.72 2590.63 1369.24 2583.85 1377.04C2564.61 1397.72 2535.8 1405.59 2510.04 1416.95C2505.43 1418.75 2501.16 1421.33 2497.42 1424.57C2493.58 1428.92 2490.54 1433.91 2488.43 1439.31C2474.45 1469.89 2455.64 1500.9 2424.96 1514.71C2437.59 1466.5 2450.39 1418.3 2464.79 1370.69C2466.47 1361.86 2470.04 1353.5 2475.26 1346.19C2480.49 1338.88 2487.23 1332.79 2495.04 1328.33C2527.24 1304.7 2559.19 1280.64 2591.73 1257.43C2602.83 1249.46 2614.44 1240.48 2623.85 1254.89C2632.07 1267.51 2628.34 1289.62 2624.52 1302.83Z" fill="url(#paint3_linear)"/>
<path d="M2548.26 1024.63C2545.04 1027.93 2540.89 1031.32 2540.89 1035.9C2541.43 1039.34 2542.86 1042.58 2545.04 1045.3C2554.87 1062.24 2545.89 1085.96 2557.75 1101.3C2562.17 1106.54 2568.08 1110.32 2574.7 1112.14C2581.42 1113.05 2587.94 1115.14 2593.93 1118.33C2598.48 1122.8 2601.07 1128.89 2601.14 1135.27C2601.81 1142.89 2600.46 1150.52 2601.14 1158.14C2600.97 1160.7 2601.45 1163.25 2602.55 1165.57C2603.65 1167.88 2605.32 1169.87 2607.41 1171.36C2609.51 1172.28 2611.8 1172.72 2614.1 1172.63C2627.31 1173.22 2640.54 1172.2 2653.5 1169.58C2655.37 1169.34 2657.14 1168.64 2658.67 1167.54C2660.18 1165.79 2661.15 1163.65 2661.47 1161.36C2667.06 1135.95 2672.82 1110.53 2678.42 1085.12C2681.7 1075.98 2685.82 1067.16 2690.7 1058.77C2695.16 1046.09 2696.67 1032.56 2695.11 1019.21C2693.67 1009.21 2690.27 999.599 2685.11 990.914C2680.88 982.719 2674.72 975.681 2667.15 970.413C2661.57 967.125 2655.55 964.643 2649.27 963.042C2627.57 956.35 2593.68 947.37 2574.87 966.007C2559.44 981.595 2564.53 1008.45 2548.26 1024.63Z" fill="#FCBDBA"/>
<path d="M2545.97 1053.09C2550.63 1050.21 2565.71 1056.23 2571.39 1056.14C2589.27 1055.64 2603.85 1064.62 2618.17 1053.6C2629.86 1045.13 2634.52 1029.97 2638.59 1016.07C2638.67 1015.31 2638.67 1014.55 2638.59 1013.79C2638.42 1012.81 2638.05 1011.89 2637.49 1011.08C2630.88 1001.42 2617.41 1000.4 2606.05 997.606C2585.8 991.754 2567.59 980.336 2553.51 964.651C2549.78 961.441 2547.27 957.043 2546.39 952.198C2546.61 949.4 2547.48 946.693 2548.96 944.305C2550.43 941.917 2552.46 939.917 2554.87 938.474C2569.35 929.324 2586.87 926.279 2603.59 930.003C2620.08 933.81 2636.34 938.504 2652.32 944.066C2667.74 948.386 2683.67 951.012 2699.01 955.926C2702.28 956.866 2705.4 958.294 2708.25 960.162C2711.99 963.127 2714.91 967.007 2716.72 971.429C2719.44 976.996 2720.85 983.109 2720.85 989.304C2720.85 995.498 2719.44 1001.61 2716.72 1007.18C2715.61 1008.81 2714.78 1010.61 2714.26 1012.52C2714.17 1014.44 2714.43 1016.36 2715.02 1018.19C2718.84 1035.13 2710.45 1052.08 2702.31 1066.73L2681.13 1106.21C2678.98 1110.97 2675.8 1115.2 2671.81 1118.58C2669.79 1120.22 2667.29 1121.16 2664.69 1121.25C2662.09 1121.34 2659.53 1120.58 2657.4 1119.09C2653 1115.28 2652.74 1107.65 2647.57 1105.11C2645.82 1104.54 2643.97 1104.35 2642.14 1104.57C2640.31 1104.79 2638.55 1105.41 2636.98 1106.38C2627.66 1110.87 2620.03 1117.99 2610.88 1123.32C2595.06 1132.14 2576.42 1134.42 2558.94 1129.68C2553.8 1128.41 2549 1126.04 2544.87 1122.73C2535.8 1114.94 2536.4 1104.52 2538.26 1093.93C2540.12 1083.34 2536.39 1059.02 2545.97 1053.09Z" fill="#473F47"/>
<path d="M2640.79 1257.17C2640.79 1257.17 2579.61 1414.49 2336.75 1444.56L2328.28 1410.68C2328.28 1410.68 2490.47 1346.55 2525.46 1281.49C2535.52 1263.2 2544.22 1244.2 2551.48 1224.64C2562.49 1194.14 2597.83 1177.71 2626.13 1193.55C2642.91 1202.96 2653.34 1221.59 2640.79 1257.17Z" fill="#9B1516"/>
<path d="M2287.18 1403.65C2287.45 1407.94 2289.26 1412 2292.26 1415.08C2276.7 1420.89 2260.24 1423.93 2243.62 1424.06C2240.6 1423.71 2237.55 1424.56 2235.15 1426.43C2231.93 1429.91 2234.47 1435.58 2237.44 1439.23C2250.06 1453.46 2267.51 1462.51 2286.42 1464.64C2298.73 1467.03 2311.5 1464.96 2322.43 1458.8C2329.97 1453.14 2336.34 1446.06 2341.16 1437.96C2342.14 1436.72 2342.88 1435.31 2343.36 1433.8C2343.72 1430.83 2343 1427.82 2341.33 1425.33C2339.38 1421.69 2336.67 1414.49 2332.85 1412.71C2329.04 1410.93 2323.79 1412.71 2319.89 1412.03C2308.7 1409.49 2298.7 1402.37 2287.18 1403.65Z" fill="#FCBDBA"/>
<path d="M2757.82 2098.65C2759.04 2099.53 2760.04 2100.68 2760.73 2102.03C2761.42 2103.37 2761.78 2104.85 2761.78 2106.36C2761.78 2107.86 2761.42 2109.35 2760.73 2110.69C2760.04 2112.03 2759.04 2113.19 2757.82 2114.07C2731.52 2142.39 2700.02 2165.4 2665.03 2181.84C2655.37 2186.33 2642.06 2189.55 2635.45 2181.16C2628.84 2172.77 2635.88 2160.07 2641.47 2150.41C2649.02 2137.45 2653.65 2122.99 2655.03 2108.05C2655.04 2102.94 2656.05 2097.87 2658 2093.14C2664.86 2080.52 2698.59 2067.73 2712.57 2067.73C2731.12 2067.56 2746.46 2085.77 2757.82 2098.65Z" fill="#9B1516"/>
<path d="M2350.65 2148.04C2351.31 2149.4 2351.64 2150.9 2351.6 2152.41C2351.55 2153.92 2351.14 2155.4 2350.4 2156.71C2349.66 2158.03 2348.61 2159.15 2347.33 2159.97C2346.06 2160.79 2344.61 2161.29 2343.11 2161.42C2306.23 2172.95 2267.47 2177.26 2228.96 2174.13C2218.29 2173.2 2205.15 2169.39 2203.54 2158.8C2201.93 2148.21 2214.39 2140.67 2224.05 2135.16C2236.95 2127.63 2248.1 2117.44 2256.76 2105.26C2259.27 2100.8 2262.67 2096.9 2266.76 2093.82C2278.96 2086.2 2314.72 2091.53 2326.92 2098.56C2343.02 2107.8 2347.26 2131.18 2350.65 2148.04Z" fill="#9B1516"/>
<path d="M759.08 2071.2C758.717 2082.01 760.713 2092.76 764.927 2102.72C770.242 2111.99 778.25 2119.44 787.891 2124.06C808.546 2134.82 832.56 2137.19 854.919 2130.67C857.954 2130.06 860.681 2128.41 862.631 2126.01C863.786 2123.98 864.261 2121.64 863.986 2119.32C862.29 2106.99 856.031 2095.75 846.445 2087.81C836.893 2080.03 828.727 2070.69 822.295 2060.19C812.041 2039.35 819.668 1983.94 780.603 1993.09C747.979 2000.46 758.147 2048.16 759.08 2071.2Z" fill="#FBB9AD"/>
<path d="M753.657 2108.56C753.657 2108.56 748.064 2122.28 754.928 2130.25C761.792 2138.21 832.04 2181.84 879.325 2146.68C926.609 2111.53 815.092 2107.04 815.092 2107.04L753.657 2108.56Z" fill="#9B1516"/>
<path d="M756.368 2076.88C758.507 2075.8 760.964 2075.53 763.285 2076.12C765.606 2076.71 767.634 2078.13 768.994 2080.1C773.606 2085.35 779.48 2089.34 786.063 2091.7C792.645 2094.06 799.719 2094.7 806.618 2093.57C822.041 2089.92 828.142 2072.13 835.769 2072.05C843.395 2071.96 884.239 2106.78 886.612 2121.69C888.985 2136.6 868.054 2147.61 845.005 2149.05C821.956 2150.49 769.588 2134.48 759.673 2122.37C755.491 2115.62 753.007 2107.95 752.431 2100.03C751.856 2092.11 753.207 2084.16 756.368 2076.88Z" fill="white"/>
<path d="M625.107 2092.47C624.655 2103.28 626.653 2114.05 630.954 2123.98C636.27 2133.23 644.281 2140.65 653.919 2145.24C674.542 2156.01 698.532 2158.37 720.862 2151.85C723.933 2151.27 726.697 2149.62 728.658 2147.19C729.775 2145.18 730.248 2142.87 730.014 2140.58C728.302 2128.26 722.046 2117.02 712.473 2109.07C702.987 2101.26 694.831 2091.96 688.323 2081.54C678.069 2060.78 685.696 2005.29 646.631 2014.44C614.007 2021.9 624.175 2069.68 625.107 2092.47Z" fill="#FBB9AD"/>
<path d="M619.684 2129.99C619.684 2129.99 614.091 2143.63 620.955 2151.6C627.819 2159.56 697.898 2203.19 745.182 2168.12C792.467 2133.04 681.12 2128.47 681.12 2128.47L619.684 2129.99Z" fill="#9B1516"/>
<path d="M622.396 2098.23C624.547 2097.17 627.005 2096.93 629.322 2097.53C631.639 2098.14 633.662 2099.56 635.022 2101.53C639.608 2106.82 645.479 2110.83 652.069 2113.19C658.659 2115.55 665.745 2116.17 672.646 2115C687.984 2111.27 694.17 2093.57 701.711 2093.48C709.253 2093.4 750.182 2128.13 752.555 2143.04C754.927 2157.95 733.997 2168.96 710.948 2170.4C687.899 2171.84 635.615 2155.92 625.7 2143.8C621.498 2137.04 619.001 2129.36 618.426 2121.42C617.85 2113.48 619.212 2105.52 622.396 2098.23Z" fill="white"/>
<path d="M597.059 1515.89C597.059 1515.89 589.856 1917.19 619.515 2051.04L695.017 2060.36L715.609 1511.91L597.059 1515.89Z" fill="#473F47"/>
<path d="M805.602 1472.52C805.602 1472.52 865.682 1688.54 822.549 2036.13L747.047 2045.45L699.508 1491.33L805.602 1472.52Z" fill="#473F47"/>
<path d="M918.559 1299.62C917.711 1314.19 913.051 1326.72 900.425 1330.96C899.345 1331.32 898.24 1331.6 897.12 1331.81C873.986 1336.47 843.565 1318.85 822.465 1303.43C813.619 1297.07 805.132 1290.22 797.043 1282.93V1127.64L910.085 1243.03C915.945 1261.31 918.807 1280.42 918.559 1299.62Z" fill="white"/>
<path d="M823.312 1302.75C823.312 1310.04 824.244 1317.32 824.244 1324.61C824.244 1364.59 815.008 1405.93 826.871 1445.24C830.774 1453.59 831.96 1462.95 830.261 1472.01C826.787 1479.28 820.752 1485.01 813.313 1488.11C777.977 1507.42 737.048 1513.52 697.39 1518.94C667.392 1523.18 624.853 1532.07 597.144 1515.89C585.365 1509.03 581.382 1496.24 577.569 1483.45C566.968 1442.11 560.719 1399.77 558.926 1357.14C558.926 1351.55 558.079 1346.04 557.825 1340.19C555.508 1301.9 554.718 1263.55 555.452 1225.15C555.96 1197.28 558.164 1167.21 576.383 1146.2C600.533 1118.24 647.309 1099.69 682.899 1093.16C694.404 1090.79 706.199 1090.13 717.897 1091.22C734.462 1093.84 750.455 1099.28 765.181 1107.31C782.807 1115.78 798.483 1123.41 807.551 1140.77C817.068 1160.93 823.714 1182.31 827.295 1204.31C830.626 1224.93 831.083 1245.91 828.651 1266.66C827.634 1276.83 825.007 1286.91 823.99 1296.99C823.592 1298.89 823.365 1300.81 823.312 1302.75Z" fill="white"/>
<path opacity="0.1" d="M659.85 1529.53C648.241 1532.92 621.464 1522.25 612.566 1521.06C607.228 1520.13 602.397 1517.42 597.059 1516.23C570.536 1509.62 567.4 1435.08 564.858 1415C557.994 1362.05 547.402 1307.16 546.639 1254.04C545.447 1233.54 547.827 1212.99 553.673 1193.3C556.649 1183.47 561.751 1174.41 568.619 1166.76C575.487 1159.12 583.953 1153.08 593.415 1149.08C627.311 1136.88 637.395 1244.04 642.055 1266.24C646.716 1288.43 647.309 1327.74 661.969 1345.53C676.629 1363.32 705.948 1366.63 725.099 1357.65C735.399 1352.48 743.969 1344.42 749.763 1334.46C755.557 1324.5 758.323 1313.07 757.724 1301.56C756.567 1293.59 755.916 1285.56 755.775 1277.51C755.783 1273.46 756.944 1269.51 759.12 1266.1C761.296 1262.7 764.398 1259.98 768.062 1258.27C771.519 1257.41 775.148 1257.52 778.544 1258.6C781.941 1259.68 784.971 1261.68 787.298 1264.37C791.813 1269.93 795.053 1276.41 796.789 1283.35C801.173 1297.86 804.013 1312.8 805.263 1327.91C808.652 1363.75 803.229 1400.51 811.788 1435.5C815.617 1446.38 817.454 1457.86 817.211 1469.39C815.263 1478.92 810.088 1487.5 802.556 1493.67C795.025 1499.84 785.597 1503.23 775.858 1503.27C766.09 1502.9 756.557 1500.17 748.072 1495.32C739.587 1490.46 732.403 1483.63 727.133 1475.4C725.441 1472.46 723.163 1469.89 720.439 1467.86C717.399 1466.33 714.002 1465.66 710.609 1465.91C694.424 1465.91 671.206 1469.64 665.952 1487.77C662.223 1500.73 671.206 1513.18 664.172 1526.57C663.138 1528.05 661.602 1529.1 659.85 1529.53Z" fill="#020202"/>
<path d="M751.538 1042.17C748.721 1047.79 743.921 1052.16 738.065 1054.45C730.921 1056.06 724.122 1058.93 717.982 1062.92C713.004 1068.31 709.834 1075.13 708.914 1082.41L704.084 1104.94L701.542 1116.29C701.211 1118.34 700.523 1120.32 699.508 1122.14C698.078 1123.73 696.308 1124.99 694.328 1125.81C692.348 1126.63 690.209 1127 688.069 1126.88C679.138 1127.25 670.296 1124.98 662.647 1120.36C661.309 1119.78 660.205 1118.76 659.512 1117.48C658.841 1115.9 658.663 1114.16 659.003 1112.48L661.8 1080.03C663.353 1071.16 661.954 1062.03 657.817 1054.03C648.479 1037.05 641.548 1018.86 637.225 999.978C635.713 994.733 635.358 989.222 636.185 983.827C637.012 978.432 639.002 973.281 642.015 968.729C645.029 964.178 648.995 960.335 653.64 957.466C658.285 954.597 663.498 952.771 668.918 952.114C684.77 947.247 701.692 947.071 717.643 951.605C723.574 953.639 725.354 957.705 728.15 963.042C732.302 971.513 736.624 979.985 739.759 988.456C742.895 996.928 747.132 1008.11 750.267 1018.28C753.514 1025.84 753.965 1034.3 751.538 1042.17Z" fill="#FBB9AD"/>
<path d="M991.434 1205.58C992.451 1203.89 994.4 1202.19 996.01 1203.21C996.666 1203.86 997.135 1204.68 997.366 1205.58C998.295 1207.21 999.64 1208.56 1001.26 1209.5C1002.89 1210.44 1004.73 1210.93 1006.6 1210.92C1010.25 1210.92 1014.06 1210.33 1017.79 1210.33C1022.66 1210.48 1027.43 1211.76 1031.72 1214.07C1036.02 1216.38 1039.72 1219.65 1042.53 1223.63C1048.13 1231.68 1051.26 1241.19 1051.51 1250.99C1052.51 1259.8 1050.08 1268.65 1044.73 1275.73C1036.26 1285.64 1020.92 1285.89 1007.79 1285.47H995.756C992.913 1285.84 990.035 1285.11 987.717 1283.42C985.399 1281.73 983.818 1279.22 983.299 1276.4C978.384 1264.46 969.487 1252.51 975.588 1240.48C981.689 1228.45 984.146 1214.05 991.434 1205.58Z" fill="#FBB9AD"/>
<path d="M754.927 1331.81V1242.01C754.925 1238.5 755.983 1235.06 757.964 1232.16C759.945 1229.26 762.755 1227.02 766.028 1225.74L988.468 1137.22C999.992 1132.64 1023.47 1146.37 1023.47 1158.73L1012.53 1366.54C1012.54 1370.01 1011.51 1373.4 1009.58 1376.28C1007.65 1379.17 1004.9 1381.41 1001.69 1382.72L789.84 1480.31C778.231 1485.06 754.588 1471.33 754.588 1458.88L754.927 1331.81Z" fill="#9B1516"/>
<path d="M754.927 1331.81V1242.01C754.846 1238.49 755.863 1235.03 757.837 1232.12C759.811 1229.2 762.645 1226.97 765.943 1225.74L988.468 1137.22C999.993 1132.64 1023.47 1146.37 1023.47 1158.73L1012.53 1366.54C1012.53 1370.01 1011.5 1373.39 1009.56 1376.27C1007.63 1379.15 1004.89 1381.4 1001.69 1382.72L789.84 1480.31C778.315 1485.06 754.673 1471.33 754.673 1458.88L754.927 1331.81Z" fill="url(#paint4_linear)"/>
<path d="M766.028 1337.06V1247.26C766.021 1243.74 767.076 1240.29 769.056 1237.37C771.036 1234.46 773.849 1232.21 777.129 1230.91L999.569 1142.47C1002.23 1141.4 1005.11 1141.01 1007.96 1141.31C1010.81 1141.62 1013.54 1142.61 1015.92 1144.22C1018.29 1145.82 1020.24 1147.99 1021.58 1150.52C1022.93 1153.05 1023.63 1155.87 1023.63 1158.73V1372.05C1023.63 1375.51 1022.6 1378.9 1020.67 1381.78C1018.73 1384.66 1015.99 1386.9 1012.79 1388.23L790.349 1480.57C788.213 1481.45 785.923 1481.91 783.61 1481.91C781.298 1481.9 779.009 1481.45 776.875 1480.56C774.741 1479.67 772.803 1478.36 771.175 1476.72C769.546 1475.08 768.258 1473.13 767.384 1470.99C766.483 1468.88 766.021 1466.6 766.028 1464.3V1337.06Z" fill="#9B1516"/>
<path d="M766.028 1247.26L918.559 1325.71L1019.4 1147.81C1019.4 1147.81 1023.3 1145.52 1023.3 1158.73V1372.05L766.028 1452.02V1247.26Z" fill="url(#paint5_linear)"/>
<path d="M713.151 961.687C711.598 964.04 709.591 966.061 707.249 967.631C704.907 969.202 702.276 970.291 699.508 970.836C684.425 974.055 675.273 966.77 667.647 984.306C665.187 990.31 664.425 996.874 665.443 1003.28C665.443 1004.64 670.189 1019.63 671.375 1018.87C667.477 1021.67 664.426 1014.04 660.19 1011.84C655.953 1009.64 649.682 1016.07 650.699 1021.58C652.467 1026.99 655.623 1031.84 659.851 1035.64C666.625 1044.05 670.358 1054.5 670.443 1065.29C670.443 1067.75 669.511 1071.05 666.969 1071.14C664.426 1071.22 661.63 1067.67 659.681 1066.31C656.577 1064.23 653.319 1062.39 649.936 1060.8C639.598 1055.89 624.006 1054.37 615.363 1047.42C610.908 1043.71 607.906 1038.55 606.889 1032.85C606.889 1031.49 606.889 1016.92 609.431 1017.68C606.864 1016.92 604.475 1015.65 602.403 1013.96C600.331 1012.26 598.618 1010.17 597.363 1007.8C596.109 1005.43 595.339 1002.84 595.097 1000.18C594.856 997.51 595.148 994.822 595.957 992.269C597.095 988.682 599.173 985.464 601.974 982.95C591.381 968.21 596.296 946.353 609.007 933.392C622.65 921.203 639.915 913.823 658.156 912.383C677.972 909.259 698.236 910.59 717.473 916.28C724.147 918.125 730.318 921.456 735.522 926.022C738.066 928.323 740.018 931.202 741.213 934.417C742.408 937.631 742.81 941.087 742.386 944.49C741.267 944.945 740.039 945.068 738.851 944.843C737.664 944.617 736.567 944.053 735.692 943.219C736.813 946.275 736.676 949.651 735.309 952.605C733.943 955.559 731.459 957.851 728.404 958.976C726.116 959.808 723.633 959.946 721.266 959.373C718.9 958.801 716.755 957.543 715.1 955.757C714.93 957.86 714.262 959.893 713.151 961.687Z" fill="#473F47"/>
<path d="M722.811 1059.19L720.269 1059.96C719.507 1060.03 718.792 1060.36 718.235 1060.89C718.068 1061.47 718.068 1062.09 718.235 1062.67C713.258 1068.06 710.088 1074.87 709.168 1082.15L704.338 1104.69C696.182 1090.28 690.025 1074.83 686.035 1058.77C698.246 1060.18 710.571 1060.32 722.811 1059.19Z" fill="#DC9F95"/>
<path d="M735.692 1332.65C737.118 1330.9 738.955 1329.53 741.039 1328.66C743.123 1327.79 745.391 1327.44 747.64 1327.66C750.194 1328.94 752.632 1330.44 754.927 1332.15C757.09 1333.11 759.424 1333.63 761.791 1333.67C771.373 1334.36 780.992 1333 790.009 1329.69C794.56 1327.47 799.525 1326.23 804.584 1326.05C807.609 1326.64 810.47 1327.87 812.971 1329.67C815.472 1331.47 817.554 1333.79 819.075 1336.47C823.584 1342.93 826.121 1350.57 826.377 1358.45C826.632 1366.33 824.596 1374.11 820.515 1380.86C816.73 1386.34 811.745 1390.89 805.94 1394.16C793.073 1400.89 778.774 1404.44 764.249 1404.49C749.843 1405.17 735.183 1404.49 720.862 1405.17C717.47 1405.79 713.968 1405.31 710.863 1403.82C709.147 1402.22 707.819 1400.25 706.982 1398.06C706.145 1395.88 705.82 1393.53 706.033 1391.19C705.525 1380.26 703.66 1371.03 710.016 1361.8C718.004 1351.59 726.577 1341.86 735.692 1332.65Z" fill="#FBB9AD"/>
<path d="M576.552 1146.28C576.552 1146.28 417.328 1354.43 467.663 1427.96C517.998 1501.49 730.353 1415.84 730.353 1415.84L709.677 1354.93C709.677 1354.93 560.537 1373.83 559.435 1357.14C558.333 1340.45 654.004 1244.89 654.004 1244.89C654.004 1244.89 671.121 1105.02 576.552 1146.28Z" fill="white"/>
<path fill-rule="evenodd" clip-rule="evenodd" d="M2186.45 1208.64L2362.79 1395.42L2185.13 1339.05L2116.26 1266.35L2186.45 1208.64ZM2215.62 1044H2362.79L2104.64 1256.06L2030.95 1354.04L2041.69 1186.94L2215.62 1044Z" fill="#9D0102"/>
<path fill-rule="evenodd" clip-rule="evenodd" d="M2030.95 1044V1175.98L2101.13 1118.27L2030.95 1044Z" fill="#E13F00"/>
<path fill-rule="evenodd" clip-rule="evenodd" d="M2026.35 1092.09V1044L2002 1068.16L2026.35 1092.09Z" fill="#E13F00"/>
<path d="M1792.03 540.423C1791.64 545.778 1789.66 549.993 1786.08 553.069C1782.53 556.146 1777.83 557.684 1772 557.684C1765.62 557.684 1760.59 555.542 1756.93 551.258C1753.28 546.951 1751.46 541.049 1751.46 533.553V530.511C1751.46 525.726 1752.3 521.51 1753.99 517.864C1755.67 514.218 1758.08 511.427 1761.2 509.49C1764.34 507.531 1767.99 506.551 1772.14 506.551C1777.88 506.551 1782.5 508.089 1786.01 511.165C1789.52 514.241 1791.55 518.559 1792.1 524.119H1781.84C1781.59 520.906 1780.69 518.582 1779.14 517.146C1777.62 515.688 1775.28 514.959 1772.14 514.959C1768.72 514.959 1766.15 516.189 1764.45 518.65C1762.76 521.089 1761.89 524.882 1761.85 530.032V533.792C1761.85 539.17 1762.66 543.1 1764.27 545.584C1765.92 548.068 1768.49 549.31 1772 549.31C1775.17 549.31 1777.52 548.592 1779.07 547.156C1780.65 545.698 1781.55 543.453 1781.77 540.423H1792.03ZM1820.26 553.24C1817.82 556.202 1814.45 557.684 1810.14 557.684C1806.18 557.684 1803.15 556.544 1801.05 554.266C1798.98 551.987 1797.92 548.649 1797.87 544.251V520.018H1807.75V543.909C1807.75 547.76 1809.51 549.686 1813.01 549.686C1816.36 549.686 1818.67 548.523 1819.92 546.199V520.018H1829.83V557H1820.53L1820.26 553.24ZM1857.31 546.78C1857.31 545.573 1856.71 544.627 1855.5 543.943C1854.32 543.237 1852.4 542.61 1849.76 542.063C1840.96 540.218 1836.56 536.481 1836.56 530.853C1836.56 527.571 1837.92 524.837 1840.63 522.649C1843.37 520.439 1846.93 519.334 1851.33 519.334C1856.02 519.334 1859.77 520.439 1862.58 522.649C1865.4 524.86 1866.81 527.731 1866.81 531.263H1856.94C1856.94 529.85 1856.48 528.688 1855.57 527.776C1854.66 526.842 1853.23 526.375 1851.3 526.375C1849.63 526.375 1848.35 526.751 1847.43 527.503C1846.52 528.255 1846.07 529.212 1846.07 530.374C1846.07 531.468 1846.58 532.356 1847.6 533.04C1848.65 533.701 1850.41 534.282 1852.87 534.783C1855.33 535.262 1857.4 535.809 1859.09 536.424C1864.31 538.338 1866.92 541.653 1866.92 546.37C1866.92 549.743 1865.47 552.477 1862.58 554.573C1859.68 556.647 1855.94 557.684 1851.36 557.684C1848.27 557.684 1845.51 557.137 1843.09 556.043C1840.7 554.926 1838.82 553.411 1837.45 551.497C1836.09 549.56 1835.4 547.475 1835.4 545.242H1844.77C1844.86 546.997 1845.51 548.341 1846.72 549.275C1847.92 550.21 1849.54 550.677 1851.57 550.677C1853.46 550.677 1854.88 550.324 1855.84 549.617C1856.82 548.888 1857.31 547.942 1857.31 546.78ZM1885.13 510.926V520.018H1891.46V527.264H1885.13V545.721C1885.13 547.088 1885.4 548.068 1885.92 548.66C1886.44 549.253 1887.45 549.549 1888.93 549.549C1890.02 549.549 1890.99 549.469 1891.83 549.31V556.795C1889.9 557.387 1887.9 557.684 1885.85 557.684C1878.92 557.684 1875.39 554.186 1875.26 547.19V527.264H1869.86V520.018H1875.26V510.926H1885.13ZM1894.4 538.167C1894.4 534.498 1895.1 531.229 1896.52 528.357C1897.93 525.486 1899.96 523.265 1902.6 521.692C1905.27 520.12 1908.35 519.334 1911.86 519.334C1916.85 519.334 1920.92 520.861 1924.06 523.914C1927.23 526.967 1929 531.115 1929.36 536.355L1929.43 538.885C1929.43 544.559 1927.85 549.116 1924.68 552.557C1921.51 555.975 1917.26 557.684 1911.93 557.684C1906.6 557.684 1902.34 555.975 1899.15 552.557C1895.98 549.139 1894.4 544.49 1894.4 538.611V538.167ZM1904.27 538.885C1904.27 542.394 1904.94 545.083 1906.26 546.951C1907.58 548.797 1909.47 549.72 1911.93 549.72C1914.32 549.72 1916.19 548.808 1917.54 546.985C1918.88 545.14 1919.55 542.2 1919.55 538.167C1919.55 534.726 1918.88 532.06 1917.54 530.169C1916.19 528.278 1914.3 527.332 1911.86 527.332C1909.45 527.332 1907.58 528.278 1906.26 530.169C1904.94 532.037 1904.27 534.943 1904.27 538.885ZM1944.78 520.018L1945.08 524.153C1947.71 520.94 1951.25 519.334 1955.71 519.334C1960.48 519.334 1963.75 521.214 1965.52 524.974C1968.12 521.214 1971.82 519.334 1976.63 519.334C1980.64 519.334 1983.63 520.507 1985.59 522.854C1987.55 525.179 1988.53 528.688 1988.53 533.382V557H1978.62V533.416C1978.62 531.32 1978.21 529.793 1977.38 528.836C1976.56 527.856 1975.12 527.366 1973.04 527.366C1970.08 527.366 1968.03 528.779 1966.89 531.604L1966.93 557H1957.05V533.45C1957.05 531.308 1956.63 529.759 1955.78 528.802C1954.94 527.845 1953.5 527.366 1951.48 527.366C1948.67 527.366 1946.65 528.528 1945.39 530.853V557H1935.51V520.018H1944.78ZM2053.3 540.423C2052.91 545.778 2050.93 549.993 2047.35 553.069C2043.8 556.146 2039.1 557.684 2033.27 557.684C2026.89 557.684 2021.86 555.542 2018.2 551.258C2014.55 546.951 2012.73 541.049 2012.73 533.553V530.511C2012.73 525.726 2013.57 521.51 2015.26 517.864C2016.94 514.218 2019.35 511.427 2022.47 509.49C2025.61 507.531 2029.26 506.551 2033.41 506.551C2039.15 506.551 2043.77 508.089 2047.28 511.165C2050.79 514.241 2052.82 518.559 2053.37 524.119H2043.11C2042.86 520.906 2041.96 518.582 2040.41 517.146C2038.89 515.688 2036.55 514.959 2033.41 514.959C2029.99 514.959 2027.42 516.189 2025.71 518.65C2024.03 521.089 2023.16 524.882 2023.12 530.032V533.792C2023.12 539.17 2023.93 543.1 2025.54 545.584C2027.18 548.068 2029.76 549.31 2033.27 549.31C2036.44 549.31 2038.79 548.592 2040.34 547.156C2041.92 545.698 2042.82 543.453 2043.04 540.423H2053.3ZM2057.84 538.167C2057.84 534.498 2058.55 531.229 2059.96 528.357C2061.38 525.486 2063.4 523.265 2066.05 521.692C2068.71 520.12 2071.8 519.334 2075.31 519.334C2080.3 519.334 2084.37 520.861 2087.51 523.914C2090.68 526.967 2092.44 531.115 2092.81 536.355L2092.88 538.885C2092.88 544.559 2091.29 549.116 2088.13 552.557C2084.96 555.975 2080.71 557.684 2075.38 557.684C2070.05 557.684 2065.78 555.975 2062.59 552.557C2059.43 549.139 2057.84 544.49 2057.84 538.611V538.167ZM2067.72 538.885C2067.72 542.394 2068.38 545.083 2069.7 546.951C2071.03 548.797 2072.92 549.72 2075.38 549.72C2077.77 549.72 2079.64 548.808 2080.98 546.985C2082.33 545.14 2083 542.2 2083 538.167C2083 534.726 2082.33 532.06 2080.98 530.169C2079.64 528.278 2077.75 527.332 2075.31 527.332C2072.89 527.332 2071.03 528.278 2069.7 530.169C2068.38 532.037 2067.72 534.943 2067.72 538.885ZM2097.42 538.235C2097.42 532.47 2098.71 527.879 2101.29 524.461C2103.88 521.043 2107.43 519.334 2111.92 519.334C2115.52 519.334 2118.49 520.678 2120.84 523.367V504.5H2130.75V557H2121.83L2121.35 553.069C2118.89 556.146 2115.72 557.684 2111.85 557.684C2107.5 557.684 2104 555.975 2101.35 552.557C2098.73 549.116 2097.42 544.342 2097.42 538.235ZM2107.3 538.953C2107.3 542.417 2107.91 545.071 2109.11 546.917C2110.32 548.763 2112.08 549.686 2114.38 549.686C2117.43 549.686 2119.58 548.398 2120.84 545.823V531.229C2119.61 528.654 2117.48 527.366 2114.45 527.366C2109.68 527.366 2107.3 531.229 2107.3 538.953ZM2155.43 557.684C2150 557.684 2145.58 556.02 2142.17 552.693C2138.77 549.367 2137.07 544.935 2137.07 539.397V538.44C2137.07 534.726 2137.79 531.411 2139.23 528.494C2140.66 525.555 2142.69 523.299 2145.31 521.727C2147.95 520.132 2150.96 519.334 2154.33 519.334C2159.39 519.334 2163.37 520.929 2166.26 524.119C2169.18 527.309 2170.64 531.832 2170.64 537.688V541.722H2147.09C2147.41 544.137 2148.36 546.074 2149.96 547.532C2151.58 548.991 2153.62 549.72 2156.08 549.72C2159.88 549.72 2162.86 548.341 2165 545.584L2169.85 551.019C2168.37 553.115 2166.36 554.756 2163.83 555.94C2161.31 557.103 2158.5 557.684 2155.43 557.684ZM2154.3 527.332C2152.34 527.332 2150.74 527.993 2149.51 529.314C2148.31 530.636 2147.53 532.527 2147.19 534.988H2160.93V534.202C2160.88 532.015 2160.29 530.328 2159.15 529.144C2158.01 527.936 2156.4 527.332 2154.3 527.332ZM1784.51 620.782H1776.34V639H1766.09V589.234H1784.58C1790.46 589.234 1794.99 590.545 1798.18 593.165C1801.37 595.785 1802.97 599.488 1802.97 604.273C1802.97 607.669 1802.23 610.506 1800.74 612.784C1799.29 615.04 1797.06 616.84 1794.08 618.185L1804.85 638.521V639H1793.84L1784.51 620.782ZM1776.34 612.477H1784.61C1787.19 612.477 1789.18 611.827 1790.59 610.528C1792.01 609.207 1792.71 607.395 1792.71 605.094C1792.71 602.747 1792.04 600.901 1790.7 599.557C1789.37 598.212 1787.33 597.54 1784.58 597.54H1776.34V612.477ZM1827.17 639.684C1821.74 639.684 1817.32 638.02 1813.9 634.693C1810.51 631.367 1808.81 626.935 1808.81 621.397V620.44C1808.81 616.726 1809.53 613.411 1810.96 610.494C1812.4 607.555 1814.43 605.299 1817.05 603.727C1819.69 602.132 1822.7 601.334 1826.07 601.334C1831.13 601.334 1835.11 602.929 1838 606.119C1840.92 609.309 1842.38 613.832 1842.38 619.688V623.722H1818.83C1819.14 626.137 1820.1 628.074 1821.7 629.532C1823.31 630.991 1825.35 631.72 1827.81 631.72C1831.62 631.72 1834.59 630.341 1836.74 627.584L1841.59 633.019C1840.11 635.115 1838.1 636.756 1835.57 637.94C1833.04 639.103 1830.24 639.684 1827.17 639.684ZM1826.04 609.332C1824.08 609.332 1822.48 609.993 1821.25 611.314C1820.04 612.636 1819.27 614.527 1818.93 616.988H1832.67V616.202C1832.62 614.015 1832.03 612.328 1830.89 611.144C1829.75 609.936 1828.13 609.332 1826.04 609.332ZM1857.28 602.018L1857.58 606.153C1860.21 602.94 1863.75 601.334 1868.21 601.334C1872.98 601.334 1876.25 603.214 1878.02 606.974C1880.62 603.214 1884.32 601.334 1889.13 601.334C1893.14 601.334 1896.13 602.507 1898.09 604.854C1900.05 607.179 1901.03 610.688 1901.03 615.382V639H1891.12V615.416C1891.12 613.32 1890.71 611.793 1889.88 610.836C1889.06 609.856 1887.62 609.366 1885.54 609.366C1882.58 609.366 1880.53 610.779 1879.39 613.604L1879.43 639H1869.55V615.45C1869.55 613.308 1869.13 611.759 1868.28 610.802C1867.44 609.845 1866 609.366 1863.98 609.366C1861.17 609.366 1859.15 610.528 1857.89 612.853V639H1848.01V602.018H1857.28ZM1925.67 639.684C1920.25 639.684 1915.83 638.02 1912.41 634.693C1909.01 631.367 1907.32 626.935 1907.32 621.397V620.44C1907.32 616.726 1908.03 613.411 1909.47 610.494C1910.91 607.555 1912.93 605.299 1915.55 603.727C1918.2 602.132 1921.2 601.334 1924.58 601.334C1929.64 601.334 1933.61 602.929 1936.51 606.119C1939.42 609.309 1940.88 613.832 1940.88 619.688V623.722H1917.33C1917.65 626.137 1918.61 628.074 1920.2 629.532C1921.82 630.991 1923.86 631.72 1926.32 631.72C1930.13 631.72 1933.1 630.341 1935.24 627.584L1940.09 633.019C1938.61 635.115 1936.61 636.756 1934.08 637.94C1931.55 639.103 1928.75 639.684 1925.67 639.684ZM1924.54 609.332C1922.58 609.332 1920.99 609.993 1919.76 611.314C1918.55 612.636 1917.78 614.527 1917.43 616.988H1931.17V616.202C1931.13 614.015 1930.54 612.328 1929.4 611.144C1928.26 609.936 1926.64 609.332 1924.54 609.332ZM1944.98 620.235C1944.98 614.47 1946.27 609.879 1948.84 606.461C1951.44 603.043 1954.99 601.334 1959.47 601.334C1963.07 601.334 1966.05 602.678 1968.4 605.367V586.5H1978.31V639H1969.39L1968.91 635.069C1966.45 638.146 1963.28 639.684 1959.41 639.684C1955.05 639.684 1951.56 637.975 1948.91 634.557C1946.29 631.116 1944.98 626.342 1944.98 620.235ZM1954.86 620.953C1954.86 624.417 1955.46 627.071 1956.67 628.917C1957.88 630.763 1959.63 631.686 1961.94 631.686C1964.99 631.686 1967.14 630.398 1968.4 627.823V613.229C1967.17 610.654 1965.03 609.366 1962 609.366C1957.24 609.366 1954.86 613.229 1954.86 620.953ZM1996.39 639H1986.48V602.018H1996.39V639ZM1985.9 592.447C1985.9 590.966 1986.39 589.747 1987.37 588.79C1988.37 587.833 1989.72 587.354 1991.43 587.354C1993.12 587.354 1994.46 587.833 1995.47 588.79C1996.47 589.747 1996.97 590.966 1996.97 592.447C1996.97 593.951 1996.46 595.182 1995.43 596.139C1994.43 597.096 1993.1 597.574 1991.43 597.574C1989.77 597.574 1988.42 597.096 1987.4 596.139C1986.4 595.182 1985.9 593.951 1985.9 592.447ZM2025.99 639C2025.53 638.111 2025.2 637.006 2025 635.685C2022.6 638.351 2019.49 639.684 2015.67 639.684C2012.04 639.684 2009.04 638.635 2006.64 636.539C2004.27 634.443 2003.09 631.799 2003.09 628.609C2003.09 624.69 2004.53 621.682 2007.43 619.586C2010.35 617.49 2014.55 616.43 2020.04 616.407H2024.59V614.288C2024.59 612.579 2024.14 611.212 2023.25 610.187C2022.39 609.161 2021.01 608.648 2019.12 608.648C2017.45 608.648 2016.14 609.047 2015.19 609.845C2014.25 610.642 2013.79 611.736 2013.79 613.126H2003.91C2003.91 610.984 2004.57 609.002 2005.89 607.179C2007.21 605.356 2009.08 603.932 2011.5 602.906C2013.91 601.858 2016.62 601.334 2019.63 601.334C2024.19 601.334 2027.8 602.485 2030.47 604.786C2033.15 607.065 2034.5 610.278 2034.5 614.425V630.455C2034.52 633.964 2035.01 636.619 2035.97 638.419V639H2025.99ZM2017.82 632.13C2019.28 632.13 2020.62 631.811 2021.85 631.173C2023.08 630.512 2023.99 629.635 2024.59 628.541V622.184H2020.9C2015.95 622.184 2013.32 623.893 2013 627.311L2012.97 627.892C2012.97 629.122 2013.4 630.136 2014.26 630.934C2015.13 631.731 2016.32 632.13 2017.82 632.13ZM2053.91 592.926V602.018H2060.24V609.264H2053.91V627.721C2053.91 629.088 2054.18 630.068 2054.7 630.66C2055.22 631.253 2056.23 631.549 2057.71 631.549C2058.8 631.549 2059.77 631.469 2060.61 631.31V638.795C2058.68 639.387 2056.68 639.684 2054.63 639.684C2047.7 639.684 2044.17 636.186 2044.04 629.19V609.264H2038.63V602.018H2044.04V592.926H2053.91ZM2076.16 639H2066.25V602.018H2076.16V639ZM2065.67 592.447C2065.67 590.966 2066.16 589.747 2067.14 588.79C2068.14 587.833 2069.5 587.354 2071.21 587.354C2072.89 587.354 2074.24 587.833 2075.24 588.79C2076.24 589.747 2076.75 590.966 2076.75 592.447C2076.75 593.951 2076.23 595.182 2075.21 596.139C2074.2 597.096 2072.87 597.574 2071.21 597.574C2069.54 597.574 2068.2 597.096 2067.17 596.139C2066.17 595.182 2065.67 593.951 2065.67 592.447ZM2082.79 620.167C2082.79 616.498 2083.5 613.229 2084.91 610.357C2086.33 607.486 2088.35 605.265 2091 603.692C2093.66 602.12 2096.75 601.334 2100.26 601.334C2105.25 601.334 2109.32 602.861 2112.46 605.914C2115.63 608.967 2117.4 613.115 2117.76 618.355L2117.83 620.885C2117.83 626.559 2116.25 631.116 2113.08 634.557C2109.91 637.975 2105.66 639.684 2100.33 639.684C2095 639.684 2090.74 637.975 2087.55 634.557C2084.38 631.139 2082.79 626.49 2082.79 620.611V620.167ZM2092.67 620.885C2092.67 624.394 2093.33 627.083 2094.66 628.951C2095.98 630.797 2097.87 631.72 2100.33 631.72C2102.72 631.72 2104.59 630.808 2105.93 628.985C2107.28 627.14 2107.95 624.2 2107.95 620.167C2107.95 616.726 2107.28 614.06 2105.93 612.169C2104.59 610.278 2102.7 609.332 2100.26 609.332C2097.85 609.332 2095.98 610.278 2094.66 612.169C2093.33 614.037 2092.67 616.943 2092.67 620.885ZM2133 602.018L2133.31 606.29C2135.96 602.986 2139.5 601.334 2143.94 601.334C2147.86 601.334 2150.78 602.485 2152.69 604.786C2154.61 607.088 2155.59 610.528 2155.63 615.108V639H2145.75V615.348C2145.75 613.251 2145.3 611.736 2144.39 610.802C2143.48 609.845 2141.96 609.366 2139.84 609.366C2137.06 609.366 2134.98 610.551 2133.59 612.921V639H2123.71V602.018H2133Z" fill="black"/>
</g>
<defs>
<linearGradient id="paint0_linear" x1="1556.73" y1="1402.12" x2="1682.58" y2="2471.91" gradientUnits="userSpaceOnUse">
<stop offset="0.01"/>
<stop offset="0.08" stop-opacity="0.69"/>
<stop offset="0.21" stop-opacity="0.32"/>
<stop offset="1" stop-opacity="0"/>
</linearGradient>
<linearGradient id="paint1_linear" x1="119851" y1="60420.7" x2="121184" y2="33923.7" gradientUnits="userSpaceOnUse">
<stop offset="0.01"/>
<stop offset="0.08" stop-opacity="0.69"/>
<stop offset="0.21" stop-opacity="0.32"/>
<stop offset="1" stop-opacity="0"/>
</linearGradient>
<linearGradient id="paint2_linear" x1="313639" y1="-49773.7" x2="315538" y2="-16289.1" gradientUnits="userSpaceOnUse">
<stop offset="0.01"/>
<stop offset="0.08" stop-opacity="0.69"/>
<stop offset="0.21" stop-opacity="0.32"/>
<stop offset="1" stop-opacity="0"/>
</linearGradient>
<linearGradient id="paint3_linear" x1="134735" y1="-48073.8" x2="151759" y2="-31316.5" gradientUnits="userSpaceOnUse">
<stop offset="0.01"/>
<stop offset="0.08" stop-opacity="0.69"/>
<stop offset="0.21" stop-opacity="0.32"/>
<stop offset="1" stop-opacity="0"/>
</linearGradient>
<linearGradient id="paint4_linear" x1="709.168" y1="1108.07" x2="1297.92" y2="1765.54" gradientUnits="userSpaceOnUse">
<stop offset="0.01"/>
<stop offset="0.13" stop-opacity="0.69"/>
<stop offset="0.25" stop-opacity="0.32"/>
<stop offset="1" stop-opacity="0"/>
</linearGradient>
<linearGradient id="paint5_linear" x1="32667.2" y1="58705.8" x2="36468.2" y2="37416.3" gradientUnits="userSpaceOnUse">
<stop offset="0.01"/>
<stop offset="0.13" stop-opacity="0.69"/>
<stop offset="0.25" stop-opacity="0.32"/>
<stop offset="1" stop-opacity="0"/>
</linearGradient>
<clipPath id="clip0">
<rect width="3302" height="2488" fill="white"/>
</clipPath>
</defs>
</svg>
